<?xml version="1.0" encoding="UTF-8"?>
<svg width="71px" height="24px" viewBox="0 0 71 24" version="1.1" xmlns="http://www.w3.org/2000/svg" xmlns:xlink="http://www.w3.org/1999/xlink">
    <!-- Generator: Sketch 54.1 (76490) - https://sketchapp.com -->
    <title>adobe</title>
    <desc>Created with Sketch.</desc>
    <g id="Page-1" stroke="none" stroke-width="1" fill="none" fill-rule="evenodd">
        <g id="ν† ν”½μ„ΈνΈ" transform="translate(-9.000000, -20.000000)" fill="#000000" fill-rule="nonzero">
            <g id="adobe" transform="translate(9.000000, 20.000000)">
                <path d="M67.0582995,13.6453768 C67.0795652,11.3232995 66.3983768,9.69544444 65.0939662,9.69544444 C63.6060531,9.69544444 62.9732271,11.8741498 62.9282947,13.6453768 L67.0586425,13.6453768 L67.0582995,13.6453768 Z M62.9128599,16.5529469 C62.9608792,19.5438647 64.5338551,20.517971 66.4858406,20.517971 C67.7233671,20.517971 68.7839082,20.2428889 69.5673092,19.948599 L70.1215894,22.9065894 C69.0308647,23.3764928 67.3467585,23.6714686 65.7319372,23.6714686 C61.3186184,23.6714686 58.9083913,20.6555121 58.9083913,15.5047536 C58.9083913,9.97635749 61.7038019,6.65616425 65.3553285,6.65616425 C68.8830338,6.65616425 70.8381063,9.59048792 70.8381063,14.3804155 C70.8381063,15.476971 70.7924879,16.0947053 70.7201159,16.5762705 L62.9121739,16.5529469 L62.9128599,16.5529469 Z M49.0249855,17.5853623 C49.0249855,17.9983285 49.1004444,18.3845411 49.1879082,18.6428164 C49.6005314,20.0261159 50.2992126,20.3663671 50.8596667,20.3663671 C52.4511643,20.3663671 53.0925652,18.3505845 53.0925652,15.1271159 C53.0925652,12.1927923 52.4144638,10.1718647 50.8418309,10.1718647 C50.0618599,10.1718647 49.4046812,11.0190628 49.1789903,11.928 C49.1001014,12.214401 49.0253285,12.6599517 49.0253285,12.9672754 L49.0253285,17.5857053 L49.0249855,17.5853623 Z M44.9124734,0.0651690821 L49.0249855,0.0651690821 L49.0249855,8.68052174 L49.0908406,8.68052174 C49.9009952,7.40903865 50.979715,6.68291787 52.5461739,6.68291787 C55.6461643,6.68291787 57.2040483,10.2078792 57.2040483,14.8170483 C57.2040483,20.6404203 54.880942,23.7579034 51.8711594,23.7579034 C50.4374396,23.7579034 49.4821981,23.1219903 48.6205942,21.511285 L48.5338164,21.511285 L48.3050386,23.4903671 L44.7745894,23.4903671 C44.8346135,22.1194155 44.9124734,20.2422029 44.9124734,18.7604638 L44.9124734,0.0651690821 L44.9124734,0.0651690821 Z M36.5135507,20.6044058 C38.0830966,20.6044058 38.4720531,17.6460725 38.4720531,15.196744 C38.4720531,12.8678068 38.0830966,9.83401449 36.4449517,9.83401449 C34.7093961,9.83401449 34.3444493,12.8684928 34.3444493,15.197087 C34.3444493,18.0079324 34.8026908,20.6047488 36.4778792,20.6047488 L36.5138937,20.6047488 L36.5135507,20.6044058 Z M36.4353478,23.7585894 C32.6452512,23.7585894 30.2682947,20.7162222 30.2682947,15.2694589 C30.2682947,9.32535266 33.3202657,6.68326087 36.5313865,6.68326087 C40.2700338,6.68326087 42.6140628,9.87414493 42.6140628,15.1730773 C42.6140628,21.9815314 38.9422995,23.7582464 36.4689614,23.7582464 L36.4356908,23.7582464 L36.4353478,23.7585894 Z M23.8371353,13.2989517 C23.8371353,12.994715 23.8371353,12.639029 23.7764251,12.3135266 C23.6169324,11.1867874 23.0173768,10.1718647 22.0532174,10.1718647 C20.3992947,10.1718647 19.7908213,12.5546522 19.7908213,15.3414879 C19.7908213,18.5436908 20.658599,20.3663671 21.9962802,20.3663671 C22.6074976,20.3663671 23.3123527,20.0528696 23.6951353,18.7090145 C23.78843,18.4414783 23.8367923,18.0827053 23.8367923,17.6639082 L23.8367923,13.2986087 L23.8371353,13.2989517 Z M27.9489614,0.064826087 L27.9489614,18.7604638 C27.9489614,20.2422029 28.0244203,22.0652222 28.0847874,23.4903671 L24.5334155,23.4903671 L24.3015507,21.5888019 L24.2171739,21.5888019 C23.6203623,22.7611594 22.3224686,23.7579034 20.7707585,23.7579034 C17.3696184,23.7579034 15.6827681,20.0045072 15.6827681,15.265343 C15.6827681,9.49067633 18.1979517,6.68257488 20.9395121,6.68257488 C22.3732319,6.68257488 23.3013768,7.38468599 23.7685362,8.40029469 L23.8378213,8.40029469 L23.8378213,0.0651690821 L27.9493043,0.0651690821 L27.9489614,0.064826087 Z M9.24028986,14.7865217 L8.40681159,9.84396135 C8.16877295,8.41881643 7.86487923,6.19209179 7.6326715,4.64964251 L7.54246377,4.64964251 C7.2989372,6.20341063 6.958,8.49358937 6.70795652,9.85562319 L5.80999517,14.7868647 L9.24028986,14.7868647 L9.24028986,14.7865217 Z M5.36101449,18.0079324 L4.27612077,23.4937971 L0.269937198,23.4937971 L5.26737681,0.670898551 L10.1776957,0.670898551 L14.7175797,23.4937971 L10.6897874,23.4937971 L9.62924638,18.0079324 L5.36101449,18.0079324 L5.36101449,18.0079324 Z" id="Shape"></path>
            </g>
        </g>
    </g>
</svg>