<?xml version="1.0" encoding="UTF-8"?>
<svg width="71px" height="23px" viewBox="0 0 71 23" version="1.1" xmlns="http://www.w3.org/2000/svg" xmlns:xlink="http://www.w3.org/1999/xlink">
    <!-- Generator: Sketch 54.1 (76490) - https://sketchapp.com -->
    <title>airbnb</title>
    <desc>Created with Sketch.</desc>
    <g id="Page-1" stroke="none" stroke-width="1" fill="none" fill-rule="evenodd">
        <g id="ν† ν”½μ„ΈνΈ" transform="translate(-10.000000, -55.000000)" fill="#000000" fill-rule="nonzero">
            <g id="airbnb" transform="translate(10.000000, 55.000000)">
                <path d="M37.3137072,5.5517134 C37.3137072,6.34797508 36.6722741,6.9894081 35.8760125,6.9894081 C35.0797508,6.9894081 34.4383178,6.34797508 34.4383178,5.5517134 C34.4383178,4.75545171 35.0576324,4.11401869 35.8760125,4.11401869 C36.6943925,4.13613707 37.3137072,4.77757009 37.3137072,5.5517134 Z M31.3859813,8.44922118 L31.3859813,8.80311526 C31.3859813,8.80311526 30.7003115,7.91838006 29.2404984,7.91838006 C26.829595,7.91838006 24.9495327,9.75420561 24.9495327,12.2978193 C24.9495327,14.8193146 26.8074766,16.6772586 29.2404984,16.6772586 C30.7224299,16.6772586 31.3859813,15.770405 31.3859813,15.770405 L31.3859813,16.1464174 C31.3859813,16.3233645 31.5186916,16.4560748 31.6956386,16.4560748 L33.4872274,16.4560748 L33.4872274,8.13956386 L31.6956386,8.13956386 C31.5186916,8.13956386 31.3859813,8.29439252 31.3859813,8.44922118 Z M31.3859813,13.7797508 C31.0542056,14.2663551 30.3906542,14.6866044 29.5943925,14.6866044 C28.1788162,14.6866044 27.0950156,13.8018692 27.0950156,12.2978193 C27.0950156,10.7937695 28.1788162,9.90903427 29.5943925,9.90903427 C30.3685358,9.90903427 31.076324,10.3514019 31.3859813,10.8158879 L31.3859813,13.7797508 Z M34.8143302,8.13956386 L36.9376947,8.13956386 L36.9376947,16.4560748 L34.8143302,16.4560748 L34.8143302,8.13956386 Z M66.5320872,7.91838006 C65.0722741,7.91838006 64.3866044,8.80311526 64.3866044,8.80311526 L64.3866044,4.13613707 L62.2632399,4.13613707 L62.2632399,16.4560748 L64.0548287,16.4560748 C64.2317757,16.4560748 64.364486,16.3012461 64.364486,16.1464174 L64.364486,15.770405 C64.364486,15.770405 65.0501558,16.6772586 66.5099688,16.6772586 C68.9208723,16.6772586 70.8009346,14.8193146 70.8009346,12.2978193 C70.8009346,9.77632399 68.9208723,7.91838006 66.5320872,7.91838006 L66.5320872,7.91838006 Z M66.1781931,14.664486 C65.3598131,14.664486 64.7183801,14.2442368 64.3866044,13.7576324 L64.3866044,10.7937695 C64.7183801,10.3514019 65.4261682,9.88691589 66.1781931,9.88691589 C67.5937695,9.88691589 68.6775701,10.7716511 68.6775701,12.2757009 C68.6775701,13.7797508 67.5937695,14.664486 66.1781931,14.664486 L66.1781931,14.664486 Z M61.1573209,11.523676 L61.1573209,16.4781931 L59.0339564,16.4781931 L59.0339564,11.7669782 C59.0339564,10.3956386 58.5915888,9.84267913 57.3971963,9.84267913 C56.7557632,9.84267913 56.0922118,10.1744548 55.6719626,10.6610592 L55.6719626,16.4560748 L53.5485981,16.4560748 L53.5485981,8.13956386 L55.229595,8.13956386 C55.4065421,8.13956386 55.5392523,8.29439252 55.5392523,8.44922118 L55.5392523,8.80311526 C56.158567,8.16168224 56.976947,7.91838006 57.7953271,7.91838006 C58.7242991,7.91838006 59.4984424,8.18380062 60.117757,8.71464174 C60.8697819,9.33395639 61.1573209,10.1302181 61.1573209,11.523676 L61.1573209,11.523676 Z M48.3950156,7.91838006 C46.9352025,7.91838006 46.2495327,8.80311526 46.2495327,8.80311526 L46.2495327,4.13613707 L44.1261682,4.13613707 L44.1261682,16.4560748 L45.917757,16.4560748 C46.094704,16.4560748 46.2274143,16.3012461 46.2274143,16.1464174 L46.2274143,15.770405 C46.2274143,15.770405 46.9130841,16.6772586 48.3728972,16.6772586 C50.7838006,16.6772586 52.6638629,14.8193146 52.6638629,12.2978193 C52.6859813,9.77632399 50.805919,7.91838006 48.3950156,7.91838006 L48.3950156,7.91838006 Z M48.0411215,14.664486 C47.2227414,14.664486 46.5813084,14.2442368 46.2495327,13.7576324 L46.2495327,10.7937695 C46.5813084,10.3514019 47.2890966,9.88691589 48.0411215,9.88691589 C49.4566978,9.88691589 50.5404984,10.7716511 50.5404984,12.2757009 C50.5404984,13.7797508 49.4566978,14.664486 48.0411215,14.664486 L48.0411215,14.664486 Z M42.2903427,7.91838006 C42.9317757,7.91838006 43.2635514,8.02897196 43.2635514,8.02897196 L43.2635514,9.99750779 C43.2635514,9.99750779 41.494081,9.40031153 40.388162,10.6610592 L40.388162,16.4781931 L38.2647975,16.4781931 L38.2647975,8.13956386 L40.0563863,8.13956386 C40.2333333,8.13956386 40.3660436,8.29439252 40.3660436,8.44922118 L40.3660436,8.80311526 C40.7641745,8.33862928 41.6267913,7.91838006 42.2903427,7.91838006 L42.2903427,7.91838006 Z M20.2383178,15.7040498 C20.1277259,15.4386293 20.017134,15.1510903 19.9065421,14.9077882 C19.729595,14.5096573 19.552648,14.1336449 19.3978193,13.7797508 L19.3757009,13.7576324 C17.8495327,10.4398754 16.2149844,7.07788162 14.4897508,3.76012461 L14.4233956,3.62741433 C14.2464486,3.29563863 14.0695016,2.94174455 13.8925545,2.58785047 C13.6713707,2.18971963 13.4501869,1.7694704 13.0962928,1.37133956 C12.3885047,0.486604361 11.3710592,-3.55271368e-15 10.2872586,-3.55271368e-15 C9.18133956,-3.55271368e-15 8.18601246,0.486604361 7.45610592,1.3271028 C7.12433022,1.72523364 6.88102804,2.14548287 6.65984424,2.54361371 C6.4828972,2.89750779 6.30595016,3.25140187 6.12900312,3.58317757 L6.06264798,3.71588785 C4.35953271,7.03364486 2.70065421,10.3956386 1.17448598,13.7133956 L1.1523676,13.7576324 C0.997538941,14.1115265 0.8205919,14.4875389 0.64364486,14.8856698 C0.53305296,15.128972 0.422461059,15.3943925 0.311869159,15.6819315 C0.0243302181,16.5003115 -0.0641433022,17.2744548 0.0464485981,18.0707165 C0.289750779,19.729595 1.39566978,21.123053 2.92183801,21.7423676 C3.49691589,21.9856698 4.09411215,22.0962617 4.71342679,22.0962617 C4.89037383,22.0962617 5.11155763,22.0741433 5.28850467,22.0520249 C6.01841121,21.9635514 6.77043614,21.7202492 7.50034268,21.3 C8.40719626,20.7912773 9.26981308,20.0613707 10.2430218,18.9996885 C11.2162305,20.0613707 12.1009657,20.7912773 12.9857009,21.3 C13.7156075,21.7202492 14.4676324,21.9635514 15.1975389,22.0520249 C15.374486,22.0741433 15.5956698,22.0962617 15.7726168,22.0962617 C16.3919315,22.0962617 17.0112461,21.9856698 17.5619938,21.7423676 C19.1102804,21.123053 20.194081,19.7074766 20.4373832,18.0707165 C20.6143302,17.2965732 20.5258567,16.5224299 20.2383178,15.7040498 L20.2383178,15.7040498 Z M10.2651402,16.8542056 C9.07074766,15.3501558 8.29660436,13.9345794 8.0311838,12.7401869 C7.9205919,12.2314642 7.89847352,11.7890966 7.96482866,11.3909657 C8.00906542,11.0370717 8.1417757,10.7274143 8.31872274,10.4619938 C8.73897196,9.86479751 9.44676012,9.48878505 10.2651402,9.48878505 C11.0835202,9.48878505 11.8134268,9.84267913 12.2115576,10.4619938 C12.3885047,10.7274143 12.521215,11.0370717 12.5654517,11.3909657 C12.6318069,11.7890966 12.6096885,12.2535826 12.4990966,12.7401869 C12.233676,13.9124611 11.4595327,15.3280374 10.2651402,16.8542056 L10.2651402,16.8542056 Z M19.088162,17.8937695 C18.9333333,19.0439252 18.15919,20.0392523 17.0776012,20.4816199 C16.5467601,20.7028037 15.9716822,20.7691589 15.3966044,20.7028037 C14.8436449,20.6364486 14.2906854,20.4595016 13.7156075,20.1277259 C12.9193458,19.6853583 12.1230841,18.9996885 11.1941121,17.982243 C12.6539252,16.1906542 13.5386604,14.5538941 13.8704361,13.094081 C14.0252648,12.4084112 14.0473832,11.7890966 13.981028,11.2140187 C13.8925545,10.6610592 13.6934891,10.1523364 13.3838318,9.70996885 C12.698162,8.71464174 11.5480062,8.13956386 10.2651402,8.13956386 C8.98227414,8.13956386 7.83211838,8.73676012 7.1464486,9.70996885 C6.83679128,10.1523364 6.63772586,10.6610592 6.54925234,11.2140187 C6.46077882,11.7890966 6.4828972,12.4305296 6.65984424,13.094081 C6.99161994,14.5538941 7.89847352,16.2127726 9.33616822,18.0043614 C8.42931464,19.0218069 7.61093458,19.7074766 6.8146729,20.1498442 C6.23959502,20.4816199 5.68663551,20.658567 5.13367601,20.7249221 C4.53647975,20.7912773 3.96140187,20.7028037 3.45267913,20.5037383 C2.3688785,20.0613707 1.5947352,19.0660436 1.43990654,17.9158879 C1.3735514,17.3629283 1.41778816,16.8099688 1.63897196,16.1906542 C1.7053271,15.9694704 1.815919,15.7482866 1.9265109,15.482866 C2.08133956,15.128972 2.2582866,14.7529595 2.43523364,14.376947 L2.45735202,14.3327103 C3.98352025,11.0370717 5.62028037,7.67507788 7.32339564,4.40155763 L7.38975078,4.26884735 C7.56669782,3.93707165 7.74364486,3.58317757 7.9205919,3.25140187 C8.09753894,2.89750779 8.29660436,2.56573209 8.53990654,2.27819315 C9.00439252,1.74735202 9.62370717,1.45981308 10.3093769,1.45981308 C10.9950467,1.45981308 11.6143614,1.74735202 12.0788474,2.27819315 C12.3221495,2.56573209 12.521215,2.89750779 12.698162,3.25140187 C12.875109,3.58317757 13.0520561,3.93707165 13.2290031,4.26884735 L13.2953583,4.40155763 C14.9763551,7.69719626 16.6131153,11.05919 18.1370717,14.3548287 L18.1370717,14.376947 C18.3140187,14.7308411 18.4688474,15.128972 18.6457944,15.482866 C18.7563863,15.7482866 18.8669782,15.9694704 18.9333333,16.1906542 C19.1102804,16.7657321 19.1766355,17.3186916 19.088162,17.8937695 Z" id="Shape"></path>
            </g>
        </g>
    </g>
</svg>