<?xml version="1.0" encoding="UTF-8"?>
<svg width="70px" height="26px" viewBox="0 0 70 26" version="1.1" xmlns="http://www.w3.org/2000/svg" xmlns:xlink="http://www.w3.org/1999/xlink">
    <!-- Generator: Sketch 54.1 (76490) - https://sketchapp.com -->
    <title>alibaba</title>
    <desc>Created with Sketch.</desc>
    <g id="Page-1" stroke="none" stroke-width="1" fill="none" fill-rule="evenodd">
        <g id="ν† ν”½μ„ΈνΈ" transform="translate(-9.000000, -177.000000)" fill="#000000" fill-rule="nonzero">
            <g id="alibaba" transform="translate(9.000000, 177.000000)">
                <path d="M5.396,7.11642105 L4.89526316,7.11642105 L4.89526316,9.05210526 L5.92289474,9.05210526 L5.92289474,7.11828947 L5.396,7.11828947 L5.396,7.11642105 Z M33.0897368,11.3502632 L34.0239474,11.3502632 C34.3228947,11.3502632 34.5471053,11.2755263 34.6405263,11.1036316 C34.8273684,10.9728421 34.8273684,10.6047632 34.9021053,10.0517105 C35.1076316,10.3002105 35.4065789,10.4665 35.7428947,10.5225526 C35.5560526,11.2418947 35.3505263,11.6566842 35.1823684,11.7669211 C34.9955263,11.8977105 34.7152632,11.9612368 34.2481579,11.9612368 L29.9507895,11.9612368 C29.1473684,11.9612368 28.755,11.6286579 28.755,10.9653684 L28.755,6.14484211 L28.755,4.90047368 L34.8273684,4.90047368 L34.8273684,8.91571053 L34.1173684,8.91571053 L34.1173684,8.36078947 L29.5210526,8.36078947 L29.5210526,10.6028947 C29.5210526,11.1036316 29.7826316,11.3502632 30.3057895,11.3502632 L33.1457895,11.3502632 L33.0897368,11.3502632 Z M33.0897368,7.72552632 L34.0613158,7.72552632 L34.0613158,5.53947368 L32.0807895,5.53947368 L32.0807895,7.72552632 L33.0897368,7.72552632 Z M30.4552632,7.72552632 L31.4268421,7.72552632 L31.4268421,5.53947368 L29.465,5.53947368 L29.465,7.72552632 L30.4552632,7.72552632 Z M24.0839474,11.3502632 L25.0181579,11.3502632 C25.3357895,11.3502632 25.56,11.2755263 25.6347368,11.1036316 C25.8215789,10.9728421 25.8215789,10.6047632 25.915,10.0517105 C26.1250353,10.3005757 26.4161725,10.4673179 26.7371053,10.5225526 C26.5502632,11.2418947 26.3634211,11.6566842 26.1952632,11.7669211 C26.0084211,11.8977105 25.7094737,11.9612368 25.2423684,11.9612368 L20.9636842,11.9612368 C20.1602632,11.9612368 19.7678947,11.6286579 19.7678947,10.9653684 L19.7678947,6.14484211 L19.7678947,4.90047368 L25.8028947,4.90047368 L25.8028947,8.91571053 L25.0928947,8.91571053 L25.0928947,8.36078947 L20.4965789,8.36078947 L20.4965789,10.6028947 C20.4965789,11.1036316 20.7768421,11.3502632 21.3,11.3502632 L24.1213158,11.3502632 L24.0839474,11.3502632 Z M24.0839474,7.72552632 L25.0555263,7.72552632 L25.0555263,5.53947368 L23.0936842,5.53947368 L23.0936842,7.72552632 L24.0839474,7.72552632 L24.0839474,7.72552632 Z M21.4494737,7.72552632 L22.4210526,7.72552632 L22.4210526,5.53947368 L20.4592105,5.53947368 L20.4592105,7.72552632 L21.4494737,7.72552632 L21.4494737,7.72552632 Z M15.0781579,11.3801579 L16.5168421,11.3801579 C16.9092105,11.3614737 17.3202632,11.3614737 17.8060526,11.3614737 L17.8060526,12.0266316 C17.3202632,11.9705789 16.9092105,11.9518947 16.5168421,11.9518947 L11.2665789,11.9518947 C10.8499211,11.9518947 10.3510526,11.9705789 9.82789474,12.0266316 L9.82789474,11.3614737 C10.3790789,11.3614737 10.8499211,11.3614737 11.2665789,11.3801579 L13.3965789,11.3801579 L13.3965789,10.218 L11.8196316,10.218 C11.4870526,10.218 11.0722632,10.218 10.5995526,10.2366842 L10.5995526,9.60142105 C11.0703947,9.62010526 11.4870526,9.65747368 11.8196316,9.67615789 L13.3965789,9.67615789 L13.3965789,8.67842105 L10.7658421,8.67842105 C10.8032105,8.22439474 10.8218947,7.64144737 10.8218947,6.97815789 C10.8218947,6.34289474 10.8218947,5.59552632 10.7658421,4.81826316 L16.7971053,4.81826316 L16.7971053,8.69710526 L14.0617368,8.69710526 L14.0617368,9.69484211 L15.7507895,9.69484211 C16.0871053,9.67615789 16.4981579,9.63878947 17.0026316,9.62010526 L17.0026316,10.2553684 C16.4981579,10.2366842 16.0871053,10.2366842 15.7507895,10.2366842 L14.0617368,10.2366842 L14.0617368,11.3988421 L15.0781579,11.3988421 L15.0781579,11.3801579 Z M15.0781579,8.16647368 L16.1057895,8.16647368 L16.1057895,7.06036842 L14.0617368,7.06036842 L14.0617368,8.16834211 L15.0781579,8.16834211 L15.0781579,8.16647368 Z M15.0781579,6.55963158 L16.1057895,6.55963158 L16.1057895,5.34515789 L14.0617368,5.34515789 L14.0617368,6.55963158 L15.0781579,6.55963158 Z M12.4548947,8.16647368 L13.3965789,8.16647368 L13.3965789,7.06036842 L11.5132105,7.06036842 L11.5132105,8.16834211 L12.4548947,8.16834211 L12.4548947,8.16647368 Z M12.4548947,6.55963158 L13.3965789,6.55963158 L13.3965789,5.34515789 L11.5132105,5.34515789 L11.5132105,6.55963158 L12.4548947,6.55963158 Z M5.396,9.66121053 L4.89526316,9.66121053 L4.89526316,10.5206842 L4.23197368,10.5206842 C4.26,10.1619474 4.26,9.49678947 4.26,8.52894737 C4.26,7.55736842 4.26,6.89407895 4.22263158,6.53534211 L6.57684211,6.53534211 C6.55815789,6.97815789 6.55815789,7.58726316 6.55815789,8.36265789 C6.55815789,9.13992105 6.55815789,9.74902632 6.59552632,10.1937105 L5.93036842,10.1937105 L5.93036842,9.66494737 L5.40721053,9.66494737 L5.396,9.66121053 Z M5.396,5.37131579 L7.2775,5.37131579 L7.2775,10.8532632 C7.2775,11.1335263 7.22144737,11.2960789 7.08318421,11.3521316 C6.97107895,11.3708158 6.69828947,11.4081842 6.2835,11.4081842 C6.45165789,11.6585526 6.532,11.9350789 6.58805263,12.2116053 C7.08505263,12.2116053 7.41763158,12.0808158 7.63997368,11.9631053 C7.86044737,11.851 7.94452632,11.5763421 7.94452632,11.1036316 L7.94452632,5.37131579 C8.16873684,5.37131579 8.49944737,5.37131579 8.91610526,5.39 L8.91610526,4.72671053 C8.47142105,4.74539474 8.16873684,4.74539474 8.02860526,4.74539474 L4.98307895,4.74539474 C4.70655263,4.74539474 4.37397368,4.74539474 3.93115789,4.72671053 L3.93115789,5.39 C4.45805263,5.37131579 4.81678947,5.37131579 4.98307895,5.37131579 L5.39973684,5.37131579 L5.396,5.37131579 Z M2.29442105,7.50131579 C2.76526316,8.19636842 3.04178947,8.69336842 3.124,9.02594737 C3.19873684,9.38655263 3.18005263,9.60889474 3.04926316,9.69110526 C2.91847368,9.76584211 2.63447368,9.85926316 2.24584211,9.91531579 C2.37663158,10.1619474 2.49621053,10.4104474 2.55039474,10.6626842 C2.90539474,10.5767368 3.20807895,10.4384737 3.48460526,10.2441579 C3.76113158,10.0236842 3.89939474,9.721 3.87136842,9.27631579 C3.81531579,8.86152632 3.54065789,8.24868421 2.95957895,7.449 C3.23610526,6.53347368 3.48273684,5.64971053 3.73310526,4.76221053 L1.2425,4.76221053 C1.27986842,5.23305263 1.27986842,6.42510526 1.27986842,8.27857895 C1.27986842,10.1619474 1.27986842,11.4623684 1.2425,12.2097368 L1.96184211,12.2097368 L1.96184211,5.37131579 L2.90352632,5.37131579 C2.67931579,6.20276316 2.48873684,6.92210526 2.29442105,7.50131579 L2.29442105,7.50131579 Z M13.561,19.1042105 L13.561,17.7028947 L15.6386842,17.7028947 L15.6386842,19.1042105 L13.5647368,19.1042105 L13.561,19.1042105 Z M13.6170526,24.9523684 L13.6170526,19.8889474 L15.5639474,19.8889474 L15.5639474,24.9523684 L13.6207895,24.9523684 L13.6170526,24.9523684 Z M36.5089474,22.2992105 C36.5089474,21.8134211 36.3221053,21.4584211 36.1539474,21.1781579 C35.9110526,20.8978947 35.5560526,20.7671053 35.1263158,20.7671053 C34.6778947,20.7671053 34.3415789,20.9539474 34.0986842,21.1781579 C33.8557895,21.4584211 33.7436842,21.8507895 33.7436842,22.3552632 C33.7436842,22.8410526 33.9305263,23.2334211 34.0986842,23.5136842 C34.3415789,23.7939474 34.6778947,23.9060526 35.1263158,23.9060526 C35.5747368,23.9060526 35.9297368,23.7192105 36.1726316,23.4763158 C36.4155263,23.1960526 36.5276316,22.785 36.5276316,22.2992105 L36.5089474,22.2992105 Z M35.1076316,19.8515789 L35.9110526,19.8515789 C36.7144737,19.8515789 37.3497368,20.0757895 37.8168421,20.5428947 C38.2652632,21.01 38.5081579,21.6452632 38.5081579,22.4486842 C38.5081579,23.3081579 38.2839474,23.9807895 37.8168421,24.4478947 C37.3684211,24.915 36.7331579,25.1578947 35.9297368,25.1578947 C35.6494737,25.1578947 35.3878947,25.1578947 35.1076316,24.9710526 C34.9207895,24.9710526 34.8273684,24.7842105 34.6965789,24.7842105 C34.3228947,24.5973684 34.0052632,24.3544737 33.725,23.9807895 L33.725,24.9523684 L31.7818421,24.9523684 L31.7818421,24.3731579 L31.7818421,17.7028947 L33.7063158,17.7028947 L33.7063158,20.5989474 C34.0052632,20.3186842 34.3415789,20.0944737 34.6965789,19.9636842 C34.8834211,19.9636842 34.9394737,19.9636842 35.0889474,19.7768421 L35.1076316,19.8515789 Z M57.1363158,20.4868421 C58.1639474,20.4868421 59.0047368,21.3463158 59.0047368,22.3739474 C59.0047368,23.4015789 58.1639474,24.2236842 57.1363158,24.2236842 C56.1116682,24.2237354 55.2781412,23.3985438 55.2678947,22.3739474 C55.2678947,21.3463158 56.1273684,20.4868421 57.1363158,20.4868421 Z M57.1363158,25.0831579 C58.6428905,25.0831579 59.8642105,23.8618378 59.8642105,22.3552632 C59.8642105,20.8486885 58.6428905,19.6273684 57.1363158,19.6273684 C55.6297411,19.6273684 54.4084211,20.8486885 54.4084211,22.3552632 C54.4084211,23.8618378 55.6297411,25.0831579 57.1363158,25.0831579 Z M47.1776316,24.1676316 L48.0371053,24.1676316 L48.0371053,24.9523684 L47.1776316,24.9523684 L47.1776316,24.1676316 Z M53.7171053,24.3544737 C53.4368421,24.5786842 52.8763158,25.1205263 51.7926316,25.1205263 C50.41,25.1205263 49.0834211,24.0368421 49.0834211,22.4113158 C49.0834211,20.7857895 50.41,19.6647368 51.7926316,19.6647368 C52.8202632,19.6647368 53.4368421,20.2252632 53.7171053,20.4494737 C53.5302632,20.6923684 53.3994737,21.1407895 53.3434211,21.3276316 C52.8202632,20.6363158 52.185,20.5242105 51.7926316,20.5242105 C50.7836842,20.5242105 49.9428947,21.3836842 49.9428947,22.4113158 C49.9428947,23.4015789 50.7836842,24.2610526 51.7926316,24.2610526 C52.3718421,24.2610526 52.9323684,24.0181579 53.3434211,23.4576316 C53.5302632,23.9060526 53.6236842,24.1863158 53.7171053,24.3544737 Z M61.0786842,24.9897368 L61.0786842,19.9263158 L61.8447368,19.9263158 L61.8447368,20.6363158 C62.0315789,20.3934211 62.2371053,20.1878947 62.48,20.0384211 C62.7602632,19.8515789 63.0592105,19.8142105 63.3955263,19.8142105 C63.7692105,19.8142105 64.0681579,19.8142105 64.3110526,20.0384211 C64.5726316,20.2252632 64.7221053,20.4121053 64.8342105,20.6923684 C65.2265789,20.1131579 65.7497368,19.8142105 66.385,19.8142105 C66.8894737,19.8142105 67.2818421,20.0010526 67.5621053,20.2252632 C67.8236842,20.5055263 67.9731579,20.9352632 67.9731579,21.5331579 L67.9731579,24.9897368 L67.1136842,24.9897368 L67.1136842,21.7947368 C67.1136842,21.4397368 67.1136842,21.2155263 66.9268421,21.0473684 C66.9268421,20.8605263 66.74,20.7857895 66.6278947,20.6923684 C66.4410526,20.6923684 66.2915789,20.5055263 66.1047368,20.5055263 C65.7497368,20.5055263 65.4694737,20.6923684 65.2265789,20.8605263 C65.0023684,21.0847368 64.8528947,21.4771053 64.8528947,22.0002632 L64.8528947,24.9336842 L63.9934211,24.9336842 L63.9934211,21.6265789 C63.9934211,21.2528947 63.9934211,20.9726316 63.8065789,20.7857895 C63.6197368,20.5802632 63.4142105,20.5055263 63.1152632,20.5055263 C62.8723684,20.5055263 62.6481579,20.5055263 62.4426316,20.6923684 C62.2184211,20.8792105 62.0876316,20.9913158 62.0128947,21.2528947 C61.8260526,21.4957895 61.8260526,21.8507895 61.8260526,22.2992105 L61.8260526,24.9336842 L60.9478947,24.9336842 L61.0786842,24.9897368 Z M67.6368421,18.8052632 L67.6368421,17.8336842 L67.2818421,17.8336842 L68.16,17.8336842 L67.805,17.8336842 L67.805,18.8052632 L67.6181579,18.8052632 L67.6368421,18.8052632 Z M68.3094737,18.8052632 L68.3094737,17.7402632 L68.515,17.7402632 L68.7765789,18.5063158 L68.7765789,18.5063158 L69.0194737,17.7589474 L69.2063158,17.7589474 L69.2063158,18.8239474 L69.0194737,18.8239474 L69.0194737,17.9084211 L68.7205263,18.8239474 L68.5336842,18.8239474 L68.2347368,17.9084211 L68.2347368,18.8239474 L68.0478947,18.8239474 L68.3094737,18.8052632 Z M43.5528947,24.2423684 C43.3473684,24.5413158 43.0484211,24.7281579 42.6373684,24.8963158 C42.4505263,24.8963158 42.4318421,24.8963158 42.3571053,25.0831579 C42.0207895,25.0831579 41.6471053,25.27 41.1986842,25.27 C40.5634211,25.27 40.0589474,25.0831579 39.7039474,24.8589474 C39.3676316,24.6160526 39.1807895,24.2236842 39.1807895,23.7192105 C39.1807895,23.4202632 39.1807895,23.14 39.3863158,22.8971053 C39.5731579,22.6728947 39.7226316,22.4860526 39.9842105,22.3178947 C40.1710526,22.1310526 40.47,22.0936842 40.8436842,22.0376316 L43.5155263,22.0376316 C43.5155263,21.7573684 43.5155263,21.5331579 43.2726316,21.4023684 C43.0857895,21.2155263 42.8802632,21.1781579 42.5813158,21.1781579 L42.3571053,21.1781579 C42.1142105,21.1781579 41.9086842,21.1781579 41.7778947,21.365 C41.5910526,21.365 41.4976316,21.6078947 41.4789474,21.8321053 L39.4984211,21.8321053 C39.4984211,21.2715789 39.8721053,20.8605263 40.3578947,20.5802632 C40.8063158,20.3373684 41.4789474,20.2252632 42.3571053,20.2065789 L42.6,20.2065789 C43.5528947,20.2065789 44.2628947,20.3934211 44.7113158,20.6736842 C45.1597368,20.9726316 45.3839474,21.4771053 45.3839474,22.1310526 L45.3839474,25.1018421 C45.3839474,25.1018421 45.3839474,25.2886842 45.5707895,25.3821053 L43.7584211,25.3821053 C43.7584211,25.1952632 43.7584211,25.1765789 43.5715789,25.0831579 L43.5715789,24.56 L43.5528947,24.2423684 Z M42.3571053,24.0181579 C42.6934211,24.0181579 42.9736842,23.8313158 43.1605263,23.7192105 C43.3956663,23.4962164 43.5247621,23.1836688 43.5155263,22.8597368 L43.5155263,22.6728947 L42.3384211,22.6728947 C42.0394737,22.6728947 41.8152632,22.6728947 41.6471053,22.8597368 C41.3481579,22.8597368 41.18,23.1213158 41.18,23.4015789 C41.18,23.5884211 41.18,23.7192105 41.4228947,23.8313158 C41.6097368,23.8313158 41.8339474,24.0181579 42.1515789,24.0181579 L42.3384211,24.0181579 L42.3571053,24.0181579 Z M28.6615789,24.2423684 C28.4373684,24.5413158 28.1197368,24.7281579 27.7086842,24.8963158 C27.7086842,24.8963158 27.5218421,24.8963158 27.4284211,25.0831579 C27.1107895,25.0831579 26.7184211,25.27 26.27,25.27 C25.6347368,25.27 25.1302632,25.0831579 24.8126316,24.8589474 C24.4389474,24.6160526 24.2707895,24.2236842 24.2707895,23.7192105 C24.2707895,23.4202632 24.2707895,23.14 24.4763158,22.8971053 C24.6631579,22.6728947 24.8126316,22.4860526 25.0555263,22.3178947 C25.2797368,22.1310526 25.56,22.0936842 25.915,22.0376316 L28.6055263,22.0376316 C28.6055263,21.7573684 28.6055263,21.5331579 28.3439474,21.4023684 C28.1571053,21.2155263 27.9515789,21.1781579 27.6526316,21.1781579 L27.4284211,21.1781579 C27.1855263,21.1781579 26.9986842,21.1781579 26.8492105,21.365 C26.6623684,21.365 26.6063158,21.6078947 26.5502632,21.8321053 L24.5884211,21.8321053 C24.5884211,21.2715789 24.9434211,20.8605263 25.4478947,20.5802632 C25.915,20.3373684 26.5689474,20.2252632 27.4284211,20.2065789 L27.69,20.2065789 C28.6242105,20.2065789 29.3528947,20.3934211 29.7826316,20.6736842 C30.2310526,20.9726316 30.4739474,21.4771053 30.4739474,22.1310526 L30.4739474,25.1018421 C30.4739474,25.1018421 30.4739474,25.2886842 30.6607895,25.3821053 L28.8484211,25.3821053 L28.8484211,25.0831579 L28.8484211,24.56 L28.6615789,24.2423684 Z M27.4284211,24.0181579 C27.8021053,24.0181579 28.045,23.8313158 28.2318421,23.7192105 C28.4934211,23.5136842 28.6055263,23.2147368 28.6055263,22.8597368 L28.6055263,22.6728947 L27.4097368,22.6728947 C27.1294737,22.6728947 26.9239474,22.6728947 26.7557895,22.8597368 C26.4194737,22.8597368 26.2886842,23.1213158 26.2886842,23.4015789 C26.2886842,23.5884211 26.2886842,23.7192105 26.4942105,23.8313158 C26.6810526,23.8313158 26.9239474,24.0181579 27.2415789,24.0181579 L27.4284211,24.0181579 L27.4284211,24.0181579 Z M21.5989474,22.3365789 C21.5989474,21.8507895 21.4121053,21.4957895 21.2252632,21.2155263 C20.9823684,20.9352632 20.6460526,20.8044737 20.2163158,20.8044737 C19.7305263,20.8044737 19.4128947,20.9913158 19.1513158,21.2155263 C18.9084211,21.4957895 18.7963158,21.8881579 18.7963158,22.3926316 C18.7963158,22.8784211 18.9831579,23.2707895 19.1513158,23.5510526 C19.4128947,23.8313158 19.7678947,23.9434211 20.1789474,23.9434211 C20.6086842,23.9434211 20.945,23.7565789 21.1878947,23.5136842 C21.4494737,23.2334211 21.5615789,22.8223684 21.5615789,22.3365789 L21.5989474,22.3365789 Z M20.2163158,19.8889474 L20.9823684,19.8889474 C21.7857895,19.8889474 22.4210526,20.1131579 22.8881579,20.5802632 C23.3552632,21.0473684 23.5794737,21.6826316 23.5794737,22.4860526 C23.5794737,23.3455263 23.3552632,24.0181579 22.9255263,24.4852632 C22.4584211,24.9523684 21.8418421,25.1952632 21.0384211,25.1952632 C20.7394737,25.1952632 20.4592105,25.1952632 20.2163158,25.0084211 C20.0294737,25.0084211 19.8986842,24.8215789 19.7865789,24.8215789 C19.4128947,24.6347368 19.0765789,24.3918421 18.815,24.0181579 L18.815,24.9897368 L16.8344737,24.9897368 L16.8344737,24.4105263 L16.8344737,17.7402632 L18.7589474,17.7402632 L18.7589474,20.6363158 C19.0392105,20.3560526 19.3755263,20.1318421 19.7305263,20.0010526 C19.9173684,20.0010526 20.0107895,20.0010526 20.1602632,19.8142105 L20.2163158,19.8889474 Z M5.11947368,17.7402632 L6.53013158,17.7402632 L10.0745263,24.9897368 L7.74834211,24.9897368 L7.11307895,23.5136842 L3.15202632,23.5136842 L2.46071053,24.9897368 L0.274657895,24.9897368 L4.06755263,17.7402632 L5.11760526,17.7402632 L5.11947368,17.7402632 Z M5.11947368,22.1123684 L6.44605263,22.1123684 L5.20168421,19.3097368 L5.12694737,19.4965789 L3.82652632,22.1684211 L5.12694737,22.1684211 L5.11947368,22.1123684 Z M10.4071053,24.9897368 L10.4071053,17.7402632 L12.3446579,17.7402632 L12.3446579,24.9897368 L10.4071053,24.9897368 L10.4071053,24.9897368 Z M56.3889474,0.195789474 C54.4084211,0.233157895 52.2971053,0.803026316 50.8771053,1.30189474 C45.9818421,3.047 42.9176316,5.78610526 40.9744737,8.85965789 C38.9192105,11.9051842 39.6105263,14.8068421 43.9265789,14.9002632 C47.2523684,14.7134211 49.4197368,13.8539474 51.6805263,12.6768421 C51.6805263,12.6768421 45.4586842,14.4518421 43.1605263,13.1626316 C42.9176316,12.9757895 42.6373684,12.8263158 42.5813158,12.2844737 C42.5813158,11.2138684 44.375,10.1058947 45.3839474,9.74715789 L45.3839474,7.91984211 C47.6259562,8.69931428 50.1093771,8.30365061 51.9981579,6.86605263 C52.185,7.03421053 52.185,7.31073684 52.185,7.53121053 L52.54,7.53121053 C52.7268421,6.81186842 52.1289474,6.09252632 51.3442105,6.03647368 C51.5684211,6.23078947 51.7365789,6.36905263 51.8113158,6.50731579 L51.8113158,6.56336842 C49.1021053,8.50278947 46.505,7.591 46.2621053,7.53494737 L47.7568421,6.04021053 L47.3271053,4.98642105 C50.3165789,3.9345 52.8389474,3.13107895 56.9121053,2.41173684 L55.9965789,1.66436842 L56.4636842,1.35981579 C58.9486842,2.07728947 60.5555263,2.57428947 60.4621053,3.87097368 C60.4621053,4.09892105 60.2752632,4.34555263 60.2005263,4.62581579 C59.5092105,6.06823684 57.3792105,8.41871053 56.5197368,9.41831579 C55.9405263,10.0535789 55.3986842,10.7206053 54.9689474,11.3278421 C54.5952632,11.9369474 54.3336842,12.5105526 54.315,13.0523947 C54.315,17.3684474 66.9642105,11.0531842 69.3931579,9.39028947 C65.8057895,10.9410789 61.9194737,12.4358158 57.6407895,12.7160789 C56.4636842,12.7160789 56.5757895,12.1555526 57.2671053,11.2176053 C58.8739474,9.03155263 61.9568421,6.01218421 62.0689474,3.88031579 C62.2557895,1.08515789 59.4344737,0.1715 56.5197368,0.199526316 L56.3889474,0.195789474 Z" id="Shape"></path>
            </g>
        </g>
    </g>
</svg>