<?xml version="1.0" encoding="UTF-8"?>
<svg width="71px" height="22px" viewBox="0 0 71 22" version="1.1" xmlns="http://www.w3.org/2000/svg" xmlns:xlink="http://www.w3.org/1999/xlink">
    <!-- Generator: Sketch 54.1 (76490) - https://sketchapp.com -->
    <title>amazon</title>
    <desc>Created with Sketch.</desc>
    <g id="Page-1" stroke="none" stroke-width="1" fill="none" fill-rule="evenodd">
        <g id="ν† ν”½μ„ΈνΈ" transform="translate(-7.000000, -686.000000)" fill="#000000" fill-rule="nonzero">
            <g id="amazon" transform="translate(7.000000, 686.000000)">
                <path d="M6.47489578,7.00641954 L6.47489578,6.53076948 C4.88611327,6.53076948 3.20868524,6.86984675 3.20868524,8.74065848 C3.20868524,9.68842654 3.70024356,10.3300832 4.54308337,10.3300832 C5.16195176,10.3300832 5.71480752,9.95097596 6.06373141,9.3340437 C6.49658564,8.5746519 6.47489578,7.86117682 6.47489578,7.00641954 L6.47489578,7.00641954 Z M8.69079824,12.355128 C8.54557046,12.4846367 8.33539097,12.4940555 8.1715382,12.4081088 C7.44233442,11.8029501 7.31254887,11.521563 6.91081488,10.9446607 C5.70537714,12.1738158 4.85192816,12.5411495 3.28884343,12.5411495 C1.44048985,12.5411495 0,11.4014732 0,9.12094306 C0,7.33961005 0.967792279,6.12693787 2.3434483,5.53355265 C3.53639079,5.00963117 5.20203085,4.9166204 6.47489578,4.77180615 L6.47489578,4.4880644 C6.47489578,3.96532028 6.51497487,3.34838803 6.20919495,2.89746236 C5.93995773,2.49363075 5.42718106,2.32644682 4.97570184,2.32644682 C4.13875602,2.32644682 3.39021997,2.75618016 3.20868524,3.64508064 C3.17096374,3.84287571 3.02597172,4.03713873 2.82793383,4.04655754 L0.695490189,3.81815133 C0.516313055,3.77812137 0.318275171,3.63212977 0.367784642,3.35780684 C0.859342962,0.777052074 3.19336088,8.47322212e-13 5.28218904,8.47322212e-13 C6.35135786,8.47322212e-13 7.74823222,0.283741742 8.59189718,1.09258231 C9.661066,2.08862179 9.55921794,3.41902913 9.55921794,4.86717163 L9.55921794,8.28737811 C9.55921794,9.31520608 9.98570667,9.76613175 10.3874407,10.3218417 C10.5294857,10.5184594 10.5603702,10.7562845 10.3815467,10.9046308 C9.93336809,11.2778512 9.13602985,11.9724887 8.69704587,12.3610147 L8.69115188,12.3610147 L8.69079824,12.355128 Z M35.2812742,7.00641954 L35.2812742,6.53076948 C33.6887196,6.53076948 32.0112915,6.86984675 32.0112915,8.74065848 C32.0112915,9.68842654 32.5052075,10.3300832 33.3492261,10.3300832 C33.9645581,10.3300832 34.5209502,9.95097596 34.8698741,9.3340437 C35.3024926,8.5746519 35.2812742,7.86117682 35.2812742,7.00641954 L35.2812742,7.00641954 Z M37.4962337,12.355128 C37.3512416,12.4846367 37.1414158,12.4940555 36.977563,12.4081088 C36.2478877,11.8029501 36.1146837,11.521563 35.7162503,10.9446607 C34.5115198,12.1738158 33.6557133,12.5411495 32.0949861,12.5411495 C30.2430962,12.5411495 28.8061427,11.4014732 28.8061427,9.12094306 C28.8061427,7.33961005 29.7703986,6.12693787 31.1484122,5.53355265 C32.3413547,5.00963117 34.0069947,4.9166204 35.2812742,4.77180615 L35.2812742,4.4880644 C35.2812742,3.96532028 35.3213533,3.34838803 35.0113297,2.89746236 C34.7461004,2.49363075 34.2333238,2.32644682 33.7783081,2.32644682 C32.9413623,2.32644682 32.1963627,2.75618016 32.0136491,3.64508064 C31.9771064,3.84287571 31.8321144,4.03713873 31.6305401,4.04655754 L29.5016329,3.81815133 C29.3224557,3.77812137 29.1208815,3.63212977 29.1739273,3.35780684 C29.6619493,0.777052074 31.9983248,8.56203997e-13 34.0883317,8.56203997e-13 C35.1575006,8.56203997e-13 36.5543749,0.283741742 37.3972147,1.09258231 C38.4675623,2.08862179 38.365007,3.41902913 38.365007,4.86717163 L38.365007,8.28737811 C38.365007,9.31520608 38.7917315,9.76613175 39.1937012,10.3218417 C39.3327993,10.5184594 39.363448,10.7562845 39.1819133,10.9046308 C38.7339704,11.2778512 37.9359249,11.9724887 37.4974125,12.3610147 L37.4962337,12.355128 Z M64.556696,12.3857391 L62.3688489,12.3857391 C62.1484139,12.3704335 61.9727731,12.1950082 61.9727731,11.9783755 L61.9727731,0.712297735 C61.9916339,0.5062612 62.1743474,0.344964027 62.39714,0.344964027 L64.4329223,0.344964027 C64.6250662,0.356737543 64.783025,0.483891519 64.8254617,0.660494263 L64.8254617,2.38295969 L64.8655408,2.38295969 C65.4808728,0.841806414 66.3425733,0.107138998 67.8608638,0.107138998 C68.846338,0.107138998 69.8070575,0.46269919 70.4259259,1.43519163 C71,2.33586563 71,3.85111717 71,4.94134478 L71,12.0313563 C70.9752453,12.2291514 70.7937105,12.3857391 70.5768119,12.3857391 L68.3736404,12.3857391 C68.173245,12.3704335 68.0058558,12.2220872 67.9846375,12.0313563 L67.9846375,5.91383722 C67.9846375,4.68232742 68.1260931,2.87980208 66.6089814,2.87980208 C66.0738076,2.87980208 65.5834281,3.23771698 65.3382383,3.78047608 C65.0293936,4.46922678 64.9893145,5.15444543 64.9893145,5.91383722 L64.9893145,11.9783755 C64.9893145,12.204427 64.794813,12.3857391 64.5602324,12.3857391 L64.556696,12.3857391 Z M55.303258,0.107138998 C58.5638103,0.107138998 60.3284693,2.90452647 60.3284693,6.46012838 C60.3284693,9.89564043 58.3787392,12.6212094 55.303258,12.6212094 C52.1016455,12.6212094 50.3593836,9.82382198 50.3593836,6.34003851 C50.3593836,2.83270802 52.1240426,0.107138998 55.303258,0.107138998 L55.303258,0.107138998 Z M55.3221187,2.40768408 C53.7024517,2.40768408 53.6010752,4.61050897 53.6010752,5.98447832 C53.6010752,7.36080238 53.5798569,10.299472 55.303258,10.299472 C57.0066195,10.299472 57.0867777,7.92946321 57.0867777,6.48485276 C57.0867777,5.53355265 57.0466986,4.39858568 56.7590722,3.49673433 C56.5127036,2.71261815 56.0211453,2.40768408 55.3221187,2.40768408 L55.3221187,2.40768408 Z M14.6925249,12.3857391 L12.4952475,12.3857391 C12.2854216,12.3704335 12.1180324,12.2138458 12.1027081,12.0125187 L12.1027081,0.749972987 C12.1027081,0.523921474 12.2913156,0.344964027 12.5258962,0.344964027 L14.5746452,0.344964027 C14.7880075,0.356737543 14.9577542,0.518034716 14.9730786,0.721716548 L14.9730786,2.19458343 L15.0131577,2.19458343 C15.5483315,0.771165316 16.5526665,0.107138998 17.9059254,0.107138998 C19.2815814,0.107138998 20.1409243,0.771165316 20.7586139,2.19458343 C21.2902513,0.771165316 22.4985182,0.107138998 23.794016,0.107138998 C24.7146564,0.107138998 25.7225278,0.487423574 26.336681,1.3386488 C27.0321712,2.28641686 26.8907156,3.66391826 26.8907156,4.87070368 L26.8907156,11.9783755 C26.8907156,12.204427 26.7021081,12.3857391 26.4663487,12.3857391 L24.2726076,12.3857391 C24.0533514,12.3704335 23.8765318,12.1950082 23.8765318,11.9783755 L23.8765318,6.00920271 C23.8765318,5.53355265 23.9201473,4.34913691 23.8152344,3.89821124 C23.6513816,3.14117414 23.1598233,2.92925085 22.5232729,2.92925085 C21.9916355,2.92925085 21.4352434,3.28363369 21.2100932,3.85111717 C20.9849429,4.41977801 21.0061613,5.36990077 21.0061613,6.00920271 L21.0061613,11.9783755 C21.0061613,12.204427 20.8175538,12.3857391 20.5829732,12.3857391 L18.3892321,12.3857391 C18.1664395,12.3704335 17.9931563,12.1950082 17.9931563,11.9783755 L17.9931563,6.00920271 C17.9931563,4.75296852 18.1994458,2.90452647 16.6387187,2.90452647 C15.0603096,2.90452647 15.121607,4.70705181 15.121607,6.00920271 L15.121607,11.9783755 C15.121607,12.204427 14.9329995,12.3857391 14.6984189,12.3857391 L14.6925249,12.3857391 Z M41.0386363,2.33351093 L41.0386363,0.721716548 C41.0386363,0.478004761 41.2237074,0.314352885 41.4465001,0.314352885 L48.6689888,0.314352885 C48.900033,0.314352885 49.086283,0.481536816 49.086283,0.721716548 L49.086283,2.10157266 C49.086283,2.33351093 48.8882451,2.63609029 48.5416788,3.11409505 L44.7989985,8.45102998 C46.1899789,8.41688678 47.6575811,8.62410067 48.9188938,9.3340437 C49.2029839,9.49416352 49.2807844,9.7284565 49.3020028,9.96039477 L49.3020028,11.6793281 C49.3020028,11.9136211 49.0426675,12.1891214 48.7703654,12.0466619 C46.5483332,10.8834384 43.5966257,10.7562845 41.1400129,12.0596127 C40.8901079,12.1950082 40.6272362,11.9230399 40.6272362,11.688747 L40.6272362,10.0557603 C40.6272362,9.79321084 40.6272362,9.34581722 40.8936443,8.94787237 L45.2292594,2.73734253 L41.4559304,2.73734253 C41.2237074,2.73734253 41.0386363,2.57369066 41.0386363,2.33351093 L41.0386363,2.33351093 Z M45.7608968,14.7510385 C45.2351534,14.0775934 42.2740155,14.4331536 40.9455114,14.5897414 C40.541184,14.6391901 40.4787078,14.287162 40.8441348,14.0340314 C43.2017287,12.3774977 47.0705402,12.8555024 47.5220194,13.4112124 C47.9734987,13.9692771 47.4041397,17.8439413 45.1891803,19.6923833 C44.848508,19.9761251 44.5243388,19.8254241 44.6752248,19.4486715 C45.1738559,18.2077429 46.2889978,15.4268384 45.7608968,14.7510385 L45.7608968,14.7510385 Z M44.0457473,16.7101516 C44.7282707,16.2038904 44.1447662,15.4515628 43.4457396,15.747078 C38.8224981,17.7073685 33.7949292,18.6516045 29.2235547,18.6516045 C22.4466511,18.6516045 15.8854674,16.7972757 10.5789952,13.7137918 C10.1154922,13.4418235 9.76916168,13.9174736 10.1558071,14.2659697 C15.0720975,18.7010533 21.5719838,21.368932 28.7909362,21.368932 C33.9399212,21.368932 39.919958,19.7477188 44.0457473,16.7101516 L44.0457473,16.7101516 Z" id="Shape"></path>
            </g>
        </g>
    </g>
</svg>