<?xml version="1.0" encoding="UTF-8"?>
<svg width="29px" height="35px" viewBox="0 0 29 35" version="1.1" xmlns="http://www.w3.org/2000/svg" xmlns:xlink="http://www.w3.org/1999/xlink">
    <!-- Generator: Sketch 56.3 (81716) - https://sketch.com -->
    <title>apple</title>
    <desc>Created with Sketch.</desc>
    <g id="Page-1" stroke="none" stroke-width="1" fill="none" fill-rule="evenodd">
        <g id="ν† ν”½μ„ΈνΈ" transform="translate(-294.000000, -733.000000)" fill="#000000" fill-rule="nonzero">
            <g id="apple" transform="translate(294.000000, 733.000000)">
                <path d="M23.7559327,18.5589937 C23.8050222,23.8455162 28.3936091,25.6047377 28.4444444,25.6271919 C28.4056458,25.7512619 27.7112648,28.1342548 26.0269589,30.5957162 C24.5709506,32.7237743 23.0598059,34.844037 20.6793066,34.8879494 C18.3402279,34.9310491 17.5880836,33.5008698 14.9138544,33.5008698 C12.2404331,33.5008698 11.4047666,34.8440334 9.19056807,34.9310491 C6.8927823,35.0180011 5.14304257,32.6298361 3.67493421,30.5095736 C0.675032573,26.1725049 -1.61751299,18.2540364 1.46079622,12.9089411 C2.99003457,10.254545 5.72289908,8.57367062 8.68917917,8.53056773 C10.9455461,8.48752729 13.0752882,10.0485761 14.4546339,10.0485761 C15.833105,10.0485761 18.421195,8.1712781 21.1419586,8.44698304 C22.2809631,8.4943895 25.4781677,8.90707642 27.5311806,11.9121543 C27.3657583,12.0147037 23.7162611,14.1392672 23.7559327,18.5589987 M19.3599047,5.5776337 C20.5798146,4.10098132 21.4008842,2.04534466 21.1768876,0 C19.4184791,0.0706722472 17.2921682,1.17175454 16.030901,2.64759451 C14.9005633,3.95451953 13.9106417,6.04633639 14.1777397,8.05119924 C16.1376923,8.20283814 18.1399348,7.05522513 19.3599047,5.5776361" id="Shape"></path>
            </g>
        </g>
    </g>
</svg>