<?xml version="1.0" encoding="UTF-8"?>
<svg width="69px" height="23px" viewBox="0 0 69 23" version="1.1" xmlns="http://www.w3.org/2000/svg" xmlns:xlink="http://www.w3.org/1999/xlink">
    <!-- Generator: Sketch 54.1 (76490) - https://sketchapp.com -->
    <title>baidu</title>
    <desc>Created with Sketch.</desc>
    <g id="Page-1" stroke="none" stroke-width="1" fill="none" fill-rule="evenodd">
        <g id="ν† ν”½μ„ΈνΈ" transform="translate(-11.000000, -445.000000)" fill="#000000" fill-rule="nonzero">
            <g id="baidu" transform="translate(11.000000, 445.000000)">
                <path d="M10.7605128,19.1882051 C10.8296923,17.185641 9.03102564,16.4938462 9.03102564,16.4938462 C10.5547949,15.6928205 10.36,13.6902564 10.36,13.6902564 C10.1961538,10.6026667 6.43861538,10.7483077 6.43861538,10.7483077 L0.631179487,10.7483077 L0.631179487,22.2102564 L7.18502564,22.2102564 C11.0390513,22.2102564 10.7623333,19.1882051 10.7623333,19.1882051 L10.7605128,19.1882051 Z M7.05576923,20.0802564 L3.12892308,20.0802564 L3.12892308,17.604359 L7.03574359,17.604359 C8.47394872,17.604359 8.41387179,20.0438462 7.03574359,20.0438462 L7.05576923,20.0802564 Z M6.90830769,15.3287179 L3.11071795,15.3287179 L3.11071795,12.9438462 L6.89010256,12.9438462 C8.35015385,12.9438462 8.372,15.3287179 6.90830769,15.3287179 Z M16.9757436,13.8176923 L11.8819487,13.8176923 L11.8819487,15.5471795 L16.3567692,15.5471795 C16.3567692,15.5471795 17.4126667,15.8202564 17.4126667,16.4938462 L17.4126667,17.0946154 L13.3674872,17.0946154 C13.3674872,17.0946154 11.783641,17.2766667 11.2684359,19.1335897 C11.1774103,20.025641 11.3048462,20.4625641 11.3594615,20.6264103 C11.4140769,20.8084615 11.8819487,21.8279487 13.267359,22.1010256 L19.7046923,22.1010256 L19.7046923,16.184359 C19.7046923,16.184359 19.3952051,14.1635897 16.9739231,13.8358974 L16.9757436,13.8176923 Z M17.4108462,20.4625641 L14.1594103,20.4625641 C13.0725641,20.4625641 13.2091026,18.6966667 14.2504359,18.6966667 L17.4308718,18.6966667 L17.4308718,20.4625641 L17.4108462,20.4625641 Z M20.8516154,12.925641 L23.2364872,12.925641 L23.2364872,10.8174872 L20.8516154,10.8174872 L20.8516154,12.925641 Z M20.8516154,22.0828205 L23.2364872,22.0828205 L23.2364872,13.8358974 L20.8516154,13.8358974 L20.8516154,22.0828205 Z M68.6036667,11.1779487 L64.3072564,11.1779487 L64.3072564,10.3295897 L62.2864872,10.3295897 L62.2864872,11.1233333 L57.3711026,11.1233333 L57.3711026,22.1374359 L59.1552051,22.1374359 L59.1552051,12.5433333 L68.6036667,12.5433333 L68.6036667,11.1779487 Z M67.4385385,13.4535897 L67.4385385,12.8164103 L65.7272564,12.8164103 L65.7272564,13.4535897 L62.1590513,13.4535897 L62.1590513,12.8346154 L60.5023846,12.8346154 L60.5023846,13.4535897 L59.4100769,13.4535897 L59.4100769,14.6915385 L60.4841795,14.6915385 L60.4841795,17.04 L66.4736667,17.04 C67.3111026,17.04 67.4203333,16.1661538 67.4203333,16.1661538 L67.4203333,14.6915385 L68.6946923,14.6915385 L68.6946923,13.4535897 L67.4203333,13.4535897 L67.4385385,13.4535897 Z M65.7272564,15.5471795 C65.7272564,15.5471795 65.5452051,15.8384615 65.3631538,15.8384615 L62.1408462,15.8384615 L62.1408462,14.6733333 L65.7272564,14.6733333 L65.7272564,15.5471795 Z M59.6467436,18.7330769 L62.4139231,20.3351282 C62.1954615,20.5717949 61.2487949,20.8812821 61.2487949,20.8812821 L59.4100769,20.8812821 L59.4100769,22.1010256 L61.9223846,22.1010256 C62.6505897,21.9189744 64.0341795,21.2635897 64.0341795,21.2635897 C64.5985385,21.7733333 65.6908462,21.9917949 65.6908462,21.9917949 L68.512641,21.9917949 L68.512641,20.7720513 L66.4008462,20.7720513 C65.8182821,20.59 65.2903333,20.3533333 65.2903333,20.3533333 L68.5490513,18.4964103 L68.5490513,17.4951282 L59.6467436,17.4951282 L59.6467436,18.7330769 Z M65.381359,18.7330769 L63.8157179,19.5523077 L62.3775128,18.7330769 L65.381359,18.7330769 Z M56.1149487,12.7982051 L56.1149487,11.1415385 L45.1918718,11.1415385 L45.1918718,12.8346154 L49.8887949,12.8346154 L49.4700769,13.8358974 L45.4649487,13.8358974 L45.4649487,22.1738462 L54.9498205,22.1738462 C55.9328974,22.1738462 55.8418718,21.154359 55.8418718,21.154359 L55.8418718,13.8358974 L51.8549487,13.8358974 L52.2008462,12.7982051 L56.151359,12.7982051 L56.1149487,12.7982051 Z M54.0031538,20.3897436 C54.0031538,20.3897436 53.8211026,20.6628205 53.6936667,20.6628205 L47.3946923,20.6628205 L47.3946923,18.7148718 L54.0031538,18.7148718 L54.0031538,20.3897436 Z M54.0031538,17.1128205 L47.4311026,17.1128205 L47.4311026,15.2923077 L54.0031538,15.2923077 L54.0031538,17.1128205 Z M31.5871795,0.757333333 C30.2582051,0.757333333 29.2023077,2.26835897 29.2023077,4.13438462 C29.2023077,6.01679487 30.2582051,7.526 31.5871795,7.526 C32.8979487,7.526 33.9538462,6.01497436 33.9538462,4.13620513 C33.9538462,2.27017949 32.8979487,0.760974359 31.5871795,0.760974359 L31.5871795,0.757333333 Z M37.9771795,1.29438462 C36.7574359,1.29438462 35.3920513,3.11853846 35.2464103,4.33828205 C35.064359,5.94033333 35.4830769,7.52417949 37.2489744,7.74992308 C38.9966667,7.97384615 40.1253846,6.106 40.3620513,4.686 C40.5805128,3.266 39.4517949,1.60933333 38.2138462,1.32897436 C38.0317949,1.31076923 38.0317949,1.31076923 37.9771795,1.2925641 L37.9771795,1.29438462 Z M26.5079487,5.81471795 L26.3258974,5.81471795 C24.414359,5.99676923 24.1230769,8.76758974 24.1230769,8.76758974 C23.8682051,10.0546923 24.7420513,12.8000256 27.1269231,12.2902821 C29.53,11.7805385 29.2205128,8.93507692 29.1476923,8.3215641 C28.965641,7.39310256 27.964359,5.79105128 26.5079487,5.81471795 L26.5079487,5.81471795 Z M41.5453846,7.40402564 C39.4517949,7.40402564 39.1605128,9.33923077 39.1605128,10.7027949 C39.1605128,12.0172051 39.3425641,13.8195128 41.8912821,13.7648974 C44.4946154,13.7648974 44.2033333,10.8156667 44.2033333,10.1329744 C44.2033333,9.45028205 43.6389744,7.40220513 41.5453846,7.40220513 L41.5453846,7.40402564 Z M34.1541026,9.67420513 C32.8069231,9.61958974 31.5871795,10.4788718 31.0046154,11.434641 C30.0033333,13.1459231 28.4012821,14.2200256 28.1828205,14.5113077 C27.9461538,14.8025897 24.8876923,16.4410513 25.5794872,19.4448974 C26.2530769,22.4669487 28.6379487,22.4123333 28.6379487,22.4123333 C28.6379487,22.4123333 30.385641,22.5943846 32.4246154,22.1210513 C34.4635897,21.6659231 36.2294872,22.3031026 36.2294872,22.3031026 C36.2294872,22.3031026 40.9810256,23.9051538 42.2735897,20.8284872 C43.5661538,17.7700256 41.5453846,16.1861795 41.5453846,16.1861795 C41.5453846,16.1861795 38.8146154,14.0743846 37.2489744,11.7987436 C36.2841026,10.3277692 35.1917949,9.76887179 34.1541026,9.74702564 L34.1541026,9.67420513 Z M32.0058974,13.1823333 L33.3894872,13.1823333 L33.3894872,20.6464359 L30.3128205,20.6464359 C28.4923077,20.6464359 27.7641026,18.4436154 28.1282051,17.1874615 C28.7107692,15.3305385 30.3492308,15.1848974 30.3492308,15.1848974 L32.0058974,15.1848974 L32.0058974,13.1823333 Z M35.5923077,15.3487436 L35.5923077,18.8987436 C35.5923077,19.2628462 36.1566667,19.3356667 36.1566667,19.3356667 L37.6312821,19.3356667 L37.6312821,15.3851538 L39.1605128,15.3851538 L39.1605128,20.6464359 L35.5923077,20.6464359 C34.2269231,20.2823333 34.1541026,19.2992564 34.1541026,19.2992564 L34.1541026,15.3851538 L35.5923077,15.3851538 L35.5923077,15.3487436 Z M30.6405128,16.404641 C29.0566667,16.404641 29.0202564,19.4448974 30.6405128,19.4448974 L31.8784615,19.4448974 L31.8784615,16.404641 L30.6405128,16.404641 Z" id="Shape"></path>
            </g>
        </g>
    </g>
</svg>