<?xml version="1.0" encoding="UTF-8"?>
<svg width="71px" height="17px" viewBox="0 0 71 17" version="1.1" xmlns="http://www.w3.org/2000/svg" xmlns:xlink="http://www.w3.org/1999/xlink">
    <!-- Generator: Sketch 54.1 (76490) - https://sketchapp.com -->
    <title>coupang</title>
    <desc>Created with Sketch.</desc>
    <g id="Page-1" stroke="none" stroke-width="1" fill="none" fill-rule="evenodd">
        <g id="ν† ν”½μ„ΈνΈ" transform="translate(-9.000000, -146.000000)">
            <g id="coupang" transform="translate(9.000000, 146.000000)">
                <path d="M8.25581395,3.05465116 L6.81930233,4.26 C6.44150719,3.41008853 5.60283036,2.85849723 4.6727907,2.84825581 C3.10418605,2.84825581 2.19604651,3.44267442 2.19604651,5.20116279 L2.19604651,7.67790698 C2.19604651,8.33837209 2.46848837,10.0803488 4.24348837,10.0803488 C5.27549521,10.0788072 6.23493348,9.54924716 6.78627907,8.67686047 L8.25581395,9.81616279 C7.39113651,11.1928829 5.86896511,12.0166094 4.24348837,11.9874419 C3.13028491,12.044503 2.04302671,11.6387614 1.23935912,10.866365 C0.43569153,10.0939685 -0.0128588665,9.02366053 -3.66677175e-16,7.90906977 C-3.66677175e-16,6.11755814 0.0577906977,6.45604651 0.0577906977,4.71406977 C0.139872003,2.72531508 1.71939321,1.12435241 3.70686047,1.01546512 C5.49704789,0.704697153 7.29671801,1.51144583 8.25581395,3.05465116 Z" id="Path" fill="#56312D"></path>
                <path d="M19.7231395,1.18883721 L21.8613953,1.18883721 C21.8613953,1.18883721 21.8613953,6.04325581 21.8613953,7.24860465 C21.8613953,8.45395349 22.2906977,10.1216279 23.9418605,10.1216279 C25.5930233,10.1216279 26.2369767,9.37034884 26.2369767,7.31465116 L26.2369767,1.25488372 L28.3752326,1.25488372 L28.3752326,11.9296512 L26.5424419,11.9296512 L26.5424419,10.9637209 C25.6438958,11.6600538 24.5419607,12.0428312 23.4052326,12.0534884 C21.3311111,11.9818059 19.6949485,10.2649357 19.7231395,8.18976744 C19.7231395,5.96069767 19.6983721,1.18883721 19.7231395,1.18883721 Z" id="Path" fill="#56312D"></path>
                <path d="M59.772093,12.0534884 L57.6338372,12.0534884 C57.6338372,12.0534884 57.6338372,7.19906977 57.6338372,5.99372093 C57.6338372,4.78837209 57.1632558,3.12895349 55.5203488,3.12895349 C53.8774419,3.12895349 53.2582558,4.25174419 53.2582558,6.19186047 L53.2582558,11.9709302 L51.12,11.9709302 L51.12,1.31267442 L52.9610465,1.31267442 L52.9610465,2.27860465 C52.9610465,2.27860465 53.5389535,1.11453488 55.867093,1.18883721 C56.9070622,1.14965883 57.9168546,1.54273217 58.6566452,2.27470259 C59.3964359,3.00667302 59.8002178,4.01223133 59.772093,5.05255814 C59.772093,7.28988372 59.8051163,12.0534884 59.772093,12.0534884 Z" id="Path" fill="#C1CC56"></path>
                <path d="M12.9946512,0.98244186 L14.1009302,0.98244186 C16.1462812,0.991532399 17.7995551,2.65218701 17.7995349,4.69755814 L17.7995349,8.25581395 C17.7995551,10.3011851 16.1462812,11.9618397 14.1009302,11.9709302 L12.9946512,11.9709302 C10.9479575,11.9618589 9.29230876,10.3025227 9.2877907,8.25581395 L9.2877907,4.69755814 C9.29230876,2.65084936 10.9479575,0.99151321 12.9946512,0.98244186 Z M13.1432558,2.84825581 C12.0039099,2.97814156 11.1759949,3.99288695 11.2774419,5.13511628 L11.2774419,7.77697674 C11.1759949,8.91920607 12.0039099,9.93395147 13.1432558,10.0638372 L13.9688372,10.0638372 C15.1081831,9.93395147 15.9360981,8.91920607 15.8346512,7.77697674 L15.8346512,5.13511628 C15.9386417,4.01541867 15.1476549,3.01035757 14.0348837,2.84825581 L13.1432558,2.84825581 Z" id="Shape" fill="#56312D"></path>
                <path d="M30.4639535,1.25488372 L30.4639535,16.2144186 L32.7838372,16.2144186 L32.7838372,11.2609302 C32.7838372,11.2609302 33.2626744,12.0122093 35.3761628,12.0122093 C37.4344006,11.9978886 39.1265533,10.3852816 39.2398837,8.33011628 L39.2398837,4.72232558 C39.2398837,3.6655814 38.34,1.22186047 35.9375581,1.10627907 C33.5351163,0.990697674 32.8416279,1.65116279 32.5196512,2.2455814 L32.5196512,1.22186047 L30.4639535,1.25488372 Z M34.4680233,2.85651163 L35.5,2.85651163 C36.6393459,2.98639737 37.4672609,4.00114277 37.365814,5.14337209 L37.365814,7.78523256 C37.4625324,8.92439527 36.63586,9.93395976 35.5,10.0638372 L34.4680233,10.0638372 C33.3286774,9.93395147 32.5007624,8.91920607 32.6022093,7.77697674 L32.6022093,5.13511628 C32.5007624,3.99288695 33.3286774,2.97814156 34.4680233,2.84825581 L34.4680233,2.85651163 Z" id="Shape" fill="#DC4444"></path>
                <path d="M41.3533721,1.98139535 L42.2284884,3.42616279 C43.0092418,2.9331023 43.9389464,2.73137394 44.8538372,2.85651163 C45.4449363,2.84704067 46.0110532,3.094558 46.4054771,3.53491881 C46.799901,3.97527963 46.9838068,4.56513704 46.9095349,5.15162791 C46.1660549,4.6996557 45.3008117,4.4891132 44.4327907,4.54895349 C42.8430997,4.5009828 41.3992003,5.47022101 40.8415116,6.95965116 C40.5112791,8.28883721 40.5360465,11.3930233 43.1944186,11.9131395 C45.8527907,12.4332558 47.082907,10.9802326 47.082907,10.9802326 L47.082907,11.979186 L48.8909302,11.979186 L48.8909302,4.35906977 C48.8909302,0.561395349 43.6154651,-0.0825581395 41.3203488,1.98139535 L41.3533721,1.98139535 Z M44.5813953,6.26616279 L44.8538372,6.26616279 C45.8523809,6.26616279 46.6618605,7.07564237 46.6618605,8.07418605 L46.6618605,8.43744186 C46.6618605,9.43598553 45.8523809,10.2454651 44.8538372,10.2454651 L44.5813953,10.2454651 C43.58473,10.240945 42.7778922,9.43410724 42.7733721,8.43744186 L42.7733721,8.07418605 C42.7733721,7.07564237 43.5828517,6.26616279 44.5813953,6.26616279 L44.5813953,6.26616279 Z" id="Shape" fill="#F3BC61"></path>
                <path d="M68.3003488,1.94011628 C68.9651406,1.16282051 70.0536687,0.899842777 71,1.28790698 L71,2.88953488 C70.3949714,2.6871635 69.7281826,2.81551253 69.2415116,3.22802326 C69.4881835,3.74371681 69.6178637,4.3075435 69.6212791,4.87918605 L69.6212791,4.87918605 C69.672209,6.88535434 68.0936188,8.55615187 66.0877907,8.61906977 C64.8494186,8.61906977 64.4366279,8.70162791 63.3303488,10.2702326 C63.1569767,10.6004651 63.4624419,10.4683721 63.4624419,10.4683721 C64.8774785,10.0099247 66.3853679,9.91621403 67.8462791,10.1959302 C69.467513,10.4897476 70.6779313,11.8535993 70.777093,13.4982558 C70.8266279,15.2567442 68.1352326,16.8666279 68.1352326,16.8666279 L67.2105814,15.3227907 C68.0939535,14.4311628 69.2745349,13.8367442 68.1517442,12.6066279 C67.0289535,11.3765116 64.2632558,12.0452326 62.967093,12.334186 C61.6709302,12.6231395 61.3819767,11.2113953 61.4975581,10.1463953 C61.7096648,9.25972096 62.268844,8.49531115 63.0496512,8.02465116 C62.0101369,7.31244521 61.3915799,6.13100149 61.3984884,4.87093023 L61.3984884,4.87093023 C61.3830488,3.90169167 61.7538926,2.96614 62.4291932,2.27070428 C63.1044939,1.57526856 64.0287494,1.17710556 64.9980233,1.16406977 L66.1455814,1.16406977 C66.9329663,1.16821761 67.6945237,1.44541283 68.3003488,1.94837209 L68.3003488,1.94011628 Z M65.4190698,2.87302326 C64.3153115,2.82145758 63.3760328,3.66865012 63.3138372,4.77186047 L63.3138372,5.15162791 C63.3760328,6.25483825 64.3153115,7.10203079 65.4190698,7.05046512 L65.7410465,7.05046512 C66.8448048,7.10203079 67.7840835,6.25483825 67.8462791,5.15162791 L67.8462791,4.77186047 C67.7840835,3.66865012 66.8448048,2.82145758 65.7410465,2.87302326 L65.4190698,2.87302326 Z" id="Shape" fill="#6FBCDF"></path>
            </g>
        </g>
    </g>
</svg>