<?xml version="1.0" encoding="UTF-8"?>
<svg width="71px" height="29px" viewBox="0 0 71 29" version="1.1" xmlns="http://www.w3.org/2000/svg" xmlns:xlink="http://www.w3.org/1999/xlink">
    <!-- Generator: Sketch 54.1 (76490) - https://sketchapp.com -->
    <title>dabang</title>
    <desc>Created with Sketch.</desc>
    <g id="Page-1" stroke="none" stroke-width="1" fill="none" fill-rule="evenodd">
        <g id="ν† ν”½μ„ΈνΈ" transform="translate(-105.000000, -20.000000)" fill-rule="nonzero">
            <g id="dabang" transform="translate(105.000000, 20.000000)">
                <path d="M62.8780303,18.0673485 C61.3600796,18.0329634 59.8882857,18.5904319 58.7740152,19.6218182 C57.695962,20.5909285 57.0802592,21.9723203 57.0802592,23.4219318 C57.0802592,24.8715433 57.695962,26.2529351 58.7740152,27.2220455 C61.1056434,29.3257496 64.6504172,29.3257496 66.9820455,27.2220455 C68.0600987,26.2529351 68.6758015,24.8715433 68.6758015,23.4219318 C68.6758015,21.9723203 68.0600987,20.5909285 66.9820455,19.6218182 C65.8674719,18.5909212 64.3958838,18.0335307 62.8780303,18.0673485 L62.8780303,18.0673485 Z M64.2388636,24.7424242 C63.8756667,25.0968438 63.3853947,25.2906272 62.8780303,25.280303 C62.3647423,25.2881003 61.868711,25.0950921 61.4956818,24.7424242 C61.1275862,24.4109218 60.9174188,23.9388137 60.9174188,23.443447 C60.9174188,22.9480802 61.1275862,22.4759721 61.4956818,22.1444697 C61.8690207,21.7922916 62.364845,21.5993639 62.8780303,21.6065909 C63.3852858,21.5968711 63.8753329,21.7905657 64.2388636,22.1444697 C64.5950758,22.4826491 64.7967816,22.9522724 64.7967816,23.443447 C64.7967816,23.9346215 64.5950758,24.4042448 64.2388636,24.7424242 L64.2388636,24.7424242 Z" id="Shape" fill="#4C4C4D"></path>
                <path d="M68.6709848,10.219697 L68.6709848,5.01840909 C68.6418442,4.2981751 68.0415712,3.733775 67.3209091,3.74901515 L64.9488636,3.74901515 L64.9488636,17.2121212 L68.6709848,17.2121212 L68.6709848,13.5545455 L70.9300758,13.5545455 L70.9300758,10.219697 L68.6709848,10.219697 Z" id="Path" fill="#4C4C4D"></path>
                <path d="M49.0437879,10.219697 L49.0437879,5.01840909 C49.0146472,4.2981751 48.4143743,3.733775 47.6937121,3.74901515 L45.3216667,3.74901515 L45.3216667,19.7025 L49.0437879,19.7025 L49.0437879,13.5545455 L51.3028788,13.5545455 L51.3028788,10.219697 L49.0437879,10.219697 Z" id="Path" fill="#4C4C4D"></path>
                <path d="M37.6999242,6.99242424 L43.4498485,6.99242424 L43.4498485,3.64681818 L33.9831818,3.64681818 L33.9831818,15.9319697 L33.9831818,15.9319697 C34.0065969,16.6564498 34.6085568,17.2272324 35.3332576,17.2121212 L43.5681818,17.2121212 L43.5681818,13.9149242 L37.6999242,13.9149242 L37.6999242,6.99242424 Z" id="Path" fill="#4C4C4D"></path>
                <path d="M54.3741667,17.2121212 L63.1254545,17.2121212 L63.1254545,3.70060606 L59.5754545,3.70060606 L59.5754545,7.93909091 L56.5740909,7.93909091 L56.5740909,3.70060606 L53.0187121,3.70060606 L53.0187121,15.9373485 C53.0450082,16.661849 53.6494165,17.2302807 54.3741667,17.2121212 Z M56.5740909,11.1556061 L59.5754545,11.1556061 L59.5754545,14.1031818 L56.5740909,14.1031818 L56.5740909,11.1556061 Z" id="Shape" fill="#4C4C4D"></path>
                <path d="M25.1942424,8.0305303 L13.2156818,0.683106061 L13.1296212,0.629318182 C12.8938381,0.498128398 12.6069952,0.498128398 12.3712121,0.629318182 L12.2905303,0.677727273 L0.333484848,8.0305303 C0.142552738,8.16349831 0.0204133176,8.37428731 7.12314898e-16,8.60606061 L7.12314898e-16,23.7742424 C-0.000450622146,23.867778 0.0216920734,23.9600392 0.0645454545,24.0431818 L0.0645454545,24.0431818 L1.02734848,23.3923485 L1.02734848,23.3923485 L6.61590909,19.5787879 L6.61590909,12.3335606 C6.63128651,12.0930979 6.75620432,11.8730046 6.95477273,11.7365152 L12.3335606,8.44469697 L12.4142424,8.39090909 C12.6446258,8.26851027 12.920753,8.26851027 13.1511364,8.39090909 L13.2318182,8.44469697 L18.6106061,11.7365152 C18.8091745,11.8730046 18.9340923,12.0930979 18.9494697,12.3335606 L18.9494697,19.5787879 L24.5380303,23.3869697 L24.5380303,23.3869697 L25.5008333,24.037803 C25.5436867,23.9546604 25.5658294,23.8623992 25.5653788,23.7688636 L25.5653788,8.60606061 C25.5370117,8.36725882 25.4000677,8.15489643 25.1942424,8.0305303 Z" id="Path" fill="#5688C3"></path>
                <path d="M24.5003788,23.3869697 L24.5003788,23.3869697 L13.2318182,15.7060606 L13.1834091,15.6737879 C12.9297469,15.5163281 12.608738,15.5163281 12.3550758,15.6737879 L12.3066667,15.7060606 L1.01121212,23.3869697 L1.01121212,23.3869697 L0.0645454545,24.037803 C0.106692897,24.1235939 0.169544126,24.1975365 0.247424242,24.2529545 L5.56166667,27.8621212 C5.76142849,27.9842306 6.01273818,27.9842306 6.2125,27.8621212 L12.2636364,23.7419697 L12.3712121,23.6666667 C12.6089254,23.5355443 12.8972867,23.5355443 13.135,23.6666667 L13.2533333,23.7473485 L19.3152273,27.8621212 C19.5149891,27.9842306 19.7662988,27.9842306 19.9660606,27.8621212 L25.280303,24.2529545 C25.3577336,24.1970482 25.42048,24.1232288 25.4631818,24.037803 L24.5003788,23.3869697 Z" id="Path" fill="#4C4C4D"></path>
            </g>
        </g>
    </g>
</svg>