<?xml version="1.0" encoding="UTF-8"?>
<svg width="72px" height="24px" viewBox="0 0 72 24" version="1.1" xmlns="http://www.w3.org/2000/svg" xmlns:xlink="http://www.w3.org/1999/xlink">
    <!-- Generator: Sketch 54.1 (76490) - https://sketchapp.com -->
    <title>didi</title>
    <desc>Created with Sketch.</desc>
    <g id="Page-1" stroke="none" stroke-width="1" fill="none" fill-rule="evenodd">
        <g id="ν† ν”½μ„ΈνΈ" transform="translate(-7.000000, -635.000000)" fill-rule="nonzero">
            <g id="didi" transform="translate(7.000000, 635.000000)">
                <path d="M34.1796226,4.8090566 L38.5267925,4.8090566 C42.9011321,4.8090566 46.3788679,7.49886792 46.3788679,12.0362264 C46.3788679,16.9811321 43.3901887,19.5079245 38.5267925,19.5079245 L34.1796226,19.5079245 L34.1796226,4.8090566 Z M36.2716981,17.6603774 L38.4724528,17.6603774 C42.0860377,17.6603774 44.0966038,15.9215094 44.0966038,12.1177358 C44.0966038,8.69433962 41.76,6.65660377 38.7169811,6.65660377 L36.2445283,6.65660377 L36.2445283,17.6603774 L36.2716981,17.6603774 Z" id="Shape" fill="#646464"></path>
                <path d="M51.269434,6.35773585 L49.0415094,6.35773585 L49.0415094,4.12981132 L51.269434,4.12981132 L51.269434,6.35773585 Z M49.1501887,8.77584906 L51.1335849,8.77584906 L51.1335849,19.5350943 L49.1501887,19.5350943 L49.1501887,8.77584906 Z" id="Shape" fill="#646464"></path>
                <path d="M54.8286792,4.8090566 L59.1758491,4.8090566 C63.5501887,4.8090566 67.0279245,7.49886792 67.0279245,12.0362264 C67.0279245,16.9811321 64.0392453,19.5079245 59.1758491,19.5079245 L54.8286792,19.5079245 L54.8286792,4.8090566 Z M56.9479245,17.6603774 L59.1486792,17.6603774 C62.7622642,17.6603774 64.7728302,15.9215094 64.7728302,12.1177358 C64.7728302,8.69433962 62.4362264,6.65660377 59.3932075,6.65660377 L56.9207547,6.65660377 L56.9207547,17.6603774 L56.9479245,17.6603774 Z" id="Shape" fill="#646464"></path>
                <path d="M71.9184906,6.35773585 L69.690566,6.35773585 L69.690566,4.12981132 L71.9184906,4.12981132 L71.9184906,6.35773585 Z M69.8264151,8.77584906 L71.8098113,8.77584906 L71.8098113,19.5350943 L69.8264151,19.5350943 L69.8264151,8.77584906 Z" id="Shape" fill="#646464"></path>
                <path d="M14.6173585,18.3124528 C19.4538086,18.2022454 23.3399345,14.292131 23.4203774,9.45509434 L23.4203774,5.29811321 L28.8,5.29811321 L28.8,9.88981132 C28.6913208,17.3615094 22.1977358,23.2301887 14.6173585,23.3932075 C6.90113208,23.3388679 0.353207547,17.4158491 0.271698113,9.88981132 L0.271698113,1.65735849 C0.243743359,1.28678914 0.376887303,0.922154483 0.637049427,0.656789116 C0.897211551,0.39142375 1.25913847,0.251086127 1.63018868,0.271698113 L23.4203774,0.271698113 L23.4203774,5.29811321 L6.33056604,5.29811321 C6.13904154,5.28324879 5.95059518,5.35288639 5.81475965,5.48872192 C5.67892412,5.62455745 5.60928652,5.81300381 5.62415094,6.0045283 L5.62415094,9.37358491 C5.69198494,14.3031543 9.68746852,18.274496 14.6173585,18.3124528 Z" id="Path" fill="#FC9153"></path>
            </g>
        </g>
    </g>
</svg>