<?xml version="1.0" encoding="UTF-8"?>
<svg width="71px" height="14px" viewBox="0 0 71 14" version="1.1" xmlns="http://www.w3.org/2000/svg" xmlns:xlink="http://www.w3.org/1999/xlink">
    <!-- Generator: Sketch 54.1 (76490) - https://sketchapp.com -->
    <title>facebook</title>
    <desc>Created with Sketch.</desc>
    <g id="Page-1" stroke="none" stroke-width="1" fill="none" fill-rule="evenodd">
        <g id="ν† ν”½μ„ΈνΈ" transform="translate(-11.000000, -488.000000)" fill="#000000" fill-rule="nonzero">
            <g id="facebook" transform="translate(11.000000, 488.000000)">
                <path d="M58.5462162,4.82128378 C57.5723649,4.56222973 56.5889189,4.56222973 55.6198649,4.82128378 C54.1662838,5.20986486 53.1924324,6.12614865 52.8806081,7.58932432 C52.7079054,8.38567568 52.6743243,9.2347973 52.7222973,10.0551351 C52.8230405,11.9260811 53.9839865,13.2597297 55.7781757,13.6770946 L55.8549324,13.6770946 C55.9220946,13.6770946 55.9940541,13.7250676 56.0612162,13.7250676 L56.1331757,13.7250676 C56.219527,13.7250676 56.3250676,13.7730405 56.4354054,13.7730405 C56.7856081,13.8210135 57.2365541,13.8354054 57.6107432,13.7730405 L57.6683108,13.7730405 C59.5248649,13.6770946 60.930473,12.5065541 61.3430405,10.7123649 C61.5685135,9.72891892 61.5685135,8.74067568 61.3430405,7.75243243 C60.9976351,6.20290541 60.0573649,5.20986486 58.5174324,4.7972973 L58.5462162,4.82128378 Z M58.6661486,10.2326351 C58.6661486,10.2902027 58.6661486,10.3477703 58.6181757,10.4053378 C58.4310811,11.230473 57.8314189,11.6766216 57.0302703,11.6430405 C56.1715541,11.5950676 55.5814865,11.1009459 55.4951351,10.2422297 C55.4375676,9.61378378 55.427973,8.97574324 55.4951351,8.3472973 C55.5766892,7.35425676 56.1955405,6.81216216 57.1262162,6.83135135 C57.8889865,6.83135135 58.4358784,7.2775 58.6277703,8.01628378 C58.8100676,8.75027027 58.6805405,10.0647297 58.6757432,10.2326351 L58.6661486,10.2326351 Z M62.3984459,0.441351351 L62.3984459,13.6435135 L65.2000676,13.6435135 L65.2000676,9.60418919 L67.7810135,13.6483108 L70.7505405,13.6483108 L67.9489189,9.25398649 L70.7505405,4.87885135 L67.7810135,4.87885135 L65.2000676,8.91337838 L65.2000676,0.100743243 L62.3984459,0.441351351 Z M32.5736486,9.54182432 C32.5736486,8.92777027 32.5736486,8.31371622 32.4825,7.70925676 C32.2426351,6.05898649 31.24,5.01317568 29.6137162,4.73972973 C28.9948649,4.63418919 28.3376351,4.64858108 27.7043919,4.69175676 C25.9773649,4.85486486 24.6677027,5.92945946 24.3990541,7.55094595 C24.2359459,8.53439189 24.2167568,9.57540541 24.3462838,10.5588514 C24.542973,12.0412162 25.2673649,12.9862838 26.5146622,13.442027 C27.0855405,13.6147297 29.8775676,14.3439189 32.3337838,13.1062162 L32.2330405,12.7464189 C32.1179054,12.2618919 31.9835811,11.7869595 31.8540541,11.3072297 L31.8540541,11.2592568 C31.8540541,11.2592568 31.8012838,11.2592568 31.7101351,11.3072297 C31.6045946,11.3552027 31.4942568,11.3695946 31.3887162,11.4031757 L31.3311486,11.4031757 C30.9569595,11.5087162 30.4244595,11.6382432 29.8631757,11.7102027 C29.3930405,11.7581757 28.9133108,11.7581757 28.4335811,11.7102027 C27.6516216,11.5806757 27.0567568,11.1633108 27.0855405,10.1750676 L32.5784459,10.1750676 L32.5784459,10.0791216 L32.5736486,9.54182432 Z M30.0550676,8.3377027 L27.027973,8.3377027 C27.027973,7.73804054 27.1191216,7.17675676 27.6516216,6.83614865 C28.2177027,6.47635135 28.8461486,6.46195946 29.4314189,6.78337838 C30.0262838,7.10959459 30.0694595,7.69966216 30.0550676,8.3377027 L30.0550676,8.3377027 Z M23.9529054,13.005473 C23.832973,12.5641216 23.6938514,12.1227703 23.559527,11.7006081 L23.4347973,11.230473 C23.4347973,11.230473 20.1582432,12.8039865 19.6497297,9.81527027 C19.6017568,9.32114865 19.6017568,8.81263514 19.6977027,8.32810811 C19.8272297,7.41182432 20.3837162,6.9177027 21.2760135,6.83614865 C21.5782432,6.78817568 21.8900676,6.83614865 22.1875,6.88412162 C22.5952703,6.95128378 22.9886486,7.07601351 23.4347973,7.18635135 C23.5883108,6.71621622 23.7466216,6.24608108 23.8953378,5.77594595 C23.9433108,5.70398649 23.9433108,5.63682432 23.9529054,5.58405405 L24.0248649,5.30101351 C24.0248649,5.25304054 23.9625,5.22425676 23.9001351,5.18587838 C23.8233784,5.12351351 23.6986486,5.07074324 23.4971622,4.99878378 C23.4156081,4.95081081 23.3388514,4.94121622 23.2572973,4.91722973 C23.1853378,4.86925676 23.1373649,4.86925676 23.1373649,4.86925676 C22.2786486,4.62459459 21.3959459,4.60540541 20.4988514,4.69655405 C18.6087162,4.89804054 17.3230405,6.01101351 16.9680405,7.85317568 C16.7809459,8.82222973 16.7905405,9.80567568 17.0160135,10.7747297 C17.3374324,12.2283108 18.2201351,13.1733784 19.654527,13.5907432 C20.59,13.8641892 21.5494595,13.8785811 22.5041216,13.7298649 C22.9070946,13.6675 23.4827703,13.4612162 23.8953378,13.3125 L24.0536486,13.2549324 L23.9768919,13.005473 L23.9529054,13.005473 Z M13.360473,5.90547297 C13.3125,5.8575 13.2933108,5.83351351 13.2693243,5.80472973 L13.2021622,5.73756757 C12.5737162,5.09472973 12.3338514,4.93641892 11.8397297,4.7925 C9.94,4.23121622 8.08824324,5.22905405 7.50297297,7.13837838 C7.14317568,8.31371622 7.13837838,9.52263514 7.34945946,10.7123649 C7.8052027,13.2885135 9.71932432,14.152027 11.762973,13.7250676 C12.3914189,13.5955405 12.8567568,13.2021622 13.2885135,12.6600676 C13.2885135,12.6600676 13.3364865,12.6120946 13.3748649,12.5209459 L13.3748649,13.6531081 L15.9893919,13.6531081 L15.9893919,4.78290541 L13.3748649,4.78290541 L13.3748649,5.90547297 L13.360473,5.90547297 Z M13.1302027,10.3621622 C13.0438514,11.1825 12.3818243,11.6718243 11.5950676,11.6430405 C10.7939189,11.5950676 10.2614189,11.1825 10.0887162,10.4101351 C9.88243243,9.31635135 10.1366892,8.01148649 10.1462838,7.90594595 C10.3573649,7.17195946 10.8898649,6.80736486 11.6766216,6.82655405 C12.4489865,6.82655405 13.0390541,7.30148649 13.1302027,8.09783784 C13.2069595,8.84621622 13.2069595,9.61858108 13.1302027,10.3621622 L13.1302027,10.3621622 Z M6.97047297,4.77810811 L4.97,4.77810811 L4.97,3.44925676 C5.11391892,2.19236486 7.19114865,2.43222973 7.19114865,2.43222973 L7.19114865,0.283040541 C7.11918919,0.283040541 3.06547297,-0.695608108 2.25952703,2.38905405 C2.1347973,2.77283784 2.13959459,4.54304054 2.14439189,4.76371622 L0.412567568,4.76371622 L0.412567568,7.12878378 L2.24993243,7.12878378 L2.24993243,13.5571622 L4.92682432,13.5571622 L4.92682432,7.12878378 L6.97527027,7.12878378 L7.20554054,4.76371622 L6.97527027,4.76371622 L6.97047297,4.77810811 Z M48.9995946,4.82128378 C48.0257432,4.56222973 47.0422973,4.56222973 46.0732432,4.82128378 C44.6196622,5.20986486 43.6458108,6.12614865 43.3291892,7.58932432 C43.1564865,8.38567568 43.1229054,9.2347973 43.1708784,10.0551351 C43.2764189,11.9260811 44.4325676,13.2597297 46.2315541,13.6770946 L46.3083108,13.6770946 C46.375473,13.6770946 46.4474324,13.7250676 46.5145946,13.7250676 L46.5865541,13.7250676 C46.6729054,13.7250676 46.7784459,13.7730405 46.8887838,13.7730405 C47.2389865,13.8210135 47.6899324,13.8354054 48.0641216,13.7730405 L48.1216892,13.7730405 C49.9782432,13.6770946 51.3838514,12.5065541 51.7964189,10.7123649 C52.0218919,9.72891892 52.0218919,8.74067568 51.7964189,7.75243243 C51.4462162,6.2077027 50.5107432,5.20986486 48.9708108,4.7972973 L48.9995946,4.82128378 Z M49.1147297,10.2326351 C49.1147297,10.2902027 49.1147297,10.3477703 49.0667568,10.4053378 C48.8796622,11.230473 48.28,11.6766216 47.4788514,11.6430405 C46.6201351,11.5950676 46.0300676,11.1009459 45.9437162,10.2422297 C45.8837494,9.61200886 45.8837494,8.97751816 45.9437162,8.3472973 C46.0252703,7.35425676 46.6441216,6.81216216 47.5747973,6.83135135 C48.3375676,6.83135135 48.8844595,7.2775 49.0763514,8.01628378 C49.2634459,8.75027027 49.1339189,10.0647297 49.1243243,10.2326351 L49.1147297,10.2326351 Z M39.0739865,4.65817568 C38.0185811,4.54304054 37.1022973,4.86445946 36.3299324,5.79513514 L36.3299324,0.0911486486 L33.5283108,0.431756757 L33.5283108,13.6291216 L36.3299324,13.6291216 L36.3299324,12.8471622 C36.7089189,13.1158108 37.0735135,13.442027 37.5052703,13.5955405 C39.1363514,14.1808108 41.2855405,13.7058784 42.0387162,11.5231081 C42.5232432,10.1222973 42.5088514,8.68790541 42.1442568,7.2727027 C41.7460811,5.69918919 40.695473,4.83087838 39.0739865,4.65817568 Z M39.4961486,10.3765541 C39.3714189,11.2448649 38.6806081,11.7006081 37.8602703,11.6382432 C37.6539865,11.6382432 37.4668919,11.5806757 37.3037838,11.5135135 C36.6417568,11.134527 36.4402703,10.4964865 36.3827027,10.0935135 C36.3347297,9.47466216 36.2867568,8.17939189 36.5889865,7.57013514 C36.8432432,7.1 37.2941892,6.84574324 37.8842568,6.82655405 C38.7285811,6.77858108 39.3666216,7.21513514 39.4913514,8.07385135 C39.5968919,8.82702703 39.6016892,9.62337838 39.4913514,10.3765541 L39.4961486,10.3765541 Z" id="Shape"></path>
            </g>
        </g>
    </g>
</svg>