<?xml version="1.0" encoding="UTF-8"?>
<svg width="71px" height="33px" viewBox="0 0 71 33" version="1.1" xmlns="http://www.w3.org/2000/svg" xmlns:xlink="http://www.w3.org/1999/xlink">
    <!-- Generator: Sketch 54.1 (76490) - https://sketchapp.com -->
    <title>gojek</title>
    <desc>Created with Sketch.</desc>
    <g id="Page-1" stroke="none" stroke-width="1" fill="none" fill-rule="evenodd">
        <g id="ν† ν”½μ„ΈνΈ" transform="translate(-7.000000, -735.000000)">
            <g id="gojek" transform="translate(7.000000, 735.000000)">
                <path d="M31.4828504,19.93481 L36.0405107,19.93481 L36.0405107,20.03481 L31.4828504,20.03481 L31.4828504,19.93481 Z M32.6203682,19.1219359 L35.584323,19.1219359 L35.584323,19.2627553 L32.6245843,19.2627553 L32.6245843,19.1219359 L32.6203682,19.1219359 Z M33.3851781,18.3149644 L35.4435036,18.3149644 L35.4435036,18.5030048 L33.3851781,18.5030048 L33.3851781,18.3149644 L33.3851781,18.3149644 Z M26.2961401,2.81048694 C26.0789769,2.92500009 25.8102383,2.85223462 25.6805193,2.64379727 C25.5508004,2.43535992 25.6042018,2.16211368 25.8028504,2.01785036 C27.9480285,0.672616785 30.098266,0 32.2535629,0 C34.4088599,0 36.5590974,0.672616785 38.7042755,2.01785036 C38.9156895,2.15792531 38.9770614,2.44090749 38.8426702,2.65597918 C38.7082789,2.87105087 38.4270328,2.93994223 38.2084561,2.81133017 C36.2201188,1.56391132 34.2351544,0.9402019 32.2535629,0.9402019 C30.2719715,0.9402019 28.2861639,1.56363025 26.2961401,2.81048694 Z M29.4051306,6.1319715 C29.2743603,6.20605255 29.1084446,6.16402835 29.0287067,6.0366284 C28.9489688,5.90922844 28.9836853,5.74163127 29.1074703,5.65638955 C30.1536382,5.00091845 31.2023357,4.6731829 32.2535629,4.6731829 C33.3047902,4.6731829 34.3534877,5.00091845 35.3996556,5.65638955 C35.5234406,5.74163127 35.5581571,5.90922844 35.4784192,6.0366284 C35.3986813,6.16402835 35.2327656,6.20605255 35.1019952,6.1319715 C34.149707,5.53552652 33.2002296,5.23730404 32.2535629,5.23730404 C31.3068963,5.23730404 30.3574188,5.53552652 29.4051306,6.1319715 Z M27.8063658,4.63776722 C29.2926999,3.70684086 30.775099,3.24137767 32.2535629,3.24137767 C33.7320269,3.24137767 35.214426,3.70684086 36.7007601,4.63776722 C36.8749454,4.73439611 37.0942938,4.677719 37.1998656,4.50880408 C37.3054375,4.33988917 37.2602642,4.11788601 37.0970784,4.00365796 C35.4859462,2.99178147 33.871441,2.48584323 32.2535629,2.48584323 C30.6356849,2.48584323 29.0211797,2.99178147 27.4100475,4.00365796 C27.2468617,4.11788601 27.2016884,4.33988917 27.3072603,4.50880408 C27.4128321,4.677719 27.6321805,4.73439611 27.8063658,4.63776722 Z M32.444133,6.67754157 C32.9517949,6.67356982 33.4164883,6.96190137 33.638358,7.41853055 C33.8602276,7.87515972 33.7997189,8.41867955 33.4828555,8.81533293 C33.165992,9.2119863 32.6492637,9.39105863 32.154905,9.27553444 L32.6338599,9.62547506 C33.4534798,10.0732304 33.8987055,10.5530285 34.2258789,10.8903207 C34.4940261,11.1576247 35.1719834,11.4240855 35.917399,11.5244299 L35.917399,12.3018884 L37.4841211,11.9038836 C37.6772209,11.8558195 37.7598575,11.9359264 37.7573278,12.1155344 L37.7573278,13.7699525 L36.8584442,13.6856295 L37.6257838,15.1309264 C39.0149052,14.5929215 40.5836195,15.2200265 41.219061,16.5673652 C41.8545025,17.9147038 41.3405579,19.5240473 40.0418262,20.2537069 C38.7430944,20.9833665 37.1012731,20.5851856 36.2810911,19.3416388 C35.460909,18.0980919 35.7413095,16.4321085 36.9233729,15.5255582 L36.1543468,14.276734 L35.5935986,14.9513183 C35.4529726,15.1212201 35.2423864,15.2175058 35.0218884,15.2127197 L34.3321259,15.2127197 L34.3321259,16.8477435 C34.3270307,17.4096739 33.8695537,17.8622561 33.307601,17.8613064 L30.076342,17.8613064 C30.0396154,19.4169091 28.7558922,20.6521636 27.2000281,20.6290212 C25.644164,20.6058788 24.3977477,19.3329902 24.407304,17.7769834 C24.407304,17.7286382 24.407304,17.680574 24.407304,17.632791 L23.5843112,17.6007482 L23.591057,17.0366271 L24.4519952,17.0872209 L24.3870665,16.5163539 L23.9865321,16.2473634 C24.4589837,15.2450836 25.3665092,14.5160775 26.4470784,14.2708314 C26.4740618,13.7050238 26.6806532,12.88962 27.2000831,12.88962 L29.4818646,12.88962 L29.175772,12.520285 C29.1015677,12.4266865 29.1125297,12.2833373 29.2002257,12.1096318 L30.9533017,8.81428741 C31.0469002,8.63720903 31.1716983,8.61275534 31.3158907,8.68021378 C31.0676011,8.273933 31.0580791,7.76523638 31.2909901,7.34994824 C31.5239012,6.9346601 31.962931,6.67753023 32.4390736,6.67754157 L32.444133,6.67754157 Z M25.4014727,17.1403444 L26.4133492,17.1993705 C26.6014446,16.9282284 26.9105614,16.7665801 27.2405582,16.7667933 L27.3088599,16.7667933 L27.6318171,15.86538 C26.6742373,15.6700325 25.720066,16.2141914 25.4006295,17.1378147 L25.4014727,17.1403444 Z M28.1310095,17.299715 L29.142886,17.3587411 C29.0311666,16.8483264 28.719154,16.4041566 28.2768884,16.1259382 L27.8814133,16.996152 C27.9848665,17.0797318 28.0708283,17.182886 28.1343824,17.299715 L28.1310095,17.299715 Z M29.1875772,17.8149287 L28.2482185,17.7786698 C28.2313496,18.3236037 27.7841254,18.7562909 27.2389317,18.7551499 C26.693738,18.7540088 26.2483288,18.3194534 26.2337411,17.7744537 C26.2337411,17.7497189 26.2337411,17.7252652 26.2337411,17.7010926 L25.2969121,17.6648337 C25.2969121,17.7013737 25.2969121,17.7379137 25.2969121,17.7744537 C25.3050097,18.835587 26.1616836,19.6946367 27.2227904,19.7056732 C28.2838972,19.7167096 29.1582535,18.8756641 29.1884204,17.8149287 L29.1875772,17.8149287 Z M35.3878504,11.8111283 C33.9113539,11.5025059 32.897791,11.0218646 32.315962,10.3776366 L31.5823515,11.9317102 C31.5244602,12.03958 31.5197895,12.1681792 31.5697031,12.2799644 L31.9424109,12.9891211 C32.4744893,12.4401781 33.6288717,12.1947981 35.3870071,12.2428622 L35.3870071,11.8077553 L35.3878504,11.8111283 Z M38.6460926,16.7667933 C39.1215503,16.765922 39.5329222,17.0975136 39.633017,17.5623165 C39.7331118,18.0271195 39.4946901,18.4986435 39.0610182,18.6935522 C38.6273463,18.888461 38.1164424,18.7537125 37.8353063,18.3702764 C37.5541701,17.9868404 37.5793092,17.459064 37.8956176,17.1040855 L37.3896793,16.2878385 C36.6270696,16.9321733 36.4782119,18.0501869 37.0456632,18.8716125 C37.6131145,19.693038 38.7114568,19.9494699 39.583976,19.4642366 C40.4564951,18.9790034 40.8180903,17.910658 40.4196369,16.9952478 C40.0211834,16.0798376 38.9928784,15.6164784 38.0431829,15.9244062 L38.5002138,16.780285 C38.5484502,16.772269 38.5972042,16.7677599 38.6460926,16.7667933 L38.6460926,16.7667933 Z" id="Shape" fill="#95C35C"></path>
                <path d="M0.60543943,16.7710095 L0.60543943,10.3118646 C0.60543943,9.05545131 0.858408551,8.17511876 1.36434679,7.67086698 C1.87028504,7.1666152 2.74387173,6.91364608 3.98510689,6.91195962 L9.56054632,6.91195962 L9.56054632,9.87675772 L4.09978622,9.87675772 C3.78554236,9.91610847 3.60228029,10.1058353 3.55,10.4459382 L3.55,17.1209501 C3.6287015,17.4222644 3.83810372,17.6119913 4.17820665,17.6901306 L6.53503563,17.6901306 C7.11068092,17.6901306 7.42492478,17.4871932 7.47776722,17.0813183 L7.47776722,12.7656651 L10.4223278,12.7656651 L10.4223278,17.1631116 C10.4223278,18.0400713 10.3380048,18.6618131 10.1693587,19.0283373 C9.65723674,20.1155424 8.73361837,20.6591449 7.39850356,20.6591449 L4.0019715,20.6591449 C1.99958036,20.6591449 0.887078385,19.8870269 0.664465558,18.342791 C0.625114806,18.0808274 0.60543943,17.5571813 0.60543943,16.7718527 L0.60543943,16.7710095 Z M12.2479216,9.88013064 C12.250151,9.63585637 12.2764177,9.39239456 12.326342,9.15326603 C12.4949881,8.34151623 12.8342478,7.7591251 13.3441211,7.40609264 C13.8152059,7.07835709 14.4827633,6.91448931 15.3467933,6.91448931 L18.8352375,6.91448931 C20.8870982,6.91448931 21.9124663,7.90275534 21.911342,9.87928741 L21.911342,17.6935036 C21.9085313,19.6705978 20.8727633,20.6591449 18.804038,20.6591449 L15.3299287,20.6591449 C14.4265479,20.6591449 13.7519636,20.5076445 13.3061758,20.2046437 C12.8086698,19.8482383 12.4814964,19.2484204 12.3246556,18.40519 C12.2781599,18.1712168 12.2519226,17.9336706 12.2462352,17.69519 L12.2462352,9.87928741 L12.2479216,9.88013064 Z M15.1924822,16.7516152 C15.1924822,17.3801029 15.5196556,17.6943468 16.1740024,17.6943468 L17.9802019,17.6943468 C18.3337965,17.6943468 18.5867656,17.6381314 18.7391093,17.5257007 C18.8914529,17.41327 18.9667815,17.1884086 18.965095,16.8511164 L18.965095,10.822019 C18.965095,10.4687055 18.8934204,10.2233254 18.7458551,10.0858789 C18.5982898,9.9484323 18.3436342,9.88013064 17.9734561,9.88013064 L16.1453325,9.88013064 C15.7751544,9.88013064 15.5238717,9.94590261 15.3923278,10.0766033 C15.2607838,10.207304 15.1924822,10.456057 15.1924822,10.8228622 L15.1924822,16.7516152 Z" id="Shape" fill="#000000" fill-rule="nonzero"></path>
                <path d="M42.8791093,20.6591449 L42.8791093,17.6935036 L44.2071971,17.6935036 C44.708076,17.6935036 44.9602019,17.4582423 44.9602019,16.9868765 L44.9602019,6.91448931 L47.9047625,6.91448931 L47.9047625,17.3595843 C47.9047625,18.2888242 47.7869913,18.9499169 47.5514489,19.3428622 C47.0280839,20.2198219 46.1511243,20.6583017 44.9205701,20.6583017 L42.8791093,20.6591449 Z M49.6915677,17.7862589 L49.6915677,9.87928741 C49.6960618,9.67684019 49.7157929,9.4750187 49.7505938,9.27553444 C49.9990657,7.70150435 50.9350515,6.91448931 52.5585511,6.91448931 L58.6643824,6.91448931 L58.6643824,9.87928741 L53.3242043,9.87928741 C53.2619991,9.88651737 53.2019805,9.90661928 53.1479691,9.93831354 C52.8078662,10.0428741 52.6378147,10.3113025 52.6378147,10.7435986 L52.6378147,12.274905 L58.6652257,12.274905 L58.6652257,15.2397031 L52.6369715,15.2397031 L52.6369715,16.7710095 C52.6369715,17.3331631 52.8921892,17.6406611 53.4026247,17.6935036 L58.6643824,17.6935036 L58.6643824,20.6591449 L52.9708907,20.6591449 C50.7852375,20.6591449 49.6924109,19.7015162 49.6924109,17.7862589 L49.6915677,17.7862589 Z M60.3331354,20.6591449 L63.277696,20.6591449 L63.277696,6.91448931 L60.3331354,6.91448931 L60.3331354,20.6591449 Z M63.8865083,12.3744062 L66.8909382,6.91448931 L70.2739786,6.91448931 L66.5637648,13.6603325 L70.385285,20.6591449 L66.988753,20.6591449 L63.9067458,15.1427316 C63.5272922,14.4619636 63.3375653,13.984133 63.3375653,13.7092399 C63.3521964,13.4562584 63.4190938,13.2090537 63.534038,12.9832185 L63.8865083,12.3744062 Z" id="Shape" fill="#000000" fill-rule="nonzero"></path>
                <path d="M4.31902613,30.8360926 L3.58963183,30.8360926 C3.58963183,30.5730048 3.49603325,29.9979216 3.30714964,29.1175891 L1.29773159,29.1175891 C1.19036025,29.3756176 1.09619952,29.6097546 1.01524941,29.82 C0.825241489,30.3259382 0.721243072,30.6646358 0.703254157,30.8360926 L0,30.8360926 C0.0123673793,30.756829 0.397442597,29.8854909 1.15522565,28.2220784 C1.90288994,26.5715954 2.28431116,25.6701821 2.29948931,25.5178385 L3.10561758,25.5178385 C3.10561758,25.7629375 3.30799287,26.6522644 3.71274347,28.1858195 C4.11749406,29.7193745 4.31986936,30.6027989 4.31986936,30.8360926 L4.31902613,30.8360926 Z M3.19837292,28.5855107 C2.80880048,27.0114806 2.61541964,26.1606611 2.6182304,26.0330523 L2.58450119,26.0330523 C2.57719319,26.1168131 2.21179335,26.9662272 1.48830166,28.5812945 L3.19837292,28.5855107 Z M8.15488124,28.0458432 C8.15488124,28.260867 8.12705463,28.6993468 8.07055819,29.3604394 C8.01406176,30.0215321 7.98623515,30.5156651 7.98623515,30.8394656 L7.36646081,30.8799406 C7.36646081,30.7602019 7.40187648,30.3751267 7.47270784,29.724715 C7.53286909,29.2343611 7.56832957,28.7412917 7.57895487,28.2473753 C7.57895487,27.9280721 7.52723674,27.7068646 7.42380048,27.583753 C7.32008314,27.4597981 7.15565321,27.397399 6.93304038,27.397399 C6.6674228,27.397399 6.41108076,27.591342 6.16570071,27.9800713 C5.92065876,28.3656808 5.77253493,28.8048448 5.73396675,29.260095 C5.67775139,29.8705938 5.6364331,30.3962074 5.61001188,30.8369359 L5.01216152,30.8774109 C5.1808076,29.4680918 5.26513064,28.5149604 5.26513064,28.0180166 C5.26513064,27.7324426 5.24601742,27.3839074 5.20779097,26.9724109 L5.82756532,26.87038 C5.84105701,27.1104196 5.84808393,27.4277553 5.84864608,27.8223872 L5.87900238,27.8223872 C6.19661916,27.1601702 6.63397466,26.8293428 7.19106888,26.829905 C7.82967538,26.829905 8.14869755,27.2340934 8.14813539,28.0424703 L8.15488124,28.0458432 Z M14.7143705,27.8004632 C14.7282764,28.6009297 14.4817686,29.3842506 14.0119596,30.0324941 C13.5436857,30.6767221 12.9534244,30.9988361 12.2411758,30.9988361 C11.7419834,30.9988361 11.3094062,30.7804394 10.9434442,30.3436461 C10.5774822,29.9068527 10.393939,29.3300831 10.3928147,28.6133373 C10.3928147,27.7504315 10.628076,27.001924 11.0985986,26.3678147 C11.5691211,25.7337055 12.157696,25.4163698 12.864323,25.4158076 C13.3573317,25.4158076 13.7887846,25.633361 14.1586817,26.0684679 C14.5285788,26.5035748 14.7129652,27.0811876 14.7118409,27.8013064 L14.7143705,27.8004632 Z M14.0870071,27.8384086 C14.0870071,27.2532067 13.9515281,26.7978622 13.6805701,26.4723753 C13.4090499,26.1460451 13.0903088,25.9841449 12.7167577,25.9841449 C12.2046358,25.9841449 11.7962312,26.2461085 11.4915439,26.7700356 C11.1797426,27.3189362 11.0215757,27.9417001 11.0336698,28.5728622 C11.0336698,29.1530048 11.1680245,29.607787 11.436734,29.937209 C11.7054434,30.266631 12.0258709,30.431061 12.3980166,30.4304988 C12.9039549,30.4304988 13.3115162,30.1651623 13.6207007,29.6344893 C13.9360382,29.0887758 14.0974842,28.4677622 14.0878504,27.8375653 L14.0870071,27.8384086 Z M16.2869952,26.8821853 C16.2721639,27.2586022 16.2383919,27.6340338 16.1858076,28.0070546 C16.1183492,28.5590895 16.0587609,29.1738044 16.0070428,29.8511995 C15.9553246,30.5285946 15.9227197,30.9341884 15.909228,31.067981 C15.8265914,31.9477514 15.4892993,32.4817973 14.8973515,32.6701188 L14.7565321,32.3555938 C14.9758223,32.1605873 15.1369136,31.9087362 15.2219952,31.627886 C15.3085669,31.3468092 15.3982304,30.7084838 15.4909857,29.7129097 C15.5837411,28.7173357 15.630962,27.9584283 15.6326485,27.4361876 C15.6326485,27.2456176 15.6275891,27.0988955 15.6191568,26.9901188 L16.286152,26.8796556 L16.2869952,26.8821853 Z M16.5509264,25.6780523 C16.5542275,25.8254089 16.5038842,25.9689471 16.4092637,26.0819596 C16.3239184,26.1902628 16.1929814,26.2526138 16.0551069,26.2506057 C15.8324941,26.2506057 15.7220309,26.1182185 15.7220309,25.8542874 C15.717988,25.7076432 15.7694897,25.5648843 15.8662233,25.4545962 C15.955304,25.3494474 16.0868023,25.2897317 16.2245962,25.2918527 C16.4421496,25.2918527 16.5509264,25.4200238 16.5509264,25.6797387 L16.5509264,25.6780523 Z M20.0478029,27.7330048 C20.0611661,28.0749473 19.8851709,28.3964709 19.5899287,28.5694893 C19.2020428,28.8145883 18.5395447,28.9466944 17.6024347,28.9658076 C17.6024347,29.4565677 17.6788876,29.8124109 17.8317933,30.0333373 C17.9844181,30.2567933 18.2424466,30.3706295 18.6041924,30.3706295 C18.9659382,30.3706295 19.3453919,30.2323397 19.7636342,29.9540736 L19.6725653,30.5586698 C19.3226175,30.8291268 18.8893999,30.9692591 18.4473515,30.9549881 C17.9492835,30.9549881 17.5821971,30.7883096 17.3460926,30.4549525 C17.1099881,30.1215954 16.9919359,29.6999802 16.9919359,29.1901069 C16.9919359,28.4362589 17.1886896,27.847403 17.5821971,27.4235392 C17.9757047,26.9996754 18.430768,26.7883056 18.9473872,26.7894299 C19.2305701,26.7795718 19.5082839,26.8690607 19.7324347,27.042399 C19.9428091,27.2123174 20.0598791,27.4721251 20.0478029,27.7422803 L20.0478029,27.7330048 Z M19.4642874,27.7481829 C19.4709821,27.6114946 19.4023964,27.4820877 19.2855226,27.4108907 C19.1457949,27.3287763 18.9853635,27.2886684 18.8234323,27.2953682 C18.5482221,27.2984224 18.2838864,27.4032555 18.0813895,27.5896556 C17.8520309,27.7847229 17.7036223,28.0854751 17.6361639,28.4919121 C18.3860768,28.476734 18.9004473,28.3884759 19.1792755,28.2271378 C19.3596766,28.135131 19.470717,27.9472166 19.4642874,27.74481 L19.4642874,27.7481829 Z M23.8440261,26.9437411 C23.8440261,27.0342478 23.6883096,27.2548931 23.3768765,27.605677 C23.107789,27.9128297 22.822957,28.205824 22.5235273,28.4834798 L22.5235273,28.5239549 C22.8160857,28.9165007 23.0519715,29.3482484 23.2242518,29.8065083 C23.4170705,30.3012035 23.5134798,30.6455226 23.5134798,30.8394656 L22.8498575,30.8799406 C22.8498575,30.7365914 22.7798694,30.4527039 22.6398931,30.0282779 C22.5185717,29.648158 22.34851,29.2853596 22.1339549,28.948943 C21.9716241,29.1301779 21.8241447,29.3241852 21.6929454,29.5290855 C21.395004,29.9973595 21.233947,30.4341528 21.2097743,30.8394656 L20.6001188,30.8799406 C20.6400317,30.6247229 20.7524624,29.5954196 20.9374109,27.7920309 C21.0374743,26.731247 21.0875059,25.8318013 21.0875059,25.0936936 L21.7620903,25.0532185 C21.7620903,25.1915083 21.7010966,25.7921694 21.5791093,26.8552019 C21.4571219,27.9182344 21.3626801,28.7968804 21.2957838,29.4911401 L21.3320428,29.4911401 C21.4624624,29.1510372 21.7882304,28.667304 22.3093468,28.0399406 C22.8304632,27.4125772 23.0915835,27.038464 23.0927078,26.917601 L23.8516152,26.9428979 L23.8440261,26.9437411 Z M28.9480998,25.5220546 L28.8705226,26.130867 C28.264521,26.0988242 27.5702613,26.0825218 26.7877435,26.0819596 C26.7691924,26.4136302 26.7216904,27.0373397 26.6452375,27.9530879 C27.1910887,27.9530879 27.7251346,27.9418448 28.2473753,27.9193587 L28.1858195,28.50962 C27.6916865,28.487696 27.1621378,28.4775772 26.5971734,28.4775772 C26.4971101,29.5411718 26.4361164,30.3281869 26.4141924,30.8386223 L25.775867,30.8386223 C25.8320823,30.4552336 25.9386105,29.5240261 26.0954513,28.045 C26.1853959,27.0893389 26.2343032,26.2477949 26.2421734,25.5203682 L28.9480998,25.5220546 Z M32.4137767,28.5576841 C32.4272703,29.1710778 32.2401513,29.7721087 31.8808551,30.2694418 C31.5238876,30.7534561 31.0550515,30.9954632 30.4743468,30.9954632 C30.0898337,30.9954632 29.7590063,30.8234442 29.4818646,30.4794062 C29.2047229,30.1353682 29.066152,29.6892993 29.066152,29.1411995 C29.0511939,28.541909 29.2383109,27.9550149 29.5973872,27.4749762 C29.9245377,27.022107 30.4547289,26.7606428 31.013171,26.7767815 C31.4004396,26.7759081 31.7664112,26.9539147 32.00481,27.2591093 C32.2774545,27.5795368 32.4137767,28.012114 32.4137767,28.5568409 L32.4137767,28.5576841 Z M31.7906295,28.6757363 C31.8004778,28.3351568 31.7201928,27.9980183 31.5578979,27.6984323 C31.4310615,27.4433257 31.1681358,27.2845843 30.8833135,27.291152 C30.519038,27.291152 30.2281235,27.4811599 30.0105701,27.8611758 C29.7940105,28.236663 29.6813728,28.6630565 29.6842399,29.0965083 C29.674721,29.4378389 29.7565213,29.7755199 29.9211876,30.0746556 C30.0514785,30.3287493 30.3153428,30.4862167 30.6008314,30.4802494 C30.9611718,30.4802494 31.2489945,30.2902415 31.4642993,29.9102257 C31.6803374,29.5345627 31.7926663,29.1082369 31.7897862,28.6748931 L31.7906295,28.6757363 Z M35.5193943,26.9125416 L35.3001544,27.5609857 C35.1415963,27.5077714 34.9757795,27.4793294 34.8085511,27.4766627 C34.2463975,27.4766627 33.9346833,27.7976524 33.8734086,28.4396318 C33.783464,29.3711203 33.7188163,30.1688163 33.6794656,30.8327197 L33.080772,30.8731948 C33.2494181,29.4638757 33.3337411,28.5107443 33.3337411,28.0138005 C33.3337411,27.7282264 33.3146279,27.3796912 33.2764014,26.9681948 L33.8961758,26.8661639 C33.9147268,27.08962 33.9248456,27.2877791 33.9248456,27.4673872 L33.9535154,27.4673872 C34.2475218,27.0339667 34.5617656,26.8175376 34.896247,26.8180998 C35.1057406,26.822839 35.3138719,26.8531384 35.5160214,26.9083254 L35.5193943,26.9125416 Z M40.4632542,25.5186817 L40.3789311,26.1274941 C39.7481948,26.0954513 39.0761401,26.0791489 38.3627672,26.0785867 C38.3526485,26.2219359 38.318076,26.668848 38.2565202,27.4058314 L38.2236342,27.7895012 C38.8420032,27.7895012 39.3917894,27.7731987 39.8729929,27.7405938 L39.8105938,28.3494062 C39.3046556,28.3241093 38.757399,28.3114608 38.1688242,28.3114608 C38.1024901,29.011342 38.0485234,29.6679375 38.006924,30.281247 C38.779323,30.281247 39.5199604,30.2607284 40.2288361,30.2196912 L40.1377672,30.8360926 L37.3331829,30.8360926 C37.3843389,30.4527039 37.4883373,29.5214964 37.6451781,28.0424703 C37.7351227,27.0868092 37.7865598,26.2452652 37.7994893,25.5178385 L40.4632542,25.5186817 Z M44.0646912,26.9125416 C44.0646912,27.1818131 43.7718092,27.8690459 43.1860451,28.9742399 C42.6002811,30.0794339 42.3014964,30.7003325 42.2896912,30.8369359 L41.824228,30.8369359 C41.824228,30.4633848 41.6775059,29.7913302 41.384905,28.8131829 C41.092304,27.8350356 40.9447387,27.2194774 40.9447387,26.9538599 L41.619323,26.9091686 C41.619323,27.1643864 41.7219161,27.6984323 41.9271021,28.5113064 C42.1322882,29.3241805 42.2348812,29.8407997 42.2348812,30.0611639 L42.2652375,30.0611639 C42.2753563,29.9689707 42.4659264,29.4992914 42.8369477,28.6521259 C43.2079691,27.8049604 43.3937609,27.2377474 43.394323,26.9504869 L44.0689074,26.9057957 L44.0646912,26.9125416 Z M47.5219359,27.7296318 C47.5352992,28.0715744 47.3593039,28.3930979 47.0640618,28.5661164 C46.6761758,28.8112154 46.0136778,28.9433215 45.0765677,28.9624347 C45.0765677,29.4531948 45.1530206,29.809038 45.3059264,30.0299644 C45.4585511,30.2534204 45.7165796,30.3672565 46.0783254,30.3672565 C46.4400713,30.3672565 46.8195249,30.2289667 47.236924,29.9507007 L47.1458551,30.5552969 C46.7959073,30.8257539 46.3626897,30.9658862 45.9206413,30.9516152 C45.4225732,30.9516152 45.0554869,30.7849367 44.8193824,30.4515796 C44.5832779,30.1182225 44.4652257,29.6966073 44.4652257,29.186734 C44.4652257,28.432886 44.6619794,27.8440301 45.0554869,27.4201663 C45.4489945,26.9963025 45.9040578,26.7849327 46.420677,26.786057 C46.7038599,26.7761989 46.9815737,26.8656877 47.2057245,27.0390261 C47.4160989,27.2089445 47.5331689,27.4687522 47.5210926,27.7389074 L47.5219359,27.7296318 Z M46.9384204,27.74481 C46.9451151,27.6081217 46.8765294,27.4787148 46.7596556,27.4075178 C46.618352,27.3257874 46.4563634,27.2868281 46.2933492,27.2953682 C46.018139,27.2984224 45.7538033,27.4032555 45.5513064,27.5896556 C45.3225099,27.7847229 45.1741013,28.0854751 45.1060808,28.4919121 C45.8559937,28.476734 46.3703642,28.3884759 46.6491924,28.2271378 C46.8295935,28.135131 46.9406338,27.9472166 46.9342043,27.74481 L46.9384204,27.74481 Z M50.5095012,26.9116983 L50.2902613,27.5601425 C50.1317032,27.5069281 49.9658864,27.4784861 49.798658,27.4758195 C49.2365044,27.4758195 48.9247902,27.7968092 48.8635154,28.4387886 C48.7735709,29.3702771 48.7089232,30.1679731 48.6695724,30.8318765 L48.0717221,30.8723515 C48.2431789,29.4630325 48.327502,28.509901 48.3246912,28.0129572 C48.3246912,27.7273832 48.305578,27.378848 48.2673515,26.9673515 L48.8871259,26.8653207 C48.905677,27.0887767 48.9157957,27.2869359 48.9157957,27.4665439 L48.9444656,27.4665439 C49.2384719,27.0331235 49.5527158,26.8166944 49.8871971,26.8172565 C50.0966907,26.8219958 50.304822,26.8522951 50.5069715,26.9074822 L50.5095012,26.9116983 Z M53.7736461,26.9116983 L53.1386936,26.9563895 C53.1386936,27.2852494 52.9700475,27.8623001 52.6327553,28.6875416 C52.2954632,29.5127831 52.1195091,29.9959541 52.1048931,30.1370546 L52.0652613,30.1370546 C52.0652613,29.9121932 51.9694141,29.4023199 51.7777197,28.6074347 C51.5860253,27.8125495 51.4901781,27.247023 51.4901781,26.9108551 L50.7717458,26.9555463 C50.7717458,27.2023317 50.9243705,27.7956849 51.22962,28.7356057 C51.5348694,29.6755265 51.6874941,30.3520784 51.6874941,30.7652613 C51.6872084,31.1039962 51.5536279,31.4290118 51.3156295,31.6700475 C51.0677197,31.9365083 50.7866429,32.0694576 50.472399,32.0688955 L50.4496318,32.6406057 C50.9342082,32.6406057 51.2914568,32.5070942 51.5213777,32.2400713 C51.709137,32.0225178 51.9131987,31.5702652 52.1335629,30.8833135 C52.2133888,30.6309066 52.507114,29.9925812 53.0147387,28.9683373 C53.5223634,27.9440934 53.7753325,27.258266 53.7736545,26.9108551 L53.7736461,26.9116983 Z M59.6855344,25.5178385 C59.6366271,25.8427633 59.5399367,26.6843072 59.3954632,28.0424703 C59.3027078,29.0194933 59.2321576,29.9507007 59.1838124,30.8360926 L58.6888361,30.8360926 C58.6888361,30.7382779 58.3588519,30.0355859 57.6988836,28.7280166 C57.0141805,27.3704157 56.6378187,26.5322447 56.5697981,26.2135036 L56.5284798,26.2135036 C56.5459684,26.3787376 56.553571,26.5448688 56.551247,26.7110095 C56.551247,27.097209 56.5259501,27.5542399 56.477886,28.0677672 C56.3930008,28.9823911 56.3221694,29.9051663 56.2653919,30.8360926 L55.6835629,30.8360926 C55.7397783,30.4302177 55.8457443,29.4990103 56.0014608,28.0424703 C56.0925297,27.0868092 56.1405938,26.2452652 56.1456532,25.5178385 L56.8564964,25.5178385 C56.8564964,25.6797387 57.1597783,26.3582581 57.766342,27.5533967 C58.4010135,28.7996912 58.7492676,29.5957007 58.8111045,29.9414252 L58.8397743,29.9414252 C58.8230454,29.8156551 58.8154364,29.6888396 58.8170071,29.5619715 C58.8170071,29.1201188 58.8431473,28.6276722 58.8945843,28.0829454 C58.9895883,27.0766904 59.0410253,26.2216548 59.0488955,25.5178385 L59.6855344,25.5178385 Z M63.340095,27.7287886 C63.3534583,28.0707312 63.1774631,28.3922547 62.8822209,28.5652732 C62.4943349,28.8103721 61.8318369,28.9424782 60.8947268,28.9615914 C60.8947268,29.4523515 60.9711797,29.8081948 61.1240855,30.0291211 C61.2767102,30.2525772 61.5347387,30.3664133 61.8964846,30.3664133 C62.2582304,30.3664133 62.6376841,30.2281235 63.0559264,29.9498575 L62.9648575,30.5544537 C62.6149097,30.8249106 62.1816921,30.9650429 61.7396437,30.950772 C61.2415756,30.950772 60.8744893,30.7840934 60.6383848,30.4507363 C60.4022803,30.1173793 60.284228,29.6957641 60.284228,29.1858907 C60.284228,28.4320428 60.4809818,27.8431869 60.8744893,27.419323 C61.2679968,26.9954592 61.7230602,26.7840895 62.2396793,26.7852138 C62.5228722,26.7752841 62.8006098,26.8647807 63.0247268,27.0381829 C63.2351013,27.2081013 63.3521712,27.467909 63.340095,27.7380641 L63.340095,27.7287886 Z M62.7565796,27.7439667 C62.7630889,27.6073198 62.6945503,27.4780017 62.5778147,27.4066746 C62.4380871,27.3245601 62.2776557,27.2844523 62.1157245,27.291152 C61.8405143,27.2942062 61.5761786,27.3990394 61.3736817,27.5854394 C61.1448852,27.7805067 60.9964766,28.0812589 60.9284561,28.487696 C61.678369,28.4725178 62.1927395,28.3842597 62.4715677,28.2229216 C62.6519688,28.1309149 62.7630091,27.9430005 62.7565796,27.7405938 L62.7565796,27.7439667 Z M66.912019,27.7287886 C66.9253823,28.0707312 66.749387,28.3922547 66.4541449,28.5652732 C66.0662589,28.8103721 65.4037609,28.9424782 64.4666508,28.9615914 C64.4666508,29.4523515 64.5431037,29.8081948 64.6960095,30.0291211 C64.8486342,30.2525772 65.1066627,30.3664133 65.4684086,30.3664133 C65.8301544,30.3664133 66.2096081,30.2281235 66.6278504,29.9498575 L66.5308789,30.5502375 C66.1809311,30.8206945 65.7477135,30.9608268 65.3056651,30.9465558 C64.807597,30.9465558 64.4405107,30.7798773 64.2044062,30.4465202 C63.9683017,30.1131631 63.8502494,29.6915479 63.8502494,29.1816746 C63.8502494,28.4278266 64.0470032,27.8389707 64.4405107,27.4151069 C64.8340182,26.9912431 65.2890816,26.7798733 65.8057007,26.7809976 C66.0888836,26.7711395 66.3665975,26.8606284 66.5907482,27.0339667 C66.8011226,27.2038851 66.9181926,27.4636928 66.9061164,27.733848 L66.912019,27.7287886 Z M66.3285036,27.7439667 C66.3351982,27.6072785 66.2666126,27.4778715 66.1497387,27.4066746 C66.0095683,27.3260306 65.849165,27.2873933 65.6876485,27.2953682 C65.4124383,27.2984224 65.1481026,27.4032555 64.9456057,27.5896556 C64.716247,27.7847229 64.5678385,28.0854751 64.50038,28.4919121 C65.250293,28.476734 65.7646635,28.3884759 66.0434917,28.2271378 C66.2247417,28.1347397 66.3359303,27.9455875 66.3285036,27.7422803 L66.3285036,27.7439667 Z M70.9907245,25.0650238 C70.9907245,25.1358551 70.9485629,25.4301425 70.8659264,25.9470428 C70.7832898,26.463943 70.7090855,27.0761283 70.6458432,27.7827553 C70.582601,28.4893824 70.5505582,29.1546912 70.5505582,29.7778385 C70.5505582,30.1460491 70.560677,30.4988005 70.5809145,30.8360926 L70.0092043,30.8892162 C69.9635066,30.5740308 69.9437649,30.2556254 69.9501781,29.937209 L69.9198219,29.937209 C69.5971457,30.599426 69.1550119,30.9302534 68.5934204,30.9296912 C68.2591128,30.9355175 67.9435099,30.7758224 67.75019,30.5030166 C67.5348852,30.2185669 67.4272328,29.8351781 67.4272328,29.3528504 C67.4272328,28.6124941 67.5958789,28.0042439 67.933171,27.5280998 C68.2344401,27.0717417 68.7491403,26.8022885 69.2958314,26.8147268 C69.6623555,26.8147268 69.9473674,26.9049525 70.150867,27.0854038 L70.1795368,27.0854038 C70.2306928,26.5232502 70.2748219,25.8587846 70.311924,25.0920071 L70.9865083,25.0667102 L70.9907245,25.0650238 Z M70.139905,27.5736342 C69.9422223,27.4210871 69.6998379,27.337823 69.4501425,27.3366865 C68.9931116,27.3366865 68.6459818,27.4954949 68.408753,27.8131116 C68.1715241,28.1307284 68.0529097,28.5627435 68.0529097,29.1091568 C68.0529097,29.9467656 68.3182462,30.3658511 68.8489192,30.3664133 C69.11538,30.3664133 69.3748139,30.1800594 69.6272209,29.8073515 C69.8861125,29.4176754 70.0373832,28.9664814 70.0657007,28.4995012 L70.139905,27.5736342 Z" id="Shape" fill="#000000" fill-rule="nonzero"></path>
            </g>
        </g>
    </g>
</svg>