<?xml version="1.0" encoding="UTF-8"?>
<svg width="71px" height="24px" viewBox="0 0 71 24" version="1.1" xmlns="http://www.w3.org/2000/svg" xmlns:xlink="http://www.w3.org/1999/xlink">
    <!-- Generator: Sketch 54.1 (76490) - https://sketchapp.com -->
    <title>google</title>
    <desc>Created with Sketch.</desc>
    <g id="Page-1" stroke="none" stroke-width="1" fill="none" fill-rule="evenodd">
        <g id="ν† ν”½μ„ΈνΈ" transform="translate(-9.000000, -529.000000)" fill="#000000" fill-rule="nonzero">
            <g id="google" transform="translate(9.000000, 529.000000)">
                <path d="M9.11172751,17.9598972 C11.7838098,17.9598972 13.7973625,17.0856298 15.373599,15.4429563 C16.9961954,13.8185347 17.4999486,11.5443445 17.4999486,9.70455013 C17.4999486,9.13326478 17.456144,8.60943445 17.3685347,8.16956298 L9.11172751,8.16956298 L9.11172751,10.6226221 L14.9811825,10.6226221 C14.805964,12.0024679 14.3441902,13.0099743 13.6462365,13.7108483 C12.7905861,14.5632134 11.4560051,15.506838 9.11172751,15.506838 C5.49839332,15.506838 2.6724473,12.5938303 2.6724473,8.97994859 C2.6724473,5.36606684 5.49839332,2.45123393 9.11172751,2.45123393 C11.0595733,2.45123393 12.4855964,3.2196401 13.5350823,4.20524422 L15.2659126,2.47496144 C13.7973625,1.07503856 11.8495167,0 9.11172751,0 C4.16089203,0 0,4.02820051 0,8.97994859 C0,13.9298715 4.16089203,17.9598972 9.11172751,17.9598972 Z M24.1819794,17.9598972 C27.377892,17.9598972 29.9842674,15.506838 29.9842674,12.1758612 C29.9842674,8.82663239 27.377892,6.39547558 24.1819794,6.39547558 C20.9805913,6.39547558 18.3742159,8.82663239 18.3742159,12.1758612 C18.3742159,15.506838 20.9805913,17.9598972 24.1819794,17.9598972 Z M24.1819794,15.6820566 C22.4279692,15.6820566 20.9148843,14.2365039 20.9148843,12.1758612 C20.9148843,10.0969666 22.4279692,8.67514139 24.1819794,8.67514139 C25.9323393,8.67514139 27.443599,10.0969666 27.443599,12.1758612 C27.443599,14.2365039 25.9323393,15.6820566 24.1819794,15.6820566 L24.1819794,15.6820566 Z M36.8396915,17.9598972 C40.0374293,17.9598972 42.6438046,15.506838 42.6438046,12.1758612 C42.6438046,8.82663239 40.0374293,6.39547558 36.8396915,6.39547558 C33.6401285,6.39547558 31.0337532,8.82663239 31.0337532,12.1758612 C31.0337532,15.506838 33.6401285,17.9598972 36.8396915,17.9598972 Z M36.8396915,15.6820566 C35.0875064,15.6820566 33.5744216,14.2365039 33.5744216,12.1758612 C33.5744216,10.0969666 35.0875064,8.67514139 36.8396915,8.67514139 C38.5918766,8.67514139 40.1031362,10.0969666 40.1031362,12.1758612 C40.1031362,14.2365039 38.5918766,15.6820566 36.8396915,15.6820566 L36.8396915,15.6820566 Z M49.2802057,23.1507455 C52.2570951,23.1507455 54.7795116,21.4003856 54.7795116,17.1276093 L54.7795116,6.7459126 L52.3684319,6.7459126 L52.3684319,7.68771208 L52.2808226,7.68771208 C51.7095373,7.00874036 50.6144216,6.39547558 49.2382262,6.39547558 C46.3452956,6.39547558 43.6969409,8.93614396 43.6969409,12.1995887 C43.6969409,15.4429563 46.3452956,17.9598972 49.2382262,17.9598972 C50.6144216,17.9598972 51.7095373,17.3466324 52.2808226,16.6457584 L52.3684319,16.6457584 L52.3684319,17.4780463 C52.3684319,19.6920051 51.1857069,20.8729049 49.2802057,20.8729049 C47.7269666,20.8729049 46.7614396,19.7577121 46.3653728,18.8122622 L44.1550643,19.7339846 C44.7920566,21.2689717 46.4767095,23.1507455 49.2802057,23.1507455 L49.2802057,23.1507455 Z M49.453599,15.6820566 C47.7032391,15.6820566 46.2339589,14.2164267 46.2339589,12.1995887 C46.2339589,10.1626735 47.7032391,8.67514139 49.453599,8.67514139 C51.1857069,8.67514139 52.5436504,10.1626735 52.5436504,12.1995887 C52.5436504,14.2164267 51.1857069,15.6820566 49.453599,15.6820566 Z M59.0705398,0.613264781 L56.5298715,0.613264781 L56.5298715,17.6094602 L59.0705398,17.6094602 L59.0705398,0.613264781 Z M66.0354756,17.9598972 C68.6838303,17.9598972 70.2188175,16.3409512 70.8539846,15.3973265 L68.8809512,14.0850129 C68.2257069,15.0450643 67.3277121,15.6820566 66.0354756,15.6820566 C64.7432391,15.6820566 63.8215167,15.0906941 63.2319794,13.9298715 L70.9634961,10.7303085 L70.7006684,10.0750643 C70.2188175,8.78282776 68.7495373,6.39547558 65.7507455,6.39547558 C62.7720308,6.39547558 60.2970694,8.74084833 60.2970694,12.1758612 C60.2970694,15.4192288 62.7501285,17.9598972 66.0354756,17.9598972 L66.0354756,17.9598972 Z M62.8158355,12.0024679 C62.7501285,9.77025707 64.5461183,8.62951157 65.8383548,8.62951157 C66.8458612,8.62951157 67.7000514,9.13326478 67.9866067,9.85604113 L62.8158355,12.0024679 Z" id="Shape"></path>
            </g>
        </g>
    </g>
</svg>