<?xml version="1.0" encoding="UTF-8"?>
<svg width="71px" height="28px" viewBox="0 0 71 28" version="1.1" xmlns="http://www.w3.org/2000/svg" xmlns:xlink="http://www.w3.org/1999/xlink">
    <!-- Generator: Sketch 54.1 (76490) - https://sketchapp.com -->
    <title>grab</title>
    <desc>Created with Sketch.</desc>
    <g id="Page-1" stroke="none" stroke-width="1" fill="none" fill-rule="evenodd">
        <g id="ν† ν”½μ„ΈνΈ" transform="translate(-8.000000, -230.000000)" fill="#009C3D" fill-rule="nonzero">
            <g id="grab" transform="translate(8.000000, 230.000000)">
                <path d="M56.4368525,8.56888525 L56.4368525,0 L58.1967213,0 L58.1967213,7.36304918 C57.5711525,7.70378967 56.9822181,8.10785328 56.4391803,8.56888525 L56.4368525,8.56888525 Z M53.3850164,11.1481639 C53.9136401,10.4757848 54.5018735,9.85249118 55.1425574,9.28586885 L55.1425574,0 L53.3850164,0 L53.3850164,11.1481639 Z M33.0278033,17.9571803 C33.0682804,22.7344894 36.9311172,26.5973262 41.7084262,26.6378033 C42.6297036,26.6452585 43.5415788,26.4522396 44.3808197,26.0721311 L44.3808197,24.3262295 C43.5335225,24.6767653 42.6275924,24.863954 41.7107541,24.8779344 C37.9090954,24.827824 34.839061,21.7588219 34.7876721,17.9571803 L34.7876721,16.3719016 C34.8378111,12.5693509 37.9082034,9.49895869 41.7107541,9.44881967 C43.5504821,9.4369521 45.3182988,10.1625346 46.6192099,11.4634458 C47.9201211,12.764357 48.6457036,14.5321737 48.6338361,16.3719016 L48.6338361,26.6378033 L50.391377,26.6378033 L50.391377,16.0343607 C50.2832306,13.7934373 49.3191615,11.6794845 47.6980328,10.1285574 C45.1882233,7.7424272 41.500519,7.0758217 38.3141808,8.43229138 C35.1278426,9.78876107 33.0522101,12.9089014 33.032459,16.3719016 L33.0278033,17.9571803 Z M59.3327213,13.7507213 C60.0798323,12.978099 61.1006233,12.5299876 62.1750492,12.5029836 C63.2047925,12.4916596 64.195697,12.8955633 64.9240985,13.6235268 C65.6525,14.3514903 66.0569997,15.3421517 66.0462951,16.3719016 L66.0462951,17.9571803 C66.0576303,18.9873317 65.653409,19.9785979 64.9249379,20.7070691 C64.1964668,21.4355402 63.2052006,21.8397614 62.1750492,21.8284262 C61.1251803,21.8284262 60.1102295,21.2511148 59.3140984,20.198918 C58.6010188,19.2400188 58.1740658,18.0987872 58.0826557,16.9073115 L56.658,18.6462295 C56.9369125,19.9834415 57.620397,21.2024982 58.6157377,22.1380328 C59.582307,23.0424253 60.851475,23.5537447 62.1750492,23.572 C65.2830562,23.5694348 67.8023137,21.0512188 67.8061639,17.9432131 L67.8061639,16.3719016 C67.7538616,13.2842294 65.2627427,10.7941404 62.1750492,10.7431148 C61.2439016,10.7431148 59.7680328,11.0783279 58.0081639,12.6612787 L58.0081639,12.6612787 C57.5425902,13.1268525 56.4298689,14.2395738 55.7571148,15.0287213 C54.6234426,16.2648197 52.9799672,18.1271148 51.5669508,19.9963934 L51.5669508,22.7456066 C53.1219672,20.7459672 54.0181967,19.6285902 55.4800984,17.9408852 C56.7883607,16.4114754 58.4085574,14.5561639 59.3280656,13.7507213 L59.3327213,13.7507213 Z M17.8221639,10.4358361 L17.8221639,8.35937705 C16.2322295,7.50504918 14.4956393,7.12560656 12.193377,7.12560656 C9.87317747,7.1145081 7.63399238,7.97809878 5.92209836,9.5442623 C4.25978784,11.023876 3.30225964,13.1385584 3.28695082,15.3639344 L3.28695082,15.9319344 C3.28695082,20.4689508 6.9277377,24.1609508 11.4042295,24.1609508 C15.0450164,24.1609508 16.5395082,22.9714098 16.9189508,22.5942951 L16.9189508,17.3030492 L10.9759016,17.3030492 L10.9759016,19.0605902 L15.2731475,19.0605902 L15.2731475,21.7050492 L15.2568525,21.7050492 C14.7028197,21.9261967 13.5551803,22.3871148 11.4019016,22.3871148 C9.71096913,22.3931964 8.088912,21.7176889 6.90213115,20.5131803 C5.6970192,19.2887043 5.02721138,17.6359535 5.03983607,15.9179672 L5.03983607,15.3639344 C5.03983607,11.8581639 8.31281967,8.89478689 12.1887213,8.89478689 C14.8704262,8.89478689 16.453377,9.33009836 17.8175082,10.4474754 L17.8221639,10.4358361 Z M30.6207869,12.5122951 C31.1995149,12.494611 31.7747864,12.6075965 32.3038361,12.8428525 C32.5174883,12.3086863 32.7752191,11.7932248 33.0743607,11.3018033 C32.5971475,10.9596066 31.4564918,10.7547541 30.6207869,10.7547541 C27.4129836,10.7547541 24.992,13.1757377 24.992,16.383541 L24.992,26.6494426 L26.749541,26.6494426 L26.749541,16.3719016 C26.749541,14.092918 28.3418033,12.5029836 30.6207869,12.5029836 L30.6207869,12.5122951 Z M0.232786885,15.3639344 L0.232786885,15.9319344 C0.211785678,18.9282538 1.384456,21.8096723 3.49180328,23.9398033 C5.58324091,26.049752 8.43574588,27.2293467 11.4065574,27.2127869 C13.8228852,27.2127869 15.9621967,26.6680656 17.768623,25.5832787 C19.258459,24.6963607 19.9172459,23.7978033 19.9754426,23.7209836 L19.9754426,14.2488852 L10.9759016,14.2488852 L10.9759016,16.0087541 L18.2132459,16.0087541 L18.2132459,23.1669508 L18.2132459,23.1669508 C17.358918,24.0236066 15.3476393,25.4436066 11.4065574,25.4436066 C8.88943231,25.4669285 6.47010336,24.4701414 4.69996721,22.6804262 C2.94185447,20.875703 1.96866824,18.4490134 1.99265574,15.9296066 L1.99265574,15.3639344 C1.99265574,12.9243279 3.0937377,10.489377 5.01888525,8.68993443 C6.95722086,6.8538484 9.5234893,5.82717449 12.193377,5.81967213 C14.6888525,5.81967213 16.4277705,6.19678689 17.8221639,7.04413115 L17.8221639,5.07940984 C16.3695738,4.46019672 14.6329836,4.19016393 12.193377,4.19016393 C5.7102623,4.19016393 0.232786885,9.29983607 0.232786885,15.3639344 L0.232786885,15.3639344 Z M47.339541,26.6494426 L47.339541,16.3719016 C47.3395409,13.2632085 44.8194472,10.7431149 41.7107541,10.7431149 C38.602061,10.7431149 36.0819673,13.2632085 36.0819672,16.3719016 L36.0819672,17.9571803 C36.1233167,21.048584 38.6193505,23.5446177 41.7107541,23.5859672 C42.546459,23.5859672 43.6871148,23.3811148 44.3808197,22.8061311 L44.3808197,20.9508197 C43.6116591,21.5292777 42.6731129,21.8377624 41.7107541,21.8284262 C40.6814122,21.8391199 39.6911123,21.4349378 38.9632184,20.7070439 C38.2353245,19.97915 37.8311424,18.9888501 37.8418361,17.9595082 L37.8418361,16.3719016 C37.8933539,14.2714833 39.610868,12.5955789 41.711918,12.5955789 C43.8129681,12.5955789 45.5304822,14.2714833 45.582,16.3719016 L45.582,26.6378033 L47.339541,26.6494426 Z M30.6277705,9.44881967 C31.7332048,9.42895386 32.8241016,9.70288302 33.7890164,10.242623 C34.1669654,9.77989046 34.5711254,9.33920059 34.9995082,8.92272131 C34.0124918,8.14754098 32.3434098,7.68196721 30.6277705,7.68196721 C28.1858361,7.68196721 25.9720328,8.56190164 24.3844262,10.1611475 C22.7968197,11.7603934 21.9471475,13.9672131 21.9471475,16.3719016 L21.9471475,26.6378033 L23.7046885,26.6378033 L23.7046885,16.3719016 C23.7046885,12.2958033 26.554,9.44881967 30.6300984,9.44881967 L30.6277705,9.44881967 Z M68.2996721,10.2565902 C66.683981,8.62070616 64.4812862,7.69872585 62.1820328,7.69593443 C60.6681595,7.71333952 59.1875373,8.14223715 57.8987541,8.93668852 C55.9852459,10.2100328 54.4069508,11.5951148 51.5785902,15.2545246 L51.5785902,17.8850164 C53.9832787,14.7540328 56.2576066,12.2981311 57.9825574,10.9293443 C60.0567996,9.29393946 62.8850114,8.99267878 65.2572084,10.1544496 C67.6294053,11.3162204 69.1253801,13.7352284 69.1051148,16.3765574 L69.1051148,17.9618361 C69.0897966,21.7786077 65.9988094,24.8685556 62.1820328,24.8825902 C59.1167623,24.8873198 56.4311141,22.8310607 55.6360656,19.8706885 L54.3976393,21.3721639 C55.3008525,24.3983934 58.5691803,26.6354754 62.1703934,26.6354754 C66.9509617,26.6013181 70.8197632,22.7376985 70.8603279,17.9571803 L70.8603279,16.3719016 C70.8569154,14.0734556 69.9349831,11.8717136 68.2996721,10.2565902 L68.2996721,10.2565902 Z" id="Shape"></path>
            </g>
        </g>
    </g>
</svg>