<?xml version="1.0" encoding="UTF-8"?>
<svg width="35px" height="35px" viewBox="0 0 35 35" version="1.1" xmlns="http://www.w3.org/2000/svg" xmlns:xlink="http://www.w3.org/1999/xlink">
    <!-- Generator: Sketch 54.1 (76490) - https://sketchapp.com -->
    <title>huawei</title>
    <desc>Created with Sketch.</desc>
    <g id="Page-1" stroke="none" stroke-width="1" fill="none" fill-rule="evenodd">
        <g id="ν† ν”½μ„ΈνΈ" transform="translate(-26.000000, -580.000000)" fill="#000000" fill-rule="nonzero">
            <g id="huawei" transform="translate(26.000000, 580.000000)">
                <path d="M15.0300633,20.5237342 C15.0300633,20.5237342 15.085443,20.4794304 15.0632911,20.4018987 C10.9541139,11.4193038 5.34968354,4.63085443 5.34968354,4.63085443 C5.34968354,4.63085443 2.29382911,7.53164557 2.51313291,10.4335443 C2.63164557,12.6376582 4.27974684,13.9335443 4.27974684,13.9335443 C6.94462025,16.5142405 13.3797468,19.8148734 14.8860759,20.556962 C14.8860759,20.556962 14.9857595,20.556962 15.0300633,20.5237342 L15.0300633,20.5237342 Z M14.0332278,22.7167722 C13.9889241,22.6392405 13.8892405,22.6392405 13.8892405,22.6392405 L3.16550633,22.9936709 C4.3306962,25.0759494 6.29113924,26.681962 8.32911392,26.2167722 C9.74683544,25.8623418 12.9256329,23.625 13.9778481,22.8718354 C14.0664557,22.7943038 14.0332278,22.7167722 14.0332278,22.7167722 L14.0332278,22.7167722 Z M14.1882911,21.7753165 C14.2436709,21.6977848 14.1439873,21.6202532 14.1439873,21.6202532 C9.43670886,18.4414557 0.307911392,13.5348101 0.307911392,13.5348101 C-0.523892405,16.1265823 0.593670886,18.2088608 0.593670886,18.2088608 C1.75996835,20.6455696 3.9818038,21.3876582 3.9818038,21.3876582 C5.00632911,21.8196203 6.02531646,21.8528481 6.02531646,21.8528481 C6.1914557,21.8971519 12.4161392,21.8528481 14.0775316,21.8528481 C14.1439873,21.8528481 14.1882911,21.7753165 14.1882911,21.7753165 Z M18.4746835,19.6598101 C18.5522152,19.693038 18.6297468,19.5822785 18.6297468,19.5822785 C19.6487342,18.0870253 24.278481,11.2199367 25.2199367,7.0221519 C25.2199367,7.0221519 25.7294304,4.98417722 25.2199367,3.6096519 C25.2199367,3.6096519 24.5553797,1.02009494 21.6867089,0.313449367 C21.6867089,0.313449367 20.8670886,0.117405063 20.0031646,2.84217094e-14 C20.0031646,2.84217094e-14 16.8243671,4.08148734 18.3528481,19.5379747 L18.3860759,19.5379747 C18.3860759,19.6598101 18.4746835,19.6598101 18.4746835,19.6598101 L18.4746835,19.6598101 Z M20.9778481,22.6392405 C20.9778481,22.6392405 20.9003165,22.6392405 20.8670886,22.7167722 C20.8670886,22.7167722 20.8670886,22.8386076 20.9003165,22.8718354 C21.9193038,23.625 25.0648734,25.7848101 26.5490506,26.2167722 C26.5490506,26.2167722 29.3401899,27.1582278 31.7325949,23.0379747 L20.9778481,22.6392405 L20.9778481,22.6392405 Z M19.8813291,20.5237342 C19.8813291,20.5237342 19.9588608,20.556962 20.0363924,20.5237342 C21.5648734,19.7816456 27.9667722,16.5142405 30.6360759,13.9335443 C30.6360759,13.9335443 32.2863924,12.5933544 32.3971519,10.4003165 C32.5632911,7.42088608 29.5727848,4.63085443 29.5727848,4.63085443 C29.5727848,4.63085443 23.9683544,11.375 19.8481013,20.3686709 L19.8813291,20.3686709 C19.8813291,20.3686709 19.8037975,20.4462025 19.8813291,20.5237342 Z M34.556962,13.5348101 C33.8924051,13.9003165 33.2056962,14.2325949 32.5632911,14.6424051 C31.721519,15.085443 30.9018987,15.5506329 30.0712025,16.0158228 C28.664557,16.8022152 27.2689873,17.6107595 25.8844937,18.4303797 C25.3528481,18.6962025 24.8655063,19.039557 24.3449367,19.3386076 C24.068038,19.5158228 23.1265823,20.1139241 22.9161392,20.1914557 C22.5727848,20.4794304 22.1518987,20.6455696 21.8085443,20.9224684 C21.431962,21.0886076 21.1329114,21.3987342 20.778481,21.5870253 C20.5791139,21.7753165 20.8338608,21.875 21.0110759,21.8196203 L29.3401899,21.8196203 C30.7357595,21.5981013 32.0870253,21 33.0727848,19.9699367 C33.471519,19.5601266 33.8148734,19.0838608 34.1028481,18.585443 C34.3908228,18.0981013 34.5901899,17.5553797 34.7120253,17.0126582 C34.789557,16.7025316 34.8338608,16.3813291 34.8781646,16.0601266 C34.8781646,15.7167722 34.9556962,15.3844937 34.8781646,15.0411392 C34.8892405,14.7974684 34.8560127,14.5537975 34.789557,14.3212025 C34.7341772,14.0553797 34.6898734,13.7341772 34.568038,13.5348101 L34.556962,13.5348101 Z M16.414557,19.6598101 C16.3370253,19.693038 16.2594937,19.5822785 16.2594937,19.5822785 C15.2405063,18.0870253 10.6218354,11.2199367 9.68037975,7.0221519 C9.68037975,7.0221519 9.17088608,4.98417722 9.68037975,3.6096519 C9.68037975,3.6096519 10.3449367,1.02009494 13.2025316,0.313449367 C13.2025316,0.313449367 14.0221519,0.117405063 14.8860759,0 C14.8860759,0 18.0648734,4.08148734 16.5363924,19.5379747 L16.5031646,19.5379747 C16.5031646,19.6598101 16.414557,19.6598101 16.414557,19.6598101 L16.414557,19.6598101 Z M34.9113924,34.8892405 L34.9113924,29.2737342 L33.5822785,29.2737342 L33.5822785,34.8892405 L34.9113924,34.8892405 Z M28.9082278,31.5443038 L32.4414557,31.5443038 L32.4414557,32.5300633 L28.9082278,32.5300633 C28.9082278,33.5490506 29.3401899,33.903481 30.3591772,33.903481 L32.4414557,33.903481 L32.4414557,34.8892405 L30.2816456,34.8892405 C29.5727848,34.8892405 28.9857595,34.8449367 28.3987342,34.4129747 C27.7674051,33.9477848 27.4572785,33.1946203 27.4572785,32.1756329 C27.4572785,30.2151899 28.3544304,29.2737342 30.3259494,29.2737342 L32.4414557,29.2737342 L32.4414557,30.2594937 L30.3591772,30.2594937 C29.4177215,30.2594937 28.9525316,30.6914557 28.9082278,31.5443038 L28.9082278,31.5443038 Z M19.0949367,29.2737342 L20.5126582,33.5933544 L21.6867089,29.2737342 L23.2151899,29.2737342 L24.5553797,33.5933544 L25.8844937,29.2737342 L27.1803797,29.2737342 L25.2974684,34.8892405 L23.7246835,34.8892405 L22.4287975,30.6914557 L21.2990506,34.8892405 L19.7594937,34.8892405 L17.721519,29.2737342 L19.0949367,29.2737342 Z M15.9272152,29.2737342 L18.5079114,34.8892405 L17.1012658,34.8892405 L16.5474684,33.5490506 L13.9003165,33.5490506 L13.3575949,34.8892405 L12.0063291,34.8892405 L14.5759494,29.2737342 L15.9272152,29.2737342 Z M14.3101266,32.5743671 L16.1155063,32.5743671 L15.1962025,30.414557 L14.3101266,32.5743671 Z M7.74208861,32.6518987 C7.74208861,33.6265823 8.05221519,34.0585443 9.10443038,34.0585443 C10.1677215,34.0585443 10.4778481,33.6265823 10.4778481,32.6518987 L10.4778481,29.2737342 L11.7515823,29.2737342 L11.7515823,32.6851266 C11.7515823,33.3939873 11.6629747,33.903481 11.3971519,34.1803797 C10.8987342,34.7231013 10.1677215,34.9667722 9.10443038,34.9667722 C8.05221519,34.9667722 7.32120253,34.7231013 6.82278481,34.1803797 C6.53481013,33.8702532 6.46835443,33.3939873 6.46835443,32.6851266 L6.46835443,29.2737342 L7.74208861,29.2737342 L7.74208861,32.6518987 L7.74208861,32.6518987 Z M4.14240506,31.5443038 L4.14240506,29.2737342 L5.41613924,29.2737342 L5.41613924,34.8892405 L4.14240506,34.8892405 L4.14240506,32.5743671 L1.29367089,32.5743671 L1.29367089,34.8892405 L0.0132911392,34.8892405 L0.0132911392,29.2737342 L1.29367089,29.2737342 L1.29367089,31.5443038 L4.14240506,31.5443038 Z" id="Shape"></path>
            </g>
        </g>
    </g>
</svg>