<?xml version="1.0" encoding="UTF-8"?>
<svg width="71px" height="29px" viewBox="0 0 71 29" version="1.1" xmlns="http://www.w3.org/2000/svg" xmlns:xlink="http://www.w3.org/1999/xlink">
    <!-- Generator: Sketch 54.1 (76490) - https://sketchapp.com -->
    <title>ibm</title>
    <desc>Created with Sketch.</desc>
    <g id="Page-1" stroke="none" stroke-width="1" fill="none" fill-rule="evenodd">
        <g id="ν† ν”½μ„ΈνΈ" transform="translate(-8.000000, -90.000000)" fill="#000000" fill-rule="nonzero">
            <g id="ibm" transform="translate(8.000000, 90.000000)">
                <path d="M0,0 L0,1.94315789 L13.8169737,1.94315789 L13.8169737,0 L0,0 Z M15.7788158,0 L15.7788158,1.94315789 L35.4719737,1.94315789 C35.4719737,1.94315789 33.4634211,0 30.7915789,0 L15.7788158,0 Z M39.3396053,0 L39.3396053,1.94315789 L51.2507895,1.94315789 L50.5407895,0 L39.3396053,0 Z M59.7894737,0 L59.0888158,1.94315789 L70.8878947,1.94315789 L70.8878947,0 L59.7894737,0 Z M0,3.77888158 L0,5.71736842 L13.8169737,5.71736842 L13.8169737,3.77888158 L0,3.77888158 Z M15.7788158,3.77888158 L15.7788158,5.71736842 L37.7607895,5.71736842 C37.7607895,5.71736842 37.4992105,4.22263158 37.0507895,3.77888158 L15.7788158,3.77888158 Z M39.3396053,3.77888158 L39.3396053,5.71736842 L52.5586842,5.71736842 L51.9047368,3.77888158 L39.3396053,3.77888158 Z M58.3788158,3.77888158 L57.7248684,5.71736842 L70.8878947,5.71736842 L70.8878947,3.77888158 L58.3788158,3.77888158 L58.3788158,3.77888158 Z M3.97039474,7.55776316 L3.97039474,9.50092105 L9.95868421,9.50092105 L9.95868421,7.55776316 L3.97039474,7.55776316 Z M19.7492105,7.55776316 L19.7492105,9.50092105 L25.7375,9.50092105 L25.7375,7.55776316 L19.7492105,7.55776316 Z M31.5576316,7.55776316 L31.5576316,9.50092105 L37.5365789,9.50092105 C37.5459211,9.50092105 37.9196053,8.47328947 37.9196053,7.55776316 L31.5576316,7.55776316 Z M43.31,7.55776316 L43.31,9.50092105 L53.9226316,9.50092105 L53.2126316,7.55776316 L43.31,7.55776316 Z M57.0709211,7.55776316 L56.3609211,9.50092105 L67.0296053,9.50092105 L67.0296053,7.55776316 L57.0709211,7.55776316 L57.0709211,7.55776316 Z M3.97039474,11.3413158 L3.97039474,13.2844737 L9.95868421,13.2844737 L9.95868421,11.3413158 L3.97039474,11.3413158 Z M19.7492105,11.3413158 L19.7492105,13.2844737 L35.0328947,13.2844737 C35.0328947,13.2844737 36.3127632,12.2848684 36.7238158,11.3413158 L19.7492105,11.3413158 Z M43.31,11.3413158 L43.31,13.2844737 L49.2889474,13.2844737 L49.2889474,12.2007895 L49.6719737,13.2844737 L60.6396053,13.2844737 L61.0413158,12.2007895 L61.0413158,13.2844737 L67.0296053,13.2844737 L67.0296053,11.3413158 L55.7910526,11.3413158 L55.1931579,12.9855263 L54.5952632,11.3413158 L43.31,11.3413158 L43.31,11.3413158 Z M3.97039474,15.1155263 L3.97039474,17.0586842 L9.95868421,17.0586842 L9.95868421,15.1155263 L3.97039474,15.1155263 Z M19.7492105,15.1155263 L19.7492105,17.0586842 L36.7238158,17.0586842 C36.3127632,16.1151316 35.0328947,15.1155263 35.0328947,15.1155263 L19.7492105,15.1155263 Z M43.31,15.1155263 L43.31,17.0586842 L49.2889474,17.0586842 L49.2889474,15.1155263 L43.31,15.1155263 Z M50.3819737,15.1155263 L51.1013158,17.0586842 L59.3223684,17.0586842 L60.0136842,15.1155263 L50.3819737,15.1155263 Z M61.0413158,15.1155263 L61.0413158,17.0586842 L67.0296053,17.0586842 L67.0296053,15.1155263 L61.0413158,15.1155263 Z M3.97039474,18.8990789 L3.97039474,20.8422368 L9.95868421,20.8422368 L9.95868421,18.8990789 L3.97039474,18.8990789 Z M19.7492105,18.8990789 L19.7492105,20.8422368 L25.7375,20.8422368 L25.7375,18.8990789 L19.7492105,18.8990789 Z M31.5576316,18.8990789 L31.5576316,20.8422368 L37.9196053,20.8422368 C37.9196053,19.9267105 37.5365789,18.8990789 37.5365789,18.8990789 L31.5576316,18.8990789 Z M43.31,18.8990789 L43.31,20.8422368 L49.2889474,20.8422368 L49.2889474,18.8990789 L43.31,18.8990789 Z M51.7365789,18.8990789 L52.4372368,20.8422368 L57.9490789,20.8422368 L58.6590789,18.8990789 L51.7365789,18.8990789 Z M61.0413158,18.8990789 L61.0413158,20.8422368 L67.0296053,20.8422368 L67.0296053,18.8990789 L61.0413158,18.8990789 Z M0.112105263,22.6732895 L0.112105263,24.6257895 L13.9290789,24.6257895 L13.9290789,22.6732895 L0.112105263,22.6732895 Z M15.7788158,22.6732895 L15.7788158,24.6257895 L37.0507895,24.6257895 C37.4992105,24.1773684 37.7607895,22.6732895 37.7607895,22.6732895 L15.7788158,22.6732895 Z M39.4423684,22.6732895 L39.4423684,24.6257895 L49.2889474,24.6257895 L49.2889474,22.6732895 L39.4423684,22.6732895 Z M53.1005263,22.6732895 L53.8198684,24.6257895 L56.6225,24.6257895 L57.3044737,22.6732895 L53.1005263,22.6732895 Z M61.0413158,22.6732895 L61.0413158,24.6257895 L71,24.6257895 L71,22.6732895 L61.0413158,22.6732895 Z M0.112105263,26.4568421 L0.112105263,28.4 L13.9290789,28.4 L13.9290789,26.4568421 L0.112105263,26.4568421 Z M15.7788158,26.4568421 L15.7788158,28.4 L30.7915789,28.4 C33.4634211,28.4 35.4719737,26.4568421 35.4719737,26.4568421 L15.7788158,26.4568421 Z M39.4423684,26.4568421 L39.4423684,28.4 L49.2889474,28.4 L49.2889474,26.4568421 L39.4423684,26.4568421 Z M54.4644737,26.4568421 L55.1651316,28.3906579 L55.2772368,28.4 L55.9872368,26.4568421 L54.4644737,26.4568421 Z M61.0413158,26.4568421 L61.0413158,28.4 L71,28.4 L71,26.4568421 L61.0413158,26.4568421 Z" id="Shape"></path>
            </g>
        </g>
    </g>
</svg>