<?xml version="1.0" encoding="UTF-8"?>
<svg width="71px" height="22px" viewBox="0 0 71 22" version="1.1" xmlns="http://www.w3.org/2000/svg" xmlns:xlink="http://www.w3.org/1999/xlink">
    <!-- Generator: Sketch 54.1 (76490) - https://sketchapp.com -->
    <title>kakao</title>
    <desc>Created with Sketch.</desc>
    <g id="Page-1" stroke="none" stroke-width="1" fill="none" fill-rule="evenodd">
        <g id="토픽세트" transform="translate(-11.000000, -275.000000)" fill="#FFCD00" fill-rule="nonzero">
            <g id="kakao" transform="translate(11.000000, 275.000000)">
                <path d="M2.47405286,21.3156388 L0,21.3156388 L0,0.537973568 L2.47405286,0 L2.47405286,21.3156388 Z M9.07048458,6.23674009 L11.0065639,7.63484581 L6.25550661,13.6025991 L11.7728634,20.2146696 L9.86493392,21.6940969 L3.35920705,13.7339648 L9.07048458,6.23674009 Z" id="_컴파운드_패스_"></path>
                <path d="M13.9622907,17.3652863 C13.9622907,15.8785609 14.4596035,14.7452717 15.4542291,13.9654185 C16.4488546,13.1855653 17.8959618,12.7956388 19.7955507,12.7956388 L22.6449339,12.7956388 L22.6449339,11.8573128 C22.6449339,9.58239354 21.6409251,8.44493392 19.6329075,8.44493392 C18.9487737,8.45022138 18.2679534,8.54057716 17.6061233,8.7139207 C16.9379846,8.87865545 16.2858708,9.10265602 15.657533,9.38325991 L14.9318943,7.63484581 C15.6816334,7.21720111 16.4814616,6.89663924 17.3121145,6.68088106 C18.1221587,6.46333334 18.9568153,6.35085442 19.7955507,6.34621145 C23.2798678,6.34412628 25.0220264,8.19784141 25.0220264,11.9073568 L25.0220264,21.3156388 L23.1829075,21.3156388 L22.8888987,19.7048458 C22.1803982,20.2803262 21.3869489,20.7424682 20.5368282,21.0748018 C19.7753719,21.3838216 18.9626888,21.547207 18.1409692,21.5564758 C16.8335683,21.5564758 15.8076652,21.1842731 15.0632599,20.4398678 C14.3188546,19.6954626 13.9518649,18.6706021 13.9622907,17.3652863 Z M18.6038767,19.5547137 C18.9604112,19.5527816 19.3153959,19.5076208 19.6610573,19.4202203 C20.0342298,19.3313051 20.4010036,19.2174067 20.7588987,19.0792952 C21.1194136,18.9385529 21.4651449,18.7625442 21.7910573,18.5538326 C22.0958697,18.3598945 22.3826853,18.1390255 22.6480617,17.8938767 L22.6480617,14.453348 L20.0739207,14.453348 C18.7727753,14.453348 17.8229809,14.6775037 17.2245374,15.125815 C16.626094,15.5741263 16.3279148,16.2820411 16.33,17.2495595 C16.33,18.7946696 17.0879589,19.5672247 18.6038767,19.5672247 L18.6038767,19.5547137 Z" id="_컴파운드_패스_2"></path>
                <path d="M31.8843172,21.3156388 L29.4008811,21.3156388 L29.4008811,0.537973568 L31.8843172,0 L31.8843172,21.3156388 Z M38.4963877,6.23674009 L40.432467,7.63484581 L35.6751542,13.6025991 L41.1831278,20.2146696 L39.2751982,21.6940969 L32.7694714,13.7370925 L38.4963877,6.23674009 Z" id="_컴파운드_패스_3"></path>
                <path d="M43.3725551,17.3652863 C43.3725551,15.8785609 43.8698678,14.7452717 44.8644934,13.9654185 C45.8591189,13.1855653 47.3062261,12.7956388 49.205815,12.7956388 L52.0551982,12.7956388 L52.0551982,11.8573128 C52.0551982,9.58239354 51.052232,8.44493392 49.0462996,8.44493392 C48.3611295,8.45012404 47.6792625,8.54047929 47.0163877,8.7139207 C46.3481355,8.87826984 45.6959877,9.10228209 45.0677974,9.38325991 L44.3421586,7.63484581 C45.0910002,7.21762901 45.8897389,6.89708258 46.7192511,6.68088106 C47.5353726,6.46176758 48.3764356,6.34927541 49.2214537,6.34621145 C52.6890896,6.34412628 54.4229075,8.19784141 54.4229075,11.9073568 L54.4229075,21.3156388 L52.5931718,21.3156388 L52.2960352,19.7048458 C51.5877945,20.280702 50.7942841,20.7428796 49.9439648,21.0748018 C49.1885772,21.3826016 48.3824655,21.547006 47.5668722,21.5596035 C46.2573862,21.5596035 45.2314831,21.1874009 44.489163,20.4429956 C43.7468429,19.6985903 43.3746402,18.6726872 43.3725551,17.3652863 Z M48.014141,19.5547137 C48.3706694,19.5526894 48.7256431,19.5075301 49.0713216,19.4202203 C49.4444941,19.3313051 49.811268,19.2174067 50.169163,19.0792952 C50.5295043,18.938166 50.8751986,18.7621762 51.2013216,18.5538326 C51.505877,18.3595283 51.7926612,18.1386835 52.058326,17.8938767 L52.058326,14.453348 L49.4904405,14.453348 C48.18721,14.453348 47.2374156,14.6775037 46.6410573,15.125815 C46.044699,15.5741263 45.7465198,16.2820411 45.7465198,17.2495595 C45.7423495,18.7946696 46.4982232,19.5672247 48.014141,19.5672247 L48.014141,19.5547137 Z" id="_컴파운드_패스_4"></path>
                <path d="M64.369163,6.37123348 C66.4105433,6.37123348 68.0140382,7.03431718 69.1796476,8.36048458 C70.345257,9.68665198 70.9280617,11.5862408 70.9280617,14.0592511 C70.9280617,16.4968135 70.3504699,18.3734655 69.1952863,19.689207 C68.0401028,21.0049486 66.431395,21.6544787 64.369163,21.6377974 C62.3277827,21.6377974 60.7242878,20.9840969 59.5586784,19.676696 C58.393069,18.3692952 57.8102643,16.4926432 57.8102643,14.0467401 C57.8102643,11.5737298 58.3972394,9.67414097 59.5711894,8.34797357 C60.7451395,7.02180617 62.344464,6.3628928 64.369163,6.37123348 Z M64.369163,8.36048458 C63.1970046,8.30642819 62.0781203,8.85349071 61.4009251,9.81176211 C60.7107342,10.7771953 60.3656388,12.193025 60.3656388,14.0592511 C60.3656388,15.9254772 60.7107342,17.31837 61.4009251,18.2379295 C62.0895642,19.1780983 63.2053048,19.7083396 64.369163,19.6485463 C65.6765639,19.6485463 66.6753598,19.1783407 67.3655507,18.2379295 C68.0557416,17.2975184 68.400837,15.9046256 68.400837,14.0592511 C68.400837,12.1951101 68.0557416,10.7792805 67.3655507,9.81176211 C66.680925,8.847107 65.5505031,8.29959576 64.369163,8.36048458 L64.369163,8.36048458 Z" id="_컴파운드_패스_5"></path>
            </g>
        </g>
    </g>
</svg>