<?xml version="1.0" encoding="UTF-8"?>
<svg width="35px" height="35px" viewBox="0 0 35 35" version="1.1" xmlns="http://www.w3.org/2000/svg" xmlns:xlink="http://www.w3.org/1999/xlink">
    <!-- Generator: Sketch 56.3 (81716) - https://sketch.com -->
    <title>lg</title>
    <desc>Created with Sketch.</desc>
    <g id="Page-1" stroke="none" stroke-width="1" fill="none" fill-rule="evenodd">
        <g id="ν† ν”½μ„ΈνΈ" transform="translate(-282.000000, -639.000000)" fill-rule="nonzero">
            <g id="lg" transform="translate(282.000000, 639.000000)">
                <path d="M17.434375,34.8578125 C27.0542236,34.8517718 34.8488848,27.0505817 34.8468716,17.4307315 C34.8448576,7.81088119 27.0469313,0.0129548913 17.427081,0.0109409268 C7.80723078,0.00892774237 0.00604072303,7.80358892 0,17.4234375 C0,27.0521769 7.80563556,34.8578125 17.434375,34.8578125" id="Path" fill="#982B3A"></path>
                <polygon id="Path" fill="#FFFFFF" points="16.734375 9.778125 16.734375 25.0578125 21.590625 25.0578125 21.590625 23.690625 18.1234375 23.690625 18.1234375 9.778125"></polygon>
                <path d="M11.8671875,13.9453125 C13.0209449,13.9453125 13.95625,13.0100074 13.95625,11.85625 C13.95625,10.7024926 13.0209449,9.7671875 11.8671875,9.7671875 C10.7134301,9.7671875 9.778125,10.7024926 9.778125,11.85625 C9.778125,13.0100074 10.7134301,13.9453125 11.8671875,13.9453125" id="Path" fill="#FFFFFF"></path>
                <path d="M18.1234375,2.84374587 L17.434375,2.84374587 C11.5310297,2.83932636 6.20671111,6.39259569 3.94555475,11.8457303 C1.6843984,17.2988648 2.93201508,23.5772041 7.10631172,27.7515008 C11.2806084,31.9257974 17.5589477,33.1734141 23.0120822,30.9122577 C28.4652168,28.6511014 32.0184861,23.3267828 32.0140666,17.4234375 L32.0140666,16.75625 L21.6015625,16.75625 L21.6015625,18.1125 L30.625,18.1125 L30.625,18.309375 C30.1433977,25.4815806 24.0205217,30.9553839 16.8393698,30.6336207 C9.65821792,30.3118574 4.04942022,24.3123972 4.21118492,17.1258607 C4.37294962,9.9393243 10.2460184,4.19831412 17.434375,4.2 L18.1234375,4.2 L18.1234375,2.84374587 Z" id="Path" fill="#FFFFFF"></path>
            </g>
        </g>
    </g>
</svg>