<?xml version="1.0" encoding="UTF-8"?>
<svg width="71px" height="20px" viewBox="0 0 71 20" version="1.1" xmlns="http://www.w3.org/2000/svg" xmlns:xlink="http://www.w3.org/1999/xlink">
    <!-- Generator: Sketch 54.1 (76490) - https://sketchapp.com -->
    <title>line</title>
    <desc>Created with Sketch.</desc>
    <g id="Page-1" stroke="none" stroke-width="1" fill="none" fill-rule="evenodd">
        <g id="ν† ν”½μ„ΈνΈ" transform="translate(-110.000000, -89.000000)" fill="#2CBF13" fill-rule="nonzero">
            <g id="line" transform="translate(110.000000, 89.000000)">
                <path d="M47.5151626,11.5678049 C48.6038595,11.5678049 49.4864227,10.6852416 49.4864227,9.59654472 C49.4864227,8.50784781 48.6038595,7.62528458 47.5151626,7.62528455 L42.0314228,7.62528455 L42.0314228,4.09837398 L47.5151626,4.09837398 C48.6038595,4.09837398 49.4864228,3.21581075 49.4864228,2.12711382 C49.4864228,1.0384169 48.6038595,0.155853659 47.5151626,0.155853659 L40.0457317,0.155853659 C38.9581621,0.157446002 38.0773566,1.03954302 38.0773577,2.12711382 L38.0773577,17.0630894 C38.0742878,17.5876641 38.2801293,18.0918902 38.6494379,18.4644479 C39.0187465,18.8370055 39.5211502,19.0472556 40.0457317,19.0487805 L47.5151626,19.0487805 C48.6038595,19.0487805 49.4864227,18.1662172 49.4864227,17.0775203 C49.4864227,15.9888234 48.6038595,15.1062602 47.5151626,15.1062602 L42.0314228,15.1062602 L42.0314228,11.5678049 L47.5151626,11.5678049 Z" id="Path"></path>
                <path d="M33.4594715,0.155853659 C32.3714337,0.157443198 31.4898009,1.03907598 31.4882114,2.12711382 L31.4882114,11.3628862 L23.834065,0.943780488 C23.3246278,0.265909129 22.4387674,-0.0102201639 21.6343875,0.258124622 C20.8300077,0.526469408 20.2873643,1.27915409 20.2869512,2.12711382 L20.2869512,17.0630894 C20.2869512,18.1517864 21.1695145,19.0343496 22.2582114,19.0343496 C23.3469083,19.0343496 24.2294715,18.1517864 24.2294715,17.0630894 L24.2294715,7.82731707 L31.8836179,18.2493089 C32.3930551,18.9271803 33.2789156,19.2033096 34.0832954,18.9349648 C34.8876753,18.66662 35.4303187,17.9139353 35.4307317,17.0659756 L35.4307317,2.12711382 C35.4307317,1.0384169 34.5481685,0.155853659 33.4594715,0.155853659 L33.4594715,0.155853659 Z" id="Path"></path>
                <path d="M15.4814634,0.155853659 C14.3927665,0.155853659 13.5102033,1.0384169 13.5102033,2.12711382 L13.5102033,17.0630894 C13.4825718,17.7848215 13.8518564,18.4638752 14.4726954,18.8329545 C15.0935345,19.2020338 15.8665061,19.2020338 16.4873452,18.8329545 C17.1081843,18.4638752 17.4774689,17.7848215 17.4498374,17.0630894 L17.4498374,2.12711382 C17.448253,1.04019979 16.568374,0.159030618 15.4814634,0.155853659 L15.4814634,0.155853659 Z" id="Path"></path>
                <path d="M9.72930894,15.0918293 L4.22825203,15.0918293 L4.22825203,2.12711382 C4.25588351,1.40538178 3.88659889,0.726328005 3.26575984,0.35724874 C2.64492078,-0.0118305259 1.87194914,-0.0118305259 1.25111008,0.35724874 C0.630271027,0.726328005 0.260986404,1.40538178 0.288617886,2.12711382 L0.288617886,17.0630894 C0.2847722,17.588396 0.490758983,18.093509 0.860859617,18.466319 C1.23096025,18.839129 1.7345574,19.0487946 2.25987805,19.0487805 L9.72930894,19.0487805 C10.8180058,19.0487805 11.700569,18.1662172 11.700569,17.0775203 C11.700569,15.9888234 10.8180058,15.1062602 9.72930894,15.1062602 L9.72930894,15.0918293 Z" id="Path"></path>
                <path d="M61.4294309,18.9593089 C56.1942925,18.9577153 51.9512193,14.7133501 51.9512195,9.47821138 L51.9512195,9.47821138 C51.9528126,4.24419979 56.1954193,0.00159306406 61.4294309,0 L61.4294309,0 C66.6641025,3.20531191e-16 70.9076423,4.24353978 70.9076423,9.47821138 L70.9076423,9.47821138 L70.9076423,10.7885366 C70.9076423,12.7666814 69.3040391,14.3702846 67.3258943,14.3702846 L67.3258943,14.3702846 C65.3488767,14.3686915 63.7470319,12.7655548 63.7470325,10.7885366 L63.7470325,10.7885366 L63.7470325,9.47821138 C63.7470325,8.20301733 62.7132835,7.16926829 61.4380894,7.16926829 L61.4380894,7.16926829 C60.1628954,7.16926829 59.1291463,8.20301733 59.1291463,9.47821138 L59.1291463,9.47821138 C59.1291463,10.7534054 60.1628954,11.7871545 61.4380894,11.7871545 L61.4380894,11.7871545 C61.5952065,11.7867502 61.7518721,11.77031 61.9056504,11.7380894 L61.9056504,11.7380894 C62.6012914,11.5961356 63.2805207,12.0442203 63.4237805,12.7395935 L63.4237805,12.7395935 C63.5657344,13.4352345 63.1176496,14.1144638 62.4222764,14.2577236 L62.4222764,14.2577236 C62.0983876,14.3240271 61.768694,14.3578667 61.4380894,14.3587398 L61.4380894,14.3587398 C58.7417921,14.3540194 56.5545143,12.1744751 56.5402439,9.47821138 L56.5402439,9.47821138 C56.5497435,6.78193263 58.7331521,4.59852399 61.4294309,4.58902439 L61.4294309,4.58902439 C64.1268316,4.59853307 66.3107011,6.78369176 66.3186179,9.48109756 L66.3186179,9.48109756 L66.3186179,10.7914228 C66.3202032,11.3470682 66.7702489,11.7971139 67.3258943,11.7986992 L67.3258943,11.7986992 C67.8815397,11.7971139 68.3315854,11.3470682 68.3331707,10.7914228 L68.3331707,10.7914228 L68.3331707,9.47821138 C68.3220831,5.66951488 65.2381224,2.58426494 61.4294309,2.57158537 L61.4294309,2.57158537 C57.6196122,2.58268123 54.5339007,5.66839268 54.5228049,9.47821138 L54.5228049,9.47821138 C54.5339007,13.2880301 57.6196122,16.3737415 61.4294309,16.3848374 L61.4294309,16.3848374 C62.3357498,16.3906332 63.2342559,16.2170136 64.0731707,15.8739837 L64.0731707,15.8739837 C64.3885352,15.743028 64.7430109,15.7427447 65.0585843,15.8731962 C65.3741577,16.0036476 65.6249667,16.2541429 65.755813,16.5695528 L65.755813,16.5695528 C65.8866627,16.8845081 65.886869,17.2385747 65.7563864,17.5536822 C65.6259037,17.8687897 65.375448,18.1190598 65.0602439,18.2493089 L65.0602439,18.2493089 C63.9112427,18.7263268 62.679289,18.9715405 61.4352033,18.9708537 L61.4352033,18.9708537 L61.4294309,18.9593089 Z" id="Path"></path>
            </g>
        </g>
    </g>
</svg>