<?xml version="1.0" encoding="UTF-8"?>
<svg width="71px" height="12px" viewBox="0 0 71 12" version="1.1" xmlns="http://www.w3.org/2000/svg" xmlns:xlink="http://www.w3.org/1999/xlink">
    <!-- Generator: Sketch 54.1 (76490) - https://sketchapp.com -->
    <title>microsoft</title>
    <desc>Created with Sketch.</desc>
    <g id="Page-1" stroke="none" stroke-width="1" fill="none" fill-rule="evenodd">
        <g id="ν† ν”½μ„ΈνΈ" transform="translate(-11.000000, -324.000000)" fill="#221F20">
            <g id="microsoft" transform="translate(11.000000, 324.000000)">
                <polygon id="Path" points="0 11.1179545 2.46886364 0 6.878125 0 7.07982955 6.2125 10.0489205 0 14.46625 0 11.9852841 11.1179545 8.78625 11.1179545 10.1094318 5.13943182 7.13227273 11.1179545 4.83284091 11.1179545 4.71585227 5.13943182 3.23130682 11.1179545 0 11.1179545"></polygon>
                <polygon id="Path" points="14.8494886 1.81130682 17.8266477 1.81130682 18.2300568 0 15.2407955 0 14.8494886 1.81130682"></polygon>
                <polygon id="Path" points="15.7611932 11.1300568 12.7598295 11.1179545 14.5953409 2.884375 17.5926705 2.884375 15.7611932 11.1300568"></polygon>
                <path d="M27.1211932,2.884375 L29.8038636,2.884375 L29.5698864,3.90096591 C29.9283417,3.46166097 30.4081641,3.13757041 30.9495455,2.96909091 C31.4008828,2.81908202 31.8737716,2.74412846 32.349375,2.74721591 L31.6595455,5.42988636 C31.4901136,5.42988636 29.4125568,5.02647727 28.7671023,8.19727273 L28.0974432,11.1340909 L25.2735795,11.1340909 L27.1292614,2.88840909 L27.1211932,2.884375 Z" id="Path"></path>
                <path d="M25.5519318,8.06818182 C25.5519318,8.13272727 24.6079545,11.4366477 20.4649432,11.3519318 C14.9261364,11.2470455 16.3542045,2.34380682 22.6594886,2.65846591 C26.2417614,2.84 26.0602273,5.81715909 26.0279545,5.94221591 L22.9378409,5.94221591 C22.9781818,5.82522727 23.0871023,4.59482955 22.09875,4.61903409 C20.2632386,4.67551136 18.9602273,9.22193182 20.9772727,9.27840909 C21.9091477,9.31068182 22.3448295,8.22954545 22.4295455,8.09238636 L25.5519318,8.06818182 Z" id="Path"></path>
                <path d="M52.1446591,11.3922727 C46.1136932,11.138125 47.925,2.25505682 54.1173295,2.55357955 C59.9344886,2.84 58.2845455,11.6383523 52.1446591,11.3922727 Z M53.915625,4.49397727 C51.8985795,4.09056818 50.4180682,8.90323864 52.3261932,9.29454545 C54.4440909,9.73829545 55.868125,4.88528409 53.915625,4.49397727 Z" id="Shape"></path>
                <path d="M63.4441477,1.66607955 C62.6373295,1.66607955 62.4598295,1.98477273 62.3226705,2.61005682 L62.2702273,2.884375 L64.0169886,2.884375 L64.4526705,0.891534091 L67.1877841,0.891534091 L66.7642045,2.884375 L68.1761364,2.884375 L67.7727273,4.78039773 L66.3648295,4.78039773 L65.5902841,8.41107955 C65.5261879,8.60637797 65.5150515,8.8151851 65.5580114,9.01619318 C65.675,9.34295455 66.8529545,9.20579545 66.8529545,9.20579545 L66.3971023,11.09375 C66.3971023,11.09375 64.0008523,11.3680682 63.1980682,10.8073295 C62.8390341,10.5652841 62.4436932,10.0529545 62.6897727,8.96375 L63.6135795,4.80863636 L61.9717045,4.80863636 L60.5839773,11.1461932 L57.6390909,11.1461932 L59.01875,4.80863636 L57.5019318,4.80863636 L57.9255114,2.91261364 L59.3979545,2.91261364 C59.6642045,1.85164773 59.8941477,1.13357955 60.5517045,0.580909091 C61.4513068,-0.149261364 63.7789773,0.137159091 63.7789773,0.137159091 L63.4522159,1.69431818 L63.4441477,1.66607955 Z" id="Path"></path>
                <path d="M36.9885795,8.298125 L42.5838636,8.298125 C42.5838636,8.298125 42.1078409,9.53659091 43.8667045,9.54869318 C45.0769318,9.54869318 45.5610227,8.16096591 43.9191477,7.87454545 C43.1647727,7.73738636 40.2521591,7.24926136 40.5789205,5.00227273 C40.8532386,3.15869318 42.7734659,2.51323864 44.8711932,2.54147727 C49.1634659,2.59392045 48.3566477,5.11522727 48.413125,5.28465909 L45.5529545,5.28465909 C45.5529545,5.28465909 45.8595455,4.22369318 44.5686364,4.22369318 C43.3906818,4.22369318 43.1042614,5.28465909 44.46375,5.57107955 C46.1177273,5.93011364 48.01375,6.01482955 48.1186364,8.14482955 C48.1509091,8.73784091 47.7999432,11.5132955 43.4753977,11.4285795 C39.5098864,11.3438636 39.2355682,9.48011364 39.3404545,8.60471591 C38.3913846,10.4240068 36.4585041,11.5122407 34.4107955,11.3801705 C28.3838636,11.1905682 30.2153409,2.25909091 36.3955682,2.56568182 C39.2194318,2.70284091 40.2763636,4.83284091 39.9375,6.93056818 C39.8850568,7.30170455 39.8527841,7.35414773 39.7478977,7.38642045 L36.9926136,8.298125 L36.9885795,8.298125 Z M36.1817614,4.481875 C34.2010227,4.07846591 32.7164773,8.87903409 34.6125,9.28244318 C36.7102273,9.718125 38.1221591,4.87318182 36.1817614,4.481875 Z" id="Shape"></path>
                <path d="M69.8260795,2.87227273 C70.4142628,2.87227273 70.8910795,3.34908947 70.8910795,3.93727273 C70.8910795,4.52545599 70.4142628,5.00227273 69.8260795,5.00227273 C69.2378963,5.00227273 68.7610795,4.52545599 68.7610795,3.93727273 C68.7610795,3.34908947 69.2378963,2.87227273 69.8260795,2.87227273 L69.8260795,2.87227273 Z M69.8260795,3.061875 C69.5013571,3.03974199 69.1913684,3.20042836 69.0222787,3.47853484 C68.853189,3.75664131 68.853189,4.10580187 69.0222787,4.38390835 C69.1913684,4.66201482 69.5013571,4.82270119 69.8260795,4.80056818 C70.150802,4.82270119 70.4607907,4.66201482 70.6298804,4.38390835 C70.7989701,4.10580187 70.7989701,3.75664131 70.6298804,3.47853484 C70.4607907,3.20042836 70.150802,3.03974199 69.8260795,3.061875 L69.8260795,3.061875 Z M70.0156818,4.05829545 L70.2294886,4.481875 L69.9753409,4.481875 L69.7897727,4.05829545 L69.6405114,4.05829545 L69.5759659,4.51414773 L69.3863636,4.51414773 L69.5678977,3.38056818 L70.0882955,3.38056818 C70.2485583,3.42035493 70.3594103,3.566478 70.3545455,3.73153409 C70.3567211,3.81744589 70.3241076,3.90059505 70.2641036,3.96211814 C70.2040996,4.02364123 70.1217916,4.058323 70.0358523,4.05829545 L70.0156818,4.05829545 Z M69.9632386,3.52982955 L69.7494318,3.52982955 L69.6969886,3.90096591 L69.9107955,3.90096591 C69.9664456,3.91148534 70.0239349,3.89762908 70.0686819,3.86291157 C70.1134289,3.82819405 70.1411349,3.77595056 70.1447727,3.71943182 C70.1469762,3.66990388 70.1288275,3.62162955 70.0945415,3.58581974 C70.0602556,3.55000993 70.0128155,3.52978056 69.9632386,3.52982955 L69.9632386,3.52982955 Z" id="Shape"></path>
            </g>
        </g>
    </g>
</svg>