<?xml version="1.0" encoding="UTF-8"?>
<svg width="71px" height="13px" viewBox="0 0 71 13" version="1.1" xmlns="http://www.w3.org/2000/svg" xmlns:xlink="http://www.w3.org/1999/xlink">
    <!-- Generator: Sketch 54.1 (76490) - https://sketchapp.com -->
    <title>naver</title>
    <desc>Created with Sketch.</desc>
    <g id="Page-1" stroke="none" stroke-width="1" fill="none" fill-rule="evenodd">
        <g id="토픽세트" transform="translate(-116.000000, -264.000000)" fill="#00C73C" fill-rule="nonzero">
            <g id="naver" transform="translate(116.000000, 264.000000)">
                <polygon id="_패스_" points="9.46116279 0 9.46116279 6.5325 4.9122093 0 0 0 0 12.95125 4.89569767 12.95125 4.89569767 6.4146875 9.44465116 12.95125 14.3568605 12.95125 14.3568605 0"></polygon>
                <path d="M66.9175,8.125 C68.6632934,7.73968579 69.8677329,6.1655205 69.7616279,4.4078125 C69.7616279,1.0725 67.0908721,0 63.5491279,0 L57.4274419,0 L57.4274419,12.95125 L62.3313953,12.95125 L62.3313953,8.88875 L65.2539535,12.95125 L70.8844186,12.95125 L66.9175,8.125 Z M64.5109302,5.484375 C64.1249548,5.72348451 63.674653,5.84241744 63.2188953,5.825625 L62.1662791,5.825625 L62.1662791,3.25 L63.1982558,3.25 C63.6687891,3.22723891 64.1348338,3.34935895 64.5315698,3.599375 C64.8091019,3.83783693 64.9610621,4.18778953 64.9443605,4.55 C64.9608832,4.9064234 64.8008739,5.24862629 64.5150581,5.468125 L64.5109302,5.484375 Z" id="_컴파운드_패스_"></path>
                <polygon id="_컴파운드_패스_2" points="45.4895349 0 55.4171512 0 55.4171512 3.371875 50.3604651 3.371875 50.3604651 4.875 55.0415116 4.875 55.0415116 8.06 50.3604651 8.06 50.3604651 9.5590625 55.5946512 9.5590625 55.5946512 12.9309375 45.4895349 12.9309375"></polygon>
                <path d="M26.1461628,0 L20.5611047,0 L15.4094767,12.95125 L20.858314,12.95125 L21.3330233,11.2571875 L25.3783721,11.2571875 L25.8530814,12.95125 L31.3019186,12.95125 L26.1461628,0 Z M22.1338372,8.263125 L23.2855233,3.9934375 L23.4217442,3.9934375 L24.5734302,8.2671875 L22.1338372,8.263125 Z" id="_컴파운드_패스_3"></path>
                <polygon id="_패스_2" points="39.0995349 0 36.6847093 7.8040625 36.5484884 7.8040625 34.1377907 0 28.7962791 0 34.302907 12.95125 38.9302907 12.95125 44.4410465 0"></polygon>
            </g>
        </g>
    </g>
</svg>