<?xml version="1.0" encoding="UTF-8"?>
<svg width="71px" height="19px" viewBox="0 0 71 19" version="1.1" xmlns="http://www.w3.org/2000/svg" xmlns:xlink="http://www.w3.org/1999/xlink">
    <!-- Generator: Sketch 54.1 (76490) - https://sketchapp.com -->
    <title>netflix</title>
    <desc>Created with Sketch.</desc>
    <g id="Page-1" stroke="none" stroke-width="1" fill="none" fill-rule="evenodd">
        <g id="ν† ν”½μ„ΈνΈ" transform="translate(-116.000000, -324.000000)" fill="#000000" fill-rule="nonzero">
            <g id="netflix" transform="translate(116.000000, 324.000000)">
                <path d="M48.1853333,14.0345122 L48.1853333,0 L45.1086667,0 L45.1086667,16.6296341 C47.5226667,16.7478049 49.984,16.8636585 52.327,16.9818293 L52.327,14.2708537 C50.9543333,14.1526829 49.558,14.092439 48.1853333,14.0345122 L48.1853333,14.0345122 Z M20.306,2.71097561 L20.306,0 L13.0711,0 L13.0711,17.3942683 C15.4803667,17.2181707 17.8896333,17.0420732 20.306,16.8636585 L20.306,14.1526829 C18.9096667,14.2106098 17.5275333,14.3287805 16.1430333,14.4469512 L16.1430333,10.0839024 L19.7616667,10.0839024 L19.7616667,7.31268293 L16.1430333,7.31268293 L16.1430333,2.71097561 L20.306,2.71097561 Z M2.89206667,18.4670732 L2.89206667,8.07731707 L6.50596667,18.0430488 C7.5899,17.9271951 8.67383333,17.8090244 9.8193,17.6908537 L9.8193,0 L6.86806667,0 L6.86806667,10.7326829 L3.01276667,0 L0,0 L0,18.8146341 L2.89206667,18.4670732 L2.89206667,18.4670732 Z M26.0806667,16.6296341 C27.0983333,16.5693902 28.116,16.5693902 29.1573333,16.5114634 L29.1573333,2.71097561 L31.9736667,2.71097561 L31.9736667,0 L23.2406667,0 L23.2406667,2.71097561 L26.0806667,2.71097561 L26.0806667,16.6296341 Z M35.5236667,16.4512195 L37.9376667,16.4512195 L37.9376667,10.0839024 L41.606,10.0839024 L41.606,7.31268293 L37.9376667,7.31268293 L37.9376667,2.71097561 L42.1503333,2.71097561 L42.1503333,0 L34.932,0 L34.932,16.4512195 L35.5236667,16.4512195 L35.5236667,16.4512195 Z M58.291,17.4545122 L58.291,0 L55.2853333,0 L55.2853333,17.1602439 C56.2556667,17.2784146 57.2733333,17.3363415 58.291,17.4545122 L58.291,17.4545122 Z M60.5866667,17.6306098 C61.557,17.7487805 62.5746667,17.8090244 63.545,17.9271951 L65.6986667,12.6790244 L67.8286667,18.397561 C68.8463333,18.5829268 69.935,18.6987805 71,18.8146341 L67.3316667,8.72609756 L71,0 L67.876,0 L65.888,4.7754878 L64.2076667,0 L61.131,0 L64.326,8.66817073 L60.5866667,17.6306098 Z" id="Shape"></path>
            </g>
        </g>
    </g>
</svg>