<?xml version="1.0" encoding="UTF-8"?>
<svg width="71px" height="26px" viewBox="0 0 71 26" version="1.1" xmlns="http://www.w3.org/2000/svg" xmlns:xlink="http://www.w3.org/1999/xlink">
    <!-- Generator: Sketch 54.1 (76490) - https://sketchapp.com -->
    <title>nhn</title>
    <desc>Created with Sketch.</desc>
    <g id="Page-1" stroke="none" stroke-width="1" fill="none" fill-rule="evenodd">
        <g id="ν† ν”½μ„ΈνΈ" transform="translate(-116.000000, -143.000000)" fill-rule="nonzero">
            <g id="nhn" transform="translate(116.000000, 143.000000)">
                <path d="M3.83174603,2.42297872 C3.83174603,1.31659574 3.60634921,0.50893617 2.85126984,0.0719148936 C2.73870557,-0.00835909371 2.58629443,-0.00835909371 2.47373016,0.0719148936 C1.94805152,0.491091066 1.45285083,0.945815499 0.991746032,1.43276596 C0.667662871,1.74412277 0.509408536,2.18567641 0.563492063,2.62765957 L0.563492063,14.5378723 C0.563492063,15.533617 0.788888889,16.2361702 1.54396825,16.6178723 C1.65938297,16.6890132 1.80609322,16.6890132 1.92150794,16.6178723 C2.43460107,16.2499884 2.92216191,15.8489588 3.38095238,15.4174468 C3.69753417,15.1679993 3.86660266,14.7800259 3.83174603,14.3829787 L3.83174603,2.42297872 Z" id="Path" fill="#494949"></path>
                <path d="M25.4022222,2.42297872 C25.4022222,1.31659574 25.1768254,0.50893617 24.421746,0.0719148936 C24.3091818,-0.00835909371 24.1567706,-0.00835909371 24.0442063,0.0719148936 C23.5113904,0.490994805 23.0086869,0.945693246 22.5396825,1.43276596 C22.2172673,1.74287569 22.0591549,2.18199091 22.1114286,2.62212766 L22.1114286,14.5378723 C22.1114286,15.533617 22.3368254,16.2361702 23.0919048,16.6178723 C23.2073195,16.6890132 23.3540297,16.6890132 23.4694444,16.6178723 C23.9910829,16.2437878 24.4862187,15.8353287 24.9514286,15.3953191 C25.2619153,15.1510226 25.4304149,14.7726254 25.4022222,14.3829787 L25.4022222,2.42297872 Z" id="Path" fill="#494949"></path>
                <path d="M18.2571429,9.02255319 C19.2094444,9.50382979 19.7785714,10.0459574 19.7842063,10.9310638 C19.8044504,11.0717647 19.7409723,11.2114423 19.6207937,11.2906383 C19.0107874,11.5949502 18.3800456,11.8574221 17.7330952,12.0761702 C17.3326034,12.2442457 16.8727699,12.2026394 16.5103175,11.9655319 L7.9734127,7.69489362 C6.89150794,7.14170213 6.23785714,6.58851064 6.18150794,5.65361702 C6.15065916,5.51299619 6.21400293,5.36863616 6.33928571,5.29404255 C7.00167123,5.01182914 7.68326605,4.7752288 8.37912698,4.58595745 C8.83269167,4.4348663 9.33193568,4.49817319 9.73150794,4.75744681 L18.2571429,9.02255319 Z" id="Path" fill="#494949"></path>
                <path d="M48.9336508,2.42297872 C48.9336508,1.31659574 48.708254,0.50893617 47.9531746,0.0719148936 C47.8406103,-0.00835909371 47.6881992,-0.00835909371 47.5756349,0.0719148936 C47.0490657,0.49805279 46.5538369,0.960197309 46.0936508,1.45489362 C45.7679295,1.75712531 45.6017226,2.18952229 45.6428571,2.62765957 L45.6428571,14.5378723 C45.6428571,15.533617 45.868254,16.2361702 46.6233333,16.6178723 C46.738748,16.6890132 46.8854583,16.6890132 47.000873,16.6178723 C47.5221934,16.2433896 48.0173025,15.8349526 48.4828571,15.3953191 C48.7933438,15.1510226 48.9618435,14.7726254 48.9336508,14.3829787 L48.9336508,2.42297872 Z" id="Path" fill="#494949"></path>
                <path d="M70.5097619,2.42297872 C70.5097619,1.31659574 70.2843651,0.50893617 69.5292857,0.0719148936 C69.4167214,-0.00835909371 69.2643103,-0.00835909371 69.151746,0.0719148936 C68.6256679,0.498596982 68.1304768,0.960706388 67.6697619,1.45489362 C67.3473467,1.76500335 67.1892343,2.20411857 67.2415079,2.64425532 L67.2415079,14.5378723 C67.2415079,15.533617 67.4669048,16.2361702 68.2219841,16.6178723 C68.3373988,16.6890132 68.4841091,16.6890132 68.5995238,16.6178723 C69.1211623,16.2437878 69.616298,15.8353287 70.0815079,15.3953191 C70.396764,15.1366553 70.557815,14.7393075 70.5097619,14.3387234 L70.5097619,2.42297872 Z" id="Path" fill="#494949"></path>
                <path d="M63.3590476,9.02255319 C64.3169841,9.50382979 64.8804762,10.0459574 64.891746,10.9310638 C64.9119901,11.0717647 64.848512,11.2114423 64.7283333,11.2906383 C64.1183729,11.5950468 63.4876241,11.8575216 62.8406349,12.0761702 C62.4403095,12.2452805 61.9799532,12.203627 61.6178571,11.9655319 L53.0809524,7.69489362 C51.9990476,7.14170213 51.3453968,6.58851064 51.2890476,5.65361702 C51.2563679,5.51282613 51.320159,5.36744679 51.4468254,5.29404255 C52.1092109,5.01182914 52.7908057,4.7752288 53.4866667,4.58595745 C53.9402314,4.4348663 54.4394754,4.49817319 54.8390476,4.75744681 L63.3590476,9.02255319 Z" id="Path" fill="#494949"></path>
                <path d="M30.9920635,6.63829787 C30.5163879,6.58559226 30.0424904,6.750873 29.7073016,7.08638298 C29.1732963,7.56583476 28.6743131,8.08157615 28.2140476,8.62978723 C28.126676,8.74666028 28.126676,8.90568014 28.2140476,9.02255319 C28.687381,9.80808511 29.538254,10.0459574 30.7497619,10.0459574 L40.0530159,10.0459574 C40.5287907,10.0995135 41.0030585,9.93410355 41.3377778,9.59787234 C41.869546,9.11793111 42.3666216,8.60221538 42.8253968,8.05446809 C42.9110029,7.93703301 42.9110029,7.77913721 42.8253968,7.66170213 C42.3407937,6.87617021 41.4842857,6.63829787 40.2727778,6.63829787 L30.9920635,6.63829787 Z" id="Path" fill="#FF1414"></path>
                <polygon id="Path" fill="#646464" points="7.43246032 26 7.43246032 21.7902128 10.013254 21.7902128 10.013254 22.3434043 8.08047619 22.3434043 8.08047619 23.6157447 9.70896825 23.6157447 9.70896825 24.1689362 8.08047619 24.1689362 8.08047619 25.4468085 10.0639683 25.4468085 10.0639683 26"></polygon>
                <polygon id="Path" fill="#646464" points="14.3183333 26 12.2953968 22.7914894 12.2953968 26 11.641746 26 11.641746 21.7902128 12.284127 21.7902128 14.3126984 25.0097872 14.3126984 21.7902128 14.9663492 21.7902128 14.9663492 26"></polygon>
                <polygon id="Path" fill="#646464" points="18.2346032 22.36 18.2346032 26 17.5809524 26 17.5809524 22.36 16.397619 22.36 16.397619 21.8068085 19.4123016 21.8068085 19.4123016 22.36"></polygon>
                <polygon id="Path" fill="#646464" points="20.8492063 26 20.8492063 21.7902128 23.43 21.7902128 23.43 22.3434043 21.4972222 22.3434043 21.4972222 23.6157447 23.1031746 23.6157447 23.1031746 24.1689362 21.4972222 24.1689362 21.4972222 25.4468085 23.4807143 25.4468085 23.4807143 26"></polygon>
                <path d="M27.5716667,26 L26.6531746,24.246383 L25.7065079,24.246383 L25.7065079,26 L25.0584921,26 L25.0584921,21.7902128 L27.0025397,21.7902128 C27.2526261,21.7915453 27.4914845,21.892328 27.6645694,22.069546 C27.8376542,22.2467641 27.9301851,22.4852843 27.9210317,22.7306383 L27.9210317,23.2838298 C27.9326406,23.6715492 27.6963042,24.0250977 27.3293651,24.1689362 L28.2816667,26 L27.5716667,26 Z M27.267381,22.8523404 C27.267381,22.4982979 27.1152381,22.3323404 26.7038889,22.3323404 L25.7065079,22.3323404 L25.7065079,23.6765957 L26.7095238,23.6765957 C27.1096032,23.6765957 27.2730159,23.5051064 27.2730159,23.1565957 L27.267381,22.8523404 Z" id="Shape" fill="#646464"></path>
                <polygon id="Path" fill="#646464" points="31.1160317 22.36 31.1160317 26 30.4680159 26 30.4680159 22.36 29.3015873 22.36 29.3015873 21.8068085 32.3162698 21.8068085 32.3162698 22.36"></polygon>
                <path d="M35.9451587,24.8604255 L34.1870635,24.8604255 L33.7757143,26 L33.0995238,26 L34.5871429,21.7625532 L35.5450794,21.7625532 L37.0326984,26 L36.3565079,26 L35.9451587,24.8604255 Z M34.3730159,24.2519149 L35.7253968,24.2519149 L35.077381,22.3821277 L35.0153968,22.3821277 L34.3730159,24.2519149 Z" id="Shape" fill="#646464"></path>
                <polygon id="Path" fill="#646464" points="38.6499206 26 38.6499206 21.7902128 39.3035714 21.7902128 39.3035714 26"></polygon>
                <polygon id="Path" fill="#646464" points="43.9073016 26 41.8843651 22.7914894 41.8843651 26 41.2307143 26 41.2307143 21.7902128 41.8730952 21.7902128 43.9016667 25.0097872 43.9016667 21.7902128 44.5553175 21.7902128 44.5553175 26"></polygon>
                <polygon id="Path" fill="#646464" points="48.2405556 24.2297872 49.3675397 21.7902128 50.0268254 21.7902128 50.0268254 26 49.3619048 26 49.3619048 23.1731915 49.3619048 23.1731915 48.4603175 24.9987234 47.9362698 24.9987234 47.0684921 23.1731915 47.0684921 23.1731915 47.0684921 26 46.3979365 26 46.3979365 21.7902128 47.0572222 21.7902128 48.1842063 24.2297872"></polygon>
                <polygon id="Path" fill="#646464" points="51.8412698 26 51.8412698 21.7902128 54.4333333 21.7902128 54.4333333 22.3434043 52.5061905 22.3434043 52.5061905 23.6157447 54.1346825 23.6157447 54.1346825 24.1689362 52.5061905 24.1689362 52.5061905 25.4468085 54.4840476 25.4468085 54.4840476 26"></polygon>
                <polygon id="Path" fill="#646464" points="58.7384127 26 56.7154762 22.7914894 56.7154762 26 56.0674603 26 56.0674603 21.7902128 56.7098413 21.7902128 58.7384127 25.0097872 58.7384127 21.7902128 59.3920635 21.7902128 59.3920635 26"></polygon>
                <polygon id="Path" fill="#646464" points="62.6546825 22.36 62.6546825 26 61.984127 26 61.984127 22.36 60.8007937 22.36 60.8007937 21.8068085 63.8154762 21.8068085 63.8154762 22.36"></polygon>
            </g>
        </g>
    </g>
</svg>