<?xml version="1.0" encoding="UTF-8"?>
<svg width="71px" height="21px" viewBox="0 0 71 21" version="1.1" xmlns="http://www.w3.org/2000/svg" xmlns:xlink="http://www.w3.org/1999/xlink">
    <!-- Generator: Sketch 54.1 (76490) - https://sketchapp.com -->
    <title>raketen</title>
    <desc>Created with Sketch.</desc>
    <g id="Page-1" stroke="none" stroke-width="1" fill="none" fill-rule="evenodd">
        <g id="ν† ν”½μ„ΈνΈ" transform="translate(-110.000000, -474.000000)" fill="#BF0000" fill-rule="nonzero">
            <g id="raketen" transform="translate(110.000000, 474.000000)">
                <path d="M57.0008319,17.5391061 L14.2,17.5391061 L17.6023295,20.9178771 L57.0008319,17.5391061 Z M18.1930116,3.85977654 L18.1930116,4.3877095 C17.3896839,3.85977654 16.7044925,3.58994413 15.6885191,3.58994413 C12.7114809,3.58994413 10.3723794,6.28826816 10.3723794,9.66703911 C10.3723794,12.9988827 12.6642263,15.7441341 15.6885191,15.7441341 C16.6454243,15.7441341 17.3896839,15.4273743 18.1930116,14.9463687 L18.1930116,15.4743017 L20.8510815,15.4743017 L20.8510815,3.85977654 L18.1930116,3.85977654 Z M15.6885191,12.8932961 C14.2,12.8932961 13.136772,11.4620112 13.136772,9.62011173 C13.136772,7.77821229 14.2,6.34692737 15.6885191,6.34692737 C17.1770383,6.34692737 18.1930116,7.77821229 18.1930116,9.62011173 C18.1930116,11.403352 17.1297837,12.8932961 15.6885191,12.8932961 Z M39.3039933,3.85977654 L39.3039933,10.6173184 C39.3039933,11.8843575 38.3943428,12.9402235 37.1184692,12.9402235 C35.8425957,12.9402235 34.9329451,11.8843575 34.9329451,10.6173184 L34.9329451,3.85977654 L32.2748752,3.85977654 L32.2748752,10.6173184 C32.2748752,13.4212291 34.1886855,15.6854749 37.0121464,15.6854749 C38.28802,15.6854749 39.3039933,14.9463687 39.3039933,14.9463687 L39.3039933,15.3687151 L41.9620632,15.3687151 L41.9620632,3.85977654 L39.3039933,3.85977654 Z M63.8645591,15.3687151 L63.8645591,8.61117318 C63.8645591,7.34413408 64.7742097,6.28826816 66.0500832,6.28826816 C67.3259567,6.28826816 68.2356073,7.34413408 68.2356073,8.61117318 L68.2356073,15.3687151 L70.8936772,15.3687151 L70.8936772,8.61117318 C70.8936772,5.80726257 68.9798669,3.54301676 66.156406,3.54301676 C64.8805324,3.54301676 63.8645591,4.28212291 63.8645591,4.28212291 L63.8645591,3.85977654 L61.2064892,3.85977654 L61.2064892,15.3687151 L63.8645591,15.3687151 Z" id="Shape"></path>
                <path d="M2.8234609,15.3687151 L2.8234609,10.875419 L4.73727121,10.875419 L8.13960067,15.3687151 L11.6009983,15.3687151 L7.50166389,9.98379888 C9.26244008,8.7181972 10.0043505,6.47189386 9.34043016,4.41651381 C8.67650982,2.36113376 6.75724889,0.962568032 4.58369384,0.95027933 L0,0.95027933 L0,15.3687151 L2.8234609,15.3687151 Z M2.8234609,3.69553073 L4.63094842,3.69553073 C5.44974647,3.69553071 6.20634707,4.1293296 6.6157461,4.83351954 C7.02514513,5.53770948 7.02514513,6.40530727 6.6157461,7.10949722 C6.20634707,7.81368716 5.44974647,8.24748605 4.63094842,8.24748603 L2.8234609,8.24748603 L2.8234609,3.69553073 Z M49.0266223,12.6703911 C48.7549085,12.8346369 48.4950083,12.9871508 48.1169717,12.9871508 C47.6916805,12.9871508 46.8883527,12.6703911 46.8883527,11.6145251 L46.8883527,6.59329609 L49.1801997,6.59329609 L49.1801997,3.78938547 L46.8883527,3.78938547 L46.8883527,0.879888268 L44.2302829,0.879888268 L44.2302829,3.78938547 L42.8480865,3.78938547 L42.8480865,6.53463687 L44.2302829,6.53463687 L44.2302829,11.4972067 C44.2302829,14.0899441 46.2031614,15.6150838 48.1642263,15.6150838 C48.9084859,15.6150838 49.9244592,15.3452514 50.7159734,14.8759777 L49.0266223,12.6703911 Z M27.336772,9.24469274 L31.8613977,3.85977654 L28.1873544,3.85977654 L24.9976705,7.87206704 L24.9976705,0 L22.2805324,0 L22.2805324,15.3687151 L24.9976705,15.3687151 L24.9976705,10.6173184 L28.931614,15.3687151 L32.6056572,15.3687151 L27.336772,9.24469274 Z" id="Shape"></path>
                <path d="M55.1460899,3.54301676 C52.0627288,3.54301676 49.8772047,6.24134078 49.8772047,9.62011173 C49.8772047,13.1631285 52.5943428,15.6972067 55.40599,15.6972067 C56.7881864,15.6972067 58.5484193,15.2162011 60.084193,13.1044693 L57.7450915,11.7318436 C55.937604,14.3715084 52.9014975,13.0575419 52.5825291,10.3592179 L60.1905158,10.3592179 C60.8284526,6.22960894 58.1231281,3.54301676 55.1460899,3.54301676 Z M57.4261231,8.1301676 L52.6888519,8.1301676 C53.2795341,5.3849162 56.9535774,5.23240223 57.4261231,8.1301676 Z" id="Shape"></path>
            </g>
        </g>
    </g>
</svg>