<?xml version="1.0" encoding="UTF-8"?>
<svg width="71px" height="10px" viewBox="0 0 71 10" version="1.1" xmlns="http://www.w3.org/2000/svg" xmlns:xlink="http://www.w3.org/1999/xlink">
    <!-- Generator: Sketch 54.1 (76490) - https://sketchapp.com -->
    <title>samsung</title>
    <desc>Created with Sketch.</desc>
    <g id="Page-1" stroke="none" stroke-width="1" fill="none" fill-rule="evenodd">
        <g id="ν† ν”½μ„ΈνΈ" transform="translate(-110.000000, -524.000000)" fill="#000000" fill-rule="nonzero">
            <g id="samsung" transform="translate(110.000000, 524.000000)">
                <path d="M5.75020337,4.63301435 C5.75020337,4.63301435 5.06111501,4.22392344 4.63392006,4.06507177 C4.63392006,4.06507177 3.31399719,3.47751196 3.05210379,3.19712919 C3.05210379,3.19712919 2.53757784,2.73014354 2.83900421,2.19023923 C2.83900421,2.19023923 2.96447405,1.83617225 3.50817672,1.83617225 C3.50817672,1.83617225 4.21668303,1.87291866 4.21668303,2.43272727 L4.21668303,3.2215311 L6.75495792,3.2215311 L6.74798738,2.05933014 C6.74798738,2.05933014 6.9421669,0.156794258 3.75911641,0.0735885167 C3.75911641,0.0735885167 3.51962833,0.0587559809 3.16761571,0.0735885167 C3.16761571,0.0735885167 1.2396122,0.17291866 0.550374474,1.18937799 C0.543702665,1.19641148 0.541014025,1.20220096 0.536931276,1.2092823 C0.536931276,1.2092823 0.255769285,1.49760766 0.255769285,2.50559809 L0.255769285,3.23301435 C0.255769285,3.23301435 0.226891304,4.0722488 0.67320547,4.61339713 C0.67320547,4.61339713 0.92563885,4.96794258 1.54701332,5.35933014 C1.54701332,5.35933014 2.80808485,6.01196172 3.56498668,6.38564593 C3.56498668,6.38564593 4.33025316,6.80478469 4.22967812,7.4722488 C4.22967812,7.4722488 4.1669432,8.1569378 3.42955891,8.1291866 C3.42955891,8.1291866 2.75441164,8.09952153 2.75441164,7.42822967 L2.75441164,6.63971292 L0.0497896213,6.63971292 L0.0497896213,7.78564593 C0.0497896213,7.78564593 -0.0260897616,9.97655502 3.44842917,9.97655502 C3.44842917,9.97655502 6.76690743,10.0416268 6.92324684,7.72822967 L6.92324684,6.79617225 C6.92324684,6.79617225 7.03925666,5.37703349 5.74821178,4.63110048 L5.75020337,4.63301435 Z M47.3479383,7.33827751 C47.3479383,7.33827751 47.3812973,8.10239234 46.6434151,8.10239234 C46.6434151,8.10239234 45.8711781,8.14210526 45.8711781,7.3569378 L45.8647055,0.352822967 L43.1063604,0.352822967 L43.1063604,7.30047847 C43.1063604,7.30047847 42.8245512,9.93062201 46.6832468,9.93062201 C46.6832468,9.93062201 50.0385694,9.96889952 50.0385694,7.42105263 L50.0385694,0.352822967 L47.3479383,0.352822967 L47.3479383,7.33827751 Z M55.9585554,3.99282297 L58.6272791,9.65789474 L61.6295933,9.65789474 L61.6295933,0.346411483 L59.0803647,0.346411483 L59.2596073,6.01339713 L59.1550491,6.01339713 L56.5709677,0.347033493 L53.4840112,0.347033493 L53.4840112,9.65789474 L55.9983871,9.65789474 L55.8440393,3.99282297 L55.9585554,3.99282297 Z M67.6939691,4.50574163 L67.6939691,5.8722488 L68.3860449,5.8722488 L68.3860449,7.33875598 C68.3860449,8.05502392 67.7487377,8.06889952 67.7487377,8.06889952 C66.9720196,8.06889952 67.0068724,7.38755981 67.0068724,7.38755981 L67.0068724,2.31406699 C67.0068724,1.79167464 67.6889902,1.76334928 67.6889902,1.76334928 C68.3561711,1.76334928 68.3561711,2.3869378 68.3561711,2.3869378 L68.3561711,3.15837321 L70.8954418,3.15837321 C70.9850631,1.65301435 70.6713885,1.28803828 70.6713885,1.28803828 C70.0390603,-0.0734449761 67.6541374,0.000717703349 67.6541374,0.000717703349 C63.9846424,0.000717703349 64.3929173,2.70574163 64.3929173,2.70574163 L64.3929173,7.61100478 C64.4676017,10.1473684 68.0873072,9.88995215 68.1470547,9.88660287 C69.7552595,9.71578947 70.2382188,9.22488038 70.2382188,9.22488038 C70.6913043,8.90574163 70.8008415,8.4645933 70.8008415,8.4645933 C70.9302945,8.2076555 70.9651473,7.38708134 70.9651473,7.38708134 L70.9651473,4.50478469 L67.6939691,4.50478469 L67.6939691,4.50574163 Z M15.269979,0.383732057 L11.0064937,0.383732057 L9.33654979,9.64545455 L12.0376367,9.64545455 L13.0269565,2.46435407 L13.2490182,2.46435407 L14.2378401,9.64545455 L16.9389271,9.64545455 L15.269979,0.383732057 Z M22.1738079,2.67521531 L22.3709748,2.67521531 L23.7013534,9.65454545 L26.3411992,9.65454545 L27.6551473,2.67779904 L27.8299088,2.67779904 L27.8911501,9.65645933 L30.4129944,9.65645933 L30.141641,0.345119617 L25.9448738,0.345119617 L25.0949649,5.46172249 L24.8963043,5.46172249 L24.0852314,0.390909091 L19.8461431,0.390909091 L19.6340393,9.65645933 L22.1434362,9.65645933 L22.1738079,2.67521531 Z M38.9354839,4.63301435 C38.9354839,4.63301435 38.2453997,4.22296651 37.8187027,4.0645933 C37.8187027,4.0645933 36.4987798,3.47607656 36.2363885,3.19617225 C36.2363885,3.19617225 35.7220617,2.73014354 36.022791,2.18899522 C36.022791,2.18899522 36.1487588,1.83492823 36.6924614,1.83492823 C36.6924614,1.83492823 37.4004698,1.8722488 37.4004698,2.43143541 L37.4004698,3.22009569 L39.9382468,3.22009569 L39.9312763,2.05803828 C39.9312763,2.05803828 40.1264516,0.155502392 36.9424053,0.0716267943 C36.9424053,0.0716267943 34.4384853,-0.0863636364 33.720021,1.2092823 C33.720021,1.2092823 33.4382118,1.49827751 33.4382118,2.50559809 L33.4382118,3.23301435 C33.4382118,3.23301435 33.4093338,4.07272727 33.8559467,4.61339713 C33.8559467,4.61339713 34.1078822,4.96794258 34.7297546,5.35933014 C34.7297546,5.35933014 35.9914236,6.01196172 36.7482258,6.3861244 C36.7482258,6.3861244 37.5124965,6.80526316 37.4119215,7.4722488 C37.4119215,7.4722488 37.3501823,8.1569378 36.6123001,8.1291866 C36.6123001,8.1291866 35.9371529,8.09952153 35.9371529,7.42822967 L35.9371529,6.64019139 L33.2330785,6.64019139 L33.2330785,7.78564593 C33.2330785,7.78564593 33.1573983,9.97655502 36.632216,9.97655502 C36.632216,9.97655502 39.95169,10.0416268 40.1065358,7.72822967 L40.1065358,6.79617225 C40.1065358,6.79617225 40.2235414,5.37894737 38.9334923,4.63301435 L38.9354839,4.63301435 Z" id="Shape"></path>
            </g>
        </g>
    </g>
</svg>