<?xml version="1.0" encoding="UTF-8"?>
<svg width="71px" height="12px" viewBox="0 0 71 12" version="1.1" xmlns="http://www.w3.org/2000/svg" xmlns:xlink="http://www.w3.org/1999/xlink">
    <!-- Generator: Sketch 56.3 (81716) - https://sketch.com -->
    <title>shinsegae</title>
    <desc>Created with Sketch.</desc>
    <g id="Page-1" stroke="none" stroke-width="1" fill="none" fill-rule="evenodd">
        <g id="ν† ν”½μ„ΈνΈ" transform="translate(-129.000000, -745.000000)" fill-rule="nonzero">
            <g id="shinsegae" transform="translate(129.000000, 745.000000)">
                <path d="M6.45339286,0 L6.9225,0.633928571 L6.99857143,0.748035714 C7.23309489,1.09733208 7.4367228,1.46640767 7.60714286,1.85107143 L7.60714286,2.07928571 C7.60714286,2.07928571 7.60714286,2.15535714 7.60714286,2.24410714 C7.6532221,2.49984569 7.6532221,2.76176145 7.60714286,3.0175 C7.48816051,3.47089549 7.29078081,3.8999818 7.02392857,4.28535714 C6.80839286,4.58964286 6.32660714,5.16017857 6.32660714,5.16017857 C6.04767857,4.81785714 5.74339286,4.48821429 5.43910714,4.17125 C5.13482143,3.85428571 5.10946429,3.56267857 4.95732143,3.24571429 C4.83498259,2.89504137 4.770744,2.52674012 4.76714286,2.15535714 C4.76714286,2.15535714 4.76714286,2.00321429 4.76714286,1.93982143 C4.79103564,1.80763462 4.83373071,1.67954941 4.89392857,1.55946429 C4.93619497,1.45293157 4.99621153,1.35433294 5.07142857,1.26785714 L5.26160714,1.07767857 C5.62058702,0.69198507 6.00611161,0.331879686 6.41535714,0 C6.41535714,0 6.44071429,0 6.45339286,0 Z" id="Path" fill="#E60000"></path>
                <path d="M2.04125,2.14267857 L2.35821429,2.24410714 C2.64629635,2.28303667 2.93049778,2.34666385 3.20767857,2.43428571 C3.38052434,2.50161849 3.54979523,2.5777904 3.71482143,2.6625 C4.1196005,2.91921606 4.47584804,3.24541862 4.76714286,3.62607143 C5.04814364,4.00321243 5.24683395,4.43514788 5.35035714,4.89392857 C5.35035714,5.03339286 5.42642857,5.18553571 5.42642857,5.33767857 C4.95604684,5.4737348 4.47048975,5.55040171 3.98107143,5.56589286 C3.59521576,5.49969841 3.22268165,5.37123837 2.87803571,5.18553571 C2.54778124,4.94870722 2.26048155,4.65711947 2.02857143,4.32339286 C1.72418477,3.80403664 1.53804093,3.2239605 1.48339286,2.62446429 L1.48339286,2.44696429 L1.48339286,2.07928571 C1.48339286,2.07928571 1.48339286,1.97785714 1.48339286,1.97785714 L1.64821429,1.97785714 L2.04125,2.14267857 Z" id="Path" fill="#E60000"></path>
                <path d="M9.99071429,2.53571429 C10.2512204,2.57707317 10.5093738,2.63208946 10.7641071,2.70053571 L10.8782143,2.70053571 L11.6135714,2.95410714 C11.59355,3.28762747 11.4888229,3.61053592 11.3092857,3.89232143 L11.3092857,3.89232143 C11.1271356,4.17013125 10.8897741,4.40749277 10.6119643,4.58964286 C10.3580883,4.77667982 10.0862807,4.93806557 9.80053571,5.07142857 C9.21434182,5.38560049 8.54784224,5.51801762 7.88607143,5.45178571 C7.64517857,5.45178571 7.37892857,5.45178571 7.13803571,5.35035714 C7.13803571,5.35035714 7.25214286,4.91928571 7.30285714,4.69107143 C7.34402635,4.55244353 7.3948653,4.41687298 7.455,4.28535714 C7.5934589,3.9755872 7.758919,3.67860753 7.94946429,3.39785714 C8.25634146,3.04137841 8.63703338,2.75585947 9.06517857,2.56107143 C9.36696899,2.47702065 9.68477451,2.46831365 9.99071429,2.53571429 Z" id="Path" fill="#E60000"></path>
                <path d="M3.46125,8.03821429 C3.7469125,7.90126922 3.99820465,7.70196855 4.19660714,7.455 C4.41455322,7.22167243 4.61379925,6.97155507 4.7925,6.70696429 C4.7925,6.70696429 4.97,6.44071429 5.07142857,6.33928571 L5.07142857,6.33928571 C4.65979667,6.1581976 4.23617398,6.00569343 3.80357143,5.88285714 C3.45786257,5.77097595 3.10057886,5.69866854 2.73857143,5.66732143 C2.43184926,5.62032554 2.11975789,5.62032554 1.81303571,5.66732143 C1.14644079,5.86083396 0.528489315,6.19357706 -4.4408921e-16,6.64357143 L-4.4408921e-16,6.64357143 C0.193007686,6.9439709 0.404735973,7.23192137 0.633928571,7.50571429 C0.675645577,7.56452034 0.722302806,7.6196607 0.773392857,7.67053571 L1.03964286,7.93678571 L1.36928571,8.08892857 C1.6334962,8.22142761 1.92332998,8.29496752 2.21875,8.30446429 C2.64491634,8.28601454 3.06494325,8.19600877 3.46125,8.03821429 Z" id="Path" fill="#E60000"></path>
                <path d="M9.62303571,5.64196429 C9.76232769,5.63216001 9.90213659,5.63216001 10.0414286,5.64196429 C10.4451831,5.69703337 10.8383777,5.81242744 11.2078571,5.98428571 L11.4107143,6.13642857 L11.6008929,6.33928571 C11.7103271,6.44149724 11.8120344,6.55168007 11.9051786,6.66892857 L12.0192857,6.85910714 C12.1709785,7.14713815 12.3064285,7.44343501 12.425,7.74660714 L12.425,7.74660714 L12.2094643,7.81 L11.8925,7.91142857 L11.1571429,8.05089286 L10.65,8.11428571 L10.3330357,8.11428571 C10.2570968,8.12063604 10.1807603,8.12063604 10.1048214,8.11428571 L9.585,8.11428571 C9.44279798,8.09952837 9.30255441,8.06977973 9.16660714,8.02553571 L8.77357143,7.87339286 L8.55803571,7.74660714 C8.46972638,7.70736074 8.38489945,7.66070593 8.30446429,7.60714286 C8.1686566,7.49858906 8.04533951,7.37527197 7.93678571,7.23946429 C7.77922896,7.00711783 7.63529626,6.76581888 7.50571429,6.51678571 C7.84126737,6.24708538 8.21797257,6.03304834 8.62142857,5.88285714 L9.10321429,5.70535714 C9.27339941,5.66389698 9.44787438,5.64261954 9.62303571,5.64196429 Z" id="Path" fill="#E60000"></path>
                <path d="M8.96375,8.54535714 C9.29901644,8.89889795 9.53136332,9.33728828 9.63571429,9.81321429 C9.66586212,9.97675391 9.68702481,10.1418229 9.69910714,10.3076786 C9.70843232,10.4850561 9.70843232,10.662801 9.69910714,10.8401786 C9.69910714,11.1191071 9.69910714,11.3980357 9.69910714,11.6769643 L9.31875,11.4107143 L8.39321429,11.0810714 C8.04991823,10.9283184 7.72285568,10.7414255 7.41696429,10.5232143 C7.20744848,10.3724326 7.01600702,10.1980082 6.84642857,10.0033929 L6.58017857,9.61035714 C6.54019277,9.53875179 6.51032523,9.46194955 6.49142857,9.38214286 C6.44472014,9.21699389 6.4191588,9.04658498 6.41535714,8.875 C6.40753617,8.78218828 6.40753617,8.68888315 6.41535714,8.59607143 C6.463243,8.16477883 6.55674226,7.73978221 6.69428571,7.32821429 L6.69428571,7.22678571 C7.54915477,7.46956645 8.32945904,7.92292759 8.96375,8.54535714 L8.96375,8.54535714 Z" id="Path" fill="#E60000"></path>
                <path d="M5.74339286,7.25214286 C5.18553571,7.455 4.65303571,7.70857143 4.12053571,7.94946429 L3.80357143,8.12696429 C3.65142857,8.30446429 3.29642857,8.62142857 3.29642857,8.62142857 C3.05538984,8.83682097 2.90572639,9.13614786 2.87803571,9.45821429 C2.84535147,9.77009842 2.84535147,10.0845444 2.87803571,10.3964286 C2.98201495,10.742643 3.10908553,11.0814979 3.25839286,11.4107143 C3.25839286,11.5248214 3.25839286,11.62625 3.33446429,11.7276786 L3.44857143,11.7276786 C3.88188516,11.5867018 4.30542427,11.4172861 4.71642857,11.2205357 C5.03692275,11.0593891 5.32154763,10.8351392 5.55321429,10.56125 L5.66732143,10.4217857 C5.96208249,10.0203315 6.12589259,9.53775576 6.13642857,9.03982143 C6.13642857,9.03982143 6.13642857,8.88767857 6.13642857,8.82428571 C6.13642857,8.76089286 6.13642857,8.46928571 6.06035714,8.29178571 C5.98428571,8.11428571 6.06035714,8.07625 5.98428571,7.97482143 C5.90821429,7.87339286 5.80678571,7.48035714 5.74339286,7.25214286 Z" id="Path" fill="#E60000"></path>
                <path d="M17.6739286,3.00482143 C17.2888749,3.34881636 17.0754235,3.84532294 17.0907143,4.36142857 C17.0907143,5.38839286 17.9528571,5.90821429 18.7896429,6.41535714 C19.6264286,6.9225 20.2223214,7.2775 20.2223214,8.01285714 C20.2223214,8.48196429 19.79125,8.98910714 18.9544643,8.98910714 C18.3214465,8.96756916 17.7233644,8.69363841 17.2935714,8.22839286 L17.1033929,8.03821429 L17.1033929,9.15392857 L17.1033929,9.15392857 C17.6560813,9.56410494 18.3297722,9.77825834 19.0178571,9.7625 C19.5361596,9.7908737 20.0428136,9.6018095 20.4158245,9.24083117 C20.7888355,8.87985284 20.9944052,8.37966828 20.9830357,7.86071429 C20.9895338,7.31535343 20.7690987,6.79182007 20.3744643,6.41535714 C19.9935578,6.07442314 19.566797,5.78849345 19.1066071,5.56589286 C18.4346429,5.18553571 17.83875,4.83053571 17.83875,4.18392857 C17.83875,3.53732143 18.3332143,3.25839286 19.1066071,3.25839286 C19.6486821,3.26613626 20.1719229,3.45843844 20.59,3.80357143 L20.7675,3.94303571 L20.7675,2.97946429 L20.7675,2.97946429 C20.3018427,2.68315331 19.7599335,2.5289515 19.2080357,2.53571429 C18.6570196,2.5035719 18.1127345,2.67000618 17.6739286,3.00482143 L17.6739286,3.00482143 Z" id="Path" fill="#4F5556"></path>
                <path d="M41.9533929,3.00482143 C41.5683392,3.34881636 41.3548878,3.84532294 41.3701786,4.36142857 C41.3701786,5.38839286 42.2323214,5.90821429 43.0691071,6.41535714 C43.9058929,6.9225 44.5017857,7.2775 44.5017857,8.01285714 C44.5017857,8.48196429 44.0707143,8.98910714 43.2339286,8.98910714 C42.6009108,8.96756916 42.0028287,8.69363841 41.5730357,8.22839286 L41.3828571,8.03821429 L41.3828571,9.15392857 L41.3828571,9.15392857 C41.9355456,9.56410494 42.6092365,9.77825834 43.2973214,9.7625 C43.8156239,9.7908737 44.3222779,9.6018095 44.6952888,9.24083117 C45.0682997,8.87985284 45.2738695,8.37966828 45.2625,7.86071429 C45.2689981,7.31535343 45.048563,6.79182007 44.6539286,6.41535714 C44.2730221,6.07442314 43.8462613,5.78849345 43.3860714,5.56589286 C42.7141071,5.18553571 42.1182143,4.83053571 42.1182143,4.18392857 C42.1182143,3.53732143 42.6126786,3.25839286 43.3860714,3.25839286 C43.9283343,3.26511946 44.4519024,3.45754193 44.8694643,3.80357143 L45.0469643,3.94303571 L45.0469643,2.97946429 L45.0469643,2.97946429 C44.5849342,2.68551482 44.0477729,2.53141118 43.5001786,2.53571429 C42.9448884,2.50048118 42.3955673,2.66707855 41.9533929,3.00482143 L41.9533929,3.00482143 Z" id="Path" fill="#4F5556"></path>
                <polygon id="Path" fill="#4F5556" points="27.3476786 2.59910714 27.3476786 5.75607143 23.5441071 5.75607143 23.5441071 2.59910714 22.6566071 2.59910714 22.6566071 9.68642857 23.5441071 9.68642857 23.5441071 6.52946429 27.3476786 6.52946429 27.3476786 9.68642857 28.2351786 9.68642857 28.2351786 2.59910714"></polygon>
                <polygon id="Path" fill="#4F5556" points="30.4285714 2.59910714 30.4285714 9.68642857 31.3160714 9.68642857 31.3160714 2.59910714"></polygon>
                <polygon id="Path" fill="#4F5556" points="47.0121429 2.59910714 47.0121429 9.68642857 50.9932143 9.68642857 50.9932143 8.875 47.8996429 8.875 47.8996429 6.54214286 50.7903571 6.54214286 50.7903571 5.75607143 47.8996429 5.75607143 47.8996429 3.38517857 50.8917857 3.38517857 50.8917857 2.59910714"></polygon>
                <polygon id="Path" fill="#4F5556" points="66.5751786 2.59910714 66.5751786 9.68642857 70.55625 9.68642857 70.55625 8.875 67.4626786 8.875 67.4626786 6.54214286 70.3533929 6.54214286 70.3533929 5.75607143 67.4626786 5.75607143 67.4626786 3.38517857 70.4548214 3.38517857 70.4548214 2.59910714"></polygon>
                <path d="M62.4926786,2.53571429 L61.85875,2.53571429 L59.0060714,9.68642857 L59.9189286,9.68642857 L60.7430357,7.60714286 L63.6844643,7.60714286 L64.5719643,9.73714286 L65.4721429,9.73714286 L62.4926786,2.53571429 Z M61.0473214,6.77035714 L62.125,3.89232143 L63.3928571,6.77035714 L61.0473214,6.77035714 Z" id="Shape" fill="#4F5556"></path>
                <path d="M58.0171429,3.96839286 L58.0171429,3.03017857 C57.3755281,2.73368686 56.6820638,2.56570482 55.9758929,2.53571429 C54.9810958,2.4751832 54.002282,2.80752462 53.25,3.46125 C52.5587261,4.17659793 52.1880188,5.14226756 52.2230357,6.13642857 C52.1287564,7.10266389 52.4618927,8.06178621 53.134828,8.76154141 C53.8077633,9.46129661 54.7531408,9.83164337 55.7223214,9.77517857 C56.5498437,9.79690569 57.3668666,9.58606107 58.0805357,9.16660714 L58.0805357,9.16660714 L58.0805357,5.75607143 L55.7857143,5.75607143 L55.7857143,6.50410714 L57.2057143,6.50410714 L57.2057143,8.64678571 C56.7188378,8.88937758 56.1764115,8.99873772 55.6335714,8.96375 C54.9122798,8.96773837 54.2234241,8.66435614 53.7394292,8.12954173 C53.2554342,7.59472731 53.0221093,6.87910003 53.0978571,6.16178571 C53.0238786,5.39167041 53.2951341,4.62838725 53.8385108,4.07766759 C54.3818876,3.52694793 55.1414611,3.24547193 55.9125,3.30910714 C56.6591453,3.34379696 57.384145,3.57090531 58.0171429,3.96839286 L58.0171429,3.96839286 Z" id="Path" fill="#4F5556"></path>
                <polygon id="Path" fill="#4F5556" points="38.7457143 2.59910714 38.7457143 8.10160714 34.4476786 2.59910714 33.5982143 2.59910714 33.5982143 9.68642857 34.4223214 9.68642857 34.4223214 4.01910714 38.8217857 9.67375 39.5698214 9.67375 39.5698214 2.59910714"></polygon>
            </g>
        </g>
    </g>
</svg>