<?xml version="1.0" encoding="UTF-8"?>
<svg width="44px" height="35px" viewBox="0 0 44 35" version="1.1" xmlns="http://www.w3.org/2000/svg" xmlns:xlink="http://www.w3.org/1999/xlink">
    <!-- Generator: Sketch 54.1 (76490) - https://sketchapp.com -->
    <title>sk</title>
    <desc>Created with Sketch.</desc>
    <g id="Page-1" stroke="none" stroke-width="1" fill="none" fill-rule="evenodd">
        <g id="ν† ν”½μ„ΈνΈ" transform="translate(-129.000000, -195.000000)" fill-rule="nonzero">
            <g id="sk" transform="translate(129.000000, 195.000000)">
                <path d="M6.47852761,25.5773437 C5.25570552,24.9976562 4.25153374,24.5300781 4.25153374,23.5839844 C4.25153374,22.859375 4.82380368,22.334375 5.95214724,22.334375 C6.3238311,22.336885 6.69442917,22.3753407 7.05889571,22.4492188 C7.23698056,22.4838401 7.41751695,22.5039565 7.59877301,22.509375 C8.58404908,22.509375 9.1401227,21.9132812 9.51263804,20.7839844 L9.66650307,20.321875 C8.43886681,19.8112206 7.12538236,19.5456758 5.79828221,19.5398437 C2.44564417,19.5398437 0.680245399,21.7109375 0.680245399,23.9613281 C0.649601319,24.91425 0.971105301,25.8444605 1.58184049,26.5699219 C2.28907975,27.4039062 3.30134969,27.9371094 4.24613497,28.415625 C5.62282209,29.0992187 6.86453988,29.6050781 6.86453988,30.6195312 C6.86453988,31.5191406 5.94674847,32.0304687 4.71852761,32.0304687 C3.03680982,32.0304687 1.56564417,31.0570312 1.3793865,30.9367187 L0,33.5644531 C0.245644172,33.7039063 2.02453988,34.8496094 4.95067485,34.8496094 C8.06846626,34.8496094 10.4304294,33.0367187 10.4304294,30.2476562 C10.4304294,27.4585937 8.24392638,26.446875 6.47852761,25.5773437 Z" id="Path" fill="#D1343E"></path>
                <path d="M18.6689571,26.8734375 L24.3376687,19.8460937 L20.2966871,19.8460937 L15.7833129,25.9082031 L15.7158282,25.9082031 L15.7158282,19.8460937 L12.3928834,19.8460937 L12.3928834,34.7265625 L12.5899387,34.7265625 C14.0260123,34.7265625 15.7374233,34.0539062 15.7374233,31.6230469 L15.7374233,28.2050781 L15.804908,28.2050781 L20.393865,34.540625 L24.6346012,34.540625 L18.6689571,26.8734375 Z" id="Path" fill="#D1343E"></path>
                <path d="M24.5158282,3.89921875 C23.3469939,4.1234375 21.6112883,5.1953125 21.6166871,7.109375 C21.6166871,8.8375 23.0149693,9.88476562 23.0203681,12.1460937 C23.038471,13.5720194 22.306354,14.9000365 21.0984049,15.6324219 C21.5033129,15.596875 21.9460123,15.5722656 22.4480982,15.5722656 C23.0094846,15.5632489 23.5707443,15.5970685 24.1271166,15.6734375 L29.3747239,9.14921875 C28.0488418,7.14230011 26.4074959,5.36883829 24.5158282,3.89921875 Z" id="Path" fill="#D1343E"></path>
                <path d="M28.9266258,21.5167969 C29.5879755,20.475 29.6716564,18.8152344 29.7364417,17.1226562 C29.7985276,15.5449219 30.122454,14.3582031 32.2063804,14.35 C32.6679755,14.35 33.1079755,14.4128906 33.9042945,14.4101562 C36.1188597,14.4021673 38.2901305,13.7880697 40.1884663,12.6328125 C36.9519072,10.5208131 33.2207576,9.31506776 29.3747239,9.13828125 C29.075092,9.99140625 26.7509202,16.5375 26.5754601,17.0679688 C26.9331679,17.5009365 27.2486673,17.9679574 27.517546,18.4625 C28.0956921,19.4255547 28.568191,20.4497351 28.9266258,21.5167969 L28.9266258,21.5167969 Z" id="Path" fill="#D1343E"></path>
                <path d="M17.8402454,16.1710938 C17.5703067,16.1710938 17.4434356,15.9933594 17.4056442,15.684375 C17.3678528,15.3753906 16.0613497,3.21015625 15.8642945,1.3671875 C15.8346012,1.09375 15.769816,0.604296875 15.769816,0.429296875 C15.7597692,0.317415924 15.7973795,0.206515553 15.8731807,0.124508404 C15.948982,0.0425012541 16.0557549,-0.00280238883 16.1666258,-3.92779342e-16 C16.7874847,-3.92779342e-16 20.1779141,0.801171875 23.7734969,3.35507812 C22.7369325,3.65039062 20.8635583,4.74414063 20.8716564,7.00273438 C20.8716564,9.00429687 22.2915337,10.10625 22.2996319,12.1132812 C22.3104294,15.378125 18.6068712,16.1683594 17.8402454,16.1710938 Z" id="Path" fill="#E57E3C"></path>
                <path d="M29.2262577,22.3863281 C29.2696927,22.5138531 29.3238803,22.6373555 29.3882209,22.7554687 C29.4483556,22.8811705 29.5742515,22.9608753 29.7121472,22.9605469 C29.8164047,22.9535898 29.9182563,22.9257055 30.0117791,22.8785156 C30.2817178,22.75 41.2493252,17.5820312 42.9013497,16.8082031 C43.1415951,16.690625 43.595092,16.4855469 43.7435583,16.3980469 C43.8778915,16.3321875 43.9651813,16.1963978 43.9703067,16.0453125 C43.969017,15.9677428 43.9465972,15.8920417 43.9055215,15.8265625 C43.7003681,15.4875 42.6395092,14.3472656 40.8660123,13.0921875 C39.4596319,13.8769531 37.2596319,15.0910156 33.9906748,15.1046875 C33.1808589,15.1046875 33.0080982,15.05 32.4601227,15.0527344 C30.8647853,15.0527344 30.4652761,15.75 30.4058896,17.1664062 C30.4058896,17.4398437 30.3923926,17.7953125 30.3761963,18.1890625 C30.3303067,19.46875 30.1818405,21.2160156 29.2262577,22.3863281 Z" id="Path" fill="#E57E3C"></path>
            </g>
        </g>
    </g>
</svg>