<?xml version="1.0" encoding="UTF-8"?>
<svg width="35px" height="35px" viewBox="0 0 35 35" version="1.1" xmlns="http://www.w3.org/2000/svg" xmlns:xlink="http://www.w3.org/1999/xlink">
    <!-- Generator: Sketch 54.1 (76490) - https://sketchapp.com -->
    <title>snapchat</title>
    <desc>Created with Sketch.</desc>
    <g id="Page-1" stroke="none" stroke-width="1" fill="none" fill-rule="evenodd">
        <g id="ν† ν”½μ„ΈνΈ" transform="translate(-129.000000, -369.000000)">
            <g id="snapchat" transform="translate(129.000000, 369.000000)">
                <path d="M0.0375825243,26.0985146 L0.0375825243,26.1000777 C0.0585145631,26.876466 0.0649708738,27.6573398 0.195932039,28.4289709 C0.334708738,29.2453204 0.533087379,30.0413495 0.911563107,30.7822621 C1.42324272,31.7850971 2.12596117,32.6319612 3.01299029,33.3237379 C3.64985437,33.820466 4.34557282,34.2147767 5.11570874,34.4635146 C6.23869903,34.8257476 7.39723301,34.9645922 8.57268932,34.9713883 C9.30605825,34.9760097 10.0389515,34.9943592 10.7725922,34.991301 C16.1004078,34.9688738 21.4283592,35.029767 26.7563107,34.9584078 C27.4633107,34.9488252 28.1587573,34.8625825 28.8526408,34.735699 C30.1825728,34.4922621 31.3579612,33.9247864 32.3635825,33.0276311 C33.5355728,31.9823204 34.326301,30.7030194 34.683233,29.1590097 C34.9168155,28.1497864 34.9752621,27.1258835 34.9852524,26.0983786 L34.9852524,25.8934078 C34.9852524,25.8138932 34.9550097,8.43472816 34.9522233,8.20501942 C34.9444078,7.574 34.8979223,6.94773786 34.7796019,6.32684466 C34.6357282,5.57023301 34.4324563,4.83299029 34.0701553,4.14848544 C33.6876019,3.42531068 33.2084078,2.77505825 32.6157184,2.20683495 C31.7078252,1.33625243 30.6601359,0.720592233 29.4404369,0.39492233 C28.3387864,0.100854369 27.2149126,0.0357475728 26.0828155,0.0367669903 C26.0809806,0.0364951456 26.076699,0.0250097087 26.0764272,0.0194368932 L8.94097087,0.0194368932 C8.94063107,0.0252815534 8.94042718,0.0311262136 8.94001942,0.0367669903 C8.29751456,0.0485242718 7.65405825,0.0436990291 7.01481553,0.122941748 C6.31454369,0.21 5.621,0.341097087 4.95817476,0.585893204 C3.91415534,0.972048544 3.00707767,1.57350485 2.23225243,2.37646602 C1.35439806,3.28619417 0.73561165,4.33830097 0.407291262,5.56343689 C0.114378641,6.65652427 0.050631068,7.77135922 0.0490679612,8.89407767" id="Path" fill="#FFFC00" fill-rule="nonzero"></path>
                <path d="M17.6699709,29.5283107 C17.5973883,29.5283107 17.5281359,29.5256602 17.475466,29.5231456 C17.4336699,29.5267476 17.3905146,29.5283107 17.3472913,29.5283107 C15.8224466,29.5283107 14.8028932,28.8074466 13.9031553,28.1709223 C13.2582718,27.7153786 12.6500874,27.2853204 11.9375825,27.1667961 C11.5876505,27.1087573 11.2395534,27.0793301 10.9032136,27.0793301 C10.2972039,27.0793301 9.81828155,27.1733204 9.46862136,27.2416893 C9.25345631,27.2836214 9.06792233,27.3197087 8.92452427,27.3197087 C8.7743301,27.3197087 8.59185437,27.2864078 8.51580583,27.0267282 C8.45552427,26.8218932 8.41230097,26.6234466 8.37057282,26.4323398 C8.26618447,25.9547767 8.19047573,25.6632913 8.0116699,25.6356311 C6.09917476,25.3405437 4.96918447,24.9058641 4.74409709,24.3794369 C4.72051456,24.3241165 4.7073301,24.2684563 4.70440777,24.2134078 C4.69564078,24.0564854 4.80641748,23.9188641 4.96109709,23.8932427 C6.4798932,23.6431456 7.83034951,22.8403883 8.97515534,21.5065146 C9.86198058,20.4738447 10.2974757,19.4871845 10.344233,19.3782427 C10.3462718,19.3733495 10.3486505,19.3681845 10.3510971,19.3634951 C10.571767,18.915767 10.6156699,18.5288641 10.4819903,18.2138641 C10.2355631,17.6327282 9.41941748,17.3737961 8.87946602,17.202466 C8.74517476,17.1599903 8.61815534,17.1197573 8.51696117,17.0795922 C8.03831068,16.8905243 7.2511165,16.4910485 7.35598058,15.9396796 C7.43236893,15.5376214 7.96416505,15.2576214 8.39395146,15.2576214 C8.51329126,15.2576214 8.61903883,15.2785534 8.70806796,15.3203495 C9.19371845,15.5478835 9.63064078,15.6632136 10.0063981,15.6632136 C10.473699,15.6632136 10.6993981,15.4852913 10.7539709,15.4347282 C10.7405146,15.1854466 10.724068,14.9218932 10.708165,14.6726117 C10.708165,14.6723398 10.7078252,14.6693495 10.7078252,14.6693495 C10.5981359,12.9244466 10.4613301,10.7529515 11.0167767,9.50769903 C12.6792427,5.78023301 16.2048641,5.49037864 17.2454854,5.49037864 C17.2732136,5.49037864 17.6990583,5.48616505 17.6990583,5.48616505 C17.7182913,5.48582524 17.7391553,5.4855534 17.760767,5.4855534 C18.8042427,5.4855534 22.3372039,5.77574757 24.0006893,9.50545631 C24.5561359,10.7515243 24.4191942,12.9248544 24.309165,14.6715922 L24.304,14.7551845 C24.2889126,14.9923689 24.2749806,15.2168447 24.2632233,15.4344563 C24.3146019,15.4817573 24.5211359,15.6448641 24.9413398,15.6613786 C25.2995631,15.6476505 25.7112039,15.5328641 26.1645049,15.3206214 C26.3046408,15.254835 26.4597961,15.2411748 26.5651359,15.2411748 C26.7243689,15.2411748 26.8863883,15.272165 27.0214272,15.3285049 L27.0286311,15.3312913 C27.4132913,15.4678252 27.6652233,15.7406893 27.6706602,16.0273495 C27.6754854,16.2945728 27.4769029,16.6939806 26.500165,17.0797282 C26.4001262,17.1193495 26.2724951,17.1598544 26.1376602,17.2026019 C25.597233,17.3741359 24.781767,17.632932 24.5353398,18.2137282 C24.4014563,18.5287282 24.4454951,18.9154951 24.666233,19.3630874 C24.6686796,19.3679806 24.6707864,19.3729417 24.673165,19.3781068 C24.7411262,19.5374078 26.3861262,23.2882524 30.056301,23.8929029 C30.2109126,23.9186602 30.3218932,24.0564175 30.3130583,24.213068 C30.3097961,24.2693398 30.2962039,24.3256117 30.2724175,24.3805922 C30.0488932,24.9040971 28.9189709,25.338165 27.005932,25.6336602 C26.8263786,25.6613883 26.7507379,25.9515825 26.647301,26.4266311 C26.6044854,26.622835 26.5609223,26.815165 26.5014563,27.0172816 C26.4457961,27.2073689 26.3219709,27.3002718 26.1231165,27.3002718 L26.0931456,27.3002718 C25.9636796,27.3002718 25.7802524,27.2767573 25.5489126,27.2314951 C25.1445437,27.1527961 24.6910388,27.079534 24.1143204,27.079534 C23.7780485,27.079534 23.4300194,27.1090291 23.0796796,27.167 C22.3679223,27.2855243 21.7598058,27.7149029 21.1160777,28.1699709 C20.2145728,28.8073786 19.1946796,29.5283107 17.6699709,29.5283107" id="Path" fill="#FFFFFF" fill-rule="nonzero"></path>
                <path d="M17.760699,5.7926699 C18.7430777,5.7926699 22.1259126,6.05656311 23.7200777,9.63057282 C24.2450097,10.8074563 24.1104466,12.9393301 24.0025243,14.6518835 C23.9856699,14.9236602 23.9689515,15.1870777 23.9553592,15.4386019 L23.9496505,15.5467282 L24.0218252,15.6272621 C24.0509806,15.6596117 24.3238447,15.9447767 24.9307379,15.9682233 L24.9405243,15.968767 L24.9507184,15.9685631 C25.3519612,15.9532718 25.8039029,15.8286311 26.2947184,15.5987184 C26.3670291,15.5648738 26.4632621,15.5483592 26.565068,15.5483592 C26.6810777,15.5483592 26.8043592,15.5701748 26.9060291,15.6129903 L26.9213883,15.6191068 C27.1787573,15.7092913 27.3606893,15.8793301 27.3634757,16.0331942 C27.3649709,16.1201845 27.299932,16.4335534 26.3876214,16.7939515 C26.2984563,16.8291553 26.1810874,16.8666019 26.0450291,16.9094854 C25.4513204,17.0980097 24.5543689,17.3824951 24.2524854,18.0938447 C24.0825146,18.4945437 24.129068,18.9674175 24.3907184,19.4991456 C24.4983689,19.7503981 26.1930485,23.5676408 30.0064175,24.1960097 C30.0056699,24.2140874 30.0010485,24.2338641 29.9908544,24.2571748 C29.9262233,24.4094078 29.5153981,24.9353592 26.9589709,25.3298058 C26.5589515,25.3911068 26.4609515,25.8395146 26.3473204,26.3607767 C26.3062718,26.5473981 26.2645437,26.7357864 26.2071845,26.9303592 C26.1896505,26.9891456 26.1863883,26.9924757 26.1233883,26.9924757 C26.1146893,26.9924757 26.1044951,26.9924757 26.0933495,26.9924757 C25.9799903,26.9924757 25.8079126,26.9689612 25.6084466,26.9298155 C25.2451942,26.859068 24.7489417,26.7722816 24.1145243,26.7722816 C23.7604466,26.7722816 23.395699,26.803068 23.0297282,26.864165 C22.2474272,26.9942427 21.6112427,27.4442136 20.9374757,27.9204854 C20.0326408,28.5598641 19.0974272,29.221466 17.6705146,29.221466 C17.6081942,29.221466 17.5473689,29.2193592 17.4864078,29.216301 L17.4703689,29.2156214 L17.4542621,29.2168447 C17.4192621,29.2199029 17.3839903,29.221466 17.3479709,29.221466 C15.9212621,29.221466 14.9856408,28.560068 14.0812136,27.9204854 C13.4073107,27.4442136 12.7707864,26.9942427 11.9886214,26.864165 C11.6229903,26.8032718 11.2579029,26.7722816 10.9040291,26.7722816 C10.2697476,26.7722816 9.7728835,26.8693301 9.41037864,26.9402136 C9.21091262,26.9792233 9.0382233,27.0126602 8.92520388,27.0126602 C8.83264078,27.0126602 8.83087379,27.0072233 8.81130097,26.9403495 C8.75394175,26.7456408 8.71200971,26.552767 8.67116505,26.3664175 C8.55726214,25.8446117 8.45919417,25.3937573 8.05937864,25.3323883 C5.50315534,24.9376019 5.09226214,24.410767 5.02742718,24.2589417 C5.01730097,24.2350194 5.01274757,24.2146311 5.01172816,24.1965534 C8.82502913,23.5687282 10.5193689,19.7513495 10.6273592,19.4991456 C10.8894854,18.9678252 10.9359709,18.4950194 10.7654563,18.0938447 C10.4635728,17.3829029 9.56675728,17.0980097 8.97345631,16.9098252 C8.83705825,16.8666699 8.71962136,16.8291553 8.63038835,16.7939515 C7.85998058,16.4895534 7.623,16.1829126 7.65820388,15.9971068 C7.69904854,15.7828252 8.07052427,15.5649417 8.39469903,15.5649417 C8.4675534,15.5649417 8.53143689,15.576699 8.5786699,15.5987864 C9.10516505,15.8455534 9.58578641,15.9706699 10.0073495,15.9706699 C10.6700388,15.9706699 10.9649903,15.6623301 10.9966602,15.6271262 L11.0684951,15.5467961 L11.0627184,15.4392136 C11.0493301,15.1878252 11.0328155,14.9244757 11.0154175,14.6532427 C10.907835,12.9402816 10.7732718,10.809835 11.298,9.6328835 C12.8862524,6.07199029 16.2525728,5.79749515 17.246301,5.79749515 C17.270767,5.79749515 17.7027961,5.79307767 17.7027961,5.79307767 C17.720466,5.79294175 17.7401068,5.7926699 17.760699,5.7926699 M17.760699,5.17843689 L17.7595437,5.17843689 C17.7369126,5.17843689 17.7156408,5.17843689 17.6953883,5.17870874 C17.5339126,5.18033981 17.2684563,5.18292233 17.2446019,5.18319417 C16.6624466,5.18319417 15.4976602,5.26542718 14.2464951,5.81767961 C13.5311359,6.1332233 12.8876796,6.5598835 12.334068,7.08583495 C11.6740291,7.71250485 11.1363204,8.48515534 10.736165,9.38265049 C10.1501359,10.6967476 10.2892524,12.9101748 10.4009806,14.6889223 L10.4013883,14.6917087 C10.4133495,14.8822039 10.4259223,15.0811262 10.4374078,15.2749515 C10.3514369,15.3144369 10.2120485,15.3560971 10.0066019,15.3560971 C9.67603883,15.3560971 9.28295146,15.2504175 8.8385534,15.0421845 C8.70779612,14.9812913 8.5585534,14.9505049 8.3938835,14.9505049 C8.12931068,14.9505049 7.85039806,15.0283883 7.60845631,15.1706311 C7.30405825,15.3493689 7.10737864,15.6019806 7.05396117,15.8820485 C7.01875728,16.0673107 7.02045631,16.4334854 7.42720388,16.8048252 C7.65093204,17.0092524 7.97959223,17.1977767 8.40380583,17.3654369 C8.51512621,17.4092718 8.64724272,17.4511359 8.78717476,17.4955146 C9.27275728,17.6498544 10.0076893,17.8830291 10.1993398,18.3340874 C10.2964563,18.5627767 10.2546602,18.8637087 10.0754466,19.2274369 C10.0707573,19.2373592 10.066068,19.2470777 10.0617864,19.2572718 C10.017,19.3618641 9.59917476,20.3082913 8.7421165,21.3064369 C8.2551068,21.8740485 7.71868932,22.3484175 7.14863107,22.716767 C6.45284466,23.166466 5.69997087,23.460466 4.91114563,23.5904078 C4.60137864,23.6412427 4.38016505,23.917233 4.39742718,24.2308738 C4.40272816,24.3212621 4.42393204,24.4113786 4.46069903,24.4985728 C4.46097087,24.4991165 4.46131068,24.4996602 4.46158252,24.5001359 C4.58683495,24.7931165 4.87723301,25.0419903 5.34935922,25.2615049 C5.92628155,25.5294757 6.7891165,25.7549029 7.9136699,25.9312621 C7.97048544,26.0393204 8.02947573,26.3108932 8.07032039,26.496835 C8.11306796,26.694466 8.15765049,26.8976699 8.22119417,27.1135146 C8.28976699,27.3473689 8.46762136,27.6268252 8.92452427,27.6268252 C9.09768932,27.6268252 9.29681553,27.5878155 9.52740777,27.5430971 C9.8651068,27.476835 10.3269029,27.3864466 10.9032816,27.3864466 C11.222835,27.3864466 11.5540097,27.4145825 11.8873592,27.4699709 C12.529932,27.5769417 13.0838835,27.9682621 13.7248252,28.4214272 C14.6629612,29.0845922 15.7248544,29.8352233 17.3472913,29.8352233 C17.391534,29.8352233 17.4359126,29.8337961 17.4797476,29.8307379 C17.5333689,29.8332524 17.599835,29.8352233 17.6699709,29.8352233 C19.2928835,29.8352233 20.3545049,29.0843204 21.2916214,28.421699 L21.2931165,28.4203398 C21.9341942,27.9677184 22.487534,27.5769417 23.1299029,27.4699709 C23.4631165,27.4146505 23.7942233,27.3864466 24.1139126,27.3864466 C24.664534,27.3864466 25.1005049,27.4566505 25.4897864,27.5325631 C25.7438252,27.5825825 25.9412524,27.6066408 26.0927379,27.6066408 L26.1075534,27.6069126 L26.1229126,27.6069126 C26.4570777,27.6069126 26.7026214,27.4234854 26.7963398,27.1025049 C26.8585922,26.8912136 26.9030388,26.692767 26.9468738,26.4918058 C26.985068,26.3175534 27.0460971,26.038233 27.1029126,25.9290194 C28.2282136,25.7523204 29.0907087,25.5273689 29.667699,25.259466 C30.1387379,25.0409709 30.4287961,24.7923689 30.5547961,24.5006117 C30.5925825,24.4131456 30.6146699,24.3224854 30.6196311,24.2301942 C30.6373689,23.9170971 30.4158155,23.6405631 30.1058447,23.5897282 C26.600068,23.0119223 25.0207184,19.4097087 24.9554078,19.2566602 C24.9511942,19.2466019 24.9464369,19.2366117 24.9414757,19.2268932 C24.7622621,18.8630291 24.7208738,18.5624369 24.8180583,18.3333398 C25.009301,17.8826893 25.7437573,17.6495146 26.2296796,17.4952427 C26.3703592,17.450932 26.5029515,17.4087961 26.6133883,17.365165 C27.091767,17.176233 27.4336796,16.9712621 27.6592427,16.7384951 C27.9286408,16.4610097 27.9811068,16.1951456 27.9778447,16.021165 C27.9696214,15.6002136 27.6478252,15.2261553 27.1359417,15.043 C26.9630485,14.9715049 26.7658932,14.9337864 26.5651359,14.9337864 C26.428466,14.9337864 26.2260777,14.9525437 26.0344951,15.0419806 C25.6243495,15.2339029 25.2569515,15.338835 24.9415437,15.3537864 C24.7738155,15.3452913 24.6561748,15.308932 24.5799903,15.2742039 C24.5895728,15.1100097 24.6001748,14.9413301 24.6111165,14.7654466 L24.6156699,14.6901456 C24.7280097,12.9102427 24.8676019,10.6951165 24.281301,9.38006796 C23.8794466,8.47937864 23.339835,7.70475728 22.6771456,7.07672816 C22.1213592,6.55043689 21.4757282,6.12384466 20.7577864,5.80850485 C19.5083883,5.2603301 18.3436699,5.17843689 17.760699,5.17843689" id="Shape" fill="#020202" fill-rule="nonzero"></path>
                <rect id="Rectangle" x="0.0375825243" y="0.0301067961" width="34.9477379" height="34.9476699"></rect>
            </g>
        </g>
    </g>
</svg>