<?xml version="1.0" encoding="UTF-8"?>
<svg width="71px" height="9px" viewBox="0 0 71 9" version="1.1" xmlns="http://www.w3.org/2000/svg" xmlns:xlink="http://www.w3.org/1999/xlink">
    <!-- Generator: Sketch 56.3 (81716) - https://sketch.com -->
    <title>spacex</title>
    <desc>Created with Sketch.</desc>
    <g id="Page-1" stroke="none" stroke-width="1" fill="none" fill-rule="evenodd">
        <g id="ν† ν”½μ„ΈνΈ" transform="translate(-116.000000, -697.000000)" fill-rule="nonzero">
            <g id="spacex" transform="translate(116.000000, 697.000000)">
                <path d="M16.5445527,3.23240557 L10.5511928,3.23240557 L10.3366402,3.4032008 L10.3366402,8.73172962 L11.9853082,8.73172962 L11.9853082,6.72029821 L12.139165,6.57067594 L16.5473757,6.57067594 C17.659662,6.57067594 18.1734592,6.27143141 18.1734592,5.50073559 L18.1734592,4.28117296 C18.1734592,3.5316501 17.659662,3.23240557 16.5473757,3.23240557 L16.5445527,3.23240557 Z M16.5473757,5.20149105 C16.5473757,5.565666 16.3116501,5.6249503 15.7766799,5.6249503 L12.1561034,5.6249503 L11.9853082,5.47532803 L11.9853082,4.34610338 L12.139165,4.19506958 L15.7780915,4.19506958 C16.2918887,4.19506958 16.5487873,4.25858847 16.5487873,4.61852883 L16.5487873,5.19584493 L16.5473757,5.20149105 Z" id="Shape" fill="#1F5284"></path>
                <polyline id="Path" fill="#1F5284" points="21.209662 4.23741551 22.6437773 6.3349503 22.557674 6.52833002 19.3901988 6.52833002 18.5771571 7.53333996 23.2860239 7.53333996 23.6276143 7.72671968 24.3559642 8.73172962 26.2601193 8.73172962 22.0876342 3.16747515"></polyline>
                <polyline id="Path" fill="#1F5284" points="40.1072366 7.66178926 40.1072366 6.16415507 40.2794433 6.0145328 43.4680915 6.0145328 43.4680915 5.07304175 38.4176342 5.07304175 38.4176342 8.73172962 45.8648708 8.73172962 45.8648708 7.79023857 40.3006163 7.79023857"></polyline>
                <rect id="Rectangle" fill="#1F5284" x="38.4176342" y="3.23240557" width="7.512167" height="1.02759443"></rect>
                <path d="M30.048668,4.21624254 L36.1055467,4.21624254 C36.0194433,3.44554672 35.5282306,3.22817097 34.329841,3.22817097 L29.9851491,3.22817097 C28.6159642,3.22817097 28.1868588,3.48506958 28.1868588,4.53383698 L28.1868588,7.44864811 C28.1868588,8.47624254 28.6103181,8.75431412 29.9851491,8.75431412 L34.329841,8.75431412 C35.5494036,8.75431412 36.0236779,8.51858847 36.0632008,7.72671968 L30.048668,7.72671968 L29.8778728,7.55592445 L29.8778728,4.34469185" id="Path" fill="#1F5284"></path>
                <path d="M6.27143141,5.37228628 L1.88298211,5.37228628 L1.7545328,5.22266402 L1.7545328,4.28117296 L1.88298211,4.17389662 L7.81141153,4.17389662 L7.89751491,3.98192843 C7.70554672,3.46813121 7.16916501,3.21122683 6.20367793,3.21122683 L2.07636183,3.21122683 C0.705765408,3.20982107 0.282306163,3.46671968 0.282306163,4.51689861 L0.282306163,5.13797217 C0.282306163,6.1655666 0.705765408,6.44363817 2.08059642,6.44363817 L6.4633996,6.44363817 L6.59184891,6.57208748 L6.59184891,7.56015905 L6.48457256,7.70978131 L0.149622266,7.70978131 C0.149622266,7.70978131 0,7.79023857 0,7.81141153 C0.107276342,8.53976143 0.599900596,8.73172962 1.77570577,8.73172962 L6.27143141,8.73172962 C7.6406163,8.73172962 8.09089463,8.47483101 8.09089463,7.42606362 L8.09089463,6.67795229 C8.09089463,5.65035785 7.64202783,5.37228628 6.27143141,5.37228628" id="Path" fill="#1F5284"></path>
                <path d="M50.659841,3.20982107 L48.1769583,3.20982107 L48.0485089,3.46671968 L50.7882903,5.47815109 C51.3020875,5.17890656 51.8794036,4.8782505 52.4821272,4.57900596" id="Path" fill="#1F5284"></path>
                <path d="M52.885825,6.97719682 L55.3037773,8.73172962 L57.78666,8.73172962 L57.8939364,8.49600398 L54.2973559,5.86491054 C53.8259046,6.22908549 53.3346918,6.59326044 52.885825,6.97719682" id="Path" fill="#1F5284"></path>
                <path d="M50.295666,8.73172962 L48.0485089,8.73172962 L47.8508946,8.43248509 C49.3753479,6.95602386 56.1789264,0.663419483 70.9703579,0 C70.9703579,0 58.5785288,0.423459245 50.295666,8.73172962" id="Path" fill="#A8AAAC"></path>
            </g>
        </g>
    </g>
</svg>