<?xml version="1.0" encoding="UTF-8"?>
<svg width="71px" height="22px" viewBox="0 0 71 22" version="1.1" xmlns="http://www.w3.org/2000/svg" xmlns:xlink="http://www.w3.org/1999/xlink">
    <!-- Generator: Sketch 56.3 (81716) - https://sketch.com -->
    <title>spotify</title>
    <desc>Created with Sketch.</desc>
    <g id="Page-1" stroke="none" stroke-width="1" fill="none" fill-rule="evenodd">
        <g id="ν† ν”½μ„ΈνΈ" transform="translate(-270.000000, -686.000000)" fill="#000000" fill-rule="nonzero">
            <g id="spotify" transform="translate(270.000000, 686.000000)">
                <path d="M28.9612381,10.0955238 C31.2004429,10.6398571 32.1133,11.4850952 32.1133,13.0132857 C32.1133,14.821419 30.7318429,15.9898762 28.5937286,15.9898762 C27.0824429,15.9898762 25.6813762,15.452981 24.5426714,14.4363286 C24.4940205,14.3929245 24.4889167,14.3186199 24.5311762,14.2689714 L25.5373476,13.0721143 C25.558091,13.0474015 25.5878879,13.0320517 25.6200522,13.029509 C25.6522166,13.0269664 25.6840551,13.0374439 25.7084238,13.0585905 C26.6872095,13.9058571 27.5622,14.2669429 28.6346381,14.2669429 C29.6005762,14.2669429 30.2006952,13.848719 30.2006952,13.1765857 C30.2006952,12.5697048 29.9038476,12.2305952 28.1450762,11.8255571 C26.0793143,11.3258524 24.8834714,10.6794143 24.8834714,8.85200952 C24.8834714,7.14800952 26.2696619,5.95791429 28.2536048,5.95791429 C29.6026048,5.95791429 30.7578762,6.35754286 31.783319,7.18012857 C31.832681,7.22002381 31.8428238,7.2917 31.8059714,7.34376667 L30.9083286,8.60824286 C30.8893667,8.63448946 30.8607281,8.65209872 30.8287489,8.65717479 C30.7967697,8.66225086 30.7640859,8.65437529 30.7379286,8.63529048 C29.8764619,7.99290952 29.0548905,7.68118571 28.225881,7.68118571 C27.3711762,7.68118571 26.7964143,8.09197143 26.7964143,8.70223333 C26.7964143,9.34799524 27.1243667,9.6556619 28.9615762,10.0945095 L28.9612381,10.0955238 Z M36.9504286,8.28333333 C36.0240476,8.28333333 35.2640095,8.64847619 34.6368429,9.39566667 L34.6368429,8.55380952 C34.6368429,8.48733548 34.582955,8.43344762 34.516481,8.43344762 L32.8713095,8.43344762 C32.8048355,8.43344762 32.7509476,8.48733548 32.7509476,8.55380952 L32.7509476,17.9089048 C32.7509476,17.9748333 32.8050429,18.0289286 32.8713095,18.0289286 L34.516819,18.0289286 C34.5834238,18.0289286 34.637519,17.9748333 34.637519,17.9085667 L34.637519,14.9553048 C35.2643476,15.6585429 36.0247238,16.0027238 36.9514429,16.0027238 C38.6740381,16.0027238 40.416919,14.6773905 40.416919,12.1430286 C40.416919,9.60866667 38.6730238,8.28333333 36.9504286,8.28333333 L36.9504286,8.28333333 Z M38.5022857,12.1433667 C38.5022857,13.4335381 37.7077619,14.3342238 36.5697333,14.3342238 C35.4438762,14.3342238 34.5952571,13.3926286 34.5952571,12.1433667 C34.5952571,10.8941048 35.4438762,9.95250952 36.5697333,9.95250952 C37.6895048,9.95250952 38.5026238,10.873819 38.5026238,12.1433667 L38.5022857,12.1433667 Z M44.8845095,8.28333333 C42.6666048,8.28333333 40.9294714,9.99071429 40.9294714,12.1714286 C40.9294714,14.3278 42.6544333,16.0172619 44.8567857,16.0172619 C47.0824667,16.0172619 48.8250095,14.3152905 48.8250095,12.1433667 C48.8250095,9.97888095 47.0939619,8.28299524 44.8841714,8.28299524 L44.8845095,8.28333333 Z M44.8841714,14.3474095 C43.704219,14.3474095 42.8150286,13.3997286 42.8150286,12.1430286 C42.8150286,10.8812571 43.6737905,9.96569524 44.8571238,9.96569524 C46.0438381,9.96569524 46.9397905,10.9133762 46.9397905,12.1707524 C46.9397905,13.4318476 46.0749429,14.3470714 44.8841714,14.3470714 L44.8841714,14.3474095 Z M53.5610476,8.43344762 C53.6276524,8.43344762 53.68141,8.48754286 53.68141,8.55380952 L53.68141,9.9680619 C53.6814994,9.99995274 53.6688937,10.0305682 53.6463751,10.0531502 C53.6238565,10.0757322 53.5932767,10.0884239 53.5613857,10.0884238 L51.7508857,10.0884238 L51.7508857,13.49 C51.7508857,14.0275714 51.9868762,14.2669429 52.514981,14.2669429 C52.8510158,14.2687439 53.182433,14.1886746 53.480581,14.0336571 C53.5180587,14.015079 53.5624726,14.0171687 53.5980405,14.0391836 C53.6336083,14.0611985 53.6552882,14.100018 53.6553762,14.1418476 L53.6553762,15.4881429 C53.6553762,15.531081 53.6317095,15.5716524 53.594519,15.5929524 C53.133019,15.8543 52.6434571,15.9760143 52.0528048,15.9760143 C50.6013619,15.9760143 49.8653286,15.2264571 49.8653286,13.7472905 L49.8653286,10.0887619 L49.0741857,10.0887619 C49.0423534,10.0886724 49.0118604,10.0759411 48.989415,10.0533688 C48.9669695,10.0307966 48.9544102,10.0002323 48.9544995,9.9684 L48.9544995,8.55380952 C48.9544995,8.48754286 49.007919,8.43344762 49.0741857,8.43344762 L49.8653286,8.43344762 L49.8653286,6.5820381 C49.8653286,6.51577143 49.9194238,6.46167619 49.9863667,6.46167619 L51.6315381,6.46167619 C51.6981429,6.46167619 51.7519,6.51577143 51.7519,6.5820381 L51.7519,8.43344762 L53.5624,8.43344762 L53.5610476,8.43344762 Z M62.6811667,8.44054762 C62.7308667,8.44054762 62.7758333,8.47097619 62.7937524,8.51830952 L64.7158238,13.5336143 L66.4705381,8.52101429 C66.487462,8.47253754 66.5331304,8.44001407 66.5844762,8.43987143 L68.2976048,8.43987143 C68.3374687,8.43982051 68.3747567,8.45956538 68.3971189,8.49256648 C68.419481,8.52556757 68.4239989,8.56751806 68.4091762,8.60452381 L65.5543,15.9817619 C64.9626333,17.5042048 64.2905,18.0701762 63.0760619,18.0701762 C62.4262429,18.0701762 61.9005048,17.9356143 61.3179667,17.6205095 C61.2623521,17.5904589 61.2398155,17.522256 61.2665762,17.4649857 L61.8244333,16.241081 C61.8381817,16.2106111 61.8638567,16.1871369 61.8954333,16.1761667 C61.9274554,16.1659613 61.9622546,16.169258 61.9917905,16.1852952 C62.3038524,16.3560333 62.6091524,16.4422476 62.8992381,16.4422476 C63.257619,16.4422476 63.520319,16.3245905 63.7874143,15.7315714 L61.4342714,10.0887619 L59.8976286,10.0887619 L59.8976286,15.7332619 C59.8976286,15.7998667 59.8435333,15.8539619 59.7772667,15.8539619 L58.1317571,15.8539619 C58.0997765,15.853962 58.0691106,15.8412347 58.0465287,15.8185893 C58.0239467,15.7959439 58.0113054,15.7652424 58.0113952,15.7332619 L58.0113952,10.0887619 L57.2209286,10.0887619 C57.1544975,10.0882106 57.1007799,10.034493 57.1002286,9.9680619 L57.1002286,8.54704762 C57.1002286,8.48044286 57.1543238,8.42634762 57.2205905,8.42634762 L58.0110571,8.42634762 L58.0110571,8.07810952 C58.0110571,6.45998571 58.8143714,5.60392857 60.3344476,5.60392857 C60.9589095,5.60392857 61.375781,5.70366667 61.7020429,5.80002381 C61.7534333,5.81591429 61.787581,5.86290952 61.787581,5.91565238 L61.787581,7.30184286 C61.788116,7.3407334 61.7697199,7.3774587 61.7382531,7.40031919 C61.7067863,7.42317968 61.6661734,7.42932418 61.6293524,7.41679524 C61.3206714,7.31401429 61.0451238,7.24571905 60.7022952,7.24571905 C60.1275333,7.24571905 59.870581,7.54425714 59.870581,8.21334762 L59.870581,8.44054762 L62.6808286,8.44054762 L62.6811667,8.44054762 Z M56.2127286,8.43344762 C56.2789952,8.43344762 56.3330905,8.48754286 56.3330905,8.55380952 L56.3330905,15.7329238 C56.3330905,15.7991905 56.2789952,15.8532857 56.2123905,15.8532857 L54.566881,15.8532857 C54.500352,15.8532857 54.4463673,15.7994525 54.446181,15.7329238 L54.446181,8.55380952 C54.446181,8.48754286 54.5002762,8.43344762 54.5665429,8.43344762 L56.2120524,8.43344762 L56.2127286,8.43344762 Z M55.3982571,5.16474286 C56.0499268,5.16474286 56.5782095,5.69302553 56.5782095,6.34469524 C56.5782095,6.99636494 56.0499268,7.52464762 55.3982571,7.52464762 C54.7465874,7.52464762 54.2183048,6.99636494 54.2183048,6.34469524 C54.2183048,5.69302553 54.7465874,5.16474286 55.3982571,5.16474286 L55.3982571,5.16474286 Z M69.8139619,10.7412857 C69.5064892,10.7424595 69.211271,10.6208357 68.9938533,10.4034181 C68.7764357,10.1860005 68.654812,9.89078223 68.6559773,9.58330952 C68.6559773,9.27461219 68.7786384,8.97856324 68.9969521,8.76031297 C69.2152657,8.5420627 69.5113503,8.41949603 69.8200476,8.41957451 C70.1274579,8.41823121 70.4226786,8.53970392 70.6401161,8.75701445 C70.8575536,8.97432499 70.9791988,9.26947466 70.9780322,9.57688571 C70.9781135,9.8857038 70.855522,10.1819091 70.637218,10.4003399 C70.4189141,10.6187707 70.12278,10.7415342 69.8139619,10.7416238 L69.8139619,10.7412857 Z M69.8200476,8.53487619 C69.2270286,8.53487619 68.7780381,9.00651905 68.7780381,9.58364762 C68.7780381,10.1607762 69.2236476,10.6259952 69.8139619,10.6259952 C70.406981,10.6259952 70.8563095,10.1546905 70.8563095,9.57722381 C70.8563095,9.00009524 70.4100238,8.53487619 69.8200476,8.53487619 L69.8200476,8.53487619 Z M70.077,9.69623333 L70.4042762,10.1546905 L70.1280524,10.1546905 L69.8339095,9.7341 L69.5803381,9.7341 L69.5803381,10.1546905 L69.3487429,10.1546905 L69.3487429,8.9392381 L69.8910476,8.9392381 C70.173019,8.9392381 70.3589714,9.08394286 70.3589714,9.32703333 C70.3589714,9.52650952 70.244019,9.64822381 70.0766619,9.69555714 L70.077,9.69623333 Z M69.8805667,9.14784286 L69.5796619,9.14784286 L69.5796619,9.53191905 L69.8805667,9.53191905 C70.0313571,9.53191905 70.1206143,9.45821429 70.1206143,9.33920476 C70.1206143,9.21410952 70.0313571,9.14750476 69.8805667,9.14750476 L69.8805667,9.14784286 Z M10.6476333,0.2698 C4.76950952,0.2698 0.0043952381,5.10118095 0.0043952381,10.9796429 C0.00405714286,16.5031048 4.2106381,20.9619048 9.59514286,21.6380952 L11.7001238,21.6380952 C17.0846286,20.9619048 21.2912095,16.5031048 21.2912095,10.9793048 C21.2912095,5.10118095 16.5257571,0.2698 10.6479714,0.2698 L10.6476333,0.2698 Z M15.5287143,15.6213524 C15.4371513,15.7717362 15.289506,15.8794998 15.1183667,15.9208574 C14.9472275,15.962215 14.7666651,15.9337663 14.6165333,15.8417905 C12.1169952,14.3142762 8.97135714,13.969419 5.26650952,14.8156714 C5.09505316,14.8550892 4.91495943,14.8247094 4.76592168,14.7312279 C4.61688394,14.6377464 4.51113621,14.4888366 4.47198571,14.317319 C4.43258703,14.1457678 4.46305853,13.9655902 4.55667795,13.8165349 C4.65029737,13.6674796 4.79937186,13.5617947 4.97101429,13.5227952 C9.02545238,12.5964143 12.5031,12.9953667 15.3086143,14.7095095 C15.6209238,14.9009106 15.7192553,15.3090616 15.5283762,15.6216905 L15.5287143,15.6213524 Z M16.8310571,12.7232 C16.5912682,13.1135592 16.0805548,13.2358277 15.6899857,12.996381 C12.8297,11.2382857 8.46827143,10.7287762 5.0839381,11.7562476 C4.64541777,11.8885904 4.18243349,11.6414539 4.04835238,11.2034619 C3.91649524,10.7639381 4.16330476,10.3017619 4.60181429,10.1688905 C8.46793333,8.9957 13.273281,9.5637 16.5585524,11.5821286 C16.9487913,11.8220303 17.0709026,12.332719 16.8313952,12.7232 L16.8310571,12.7232 Z M16.9433048,9.7053619 C13.5123143,7.668 7.85327619,7.48069524 4.57814762,8.47469524 C4.05195701,8.63415824 3.49612494,8.33686679 3.33666192,7.81067618 C3.17719891,7.28448558 3.47449035,6.7286535 4.00068095,6.56919048 C7.7603,5.42811905 14.0103286,5.64855714 17.9599571,7.99257143 C18.1870887,8.12725616 18.3513929,8.34667542 18.4167047,8.602533 C18.4820166,8.85839057 18.4429829,9.12971516 18.3081952,9.35678571 C18.1735722,9.58407926 17.9540891,9.74850906 17.6981231,9.81383239 C17.4421571,9.87915572 17.1707209,9.8400101 16.9436429,9.70502381 L16.9433048,9.7053619 Z" id="Shape"></path>
            </g>
        </g>
    </g>
</svg>