<?xml version="1.0" encoding="UTF-8"?>
<svg width="72px" height="21px" viewBox="0 0 72 21" version="1.1" xmlns="http://www.w3.org/2000/svg" xmlns:xlink="http://www.w3.org/1999/xlink">
    <!-- Generator: Sketch 63.1 (92452) - https://sketch.com -->
    <title>Startup</title>
    <desc>Created with Sketch.</desc>
    <g id="Page-1" stroke="none" stroke-width="1" fill="none" fill-rule="evenodd">
        <g id="ν† ν”½μ„ΈνΈ" transform="translate(-346.000000, -421.000000)" fill="#121111" fill-rule="nonzero">
            <path d="M351.4278,437.176238 C352.997637,437.176238 354.257277,436.744362 355.20672,435.880608 C356.156163,435.016855 356.630884,433.882322 356.630884,432.477009 C356.630884,431.469297 356.428657,430.646675 356.024201,430.009143 C355.619745,429.371611 354.851964,428.720368 353.720859,428.055416 C353.597465,427.980009 353.415803,427.873753 353.175872,427.736649 C351.928228,427.030565 351.304406,426.338192 351.304406,425.659529 C351.304406,425.138535 351.494638,424.710086 351.8751,424.374182 C352.255563,424.038278 352.73714,423.870326 353.31983,423.870326 C353.833969,423.870326 354.286411,423.993719 354.677157,424.240506 C355.067902,424.487292 355.396951,424.8609 355.664304,425.361328 L355.664304,425.361328 L357.278699,423.273925 C356.812547,422.636392 356.246994,422.158243 355.582041,421.839477 C354.917088,421.520711 354.156163,421.361328 353.299265,421.361328 C351.880242,421.361328 350.704578,421.794919 349.772273,422.662099 C348.839968,423.52928 348.373815,424.610685 348.373815,425.906315 C348.373815,426.427309 348.454363,426.912314 348.61546,427.361328 C348.776557,427.810343 349.011347,428.209657 349.31983,428.559272 C349.744852,429.032279 350.574329,429.604687 351.808262,430.276495 C352.020773,430.393033 352.18187,430.482151 352.291553,430.543847 C352.73714,430.790634 353.069616,431.075124 353.288982,431.397318 C353.508348,431.719512 353.618031,432.086264 353.618031,432.497575 C353.618031,433.135107 353.4278,433.635535 353.047337,433.99886 C352.666874,434.362185 352.140739,434.543847 351.468931,434.543847 C350.838254,434.543847 350.289839,434.396461 349.823687,434.101688 C349.357534,433.806915 348.946223,433.351045 348.589753,432.734079 L348.589753,432.734079 L346.882812,434.883179 C347.465503,435.657815 348.130456,436.23365 348.877671,436.610685 C349.624886,436.987721 350.474929,437.176238 351.4278,437.176238 Z M361.669445,436.77521 L362.697723,428.980865 L364.661733,428.980865 L364.949651,426.687806 L362.995923,426.687806 L363.458648,423.335621 L360.528057,423.335621 L360.085897,426.687806 L358.173301,426.687806 L357.8751,428.980865 L359.79798,428.980865 L358.759419,436.77521 L361.669445,436.77521 Z M369.371244,437.176238 C370.049908,437.176238 370.646309,437.049417 371.160447,436.795775 C371.674586,436.542134 372.103035,436.161671 372.445795,435.654387 L372.445795,435.654387 L372.28127,436.77521 L375.181013,436.77521 L376.507491,426.687806 L373.607748,426.687806 L373.432941,428.096547 C373.062761,427.513856 372.603464,427.076838 372.055049,426.785493 C371.506634,426.494147 370.87253,426.348475 370.152735,426.348475 C368.740567,426.348475 367.5769,426.914027 366.661733,428.045133 C365.746566,429.176238 365.288982,430.619254 365.288982,432.374182 C365.288982,433.896032 365.647166,435.076838 366.363532,435.916598 C367.079899,436.756358 368.08247,437.176238 369.371244,437.176238 Z M370.553764,434.584979 C369.806549,434.584979 369.215289,434.365613 368.779985,433.926881 C368.344681,433.488149 368.127028,432.898603 368.127028,432.158243 C368.127028,431.075124 368.368674,430.223368 368.851964,429.602973 C369.335255,428.982579 369.991639,428.672382 370.821116,428.672382 C371.547765,428.672382 372.116746,428.893462 372.528057,429.335621 C372.939368,429.777781 373.145023,430.389606 373.145023,431.171097 C373.145023,432.199374 372.906806,433.025424 372.43037,433.649246 C371.953935,434.273068 371.328399,434.584979 370.553764,434.584979 Z M380.795409,436.77521 L381.340396,432.477009 C381.4775,431.36647 381.773986,430.535278 382.229856,429.983436 C382.685726,429.431594 383.300979,429.155673 384.075615,429.155673 C384.260705,429.155673 384.450936,429.172811 384.646309,429.207086 C384.841681,429.241362 385.045623,429.292776 385.258134,429.361328 L385.258134,429.361328 L385.823687,426.451302 C385.686583,426.417026 385.546052,426.39132 385.402093,426.374182 C385.258134,426.357044 385.097037,426.348475 384.918802,426.348475 C384.28127,426.348475 383.703721,426.526709 383.186154,426.883179 C382.668588,427.239649 382.228142,427.76407 381.864818,428.456444 L381.864818,428.456444 L382.121887,426.687806 L379.211861,426.687806 L377.885383,436.77521 L380.795409,436.77521 Z M389.700293,436.77521 L390.728571,428.980865 L392.692581,428.980865 L392.980499,426.687806 L391.026771,426.687806 L391.489496,423.335621 L388.558905,423.335621 L388.116746,426.687806 L386.204149,426.687806 L385.905949,428.980865 L387.828828,428.980865 L386.790268,436.77521 L389.700293,436.77521 Z M398.481784,437.176238 C399.324972,437.176238 400.077328,437.057986 400.738854,436.821482 C401.400379,436.584979 401.96079,436.23365 402.420088,435.767498 C402.845109,435.335621 403.179299,434.794062 403.422658,434.142819 C403.666017,433.491577 403.876814,432.473582 404.055049,431.088835 L404.055049,431.088835 L404.65145,426.687806 L401.741424,426.687806 L401.217003,430.728937 C401.004492,432.278209 400.706292,433.311628 400.322401,433.829194 C399.938511,434.346761 399.345537,434.605544 398.543481,434.605544 C397.96079,434.605544 397.513489,434.444447 397.201579,434.122254 C396.889668,433.80006 396.733712,433.337335 396.733712,432.734079 C396.733712,432.494147 396.778271,432.058843 396.867388,431.428166 C396.901664,431.19509 396.925657,431.020283 396.939368,430.903745 L396.939368,430.903745 L397.484355,426.687806 L394.584612,426.687806 L394.101321,430.36904 C393.991639,431.177952 393.914518,431.825767 393.869959,432.312485 C393.8254,432.799203 393.803121,433.176238 393.803121,433.44359 C393.803121,434.581551 394.224715,435.488149 395.067902,436.163385 C395.91109,436.83862 397.049051,437.176238 398.481784,437.176238 Z M408.188725,441.361328 L408.774843,436.898603 C408.809119,436.624396 408.831399,436.41874 408.841681,436.281637 C408.851964,436.144533 408.857106,436.014284 408.857106,435.890891 C408.857106,435.774353 408.855392,435.686949 408.851964,435.62868 C408.848537,435.570411 408.846823,435.520711 408.846823,435.47958 C409.388382,436.062271 409.950507,436.494147 410.533198,436.77521 C411.115889,437.056272 411.743138,437.196804 412.414946,437.196804 C413.820259,437.196804 414.965075,436.632965 415.849393,435.505287 C416.733712,434.377609 417.175872,432.912314 417.175872,431.1094 C417.175872,429.61497 416.810833,428.447875 416.080756,427.608115 C415.350679,426.768355 414.334398,426.348475 413.031913,426.348475 C412.469788,426.348475 411.921373,426.470154 411.386669,426.713513 C410.851964,426.956872 410.324115,427.321911 409.803121,427.808629 L409.803121,427.808629 L409.977928,426.687806 L407.222144,426.687806 L405.299265,441.361328 L408.188725,441.361328 Z M411.643738,434.842048 C410.937654,434.842048 410.373815,434.622682 409.952221,434.18395 C409.530627,433.745218 409.31983,433.162528 409.31983,432.435878 C409.31983,431.352759 409.56319,430.495861 410.049908,429.865184 C410.536626,429.234507 411.191296,428.919169 412.013918,428.919169 C412.754278,428.919169 413.326686,429.136821 413.731142,429.572125 C414.135597,430.007429 414.337825,430.62611 414.337825,431.428166 C414.337825,432.483865 414.097894,433.316769 413.618031,433.926881 C413.138168,434.536992 412.48007,434.842048 411.643738,434.842048 Z" id="Startup"></path>
        </g>
    </g>
</svg>