<?xml version="1.0" encoding="UTF-8"?>
<svg width="35px" height="35px" viewBox="0 0 35 35" version="1.1" xmlns="http://www.w3.org/2000/svg" xmlns:xlink="http://www.w3.org/1999/xlink">
    <!-- Generator: Sketch 56.3 (81716) - https://sketch.com -->
    <title>Starbucks</title>
    <desc>Created with Sketch.</desc>
    <g id="Page-1" stroke="none" stroke-width="1" fill="none" fill-rule="evenodd">
        <g id="ν† ν”½μ„ΈνΈ" transform="translate(-283.000000, -565.000000)">
            <g id="Starbucks" transform="translate(283.000000, 565.000000)">
                <path d="M0.436423077,17.2956538 C0.436423077,8.02065385 7.95523077,0.501038462 17.2313077,0.501038462 C26.5065769,0.501038462 34.0256538,8.02065385 34.0256538,17.2956538 C34.0256538,26.5714615 26.5065769,34.0902692 17.2313077,34.0902692 C7.95523077,34.0902692 0.436423077,26.5711923 0.436423077,17.2956538" id="Path" fill="#397657" fill-rule="nonzero"></path>
                <path d="M0.931538462,17.2956538 C0.931538462,8.29419231 8.22876923,0.996692308 17.2310385,0.996692308 C26.2327692,0.996692308 33.5305385,8.29419231 33.5305385,17.2956538 C33.5305385,26.2973846 26.2327692,33.5951538 17.2310385,33.5951538 C8.22876923,33.5951538 0.931538462,26.2973846 0.931538462,17.2956538" id="Path" fill="#FFFFFF" fill-rule="nonzero"></path>
                <path d="M1.46246154,17.2956538 C1.46246154,8.58738462 8.52223077,1.52788462 17.2313077,1.52788462 C25.9398462,1.52788462 32.9996154,8.58738462 32.9996154,17.2956538 C32.9996154,26.0044615 25.9395769,33.0639615 17.2313077,33.0639615 C8.52196154,33.0639615 1.46246154,26.0044615 1.46246154,17.2956538" id="Path" fill="#397657" fill-rule="nonzero"></path>
                <path d="M7.48407692,17.2291538 C7.48407692,11.8658077 11.8316154,7.51826923 17.1944231,7.51826923 C22.5572308,7.51826923 26.9045,11.8658077 26.9045,17.2291538 C26.9045,22.5916923 22.5572308,26.9389615 17.1944231,26.9389615 C11.8316154,26.9389615 7.48407692,22.5916923 7.48407692,17.2291538" id="Path" fill="#FFFFFF" fill-rule="nonzero"></path>
                <path d="M18.7298462,2.91630769 C18.9958462,3.15484615 19.0712308,3.46876923 19.0575,3.81688462 C18.9823846,4.06296154 18.8461538,4.3015 18.6272692,4.47246154 C18.8938077,4.67007692 19.1600769,4.87523077 19.2007308,5.22980769 C19.2761154,5.57792308 19.1732692,5.89157692 18.9753846,6.15111538 C18.5594231,6.62173077 17.8973846,6.49923077 17.2964615,6.51915385 L15.7098846,6.56088462 L15.6991154,6.41657692 L15.5359615,2.81373077 L15.5292308,2.73511538 C16.5733077,2.72838462 17.8015385,2.45834615 18.7298462,2.91630769" id="Path" fill="#FFFFFF" fill-rule="nonzero"></path>
                <path d="M21.6854615,3.42434615 C21.4051923,4.23311538 21.0371538,5.03192308 20.8384615,5.88484615 C20.8185385,6.097 20.9445385,6.31507692 21.1868462,6.37646154 C21.3545769,6.46880769 21.5931154,6.48603846 21.7191154,6.37646154 C22.2586538,5.61911538 22.5146923,4.67707692 22.8528462,3.82711538 C23.2825385,3.97761538 23.6174615,4.19246154 24.0339615,4.34942308 C23.5897308,5.29146154 23.3167308,6.40069231 22.7023462,7.175 C22.2589231,7.56403846 21.5559615,7.46819231 21.0239615,7.33842308 C20.4163077,7.12034615 19.7542692,6.73157692 19.5701154,6.04880769 C19.4271538,5.58142308 20.0754615,3.97734615 20.4300385,3.01888462 L21.6854615,3.42434615" id="Path" fill="#FFFFFF" fill-rule="nonzero"></path>
                <path d="M11.8501923,7.91269231 L10.9490769,8.50580769 C10.6128077,8.32865385 10.4165385,8.20911538 10.171,8.09657692 L9.1735,8.93630769 C9.27607692,9.18238462 9.40692308,9.48230769 9.51596154,9.75530769 L8.62507692,10.7511923 L8.55346154,10.5942308 L6.97657692,6.84761538 L8.41669231,5.60861538 L8.53273077,5.6805 C9.66269231,6.37026923 10.8238846,7.18361538 11.9683846,7.83488462 L11.8501923,7.91269231" id="Path" fill="#FFFFFF" fill-rule="nonzero"></path>
                <path d="M12.0752692,7.77538462 C11.6022308,6.62173077 11.0228462,5.27423077 10.5942308,4.19219231 C11.6797692,3.75523077 13.2496538,2.68046154 14.2183462,3.68065385 C14.4638846,3.95365385 14.4980769,4.33569231 14.5048077,4.68380769 C14.4439615,4.90861538 14.3885,5.1345 14.2388077,5.31865385 C14.5626923,5.71738462 15.1641538,6.16996154 15.5801154,6.56573077 L15.5289615,6.58296154 L14.3004615,6.85407692 C13.8635,6.50273077 13.6160769,6.25476923 13.2359231,5.99415385 C13.0719615,6.01407692 12.9591538,6.11019231 12.8051538,6.17830769 L13.2283846,7.14780769 L12.0752692,7.77538462" id="Path" fill="#FFFFFF" fill-rule="nonzero"></path>
                <path d="M17.6653077,3.55088462 C17.7606154,3.65265385 17.7406923,3.86480769 17.6852308,3.98084615 C17.5083462,4.186 17.1806923,4.17846154 16.9076923,4.14426923 C16.9276154,3.91246154 16.842,3.68711538 16.8592308,3.44857692 C17.0913077,3.4825 17.4946154,3.36619231 17.6653077,3.55088462" id="Path" fill="#397657" fill-rule="nonzero"></path>
                <path d="M13.1608077,4.49238462 C13.2283846,4.66307692 13.2324231,4.94092308 13.0870385,5.04215385 L12.4115385,5.32861538 C12.243,5.01873077 12.1713846,4.80630769 12.0553462,4.55430769 C12.369,4.43826923 12.9077308,3.96738462 13.1608077,4.49238462" id="Path" fill="#397657" fill-rule="nonzero"></path>
                <path d="M17.8903846,5.10676923 C17.9445,5.34611538 17.836,5.59165385 17.6036538,5.63957692 C17.3853077,5.67323077 17.2218846,5.65303846 16.9895385,5.65976923 C16.9553462,5.41369231 16.9354231,5.08630769 16.9553462,4.88142308 C17.269,4.92234615 17.7406923,4.75192308 17.8903846,5.10676923" id="Path" fill="#397657" fill-rule="nonzero"></path>
                <path d="M27.1037308,6.43811538 C27.3360769,6.72457692 27.4935769,7.07942308 27.5956154,7.441 C27.3088846,7.595 27.0905385,7.76919231 26.8172692,7.89169231 C26.7496923,7.46846154 26.5173462,7.0385 26.1011154,6.82715385 C25.9032308,6.71084615 25.6092308,6.69038462 25.3844231,6.7655 C25.0360385,6.895 24.7361154,7.19546154 24.6063462,7.54357692 C24.4903077,7.87796154 24.6198077,8.20534615 24.8115,8.46461538 C25.0772308,8.76507692 25.4328846,8.92257692 25.8343077,8.93603846 C25.6539231,9.23273077 25.5553846,9.42011538 25.3844231,9.65273077 C24.7151154,9.55688462 24.0875385,9.18830769 23.7055,8.56719231 C23.3778462,8.04192308 23.3576538,7.23665385 23.6443846,6.68365385 C23.9443077,6.076 24.5385,5.68696154 25.1792692,5.59811538 C25.9508846,5.57092308 26.6468462,5.87811538 27.1037308,6.43811538" id="Path" fill="#FFFFFF" fill-rule="nonzero"></path>
                <path d="M9.37246154,7.5845 C9.18857692,7.75546154 8.98342308,7.91888462 8.75861538,8.07557692 C8.59465385,7.68653846 8.43742308,7.33842308 8.267,6.90846154 C8.659,7.11711538 9.00334615,7.35888462 9.37246154,7.5845" id="Path" fill="#397657" fill-rule="nonzero"></path>
                <path d="M29.1520385,8.85392308 C28.8383846,9.16784615 28.4221538,9.43438462 28.0869615,9.73457692 C28.6197692,9.85034615 29.2198846,9.82988462 29.7661538,9.91873077 C30.0119615,10.2741154 30.1414615,10.6152308 30.3805385,11.0449231 L28.3739615,10.9019615 C27.9302692,11.5979231 27.5277692,12.3076154 27.1451923,13.0310385 C26.9066538,12.6829231 26.7227692,12.2330385 26.4901538,11.844 C26.7499615,11.3181923 27.0873077,10.7619615 27.3473846,10.2361538 C26.9004615,10.5129231 26.5079231,10.871 26.0529231,11.1574615 L25.3440385,10.2051923 C26.2992692,9.38619231 27.3298846,8.65603846 28.3333077,7.91269231 L28.4146154,7.88334615 L29.1520385,8.85392308" id="Path" fill="#FFFFFF" fill-rule="nonzero"></path>
                <path d="M6.622,8.60165385 C6.44080769,8.97696154 6.202,9.23273077 6.03534615,9.59107692 L8.36930769,11.1265 C8.24626923,11.4743462 7.98026923,11.8162692 7.75465385,12.1501154 L5.35930769,10.6553462 C5.14446154,10.9385769 4.99046154,11.2288077 4.77534615,11.5906538 C4.46142308,11.3828077 4.23957692,11.2460385 3.98730769,11.0656538 C4.5815,10.0751538 5.14446154,9.14738462 5.7995,8.11973077 L6.622,8.60165385" id="Path" fill="#FFFFFF" fill-rule="nonzero"></path>
                <path d="M13.1885385,17.7301923 C13.1912308,17.8895769 13.1783077,18.0500385 13.1395385,18.2113077 C12.7779615,18.9417308 12.1913077,19.5827692 12.096,20.4230385 C11.6797692,20.6885 11.3378462,21.1529231 10.7444615,20.9962308 C10.7237308,21.1529231 10.7716538,21.3911923 10.8260385,21.5688846 C10.3554231,21.5489615 10.0342308,21.8965385 9.63819231,22.0605 C9.42684615,21.9926538 9.37219231,21.7191154 9.29061538,21.5282308 C9.75423077,21.3715385 10.0886154,20.9071154 10.6211538,20.9146538 C10.6828077,20.7431538 10.5866923,20.5864615 10.5595,20.4230385 C9.89719231,20.1290385 8.84638462,21.8763462 8.75807692,20.3613846 C9.41984615,20.3204615 9.84307692,19.7060769 10.4986538,19.6446923 L10.5185769,19.1530769 C9.77469231,19.0779615 9.29680769,19.8425769 8.55319231,19.7671923 L8.38896154,19.1124231 C9.24888462,19.1665385 9.76123077,18.3957308 10.5802308,18.3542692 C10.689,18.2113077 10.7027308,17.9994231 10.7237308,17.8015385 C9.82961538,17.6852308 9.2155,18.6754615 8.26673077,18.3747308 C8.26673077,18.3747308 8.23442308,17.9625385 8.21665385,17.7299231 L13.1885385,17.7299231" id="Path" fill="#000000" fill-rule="nonzero"></path>
                <path d="M14.2374615,17.7301923 C14.2676154,18.0936538 14.1787692,18.4563077 13.8363077,18.8259615 C13.3446923,19.4053462 12.8468846,20.1357692 13.2017308,20.9146538 C13.5773077,21.7737692 14.7578846,22.4428077 14.2458077,23.5143462 C13.9663462,24.1901154 13.2970385,24.7021923 13.3245,25.5004615 C13.1473462,25.4253462 12.9634615,25.3499615 12.8129615,25.214 C12.8129615,24.1971154 14.2592692,23.5622692 13.5700385,22.4907308 C13.5091923,22.7020769 13.4954615,22.9888077 13.4475385,23.2278846 C13.2081923,23.849 12.6966538,24.3468077 12.5052308,24.9894615 C12.1851154,24.8658846 11.8501923,24.6066154 11.5839231,24.3336154 L11.9530385,24.108 C11.9121154,23.9712308 11.8025385,23.8554615 11.7069615,23.7394231 C11.4676154,23.7057692 11.3109231,23.8624615 11.1133077,23.9241154 C10.9426154,23.7736154 10.7783846,23.6371154 10.6424231,23.4529615 C10.7649231,23.1043077 11.7206923,23.3918462 11.2358077,22.8183846 C10.9084231,22.6137692 10.5810385,22.9072308 10.2943077,23.044 L9.90526923,22.5523846 C10.2396538,22.3477692 10.5737692,22.0607692 10.9897308,22.1428846 C11.0923077,22.3275769 11.0995769,22.5997692 11.2971923,22.6961538 C12.0001538,22.6824231 12.4985,22.1498846 13.0375,21.7333846 C12.6616538,21.1744615 12.3552692,20.4025769 12.6891154,19.7268077 C12.9564615,19.0494231 13.6537692,18.4794615 13.6852692,17.7307308 L14.2374615,17.7307308" id="Path" fill="#000000" fill-rule="nonzero"></path>
                <path d="M15.2376538,17.7301923 C15.2726538,18.0425 15.2212308,18.3628846 15.0031538,18.7023846 C14.56,19.3038462 13.9798077,19.9376154 14.2455385,20.7294231 C14.4980769,21.5282308 15.4947692,22.0125769 15.4333846,22.9411538 C15.4266538,24.0396154 14.1499615,24.7226538 14.5118077,25.9511538 L13.8772308,25.746 C13.6249615,24.6542692 14.7850769,24.0948077 14.7985385,23.0846538 C14.9625,21.9237308 13.4806538,21.4935 13.5695,20.3613846 C13.5633077,19.5011923 14.3206538,18.9551923 14.6550385,18.2317692 C14.7123846,18.0556923 14.7317692,17.8895769 14.7239615,17.7301923 L15.2376538,17.7301923" id="Path" fill="#000000" fill-rule="nonzero"></path>
                <path d="M18.7462692,17.7301923 C18.7091154,17.9951154 18.7406154,18.2702692 18.8938077,18.5594231 C19.3372308,19.2618462 20.1155769,20.0065385 19.6301538,20.9146538 C19.1188846,21.6644615 18.2656923,22.3954231 18.6065385,23.3708462 C18.9821154,24.2243077 19.7669231,25.0363077 19.3434231,26.0946538 L18.7091154,26.2376154 C19.2139231,25.2064615 18.4568462,24.1836538 18.0134231,23.2892692 C17.4738846,22.0061154 19.1732692,21.3909231 19.2004615,20.2178846 C19.194,19.4608077 18.3884615,19.0305769 18.2183077,18.3343462 C17.8699231,18.0403462 17.5080769,18.4506538 17.0915769,18.3747308 C16.7843846,18.4366538 16.3135,17.9515 16.1296154,18.4773077 C15.911,19.2481154 14.9140385,19.8151154 15.3515385,20.7294231 C15.7680385,21.5419615 16.7706538,22.1356154 16.436,23.1872308 C16.1360769,24.1693846 15.1463846,25.1049615 15.7605,26.2376154 C15.5079615,26.1560385 15.0368077,26.3127308 15.0438077,25.9099615 C14.6547692,24.5379615 16.3135,23.7394231 15.8011538,22.3679615 C15.5626154,21.5282308 14.4770769,21.0638077 14.7161538,20.0536538 C14.8927692,19.2222692 15.8245769,18.6407308 15.6937308,17.7299231 L18.7462692,17.7299231" id="Path" fill="#000000" fill-rule="nonzero"></path>
                <path d="M19.733,17.7301923 C19.7198077,17.9636154 19.7669231,18.1956923 19.9174231,18.4159231 C20.3885769,19.1805385 21.2075769,20.0202692 20.7366923,21.0166923 C20.2044231,21.8149615 19.2761154,22.6272308 19.7943846,23.6785769 C20.1699615,24.3064231 20.7504231,24.9337308 20.5937308,25.7056154 L19.9790769,25.9102308 C20.3885769,24.4703846 18.3817308,23.6233846 19.2217308,22.1835385 C19.7405385,21.4121923 20.6683077,20.6885 20.1433077,19.6648846 C19.8293846,19.0308462 19.1808077,18.6552692 19.201,17.8629231 L19.2230769,17.7304615 L19.733,17.7304615" id="Path" fill="#000000" fill-rule="nonzero"></path>
                <path d="M20.7496154,17.7301923 C20.7482692,17.9237692 20.7889231,18.1176154 20.9001154,18.3133462 C21.3438077,19.1126923 22.1426154,19.8697692 21.8424231,20.8726538 C21.7597692,21.1803846 21.5150385,21.4194615 21.4533846,21.7328462 C21.9727308,22.1630769 22.4638077,22.6471538 23.1527692,22.6746154 C23.3983077,22.5179231 23.2618077,21.8216923 23.7668846,22.1423462 L24.5037692,22.5114615 C24.4499231,22.7090769 24.2854231,22.8870385 24.1357308,23.023 C23.856,22.8867692 23.583,22.7228077 23.2343462,22.736 C23.1315,22.8453077 23.0426538,22.9683462 23.0504615,23.1250385 C23.296,23.1654231 23.5205385,23.268 23.7256923,23.4115 C23.6303846,23.6166538 23.4456923,23.7458846 23.275,23.9031154 L22.7018077,23.6979615 C22.6065,23.8347308 22.4078077,23.9782308 22.4772692,24.1281923 C22.6065,24.1833846 22.7502692,24.2579615 22.8453077,24.3538077 C22.5927692,24.6268077 22.2723846,24.8034231 21.9646538,24.9889231 C21.6991923,24.1217308 20.8247308,23.5138077 20.8998462,22.5111923 L20.8594615,22.4702692 C20.6543077,22.7015385 20.7232308,23.0706538 20.7366923,23.3705769 C20.9825,23.9984231 21.5694231,24.4838462 21.6582692,25.1725385 C21.5556923,25.3496923 21.3236154,25.3838846 21.1459231,25.459 C21.1666538,24.2170385 19.2831154,23.2758077 20.4911538,22.0195769 C20.8939231,21.4043846 21.5694231,20.818 21.3300769,19.9715385 C21.0845385,19.1538846 20.2149231,18.6463846 20.2224615,17.7299231 L20.7496154,17.7299231" id="Path" fill="#000000" fill-rule="nonzero"></path>
                <path d="M26.2042308,17.7301923 C26.2109615,17.9609231 26.2322308,18.1593462 26.1420385,18.396 C25.207,18.662 24.5928846,17.6723077 23.6855769,17.8217308 L23.7876154,18.3343462 C24.6270769,18.3618077 25.1526154,19.1668077 26.0195385,19.1320769 C25.8965,19.3781538 26.0741923,20.0264615 25.5284615,19.7671923 C24.962,19.6309615 24.5522308,19.1320769 23.9311154,19.1320769 C23.8562692,19.2693846 23.9036538,19.4608077 23.8904615,19.6236923 C24.5455,19.7262692 25.0163846,20.2795385 25.6711538,20.3818462 C25.6095,20.6069231 25.5481154,20.8586538 25.3639615,20.9959615 C24.8311538,20.8661923 24.4151923,20.3880385 23.8481923,20.4017692 L23.7466923,20.8723846 C24.2856923,20.8861154 24.6340769,21.364 25.1184231,21.5069615 C25.1316154,21.7056538 24.9547308,21.8828077 24.8524231,22.0602308 C24.4227308,21.931 24.0948077,21.5621538 23.6034615,21.5896154 C23.5964615,21.4043846 23.7057692,21.1935769 23.6643077,20.9959615 C23.1123846,21.1599231 22.743,20.6478462 22.3343077,20.3401154 C22.3224615,19.3337308 21.2630385,18.6727692 21.2070385,17.7299231 L26.2042308,17.7299231" id="Path" fill="#000000" fill-rule="nonzero"></path>
                <path d="M8.21692308,17.7301923 C8.21046154,17.6391923 8.20534615,17.5761923 8.20534615,17.5761923 C9.05180769,17.9043846 9.79515385,17.2967308 10.5188462,16.9830769 C10.703,16.9278846 10.9894615,17.0237308 11.0721154,16.8191154 C11.0648462,16.6621538 11.3515769,16.4777308 11.1130385,16.3684231 C10.0546923,16.2249231 9.352,17.5016154 8.267,16.9214231 L8.18461538,16.7574615 C8.41023077,13.6728846 10.1505385,10.6903462 13.0372308,9.22276923 C15.6172692,7.74819231 19.5760385,7.8715 22.0055769,9.59134615 C23.296,10.3828846 24.5309615,11.6867692 25.2005385,13.0111154 C25.8413077,14.1712308 26.1353077,15.4743077 26.2233462,16.8600385 C25.1038846,17.7062308 24.3532692,16.0620385 23.2130769,16.4300769 C23.2747308,16.6077692 23.3089231,16.7919231 23.4392308,16.9421538 C24.4496538,16.9351538 25.1453462,17.9932308 26.2031538,17.5761923 L26.2039615,17.7301923 L21.2067692,17.7301923 C21.196,17.542 21.2245385,17.3416923 21.3101538,17.1263077 C21.6582692,16.3210385 21.5486923,15.2761538 21.1666538,14.5252692 C21.0506154,14.3276538 20.846,14.1709615 20.6545769,14.0546538 C20.9348462,14.6488462 21.2756923,15.3515385 21.1052692,16.0816923 C21.0856154,16.6454615 20.7536538,17.1866154 20.7498846,17.7301923 L20.2227308,17.7301923 L20.2248846,17.6585769 C20.4225,16.7028077 21.0239615,15.6856538 20.5323462,14.6687692 C20.3955769,14.2595385 20.0891923,13.7953846 19.6726923,13.6246923 C20.2935385,14.3349231 20.5390769,15.4947692 20.1839615,16.4508077 C20.0049231,16.8309615 19.7580385,17.283 19.7335385,17.7299231 L19.2230769,17.7299231 C19.4344231,16.6058846 20.2897692,15.5424231 19.6923462,14.3411154 C19.5353846,13.9862692 19.2217308,13.6246923 18.8736154,13.4195385 L18.8526154,13.4405385 C19.5491154,14.1163077 19.7604615,15.2290385 19.3851538,16.1226154 C19.2096154,16.6468077 18.8248846,17.1680385 18.7468077,17.7299231 L15.694,17.7299231 C15.6835,17.6537308 15.6649231,17.5753846 15.6382692,17.4943462 C15.2901538,16.5113846 14.5799231,15.5289615 15.0031538,14.3817692 C15.1194615,14.0541154 15.3518077,13.7741154 15.5558846,13.4811923 C14.8801154,13.8427692 14.539,14.6073846 14.5527308,15.3854615 C14.5233846,16.2311154 15.1488077,16.9558846 15.2376538,17.7299231 L14.7242308,17.7299231 C14.6833077,16.9297692 13.9625769,16.3054231 14.0821154,15.4059231 C14.1225,14.7438846 14.3475769,14.1634231 14.7775385,13.6656154 C14.1841538,13.9041538 13.9386154,14.5869231 13.7746538,15.1601154 C13.4900769,16.0795385 14.1693462,16.9060769 14.2374615,17.7299231 L13.6852692,17.7299231 C13.6922692,17.5595 13.6653462,17.3799231 13.5907692,17.1868846 C13.2224615,16.2383846 13.0924231,14.9557692 13.7953846,14.1160385 C13.4130769,14.2186154 13.188,14.6956923 13.0582308,15.0575385 C12.6355385,15.9836923 13.1702308,16.842 13.1885385,17.7299231 L8.21692308,17.7299231" id="Path" fill="#000000" fill-rule="nonzero"></path>
                <path d="M17.6852308,9.81615385 L18.7912308,9.87780769 L18.7707692,9.98038462 L17.9517692,10.7584615 C18.0947308,11.1068462 18.2382308,11.4549615 18.3817308,11.8022692 C19.0028462,11.4412308 19.5970385,10.9905385 20.3476538,10.9423462 C20.2792692,11.3386538 19.9790769,11.7551538 20.0194615,12.1503846 C20.4838846,12.0208846 20.9076538,11.7344231 21.4127308,11.7613462 C21.0982692,12.3418077 20.6408462,12.9222692 20.6133846,13.6454231 C19.9241538,13.3866923 19.2141923,13.0719615 18.4433846,12.9494615 C16.7983846,12.6691923 15.2145,13.0310385 13.8559615,13.6866154 C13.7401923,12.9973846 13.4060769,12.3964615 12.9963077,11.8232692 C13.2418462,11.7414231 13.5420385,11.8773846 13.7951154,11.9465769 C14.0067308,12.0074231 14.1841538,12.1506538 14.4095,12.1921154 C14.4498846,11.7826154 14.2116154,11.3798462 14.0411923,11.0042692 C14.1572308,10.9154231 14.3413846,10.9832692 14.4711538,11.025 C15.0098846,11.2293462 15.4947692,11.55 15.9863846,11.844 C16.2386538,11.55 16.3336923,11.1267692 16.4362692,10.7377308 L15.5973462,9.98038462 L15.5973462,9.89880769 L16.7028077,9.83688462 C16.8866923,9.48903846 17.0097308,9.12046154 17.1941538,8.77234615 C17.4195,9.07953846 17.4946154,9.48230769 17.6852308,9.81615385" id="Path" fill="#FFFFFF" fill-rule="nonzero"></path>
                <path d="M18.0742692,12.0480769 L17.9725,12.1503846 C17.4604231,12.096 16.9214231,12.1638462 16.4362692,12.1713846 C16.3818846,12.1167308 16.2731154,12.0346154 16.3746154,11.9662308 L17.1529615,11.3720385 C17.4741538,11.5572692 17.815,11.7958077 18.0742692,12.0480769" id="Path" fill="#000000" fill-rule="nonzero"></path>
                <path d="M4.41726923,12.3345385 C3.99376923,12.6627308 3.69357692,13.1406154 3.78269231,13.6863462 C3.83061538,13.7681923 3.878,13.8906923 3.98730769,13.9111538 C4.32842308,13.9111538 4.44446154,13.5431154 4.60115385,13.3175 C4.78557692,12.908 5.14096154,12.4640385 5.62530769,12.4166538 C6.04153846,12.3897308 6.39719231,12.4985 6.66992308,12.8261538 C7.08615385,13.3247692 7.01103846,14.1300385 6.81342308,14.7105 C6.62846154,15.1404615 6.342,15.5766154 5.93276923,15.8568846 L5.19534615,15.4061923 C5.59811538,15.127 6.02161538,14.6690385 6.076,14.1572308 C6.076,13.9730769 6.03561538,13.7272692 5.80946154,13.7065385 C5.33884615,13.8433077 5.29119231,14.4095 4.97053846,14.7304231 C4.725,14.9832308 4.41753846,15.1738462 4.02823077,15.1191923 C3.66638462,15.0984615 3.35892308,14.8736538 3.14757692,14.5869231 C2.74480769,13.9730769 2.94269231,13.0714231 3.1885,12.6010769 C3.339,12.3345385 3.51669231,12.0685385 3.76223077,11.8633846 C3.96657692,11.9799615 4.20592308,12.1576538 4.41726923,12.3345385" id="Path" fill="#FFFFFF" fill-rule="nonzero"></path>
                <path d="M31.1586154,12.8678846 C31.5131923,13.4408077 31.6505,14.1981538 31.4658077,14.8946538 L30.7081923,14.8537308 C30.8110385,14.3963077 30.8858846,13.8231154 30.5649615,13.4408077 C30.4696538,13.3247692 30.2989615,13.2561154 30.1759231,13.3177692 C29.7596923,13.7819231 30.2109231,14.4512308 29.9513846,14.9765 C29.8280769,15.2158462 29.6439231,15.5023077 29.3776538,15.6108077 C28.9471538,15.7747692 28.4148846,15.6929231 28.0872308,15.3652692 C27.4461923,14.6962308 27.1454615,13.6586154 27.5555,12.7852308 L28.3537692,12.7852308 C28.2172692,13.1271538 28.1225,13.6112308 28.2517308,14.014 C28.3195769,14.1846923 28.4016923,14.4030385 28.6001154,14.4644231 C29.2551538,14.4881154 28.8111923,13.5498462 28.9681538,13.1126154 C29.0298077,12.7852308 29.2069615,12.4441154 29.5410769,12.2936154 C30.1551923,11.9934231 30.8724231,12.3345385 31.1586154,12.8678846" id="Path" fill="#FFFFFF" fill-rule="nonzero"></path>
                <path d="M11.0721154,14.1572308 C11.7338846,13.9044231 12.6347308,13.468 13.3446923,13.9321538 C13.1941923,14.1435 12.9015385,14.2598077 12.6891154,14.4436923 C12.3415385,14.7848077 11.9183077,15.2007692 11.6660385,15.631 C10.8128462,15.4600385 10.1298077,15.9591923 9.41338462,16.2456538 C9.14038462,16.2997692 8.77853846,16.3272308 8.55346154,16.1430769 C9.22923077,15.0300769 10.1841923,14.0064615 9.94565385,12.5391538 C10.0207692,12.4093846 10.1502692,12.5189615 10.2321154,12.5598846 C10.7581923,12.9693846 11.0104615,13.5361154 11.0721154,14.1572308" id="Path" fill="#FFFFFF" fill-rule="nonzero"></path>
                <path d="M24.5449615,12.7033846 C24.2792308,14.0955769 25.2341923,15.0788077 25.8757692,16.1433462 C25.1391538,16.6349615 24.4421154,15.8768077 23.7464231,15.6926538 C23.4392308,15.6452692 23.0779231,15.6038077 22.7836538,15.6517308 C22.3612308,14.9969615 21.7945,14.3823077 21.105,14.014 C21.1456538,13.7891923 21.4595769,13.7746538 21.6784615,13.7474615 C22.2858462,13.6866154 22.8181154,13.9388846 23.3164615,14.1984231 C23.4120385,13.9736154 23.4529615,13.7205385 23.5208077,13.482 C23.6853077,13.0792308 24.0065,12.6691923 24.4227308,12.4990385 C24.5110385,12.5125 24.5724231,12.6083462 24.5449615,12.7033846" id="Path" fill="#FFFFFF" fill-rule="nonzero"></path>
                <path d="M18.8523462,13.9733462 C18.8733462,14.0891154 18.9891154,14.1916923 18.914,14.3214615 C18.5112308,14.1981538 18.0543462,14.2662692 17.6650385,14.4232308 C17.3166538,14.6825 17.3713077,15.2155769 17.4601538,15.5903462 L17.5627308,15.6727308 C17.7331538,15.6315385 17.7404231,15.4134615 17.8901154,15.3652692 C18.1429231,15.4269231 18.4907692,15.5160385 18.7295769,15.3652692 C18.9409231,15.3722692 18.9347308,15.6654615 18.9546538,15.8159615 C18.8046923,16.6077692 18.4703077,17.4676923 17.6650385,17.843 C17.3303846,18.0069615 16.9001538,17.8971154 16.5795,17.7813462 C15.7879615,17.3104615 15.3442692,16.3754231 15.4331154,15.5295 C15.4947692,15.3997308 15.5903462,15.2971538 15.7408462,15.386 C16.0606923,15.6040769 16.4088077,15.2155769 16.7028077,15.4877692 C17.0573846,15.3308077 16.8460385,14.8946538 16.8460385,14.567 C16.5595769,14.1981538 16.0679615,14.2525385 15.6382692,14.28 C15.4468462,14.1636923 15.652,13.9798077 15.6991154,13.8500385 C16.1635385,13.195 17.0511923,13.1815385 17.8284615,13.2768462 C18.2247692,13.3791538 18.6617308,13.5498462 18.8523462,13.9733462" id="Path" fill="#FFFFFF" fill-rule="nonzero"></path>
                <path d="M16.4771923,14.9148462 L16.4771923,14.9972308 C16.2453846,14.9765 15.8703462,14.7444231 15.6584615,15.0378846 C15.5222308,15.0987308 15.5017692,14.9417692 15.5155,14.8534615 C15.4880385,14.7511538 15.5496923,14.6687692 15.6385385,14.6488462 C15.9586538,14.5737308 16.3205,14.6690385 16.4771923,14.9148462" id="Path" fill="#FFFFFF" fill-rule="nonzero"></path>
                <path d="M18.914,14.8122692 C18.9075385,14.8946538 18.9277308,14.9899615 18.8321538,15.0378846 C18.5726154,14.9355769 18.2107692,14.7920769 17.9515,14.9972308 C17.801,14.6763077 18.2180385,14.7444231 18.361,14.6491154 C18.5728846,14.6415769 18.8186923,14.6353846 18.914,14.8122692" id="Path" fill="#FFFFFF" fill-rule="nonzero"></path>
                <path d="M17.6033846,16.1228846 C17.4808846,16.3821538 17.0848462,16.2184615 16.8662308,16.2658462 C16.7919231,16.2383846 16.8387692,16.1570769 16.8253077,16.1024231 C17.0439231,15.9519231 17.4329615,15.932 17.6033846,16.1228846" id="Path" fill="#000000" fill-rule="nonzero"></path>
                <path d="M17.9307692,16.6966154 C17.7678846,16.9421538 17.5218077,17.2488077 17.1944231,17.2291538 C16.8253077,17.2563462 16.7437308,16.9558846 16.4771923,16.7784615 L16.4572692,16.6548846 C16.9488846,16.7302692 17.4878846,16.6352308 17.9307692,16.6966154" id="Path" fill="#000000" fill-rule="nonzero"></path>
                <path d="M5.17461538,19.8905 C5.58815385,19.8883462 5.985,19.9042308 6.412,19.8942692 L5.46188462,20.6887692 C5.55342308,21.0231538 5.63257692,21.4076154 5.74834615,21.8561538 L4.80630769,21.2008462 C4.41026923,21.3817692 4.17173077,21.6036154 3.7625,21.8149615 L4.08988462,20.6885 C3.77892308,20.4340769 3.43134615,20.1925769 3.13734615,19.9333077 C3.56596154,19.9222692 3.94126923,19.9395 4.35561538,19.9311538 C4.54703846,19.5730769 4.63238462,19.1627692 4.80630769,18.8046923 L5.17461538,19.8905" id="Path" fill="#FFFFFF" fill-rule="nonzero"></path>
                <path d="M10.0275,25.2756538 C10.1098846,25.4732692 10.2286154,25.6299615 10.2792308,25.9266538 C10.0611538,26.0639615 9.78546154,26.1765 9.53615385,26.2995385 C9.47530769,25.8488462 9.079,25.4118846 8.63557692,25.2955769 C8.26726923,25.2040385 7.8645,25.3782308 7.59176923,25.7056154 C7.36615385,25.9710769 7.29776923,26.3539231 7.36615385,26.6883077 C7.54384615,27.1516538 8.03519231,27.5016538 8.53326923,27.5016538 L8.6765,27.5059615 C8.54053846,27.8341538 8.45169231,27.9986538 8.30846154,28.2447308 C7.48219231,28.2167308 6.64973077,27.7321154 6.34226923,26.9333077 C6.07626923,26.2855385 6.19257692,25.4458077 6.60880769,24.9062692 C7.11388462,24.2652308 7.91942308,24.0875385 8.6975,24.2515 C9.22196154,24.3952692 9.71357692,24.7907692 10.0275,25.2756538" id="Path" fill="#FFFFFF" fill-rule="nonzero"></path>
                <path d="M25.9366154,24.8459615 L25.9883077,24.8965769 L24.7598077,26.0402692 L25.1693077,26.5345769 C25.5171538,26.2615769 25.893,25.9713462 26.2648077,25.6237692 C26.4559615,25.7842308 26.6099615,25.9713462 26.7903462,26.1837692 C26.4223077,26.5345769 26.0394615,26.7736538 25.7190769,27.1083077 C25.8555769,27.2792692 25.9608462,27.4731154 26.1689615,27.6782692 L27.4935769,26.586 L28.0595,27.1696923 C27.3088846,27.8826154 26.4901538,28.6168077 25.7120769,29.1862308 L23.3980385,26.1966923 C24.1354615,25.5820385 24.7563077,25.0225769 25.4048846,24.374 C25.6030385,24.5043077 25.7465385,24.6744615 25.9366154,24.8459615" id="Path" fill="#FFFFFF" fill-rule="nonzero"></path>
                <path d="M12.9147308,27.3643462 C13.3309615,27.8966154 13.3376923,28.7220769 13.0781538,29.3294615 C12.7887308,29.9473462 12.2322308,30.3401538 11.6245769,30.4763846 C10.8882308,30.5921538 10.1917308,30.3538846 9.65919231,29.8423462 C9.18857692,29.3232692 8.92903846,28.5793846 9.16757692,27.8562308 C9.37919231,27.0711538 10.1435385,26.4979615 10.9288846,26.4023846 C11.7406154,26.3541923 12.4915,26.7295 12.9147308,27.3643462" id="Path" fill="#FFFFFF" fill-rule="nonzero"></path>
                <path d="M12.0550769,27.8559615 C12.2863462,28.3949615 12.0203462,28.9272308 11.6450385,29.3092692 C11.4065,29.5001538 11.0939231,29.6205 10.7802692,29.5044615 C10.5826538,29.4088846 10.3384615,29.2341538 10.2838077,29.0222692 C10.1333077,28.4765385 10.3828846,27.9647308 10.7646538,27.5894231 C10.9967308,27.398 11.3313846,27.2892308 11.6243077,27.4254615 C11.802,27.4798462 11.9998846,27.6782692 12.0550769,27.8559615" id="Path" fill="#397657" fill-rule="nonzero"></path>
                <path d="M20.2044231,28.7220769 C19.6301538,28.8047308 19.0817308,28.8731154 18.5349231,28.9619615 C18.5901154,29.2311923 18.5656154,29.4115769 18.6068077,29.6167308 C19.1188846,29.6067692 19.5660769,29.5157692 20.0439615,29.4541154 L20.1836923,30.3296538 C19.7160385,30.4152692 19.2066538,30.4930769 18.7158462,30.5415385 C18.7295769,30.9370385 18.7820769,31.4213846 18.7758846,31.8583462 C18.3733846,31.92 17.9388462,31.9641538 17.5223462,31.9366923 L17.2768077,28.2038077 L17.2735769,28.1254615 C18.1978462,28.0366154 19.1363846,27.9173462 20.0197308,27.7735769 C20.0576923,28.0535769 20.1430385,28.3769231 20.2044231,28.7220769" id="Path" fill="#FFFFFF" fill-rule="nonzero"></path>
                <path d="M23.3358462,27.0439615 L23.3703077,27.1080385 L21.8709615,27.86 L22.1248462,28.4493462 C22.5822692,28.2748846 22.9772308,28.1122692 23.4316923,27.8826154 C23.5703462,28.0907308 23.6653846,28.3133846 23.7795385,28.5672692 C23.3673462,28.7869615 22.9406154,28.9573846 22.4912692,29.1547308 C22.5747308,29.3566538 22.6167308,29.5039231 22.7634615,29.8278077 L24.3414231,29.1509615 L24.7213077,29.8708846 C23.8005385,30.3441923 22.8086923,30.8185769 21.9013846,31.1470385 L20.5194231,27.6287308 C21.3995385,27.2458846 22.1531154,26.8826923 22.9570385,26.4430385 C23.1113077,26.6228846 23.2009615,26.8269615 23.3358462,27.0439615" id="Path" fill="#FFFFFF" fill-rule="nonzero"></path>
                <path d="M16.7138462,29.1463846 C16.1428077,29.0508077 15.5978846,28.9487692 15.0510769,28.8666538 C15.0206538,29.1401923 14.9433846,29.3052308 14.9205,29.5122692 C15.4113077,29.6584615 15.8646923,29.708 16.3385385,29.7946923 L16.2052692,30.6723846 C15.7338462,30.6112692 15.225,30.5305 14.742,30.4268462 C14.6348462,30.8075385 14.5384615,31.2854231 14.3998077,31.7000385 C13.9970385,31.6359615 13.5692308,31.5455 13.181,31.3923077 L14.0818462,27.762 L14.1031154,27.6868846 C15.0109615,27.8831538 15.9408846,28.0543846 16.8263846,28.1868462 C16.7768462,28.4649615 16.7596154,28.7998846 16.7138462,29.1463846" id="Path" fill="#FFFFFF" fill-rule="nonzero"></path>
                <path d="M29.9831538,19.8961538 C30.3958846,19.8945385 30.7647308,19.9055769 31.2197308,19.9004615 L30.2704231,20.6949615 C30.3627692,21.0288077 30.4411154,21.4132692 30.5563462,21.8623462 L29.6151154,21.2065 C29.2182692,21.3868846 28.98,21.6092692 28.5705,21.8206154 L28.8981538,20.6946923 C28.5874615,20.4408077 28.2390769,20.1982308 27.9466923,19.9389615 C28.3742308,19.9279231 28.7498077,19.9451538 29.1638846,19.9368077 C29.3310769,19.5639231 29.4506154,19.2058462 29.6151154,18.8103462 L29.9831538,19.8961538" id="Path" fill="#FFFFFF" fill-rule="nonzero"></path>
                <path d="M34.3199231,17.4286538 C34.3199231,27.0493462 26.6323077,34.8575769 17.1602308,34.8575769 C7.68815385,34.8575769 0,27.0493462 0,17.4286538 C0,7.80823077 7.68788462,0 17.1602308,0 C26.6325769,0 34.3199231,7.80823077 34.3199231,17.4286538 Z" id="Path"></path>
                <path d="M28.3104231,31.4092692 C28.8440385,31.4092692 29.3014615,31.8241538 29.3014615,32.3871154 C29.3014615,32.9551923 28.8443077,33.3698077 28.3104231,33.3698077 C27.7714231,33.3698077 27.3142692,32.9551923 27.3142692,32.3871154 C27.3142692,31.8241538 27.7714231,31.4092692 28.3104231,31.4092692 Z M28.3104231,31.5678462 C27.8559615,31.5678462 27.5046154,31.9194615 27.5046154,32.3871154 C27.5046154,32.8652692 27.8562308,33.2115 28.3104231,33.2115 C28.7597692,33.2115 29.1111154,32.8655385 29.1111154,32.3871154 C29.1108462,31.9194615 28.7597692,31.5678462 28.3104231,31.5678462 Z M28.1015,32.9551923 L27.9273077,32.9551923 L27.9273077,31.8241538 L28.3605,31.8241538 C28.63,31.8241538 28.7621923,31.9245769 28.7621923,32.1464231 C28.7621923,32.3499615 28.6351154,32.4371923 28.4660385,32.4581923 L28.7883077,32.9551923 L28.5982308,32.9551923 L28.2969615,32.4635769 L28.1012308,32.4635769 L28.1012308,32.9551923 L28.1015,32.9551923 Z M28.1015,32.3211538 L28.3077308,32.3211538 C28.5190769,32.3211538 28.5877308,32.2600385 28.5877308,32.1359231 C28.5877308,32.0276923 28.5349615,31.9668462 28.3368077,31.9668462 L28.1015,31.9668462 L28.1015,32.3211538 L28.1015,32.3211538 Z" id="Shape" fill="#000000" fill-rule="nonzero"></path>
            </g>
        </g>
    </g>
</svg>