<?xml version="1.0" encoding="UTF-8"?>
<svg width="71px" height="10px" viewBox="0 0 71 10" version="1.1" xmlns="http://www.w3.org/2000/svg" xmlns:xlink="http://www.w3.org/1999/xlink">
    <!-- Generator: Sketch 54.1 (76490) - https://sketchapp.com -->
    <title>tencent</title>
    <desc>Created with Sketch.</desc>
    <g id="Page-1" stroke="none" stroke-width="1" fill="none" fill-rule="evenodd">
        <g id="ν† ν”½μ„ΈνΈ" transform="translate(-8.000000, -392.000000)" fill="#006CB6" fill-rule="nonzero">
            <g id="tencent" transform="translate(8.000000, 392.000000)">
                <path d="M0.32107557,0 L0,1.25279088 L2.97626549,1.25279088 L1.88443822,5.62095162 L1.08132347,8.84334666 L3.02992003,8.84334666 L3.83246701,5.62095162 L4.92486206,1.25279088 L7.89033986,1.25279088 L8.20091164,0 L0.32107557,0 Z M59.804938,0.0965213914 C59.6465294,0.747473011 59.5008956,1.25534586 59.3552619,1.69167933 L58.627377,1.69167933 L58.8627189,1.54178729 C59.2686765,1.27834066 59.4688165,1.14434626 59.4730748,1.12419032 C59.2564694,0.634770092 59.0730788,0.296945222 58.9053019,0.12860056 C58.9004758,0.0982247101 58.5913235,0.287009196 57.9951619,0.674514194 L57.7916154,0.802830868 C57.8143693,0.840015445 57.839399,0.875758606 57.8665614,0.909856058 C58.0613203,1.15645609 58.2367173,1.41774821 58.3911835,1.69139544 L57.7916154,1.69139544 L57.6005598,2.59103159 L58.9495882,2.59103159 L58.8533507,2.7730028 L58.7568293,2.95497401 L57.2996401,2.95497401 L57.1179528,3.85432627 L58.1243303,3.85432627 C57.7020857,4.37205445 57.1818111,4.80135574 56.5933307,5.11762095 L57.5355498,0.620859656 L54.9340144,0.620859656 L53.9597161,5.26751299 C53.9335986,5.38901639 53.9029388,5.50484206 53.8745502,5.62066773 C53.647441,6.51973611 53.3110356,7.32597361 52.857385,8.04023191 C53.1181943,8.27008931 53.3479892,8.53290289 53.5409836,8.82205518 C54.0860456,8.0444902 54.5144302,7.04861655 54.8363575,5.82421431 L55.4041303,5.82421431 L55.0830548,7.34442623 C55.0577889,7.55251499 54.8462935,7.64619752 54.4621951,7.61213115 C54.5452541,7.98455015 54.5739404,8.36703505 54.5473611,8.74767693 C55.4745342,8.74171531 55.9426629,8.53277489 55.9605478,8.1052419 L56.4851699,5.62123551 L56.5172491,5.45090364 C56.5728908,5.50597761 56.6264508,5.5627549 56.6779288,5.62123551 C56.7939961,5.75353759 56.8912459,5.90122748 56.9669252,6.06012395 C57.1481355,5.96715495 57.3171089,5.85205855 57.469972,5.71747301 L57.1273211,6.83087565 L60.2429748,6.83087565 L60.1893203,7.11987205 C60.0661136,7.72114354 59.8926589,8.01326269 59.6754858,7.97635746 L59.8458177,7.11987205 L56.5073131,7.11987205 L56.3145542,8.00843663 L59.0339024,8.00843663 C59.1884477,8.33158568 59.2549412,8.68980809 59.2266613,9.04689324 C60.0942183,9.0185046 60.6256537,8.88507797 60.832607,8.64008397 C60.8973331,8.56854458 60.9651819,8.44448621 61.0361535,8.23327469 C61.1780968,7.80886445 61.3438864,7.18828868 61.549988,6.37041184 L61.6678009,5.89944422 L60.5115314,5.89944422 L60.5756897,5.62095162 L60.6608557,5.19285086 C60.8344718,5.34613411 61.0169469,5.48908083 61.2073371,5.62095162 C61.3054082,5.69046911 61.4093211,5.7513541 61.5179088,5.80292283 C61.567589,5.7407517 61.6186885,5.67971611 61.6678009,5.62095162 C61.929662,5.29955131 62.2122587,4.99561759 62.5137825,4.71109556 C61.8156111,4.51237505 61.3052779,4.22687991 60.9827829,3.85461016 L62.5137825,3.85461016 L62.6957537,2.9552579 L59.9443263,2.9552579 C60.0240137,2.84276926 60.088805,2.72043873 60.1370852,2.59131547 L62.4081767,2.59131547 L62.5901479,1.69196321 L61.7736905,1.69196321 C62.1291164,1.34477009 62.4416753,1.05889644 62.7264134,0.835477809 L61.7736905,0.246413435 C61.4637956,0.643639595 61.1313872,1.02277664 60.7781008,1.38195922 L61.3563774,1.73511395 L60.5331068,1.73511395 L60.6509196,1.36038385 L60.8008117,0.985653739 C60.9260056,0.669972011 61.0279208,0.430087965 61.1005958,0.279060376 C61.107409,0.216889244 61.0668133,0.185661735 60.939916,0.172035186 C60.6997481,0.134278289 60.322463,0.109580168 59.8043703,0.0970891643 L59.804938,0.0965213914 Z M65.564994,0.170331867 C65.2745782,0.266853259 64.8231987,0.442578968 64.1946741,0.705457817 C64.3873271,1.2562963 64.5341229,1.82211546 64.6335626,2.39713715 C64.8558457,2.31197121 65.3378848,2.14703319 66.0680408,1.88330268 C65.7637145,0.788068772 65.5894082,0.214618153 65.564994,0.170331867 Z M66.625026,0.652938824 L66.4010396,1.69167933 L67.257525,1.69167933 L66.8507157,3.6294882 L65.7801799,3.6294882 L65.5553419,4.66794482 L66.6366653,4.66794482 L66.4319832,5.62095162 L65.7790444,8.71531387 L66.9781807,8.71531387 L67.6217513,5.62095162 L67.8252979,4.66822871 L68.6817833,4.66822871 L68.5114514,5.44976809 C68.4989604,5.50654538 68.4901599,5.56332267 68.4793723,5.62009996 C68.2602119,6.76813675 68.3726309,7.66635346 68.8112355,8.30736905 C69.0783727,8.68720912 69.4008677,8.8467533 69.7855338,8.78997601 C70.1829748,8.81041583 70.582403,8.16769692 70.9738824,6.86295482 C70.6508197,6.71646941 70.3260536,6.57376916 69.9995842,6.43485406 C69.805122,7.03271891 69.6844702,7.22661335 69.6356417,7.01313075 C69.5589924,6.70823671 69.57489,6.24436625 69.6785086,5.62208717 C69.7120072,5.42081168 69.7548741,5.2044902 69.8068253,4.96914834 L70.7169652,0.65407437 L66.6247421,0.65407437 L66.625026,0.652938824 Z M48.8418113,0.759964014 L48.435002,2.40877649 L46.8719232,2.40877649 L46.5721391,3.6294882 L52.2893283,3.6294882 L48.8418113,0.759964014 Z M55.7365614,1.5415034 L56.3043343,1.5415034 L56.0366293,2.81558577 L55.479928,2.81558577 L55.7365614,1.5415034 Z M68.445022,1.69167933 L69.3443743,1.69167933 L68.937565,3.6294882 L68.0382127,3.6294882 L68.445022,1.69167933 Z M10.4385046,2.04398241 C9.25053445,2.04398241 8.21908037,2.35445955 7.34414234,2.97541383 C6.47355724,3.60545249 5.90966413,4.42985872 5.65246301,5.44863255 C5.63741703,5.5082487 5.62180328,5.56218713 5.60959616,5.61896441 C5.4139984,6.56430628 5.58745302,7.33505798 6.13421831,7.9209996 C6.71703719,8.53760096 7.61638944,8.84164334 8.83113954,8.84164334 C10.9035106,8.84164334 12.4918553,7.577497 12.6533866,7.4392443 L11.7540344,7.23569772 C11.542539,7.28452619 10.3913794,7.61809276 9.23794882,7.51419032 C7.78416633,7.38360256 7.45429028,6.31902839 7.53463015,5.79043183 L13.3710516,5.79043183 L13.4247061,5.62009996 L13.467573,5.43812875 C13.7321551,4.37696122 13.5921991,3.54233507 13.049976,2.94361855 C12.5043463,2.34035986 11.6393443,2.04398241 10.4385046,2.04398241 Z M27.7291763,2.04398241 C26.480076,2.04398241 25.3485046,2.36818073 24.3245262,3.02906837 C23.3005478,3.68995602 22.6697521,4.50953619 22.4295842,5.4704918 C22.4162415,5.5230108 22.3969372,5.56843263 22.3867173,5.62038385 C22.2073011,6.51207117 22.444914,7.26692523 23.0933107,7.87926829 C23.7810729,8.52274424 24.7557497,8.84391443 26.0173411,8.84277889 C26.7817526,8.84277889 27.5846781,8.68578968 28.4261176,8.37181128 L28.9186605,6.4129948 C28.3585526,6.84421831 27.8887205,7.13065974 27.5162615,7.28026789 C27.1177074,7.43862858 26.6923236,7.51853867 26.2634706,7.51560976 C25.5537545,7.51560976 25.0186285,7.32540584 24.657525,6.93761695 C24.3381527,6.58815274 24.2237465,6.14443822 24.3148741,5.62066773 C24.325094,5.56389044 24.3432627,5.50881647 24.3577409,5.45033587 C24.5053619,4.86013595 24.8610716,4.36447021 25.4282767,3.97412635 C25.9954818,3.58378249 26.6356457,3.38534586 27.3445102,3.38534586 C27.7964574,3.38534586 28.1621032,3.4619952 28.4579128,3.62097161 C28.7594002,3.77455418 29.0753659,4.06326669 29.4001319,4.47745702 L29.8926749,2.49678129 C29.2533627,2.19103559 28.5328589,2.04398241 27.7291763,2.04398241 Z M34.7846062,2.04398241 C33.5962575,2.04398241 32.5648034,2.35445955 31.6902439,2.97541383 C30.8196588,3.60545249 30.2557657,4.42985872 29.9985646,5.44863255 C29.9835186,5.5082487 29.9681887,5.56218713 29.9556977,5.61896441 C29.7595322,6.56430628 29.932419,7.33505798 30.4803199,7.9209996 C31.0622871,8.53760096 31.9630588,8.84164334 33.1772411,8.84164334 C35.2496122,8.84164334 36.8393762,7.577497 36.9994882,7.4392443 L36.1001359,7.23569772 C35.8886405,7.28452619 34.737481,7.61809276 33.5840504,7.51419032 C32.1305518,7.38360256 31.7995402,6.31902839 31.8807317,5.79043183 L37.7157337,5.79043183 L37.7693882,5.62009996 L37.8122551,5.43812875 C38.0776889,4.37696122 37.9468173,3.54233507 37.4054458,2.94361855 C36.8612355,2.34035986 35.984878,2.04398241 34.7846062,2.04398241 Z M19.6032107,2.22708916 C18.7776689,2.22708916 17.9711475,2.4840064 17.1836465,2.99784086 L15.4383127,2.40906038 L14.6354818,5.62095162 L13.8323671,8.84334666 L15.7273091,8.84334666 L16.4980608,5.73876449 C16.5079968,5.69902039 16.5202039,5.6570052 16.5301399,5.62095162 C16.7271571,4.88114354 16.9914554,4.35339864 17.3116793,4.04708517 C17.6551819,3.72146741 18.1321112,3.56447821 18.7569452,3.56447821 C19.3315314,3.56447821 19.7037065,3.68143942 19.8595602,3.92842063 C20.0219432,4.170008 20.0185366,4.6097481 19.8595602,5.24536985 L19.7743942,5.62009996 L18.9604918,8.84334666 L20.8554338,8.84334666 L21.6585486,5.62095162 L21.8405198,4.89306677 C22.0676289,3.98463015 22.0054578,3.33594962 21.6477609,2.9342503 C21.2347061,2.46243103 20.5533786,2.22708916 19.6032107,2.22708916 Z M43.7886325,2.22708916 C42.962523,2.22708916 42.1560016,2.4840064 41.3690684,2.99784086 L39.6240184,2.40906038 L38.8206198,5.62095162 L38.0177889,8.84363055 L39.9127309,8.84363055 L40.6834826,5.73904838 C40.6937025,5.69930428 40.7053419,5.65728908 40.7155618,5.62123551 C40.9142823,4.88142743 41.1757417,4.35368253 41.4971012,4.04736905 C41.8408876,3.7217513 42.3166813,3.5647621 42.9423671,3.5647621 C43.5166693,3.5647621 43.8888445,3.68172331 44.0452659,3.92870452 C44.2070812,4.17029188 44.2042423,4.61003199 44.0452659,5.24565374 L43.9487445,5.62038385 L43.1456297,8.84306277 L45.0405718,8.84306277 L45.8439704,5.62095162 L46.0259416,4.89306677 C46.2530508,3.98463015 46.1903119,3.33594962 45.8331827,2.9342503 C45.4218313,2.46243103 44.7365294,2.22708916 43.7883487,2.22708916 L43.7886325,2.22708916 Z M63.027617,2.90160336 L62.8027789,3.95198321 L63.8628109,3.95198321 L63.5093723,5.62095162 L63.2845342,6.73435426 C63.2357057,6.96742503 63.0494762,7.21014794 62.7278329,7.47245902 C62.6332987,7.55052779 62.5748181,7.6004918 62.5671531,7.62235106 C62.684966,7.99140344 62.8947581,8.35080368 63.1880128,8.68238305 C63.2107237,8.68834466 63.3362015,8.57791283 63.5519552,8.36130748 C63.8741663,8.02064374 64.6911915,7.267493 66.0143862,6.10242303 C66.0101279,6.08737705 65.9371691,5.93209116 65.8003359,5.64195922 L65.7895482,5.62038385 L65.5967893,5.19228309 L65.3827389,5.3742543 C65.279972,5.46453019 65.1806118,5.54770892 65.0937425,5.62038385 C64.862375,5.82080768 64.6869332,5.96786086 64.5691204,6.05927229 L64.6656417,5.62038385 L65.2334146,2.90103559 L63.0279008,2.90103559 L63.027617,2.90160336 Z M10.1395722,3.38421032 C11.1442463,3.38421032 11.6813595,3.77909636 11.7455178,4.57255898 L7.96556977,4.57255898 C8.06918304,4.39033176 8.19908437,4.22436799 8.35108756,4.08001599 C8.50503397,3.93292465 8.67782053,3.80691456 8.86492203,3.70528589 C9.05724077,3.60049056 9.26243014,3.52127792 9.47527789,3.46966014 C9.69169255,3.41196699 9.91474811,3.38295164 10.1387205,3.38335866 L10.1395722,3.38421032 Z M34.4853898,3.38421032 C35.490064,3.38421032 36.0280288,3.77909636 36.0913355,4.57255898 L32.3113874,4.57255898 C32.415729,4.39082108 32.545552,4.22495742 32.6969052,4.08001599 C32.8514461,3.93363717 33.024135,3.8076983 33.2107397,3.70528589 C33.6034388,3.49737167 34.0404891,3.38723267 34.4848221,3.38421032 L34.4853898,3.38421032 Z M55.287453,3.70528589 L55.8441543,3.70528589 L55.5980248,4.89363455 L55.0413235,4.89363455 L55.287453,3.70528589 Z M59.3879088,3.85517793 L59.7197721,3.85517793 C59.7652215,3.98661678 59.8257123,4.11236136 59.90004,4.22990804 L59.0864214,4.22990804 L59.2363135,4.03714914 L59.3879088,3.85517793 Z M48.0608397,3.90883247 L47.6318872,5.62095162 L46.8182687,8.84363055 L48.702423,8.84363055 L49.5163255,5.62095162 L49.9444262,3.90798081 L48.0608397,3.90883247 Z M58.2316393,5.07588964 L59.56988,5.07588964 L59.4622871,5.62095162 L59.3873411,5.93152339 L58.4666973,5.93152339 C58.5010476,5.81796881 58.5317073,5.71406637 58.5632187,5.62095162 C58.5987045,5.51392643 58.627377,5.42223111 58.6597401,5.34245902 C58.6146022,5.31690924 58.5873491,5.29959216 58.5632187,5.29959216 L58.0065174,5.29959216 L58.2316393,5.07588964 Z" id="Shape"></path>
            </g>
        </g>
    </g>
</svg>