<?xml version="1.0" encoding="UTF-8"?>
<svg width="71px" height="9px" viewBox="0 0 71 9" version="1.1" xmlns="http://www.w3.org/2000/svg" xmlns:xlink="http://www.w3.org/1999/xlink">
    <!-- Generator: Sketch 56.3 (81716) - https://sketch.com -->
    <title>tesla</title>
    <desc>Created with Sketch.</desc>
    <g id="Page-1" stroke="none" stroke-width="1" fill="none" fill-rule="evenodd">
        <g id="ν† ν”½μ„ΈνΈ" transform="translate(-390.000000, -618.000000)" fill="#142733" fill-rule="nonzero">
            <g id="tesla" transform="translate(390.000000, 618.000000)">
                <path d="M62.4754873,3.08669492 L60.7230508,3.08669492 L60.7230508,8.01758475 L62.4769915,8.01758475 L62.4769915,4.91885593 L68.8624788,4.91885593 L68.8624788,8.01758475 L70.6179237,8.01758475 L70.6179237,3.10925847 L62.4754873,3.10925847 L62.4754873,3.08669492 Z M33.2827542,1.80508475 L39.5403814,1.80508475 C40.4910593,1.53733051 41.1815042,0.834851695 41.3770551,0.0451271186 L31.5288136,0.0451271186 L31.5288136,4.93389831 L39.6682415,4.93389831 L39.6682415,6.20798729 L33.3654873,6.20798729 C32.4358686,6.56148305 31.7529449,7.16618644 31.5604025,7.94538136 L31.5288136,8.02209746 L41.4221822,8.02209746 L41.4221822,3.15889831 L33.2827542,3.15889831 L33.2827542,1.80508475 Z M48.7508263,6.14932203 L48.7508263,0.0406144068 L46.9908686,0.0406144068 L46.9908686,8.01307203 L55.0310169,8.01307203 L55.0310169,7.93786017 C55.9079873,7.57383475 56.5352542,6.93904661 56.7232839,6.19294492 L48.7508263,6.14932203 Z M62.2483475,1.80508475 L69.0444915,1.80508475 C69.9936653,1.45309322 70.6991525,0.79875 70.885678,0 L60.4086653,0 C60.5981992,0.794237288 61.3021822,1.44858051 62.2483475,1.80508475 Z M17.6522246,1.80508475 L24.4423517,1.80508475 C25.3915254,1.45309322 26.0849788,0.79875 26.2835381,0 L15.8110381,0 C16.0020763,0.794237288 16.6970339,1.44858051 17.6522246,1.80508475 Z M17.6522246,8.00705508 L24.4423517,8.00705508 C25.3915254,7.65807203 26.0849788,6.99470339 26.2835381,6.20197034 L15.8110381,6.20197034 C16.0020763,6.98868644 16.6970339,7.65355932 17.6522246,8.00254237 L17.6522246,8.00705508 Z M0,0.0601694915 C0.204576271,0.843877119 0.902542373,1.50423729 1.83667373,1.85021186 L4.69472458,1.85021186 L4.84514831,1.91338983 L4.84514831,8.01758475 L6.61864407,8.01758475 L6.61864407,1.91338983 L6.77809322,1.85021186 L9.63614407,1.85021186 C10.5777966,1.50423729 11.2727542,0.843877119 11.474322,0.0601694915 L11.474322,0.0406144068 L0,0.0406144068 L0,0.0601694915 Z M17.6522246,4.92938559 L24.4423517,4.92938559 C25.3915254,4.58491525 26.0849788,3.9170339 26.2835381,3.13332627 L15.8110381,3.13332627 C16.0020763,3.9170339 16.7030508,4.58491525 17.6522246,4.92938559 L17.6522246,4.92938559 Z" id="path441"></path>
            </g>
        </g>
    </g>
</svg>