<?xml version="1.0" encoding="UTF-8"?>
<svg width="71px" height="18px" viewBox="0 0 71 18" version="1.1" xmlns="http://www.w3.org/2000/svg" xmlns:xlink="http://www.w3.org/1999/xlink">
    <!-- Generator: Sketch 56.3 (81716) - https://sketch.com -->
    <title>Group 14</title>
    <desc>Created with Sketch.</desc>
    <defs>
        <polygon id="path-1" points="0.00622807018 0.0989017544 17.344345 0.0989017544 17.344345 17.4385965 0.00622807018 17.4385965"></polygon>
        <polygon id="path-3" points="0 0.407315789 16.5868041 0.407315789 16.5868041 15.4688655 0 15.4688655"></polygon>
        <polygon id="path-5" points="0.40474152 0.40735731 16.9968187 0.40735731 16.9968187 15.4701526 0.40474152 15.4701526"></polygon>
    </defs>
    <g id="Page-1" stroke="none" stroke-width="1" fill="none" fill-rule="evenodd">
        <g id="ν† ν”½μ„ΈνΈ" transform="translate(-539.000000, -739.000000)">
            <g id="Group-14" transform="translate(539.000000, 739.000000)">
                <g id="Group-3" transform="translate(35.292398, 0.316261)">
                    <mask id="mask-2" fill="white">
                        <use xlink:href="#path-1"></use>
                    </mask>
                    <g id="Clip-2"></g>
                    <path d="M8.67238012,13.0238082 C6.3281345,13.0238082 4.4194386,11.1159427 4.4194386,8.76629942 C4.4194386,6.41914737 6.3281345,4.51294269 8.67238012,4.51294269 C11.0270058,4.51294269 12.9319649,6.41914737 12.9319649,8.76629942 C12.9319649,11.1159427 11.0270058,13.0238082 8.67238012,13.0238082 M8.6707193,0.0989017544 C3.88174854,0.0989017544 0.00622807018,3.98189591 0.00622807018,8.76879064 C0.00622807018,13.5552702 3.88174854,17.4386795 8.6707193,17.4386795 C13.4609357,17.4386795 17.344345,13.5552702 17.344345,8.76879064 C17.344345,3.98189591 13.4609357,0.0989017544 8.6707193,0.0989017544" id="Fill-1" fill="#F05A22" mask="url(#mask-2)"></path>
                </g>
                <g id="Group-6" transform="translate(0.000000, 1.146671)">
                    <mask id="mask-4" fill="white">
                        <use xlink:href="#path-3"></use>
                    </mask>
                    <g id="Clip-5"></g>
                    <path d="M16.0167281,0.407315789 L0.472710526,0.407315789 C-0.00145321637,0.407315789 0.000207602339,0.696298246 0.000207602339,0.696298246 C0.000207602339,0.696298246 -0.0172309942,0.883555556 0.197429825,0.999397661 C0.770827485,1.27716959 1.09510234,1.66704678 1.17316082,2.4227193 L1.17316082,4.24961988 C1.17316082,4.56268421 1.43100292,4.8188655 1.74282164,4.8188655 L6.10745322,4.8188655 C6.42051754,4.8188655 6.67462281,5.07587719 6.67462281,5.38769591 L6.67462281,14.8996199 C6.67462281,15.2126842 6.93246491,15.4688655 7.24552924,15.4688655 L10.5190029,15.4688655 C10.831652,15.4688655 11.0882485,15.2126842 11.0882485,14.8996199 L11.0882485,5.38769591 C11.0882485,5.07587719 11.3431842,4.8188655 11.6558333,4.8188655 L16.0167281,4.8188655 C16.331038,4.8188655 16.5868041,4.56268421 16.5868041,4.24961988 L16.5868041,0.976976608 C16.5868041,0.663497076 16.331038,0.407315789 16.0167281,0.407315789" id="Fill-4" fill="#3D474E" mask="url(#mask-4)"></path>
                </g>
                <g id="Group-9" transform="translate(53.976608, 1.146671)">
                    <mask id="mask-6" fill="white">
                        <use xlink:href="#path-5"></use>
                    </mask>
                    <g id="Clip-8"></g>
                    <path d="M16.7995135,14.8772404 C16.2227942,14.5982228 15.8960281,14.2058544 15.8221216,13.4406322 L15.820876,0.976602924 C15.820876,0.663538596 15.5646947,0.40735731 15.2512152,0.40735731 L11.9777415,0.40735731 C11.6655076,0.40735731 11.4105719,0.663538596 11.4105719,0.976602924 L11.4105719,7.94664386 C11.4105719,8.25970819 11.2494725,8.31576082 11.0539111,8.07079006 L5.25225614,0.851211111 C5.05627953,0.606240351 4.63775322,0.40735731 4.3259345,0.40735731 L0.973156725,0.40735731 C0.660922807,0.40735731 0.40474152,0.663538596 0.40474152,0.976602924 L0.40474152,14.898831 C0.40474152,15.2118953 0.660922807,15.4676614 0.973156725,15.4676614 L4.24704561,15.4676614 C4.56052515,15.4676614 4.81795205,15.2118953 4.81795205,14.898831 L4.81795205,7.92837485 C4.81795205,7.61572573 4.97946667,7.55801228 5.17710409,7.80090702 L11.0514199,15.0275444 C11.2494725,15.2704392 11.6655076,15.468907 11.9777415,15.468907 L15.1386947,15.468907 L15.1386947,15.4701526 L16.5238175,15.4701526 C16.9983965,15.4701526 16.9967357,15.1803398 16.9967357,15.1803398 C16.9967357,15.1803398 17.0137591,14.9939129 16.7995135,14.8772404" id="Fill-7" fill="#3D474E" mask="url(#mask-6)"></path>
                </g>
                <path d="M35.6221947,15.9440257 C35.1874754,15.6994702 34.9703234,15.3619088 34.8241713,14.794324 L31.5224637,2.10732982 C31.4439901,1.80506082 31.2023409,1.55801404 30.9872649,1.55801404 C30.9872649,1.55801404 30.656762,1.48742924 30.2660544,2.02179766 L25.7095982,8.48902573 C25.6203292,8.61732398 25.4999199,8.6812655 25.3811713,8.6812655 C25.2620076,8.6812655 25.1428439,8.61732398 25.0539901,8.48902573 L20.4962883,2.02179766 C20.1055807,1.48742924 19.7750778,1.55801404 19.7750778,1.55801404 C19.560417,1.55801404 19.3187678,1.80506082 19.2398789,2.10732982 L15.9385865,14.794324 C15.7924345,15.3619088 15.5740368,15.6994702 15.1409784,15.9440257 C14.8283292,16.0922538 14.8336523,16.3152187 14.8336523,16.3152187 C14.8336523,16.3152187 14.821686,16.6166573 15.1036099,16.6166573 L19.3075573,16.6154117 C19.6206216,16.6154117 19.9411596,16.3687801 20.0188029,16.0656807 L21.2411655,11.3776047 C21.3208848,11.0753357 21.5326392,11.0358912 21.7132532,11.2929029 L25.0539901,16.0353708 C25.1428439,16.1628386 25.2620076,16.2276105 25.3811713,16.2280257 C25.4999199,16.2276105 25.6203292,16.1628386 25.7095982,16.0353708 L29.0499199,11.2929029 C29.2305339,11.0358912 29.4422883,11.0753357 29.5215924,11.3776047 L30.7435398,16.0656807 C30.8220135,16.3687801 31.1425515,16.6154117 31.456031,16.6154117 L35.659148,16.6166573 C35.9398263,16.6166573 35.9286771,16.3152187 35.9286771,16.3152187 C35.9286771,16.3152187 35.9340135,16.0922538 35.6221947,15.9440257" id="Fill-10" fill="#3D474E"></path>
                <path d="M46.2682918,9.08442924 C46.2682918,10.3549556 45.2385842,11.3846632 43.9680579,11.3846632 C42.6975316,11.3846632 41.6682392,10.3549556 41.6682392,9.08442924 C41.6682392,7.81431813 42.6975316,6.78461053 43.9680579,6.78461053 C45.2385842,6.78461053 46.2682918,7.81431813 46.2682918,9.08442924" id="Fill-12" fill="#3D474E"></path>
            </g>
        </g>
    </g>
</svg>