<?xml version="1.0" encoding="UTF-8"?>
<svg width="71px" height="18px" viewBox="0 0 71 18" version="1.1" xmlns="http://www.w3.org/2000/svg" xmlns:xlink="http://www.w3.org/1999/xlink">
    <!-- Generator: Sketch 63.1 (92452) - https://sketch.com -->
    <title>Trends</title>
    <desc>Created with Sketch.</desc>
    <g id="Page-1" stroke="none" stroke-width="1" fill="none" fill-rule="evenodd">
        <g id="ν† ν”½μ„ΈνΈ" transform="translate(-352.000000, -370.000000)" fill="#0050FF" fill-rule="nonzero">
            <path d="M358.558011,387.520048 L360.308288,374.138184 L364.229795,374.138184 L364.595359,371.302292 L353.085626,371.302292 L352.708984,374.138184 L356.918511,374.138184 L355.157157,387.520048 L358.558011,387.520048 Z M367.519872,387.520048 L368.10699,382.889568 C368.254693,381.693176 368.5741,380.797729 369.065212,380.203225 C369.556323,379.608722 370.219139,379.31147 371.053659,379.31147 C371.253058,379.31147 371.457995,379.329933 371.668472,379.366859 C371.878948,379.403785 372.098656,379.459173 372.327595,379.533024 L372.327595,379.533024 L372.936869,376.398035 C372.789166,376.361109 372.637771,376.333415 372.482683,376.314952 C372.327595,376.296489 372.154044,376.287258 371.962031,376.287258 C371.275213,376.287258 370.653016,376.479271 370.095438,376.863298 C369.53786,377.247325 369.063365,377.812288 368.671953,378.558187 L368.671953,378.558187 L368.948896,376.652822 L365.813906,376.652822 L364.384882,387.520048 L367.519872,387.520048 Z M378.863439,387.952078 C379.978595,387.952078 380.955279,387.756372 381.793491,387.36496 C382.631704,386.973548 383.316675,386.390122 383.848405,385.614683 L383.848405,385.614683 L381.743642,383.864406 C381.344844,384.396136 380.929431,384.782009 380.4974,385.022026 C380.06537,385.262043 379.572412,385.382051 379.018527,385.382051 C378.213547,385.382051 377.580272,385.171575 377.118701,384.750622 C376.65713,384.32967 376.426345,383.753629 376.426345,383.022501 L376.426345,383.022501 L376.426345,382.778791 L384.646,382.778791 L384.646,382.723403 C384.67554,382.331991 384.690311,382.047663 384.690311,381.87042 C384.690311,380.127528 384.225047,378.761278 383.29452,377.77167 C382.363993,376.782062 381.082672,376.287258 379.450557,376.287258 C377.68551,376.287258 376.223254,376.879915 375.063787,378.065229 C373.904321,379.250543 373.324588,380.755264 373.324588,382.579393 C373.324588,384.204122 373.826777,385.505752 374.831156,386.484283 C375.835534,387.462813 377.179628,387.952078 378.863439,387.952078 Z M381.710409,380.939893 L376.59251,380.939893 C376.814064,380.164453 377.166704,379.581028 377.650431,379.189616 C378.134157,378.798204 378.74897,378.602497 379.494868,378.602497 C380.196456,378.602497 380.739263,378.805589 381.12329,379.211771 C381.507317,379.617954 381.703024,380.193994 381.710409,380.939893 L381.710409,380.939893 Z M389.409412,387.520048 L390.107307,382.191673 C390.25501,381.069133 390.581802,380.240151 391.087684,379.704729 C391.593565,379.169307 392.304384,378.901595 393.220141,378.901595 C393.744486,378.901595 394.150668,379.041913 394.438688,379.322548 C394.726709,379.603183 394.870719,379.998288 394.870719,380.507862 C394.870719,380.611254 394.86518,380.74234 394.854102,380.901121 C394.843025,381.059901 394.826408,381.246376 394.804253,381.460545 L394.804253,381.460545 L394.006658,387.520048 L397.141648,387.520048 L397.894932,381.77072 C397.902317,381.719024 397.913394,381.637788 397.928165,381.527011 C398.053712,380.618639 398.116486,379.961362 398.116486,379.55518 C398.116486,378.528646 397.789693,377.727359 397.136109,377.151319 C396.482524,376.575278 395.568614,376.287258 394.394378,376.287258 C393.670634,376.287258 392.983817,376.453423 392.333925,376.785754 C391.684033,377.118085 391.026756,377.64243 390.362094,378.358788 L390.362094,378.358788 L390.605803,376.652822 L387.703446,376.652822 L386.274422,387.520048 L389.409412,387.520048 Z M404.464009,387.929923 C405.209908,387.929923 405.859799,387.795144 406.413684,387.525587 C406.96757,387.256029 407.421755,386.851693 407.776242,386.312578 L407.776242,386.312578 L407.621154,387.520048 L410.745066,387.520048 L412.99384,370.349609 L409.869928,370.349609 L408.983711,376.785754 C408.968941,376.926072 408.957863,377.060851 408.950478,377.19009 C408.943093,377.31933 408.939401,377.443031 408.939401,377.561193 C408.939401,377.635045 408.943093,377.755053 408.950478,377.921219 C408.957863,378.087384 408.961556,378.21847 408.961556,378.314477 C408.555374,377.64243 408.042107,377.136548 407.421755,376.796832 C406.801404,376.457116 406.088739,376.287258 405.283759,376.287258 C403.762421,376.287258 402.512487,376.894685 401.533957,378.10954 C400.555426,379.324394 400.066161,380.880812 400.066161,382.778791 C400.066161,384.410906 400.450188,385.677457 401.218242,386.578443 C401.986296,387.479429 403.068218,387.929923 404.464009,387.929923 Z M405.737945,385.160497 C404.932965,385.160497 404.295997,384.927865 403.827041,384.462602 C403.358085,383.997338 403.123607,383.369602 403.123607,382.579393 C403.123607,381.405156 403.383933,380.480168 403.904585,379.804428 C404.425237,379.128688 405.132364,378.790818 406.025965,378.790818 C406.816174,378.790818 407.430987,379.027143 407.870402,379.499791 C408.309818,379.97244 408.529526,380.63341 408.529526,381.4827 C408.529526,382.59047 408.272892,383.480379 407.759625,384.152426 C407.246358,384.824474 406.572465,385.160497 405.737945,385.160497 Z M417.38061,387.929923 C418.628697,387.929923 419.644153,387.582821 420.426978,386.888619 C421.209802,386.194416 421.601214,385.29343 421.601214,384.185659 C421.601214,383.572693 421.457204,383.035425 421.169184,382.573854 C420.881164,382.112283 420.441748,381.711639 419.850937,381.371923 C419.673694,381.268531 419.422599,381.124521 419.097653,380.939893 C417.967728,380.312156 417.402765,379.798889 417.402765,379.400092 C417.402765,379.119457 417.509849,378.890518 417.724018,378.713275 C417.938187,378.536031 418.21513,378.44741 418.554846,378.44741 C418.924103,378.44741 419.298898,378.554494 419.679233,378.768663 C420.059567,378.982832 420.449133,379.307778 420.84793,379.743501 L420.84793,379.743501 L422.708984,378.05969 C422.162484,377.476264 421.553211,377.035003 420.881164,376.735905 C420.209116,376.436807 419.496451,376.287258 418.743167,376.287258 C417.502464,376.287258 416.485162,376.617743 415.69126,377.278712 C414.897358,377.939682 414.500407,378.776048 414.500407,379.787812 C414.500407,380.400778 414.649956,380.934354 414.949054,381.38854 C415.248152,381.842725 415.785421,382.320913 416.56086,382.823102 C416.752873,382.948649 417.018738,383.10743 417.358454,383.299443 C418.20036,383.779477 418.621312,384.241048 418.621312,384.684156 C418.621312,384.986947 418.506843,385.232502 418.277904,385.420823 C418.048964,385.609144 417.749866,385.703305 417.38061,385.703305 C416.930116,385.703305 416.474084,385.555602 416.012513,385.260196 C415.550942,384.964791 415.135529,384.554916 414.766272,384.030572 L414.766272,384.030572 L412.927373,385.858392 C413.58465,386.55998 414.277007,387.080632 415.004443,387.420348 C415.731878,387.760065 416.523934,387.929923 417.38061,387.929923 Z" id="Trends"></path>
        </g>
    </g>
</svg>