<?xml version="1.0" encoding="UTF-8"?>
<svg width="43px" height="35px" viewBox="0 0 43 35" version="1.1" xmlns="http://www.w3.org/2000/svg" xmlns:xlink="http://www.w3.org/1999/xlink">
    <!-- Generator: Sketch 56.3 (81716) - https://sketch.com -->
    <title>twitter</title>
    <desc>Created with Sketch.</desc>
    <g id="Page-1" stroke="none" stroke-width="1" fill="none" fill-rule="evenodd">
        <g id="ν† ν”½μ„ΈνΈ" transform="translate(-121.000000, -563.000000)" fill="#000000" fill-rule="nonzero">
            <g id="twitter" transform="translate(121.000000, 563.000000)">
                <path d="M42.9652344,4.1234375 C41.3602121,4.83408173 39.6579106,5.30062479 37.9148437,5.50757813 C39.7277344,4.41820313 41.1222656,2.69664063 41.7785156,0.642304688 C40.0525163,1.66653103 38.1641156,2.38813683 36.1949219,2.7759375 C34.5329719,1.00109071 32.2088332,-0.00422057424 29.7773437,-1.32359855e-05 C24.9232812,-1.32359855e-05 20.9835937,3.93585938 20.9835937,8.79101563 C20.9835937,9.48089844 21.06125,10.1532813 21.2132812,10.7953125 C13.9042969,10.4280859 7.4265625,6.92945313 3.08875,1.60945312 C2.33132812,2.90636719 1.89929687,4.41820312 1.89929687,6.02984375 C1.89929687,9.07867187 3.45105469,11.7701172 5.81,13.3470313 C4.41335266,13.3042251 3.04733898,12.9270898 1.8265625,12.2472656 L1.8265625,12.359375 C1.8265625,16.6178906 4.85789063,20.1714844 8.87851563,20.9808594 C7.58361429,21.3314723 6.22591745,21.3829002 4.90820312,21.13125 C6.02765625,24.6246875 9.27609375,27.1660156 13.1222656,27.2398438 C10.1133594,29.5941406 6.32242187,31.0023438 2.20171875,31.0023438 C1.501032,31.001542 0.800970784,30.9604586 0.105,30.8792969 C3.99601562,33.3730469 8.61902344,34.8304688 13.584375,34.8304688 C29.7582031,34.8304688 38.6011719,21.4309375 38.6011719,9.8109375 C38.6011719,9.43085937 38.6011719,9.05078125 38.5738281,8.6734375 C40.2945194,7.42851237 41.7804766,5.88793116 42.9625,4.1234375 L42.9652344,4.1234375 Z" id="Path"></path>
            </g>
        </g>
    </g>
</svg>