<?xml version="1.0" encoding="UTF-8"?>
<svg width="71px" height="15px" viewBox="0 0 71 15" version="1.1" xmlns="http://www.w3.org/2000/svg" xmlns:xlink="http://www.w3.org/1999/xlink">
    <!-- Generator: Sketch 54.1 (76490) - https://sketchapp.com -->
    <title>uber</title>
    <desc>Created with Sketch.</desc>
    <g id="Page-1" stroke="none" stroke-width="1" fill="none" fill-rule="evenodd">
        <g id="ν† ν”½μ„ΈνΈ" transform="translate(-116.000000, -433.000000)" fill="#000000" fill-rule="nonzero">
            <g id="uber" transform="translate(116.000000, 433.000000)">
                <path d="M11.1588946,0.358264463 L11.1588946,8.62190083 C11.1687047,9.9946281 10.8494704,10.9909091 10.2011917,11.6107438 C9.55291307,12.2305785 8.52735751,12.5404959 7.12452504,12.5404959 C5.72659758,12.5413223 4.70063328,12.231405 4.04663212,11.6107438 C3.39263097,10.9900826 3.07421416,9.99380165 3.09138169,8.62190083 L3.09138169,0.00743801653 L0.367875648,0.00743801653 C0.122625216,-0.00247933884 0,0.11446281 0,0.358264463 L0,8.75950413 C0.0302475533,11.0363636 0.688744963,12.65 1.97549223,13.6004132 C3.26223949,14.5508264 4.97654001,15.0107438 7.11839378,14.9801653 C9.26024755,15.0107438 10.9770006,14.5508264 12.2686528,13.6004132 C13.5603051,12.65 14.221255,11.0363636 14.2515026,8.75950413 L14.2515026,0.00743801653 L11.5267703,0.00743801653 C11.2815199,-0.00247933884 11.1588946,0.11446281 11.1588946,0.358264463 Z M50.7092055,2.40123967 C50.7986644,2.40667173 50.8877437,2.38555858 50.9654922,2.34049587 C51.0308561,2.29381479 51.0828827,2.23052871 51.1163212,2.15702479 L51.9011226,0.173553719 C51.9411802,0.0619834711 51.9003051,0.00619834711 51.7784974,0.00619834711 L40.7986356,0.00619834711 C40.2958722,0.00619834711 39.9337191,0.0888429752 39.7121762,0.254132231 C39.4906333,0.419421488 39.3802706,0.67768595 39.3810881,1.02892562 L39.3810881,13.8520661 C39.3604683,14.0969163 39.4506417,14.3380349 39.6263385,14.5078512 C39.7898388,14.65 40.0690155,14.7210744 40.4638687,14.7210744 L50.7055268,14.7210744 C50.7949856,14.7265064 50.884065,14.7053933 50.9618135,14.6603306 C51.0271773,14.6136495 51.0792039,14.5503634 51.1126425,14.4768595 L51.8974439,12.5095041 C51.9375014,12.3871901 51.8966264,12.3260331 51.7748187,12.3260331 L42.4283247,12.3260331 L42.4283247,9.72272727 C42.4185147,9.27561983 42.5542199,8.94504132 42.8354404,8.73099174 C43.1166609,8.51694215 43.5842717,8.41033058 44.2382729,8.41115702 L48.2959413,8.41115702 C48.3854001,8.41658908 48.4744795,8.39547594 48.552228,8.35041322 C48.6175918,8.30373214 48.6696184,8.24044607 48.703057,8.16694215 L49.4572021,6.27644628 C49.4972596,6.15413223 49.4563846,6.09297521 49.3345769,6.09297521 L42.4283247,6.09297521 L42.4283247,2.40123967 L50.7092055,2.40123967 Z M31.3724352,6.9607438 C31.9333994,6.67884638 32.3868009,6.21786962 32.6624525,5.64917355 C32.93682,5.05288452 33.0735167,4.40134545 33.0622107,3.74380165 C33.0115256,2.15702479 32.4609384,1.12520661 31.4104491,0.648347107 C30.3599597,0.171487603 29.1304375,-0.0421487603 27.7218826,0.00743801653 L21.5231779,0.00743801653 C21.0106045,0.00743801653 20.6427288,0.0900826446 20.4195509,0.255371901 C20.1963731,0.420661157 20.0933679,0.678512397 20.1105354,1.02892562 L20.1105354,13.8520661 C20.0899156,14.0969163 20.1800891,14.3380349 20.3557858,14.5078512 C20.5192861,14.65 20.7984629,14.7210744 21.1933161,14.7210744 L28.8255095,14.7210744 C30.2970121,14.7309917 31.4783017,14.418595 32.3693782,13.7838843 C33.2604548,13.1491736 33.7231606,12.1045455 33.7574957,10.65 C33.7767021,9.82971245 33.5753943,9.01952655 33.1750259,8.30578512 C32.7875302,7.6446281 32.1866667,7.19628099 31.3724352,6.9607438 Z M23.1074957,2.34049587 L27.9487392,2.34049587 C28.7327231,2.34049587 29.2730915,2.49545455 29.5698446,2.8053719 C29.8665976,3.11528926 30.0100691,3.59049587 30.0002591,4.23099174 C30.0100691,4.8714876 29.8665976,5.34917355 29.5698446,5.66404959 C29.2730915,5.97892562 28.7327231,6.13636364 27.9487392,6.13636364 L23.1074957,6.13636364 L23.1074957,2.34049587 Z M28.5030052,12.3892562 L23.1074957,12.3892562 L23.1074957,9.66198347 C23.0976857,9.21487603 23.2358434,8.88429752 23.5219689,8.67024793 C23.8080944,8.45619835 24.2781577,8.34958678 24.9321589,8.35041322 L28.5066839,8.35041322 C29.3511629,8.35041322 29.9319977,8.51818182 30.2491883,8.85371901 C30.5663788,9.1892562 30.7147553,9.69752066 30.6943178,10.3785124 C30.7147553,11.0495868 30.5663788,11.5528926 30.2491883,11.8884298 C29.9319977,12.2239669 29.3511629,12.3909091 28.5066839,12.3892562 L28.5030052,12.3892562 Z M70.9460449,14.4632231 L67.6768566,8.80165289 C68.488937,8.62344433 69.22105,8.18154706 69.7614853,7.54338843 C70.3149338,6.89793388 70.6010593,5.89421488 70.6198618,4.5322314 C70.5994243,2.78347107 70.0815371,1.58512397 69.0662003,0.937190083 C68.0508636,0.289256198 66.6275936,-0.020661157 64.7963903,0.00743801653 L58.5670294,0.00743801653 C58.064266,0.00743801653 57.7021128,0.0900826446 57.4805699,0.255371901 C57.2590271,0.420661157 57.1466206,0.678512397 57.1433506,1.02892562 L57.1433506,14.3714876 C57.1433506,14.6053719 57.2659758,14.722314 57.5112263,14.722314 L60.1660622,14.722314 L60.1660622,10.4219008 C60.1562522,9.97479339 60.2944099,9.64421488 60.5805354,9.43016529 C60.8666609,9.2161157 61.3367242,9.10950413 61.9907254,9.11033058 L64.6884801,9.11033058 L67.6314853,14.4780992 C67.6649239,14.5516031 67.7169505,14.6148892 67.7823143,14.6615702 C67.8600628,14.706633 67.9491422,14.7277461 68.038601,14.722314 L70.8136097,14.722314 C70.9043523,14.7123967 70.9570812,14.6793388 70.9717962,14.6231405 C70.9872051,14.5690824 70.9791817,14.5109522 70.9497237,14.4632231 L70.9460449,14.4632231 Z M65.2488774,6.81818182 L60.1660622,6.81822619 L60.1660622,2.37024793 L65.2488774,2.37024793 C66.174289,2.37024793 66.7951813,2.55578512 67.1115544,2.9268595 C67.4279275,3.29793388 67.576304,3.85454545 67.5566839,4.59669421 C67.5771215,5.34876033 67.428745,5.90785124 67.1115544,6.27396694 C66.7943638,6.64008264 66.1734715,6.8214876 65.2488774,6.81818182 Z" id="Shape"></path>
            </g>
        </g>
    </g>
</svg>