<?xml version="1.0" encoding="UTF-8"?>
<svg width="71px" height="18px" viewBox="0 0 71 18" version="1.1" xmlns="http://www.w3.org/2000/svg" xmlns:xlink="http://www.w3.org/1999/xlink">
    <!-- Generator: Sketch 56.3 (81716) - https://sketch.com -->
    <title>Walmart</title>
    <desc>Created with Sketch.</desc>
    <g id="Page-1" stroke="none" stroke-width="1" fill="none" fill-rule="evenodd">
        <g id="ν† ν”½μ„ΈνΈ" transform="translate(-398.000000, -715.000000)" fill-rule="nonzero">
            <g id="Walmart" transform="translate(398.000000, 715.000000)">
                <path d="M63.3274571,5.80386403 C63.7274103,5.80386403 64.0607046,5.59277762 64.1051438,5.32614215 L64.505097,0.848888274 C64.505097,0.404495829 63.9829359,0.0378720622 63.3385669,0.0378720622 C62.683088,0.0378720622 62.1720367,0.404495829 62.1720367,0.848888274 L62.5719899,5.32614215 C62.6053193,5.59277762 62.9275039,5.80386403 63.3274571,5.80386403 L63.3274571,5.80386403" id="path2974" fill="#FDBB30"></path>
                <path d="M60.9055182,7.20370023 C61.1054948,6.85929609 61.094385,6.4704527 60.8832986,6.29269572 L57.2059511,3.71521954 C56.8282176,3.49302332 56.2505074,3.75965879 55.9283229,4.32625915 C55.6061383,4.89285952 55.6616874,5.52611875 56.039421,5.73720516 L60.1167217,7.63698287 C60.3611375,7.72586135 60.7055416,7.54810438 60.9055182,7.20370023 L60.9055182,7.20370023" id="path2976" fill="#FDBB30"></path>
                <path d="M65.7493959,7.20370023 C65.9493725,7.54810438 66.2937766,7.73697117 66.5493023,7.63698287 L70.626603,5.73720516 C71.0154464,5.51500894 71.0709954,4.88174971 70.7377011,4.32625915 C70.4155166,3.75965879 69.8378064,3.49302332 69.448963,3.71521954 L65.7716155,6.29269572 C65.5716389,6.4704527 65.5494193,6.85929609 65.7493959,7.20370023 L65.7493959,7.20370023" id="path2978" fill="#FDBB30"></path>
                <path d="M63.3274571,11.4032088 C63.7274103,11.4032088 64.0607046,11.6142952 64.1051438,11.8809307 L64.505097,16.3581846 C64.505097,16.802577 63.9829359,17.1692008 63.3385669,17.1692008 C62.683088,17.1692008 62.1720367,16.802577 62.1720367,16.3581846 L62.5719899,11.8809307 C62.6053193,11.6031854 62.9275039,11.4032088 63.3274571,11.4032088 L63.3274571,11.4032088" id="path2980" fill="#FDBB30"></path>
                <path d="M65.7493959,10.0033726 C65.9493725,9.65896849 66.2937766,9.4701017 66.5493023,9.57009 L70.626603,11.4698677 C71.0154464,11.6920639 71.0709954,12.3253232 70.7377011,12.8919235 C70.4155166,13.4585239 69.8378064,13.7251594 69.448963,13.5029631 L65.7716155,10.925487 C65.5716389,10.7366202 65.5494193,10.3477768 65.7493959,10.0033726 L65.7493959,10.0033726" id="path2982" fill="#FDBB30"></path>
                <path d="M60.9055182,10.0033726 C61.1054948,10.3477768 61.094385,10.7366202 60.8832986,10.9143771 L57.2059511,13.4918533 C56.8282176,13.7140495 56.2505074,13.4474141 55.9283229,12.8808137 C55.6061383,12.3142133 55.6616874,11.6809541 56.039421,11.4587579 L60.1056118,9.57009 C60.3611375,9.4701017 60.7055416,9.64785868 60.9055182,10.0033726 L60.9055182,10.0033726" id="path2984" fill="#FDBB30"></path>
                <path d="M40.1079518,10.9032673 C40.1079518,11.0365851 40.096842,11.1810126 40.0635126,11.3032205 C39.9079752,11.8253817 39.3747043,12.2586643 38.6970058,12.2586643 C38.1415153,12.2586643 37.6971228,11.9364798 37.6971228,11.2698911 C37.6971228,10.2477885 38.8303236,9.95893339 40.1079518,9.9700432 L40.1079518,10.9032673 L40.1079518,10.9032673 Z M42.1188276,9.11458774 C42.1188276,7.42589645 41.3966899,5.93718176 38.9525315,5.93718176 C37.6971228,5.93718176 36.7083496,6.29269572 36.1639689,6.60377043 L36.5639221,7.95916739 C37.0638636,7.64809268 37.8526602,7.38145721 38.5970175,7.38145721 C39.8302066,7.38145721 40.041293,8.08137531 40.041293,8.53687757 L40.041293,8.64797568 C37.3416089,8.64797568 35.630698,9.58119981 35.630698,11.4809775 C35.630698,12.6475077 36.4972632,13.7362692 38.0081975,13.7362692 C38.9414217,13.7362692 39.7191084,13.3696454 40.1746107,12.7697156 L40.2190499,12.7697156 C40.2190499,12.7697156 40.5301247,14.0584537 42.2299258,13.569622 C42.1410473,13.0363511 42.1077178,12.4586409 42.1077178,11.7698326 L42.1188276,9.11458774 L42.1188276,9.11458774 Z" id="path2986" fill="#1A75CF"></path>
                <path d="M0.0459729515,3.62634105 C0.0459729515,3.62634105 1.81243292,10.8588281 2.0901782,12.0253583 C2.42347253,13.391865 3.01229252,13.9029163 4.72320343,13.5585122 L5.82307473,9.08125831 C6.10082001,7.9702772 6.2896868,7.1703708 6.46744378,6.03717007 L6.50077321,6.03717007 C6.62298113,7.18148061 6.81184792,7.9702772 7.03404414,9.08125831 C7.03404414,9.08125831 7.47843659,11.1143537 7.71174262,12.1808956 C7.94504866,13.2474375 8.57830789,13.925136 10.2558894,13.5585122 L12.8778048,3.62634105 L10.7558309,3.62634105 L9.85593617,7.92583795 C9.61152032,9.18124661 9.40043391,10.15891 9.22267693,11.2921107 L9.1893475,11.2921107 C9.03381014,10.15891 8.84494336,9.22568586 8.60052751,8.00360663 L7.66730338,3.62634105 L5.45645097,3.62634105 L4.45656796,7.89250852 C4.17882269,9.19235642 3.91218722,10.2366787 3.74554005,11.33655 L3.71221062,11.33655 C3.53445364,10.2922277 3.31225742,8.98127001 3.05673176,7.72586135 C3.05673176,7.72586135 2.46791177,4.6706633 2.25682536,3.62634105 L0.0459729515,3.62634105" id="path2988" fill="#1A75CF"></path>
                <path d="M16.8884466,10.9032673 C16.8884466,11.0365851 16.8773368,11.1810126 16.8328975,11.3032205 C16.6773602,11.8253817 16.1440893,12.2586643 15.4663908,12.2586643 C14.9109002,12.2586643 14.4665078,11.9364798 14.4665078,11.2698911 C14.4665078,10.2477885 15.5997085,9.95893339 16.8773368,9.9700432 L16.8884466,10.9032673 L16.8884466,10.9032673 Z M18.9104322,9.11458774 C18.9104322,7.42589645 18.1882945,5.93718176 15.7441361,5.93718176 C14.4887274,5.93718176 13.4999542,6.29269572 12.9555735,6.60377043 L13.3555267,7.95916739 C13.8554682,7.64809268 14.6442648,7.38145721 15.3886221,7.38145721 C16.6329209,7.38145721 16.8328975,8.08137531 16.8328975,8.53687757 L16.8328975,8.64797568 C14.1332134,8.64797568 12.4223025,9.58119981 12.4223025,11.4809775 C12.4223025,12.6475077 13.2888678,13.7362692 14.7998021,13.7362692 C15.7330262,13.7362692 16.510713,13.3696454 16.9773251,12.7697156 L17.0217643,12.7697156 C17.0217643,12.7697156 17.332839,14.0584537 19.0326401,13.569622 C18.9437617,13.0363511 18.9104322,12.4586409 18.9104322,11.7698326 L18.9104322,9.11458774 L18.9104322,9.11458774 Z" id="path2990" fill="#1A75CF"></path>
                <polyline id="path2992" fill="#1A75CF" points="22.276705 11.4587579 22.276705 3.62634105 20.2547194 3.62634105 20.2547194 13.5585122 22.276705 13.5585122 22.276705 11.4587579"></polyline>
                <path d="M48.6736162,3.62634105 C48.6736162,4.58178481 48.6736162,10.9588164 48.6736162,10.9588164 C48.6736162,11.9698092 48.862483,12.6808371 49.273546,13.1141197 C49.62906,13.4918533 50.21788,13.7362692 50.9177981,13.7362692 C51.5177279,13.7362692 52.1065478,13.6251711 52.3731833,13.5140729 L52.3509637,11.9364798 C52.1398773,11.9920288 51.9065712,12.0253583 51.5843867,12.0253583 C50.8955784,12.0253583 50.6622724,11.5809658 50.6622724,10.6810711 L50.6622724,7.88139871 L52.4176226,7.88139871 L52.4176226,5.98162101 L50.6622724,5.98162101 L50.6622724,3.63745086 L48.6736162,3.63745086" id="path2994" fill="#1A75CF"></path>
                <path d="M43.4631148,6.10382893 L43.4631148,13.569622 L45.5406495,13.569622 L45.5406495,9.74784698 C45.5406495,9.53676057 45.5517593,9.35900359 45.5850887,9.19235642 C45.7406261,8.39245002 46.3516657,7.88139871 47.2293408,7.88139871 C47.4737566,7.88139871 47.6404038,7.90361833 47.8292706,7.93694777 L47.8292706,5.98162101 C47.6737332,5.94829158 47.5626351,5.93718176 47.3737683,5.93718176 C46.5960815,5.93718176 45.7184065,6.43712327 45.3406729,7.51477494 L45.2851238,7.51477494 L45.2851238,6.10382893 L43.4631148,6.10382893" id="path2996" fill="#1A75CF"></path>
                <path d="M23.687651,6.10382893 L23.687651,13.569622 L25.7207464,13.569622 L25.7207464,9.19235642 C25.7207464,8.99237982 25.7429661,8.7701836 25.8207347,8.58131681 C25.9873819,8.13692437 26.3984449,7.62587305 27.0539238,7.62587305 C27.8760498,7.62587305 28.2537834,8.31468134 28.2537834,9.31456434 L28.2537834,13.569622 L30.275769,13.569622 L30.275769,9.13680737 C30.275769,8.93683077 30.2979886,8.70352473 30.3646475,8.53687757 C30.5312947,8.03693607 30.9756871,7.62587305 31.5867267,7.62587305 C32.4199625,7.62587305 32.8199157,8.30357153 32.8199157,9.48121151 C32.8199157,9.48121151 32.8199157,12.6363979 32.8199157,13.569622 L34.8530112,13.569622 L34.8530112,9.1701368 C34.8530112,6.84818628 33.6753712,5.93718176 32.3421939,5.93718176 C31.7533739,5.93718176 31.2867618,6.08160931 30.864589,6.33713497 C30.509075,6.55933119 30.1980003,6.85929609 29.920255,7.2703591 L29.8869256,7.2703591 C29.5647411,6.4704527 28.8092739,5.93718176 27.8316106,5.93718176 C26.5650921,5.93718176 25.9984917,6.58155081 25.6540876,7.11482174 L25.6207581,7.11482174 L25.6207581,6.10382893 L23.687651,6.10382893" id="path2998" fill="#1A75CF"></path>
            </g>
        </g>
    </g>
</svg>