<?xml version="1.0" encoding="UTF-8"?>
<svg width="71px" height="25px" viewBox="0 0 71 25" version="1.1" xmlns="http://www.w3.org/2000/svg" xmlns:xlink="http://www.w3.org/1999/xlink">
    <!-- Generator: Sketch 59.1 (86144) - https://sketch.com -->
    <title>wemakeprice</title>
    <desc>Created with Sketch.</desc>
    <defs>
        <polygon id="path-1" points="0 24.5179856 71 24.5179856 71 0 0 0"></polygon>
    </defs>
    <g id="Page-1" stroke="none" stroke-width="1" fill="none" fill-rule="evenodd">
        <g id="ν† ν”½μ„ΈνΈ" transform="translate(-527.000000, -504.000000)">
            <g id="wemakeprice" transform="translate(527.000000, 504.000000)">
                <path d="M7.40647482,10.0881559 C5.64332435,10.0881559 4.21408166,8.65875459 4.21408166,6.89568345 C4.21408166,5.13261232 5.64332435,3.7032903 7.40647482,3.7032903 C9.16954595,3.7032903 10.5989473,5.13261232 10.5989473,6.89568345 C10.5989473,8.65875459 9.16954595,10.0881559 7.40647482,10.0881559 M7.40647482,0 C3.59806982,0 0.510791367,3.08711978 0.510791367,6.89568345 C0.510791367,10.7042471 3.59806982,13.7913669 7.40647482,13.7913669 C11.2148798,13.7913669 14.3021583,10.7042471 14.3021583,6.89568345 C14.3021583,3.08711978 11.2148798,0 7.40647482,0" id="Fill-1" fill="#D72B28"></path>
                <path d="M0,14.8129496 L0,15.9776151 L0,17.9676269 L0,18.0969717 C0,18.382752 0.227383904,18.6146722 0.507768842,18.6146722 L5.34285134,18.6146722 L5.34285134,24.5179856 L6.88737406,24.5179856 L8.98217686,22.4636631 L8.98217686,18.6146722 L15.3266847,18.6146722 C15.6071485,18.6146722 15.8345324,18.382752 15.8345324,18.0969717 L15.8345324,17.9676269 L15.8345324,15.9776151 L15.8345324,14.8129496 L0,14.8129496 Z" id="Fill-3" fill="#D72B28"></path>
                <mask id="mask-2" fill="white">
                    <use xlink:href="#path-1"></use>
                </mask>
                <g id="Clip-6"></g>
                <path d="M27.8322876,15.1387535 L31.5275312,15.1387535 L31.5275312,3.59982493 L27.8322876,3.59982493 L27.8322876,15.1387535 Z M31.4952298,0 L24.0071942,0 L24.0071942,14.8708632 L28.2374643,18.8992806 L35.2230164,18.8992806 L35.2446043,3.96396076 L31.4952298,0 Z" id="Fill-5" fill="#D72B28" mask="url(#mask-2)"></path>
                <path d="M45.4495911,0 L45.3518408,0 L43.5366167,0 L42.3956835,0 L42.3956835,24.5179856 L44.0041498,24.5079018 C44.0041498,24.5079018 45.971223,22.5000297 45.971223,22.2281634 L45.971223,0.492360597 C45.971223,0.220414936 45.737335,0 45.4495911,0" id="Fill-7" fill="#D72B28" mask="url(#mask-2)"></path>
                <path d="M20.4209406,0 L20.3232647,0 L18.5076742,0 L17.3669065,0 L17.3669065,24.5179856 L18.9755632,24.5079018 C18.9755632,24.5079018 20.942446,22.5000297 20.942446,22.2281634 L20.942446,0.492360597 C20.942446,0.220414936 20.708947,0 20.4209406,0" id="Fill-8" fill="#D72B28" mask="url(#mask-2)"></path>
                <path d="M40.3332695,0 L40.2339951,0 L38.3886925,0 L37.229503,0 L37.229503,7.46607955 L34.7338129,7.46607955 L34.7338129,11.0127274 L37.229503,11.0127274 L37.229503,24.5179856 L38.8643207,24.5079018 C38.8643207,24.5079018 40.8633094,22.5000297 40.8633094,22.2281634 L40.8633094,0.492360597 C40.8633094,0.220414936 40.6260715,0 40.3332695,0" id="Fill-9" fill="#D72B28" mask="url(#mask-2)"></path>
                <path d="M49.5467626,0 L49.5467626,1.95347043 L49.5467626,2.12079788 L49.5467626,3.07673336 C49.5467626,3.35204898 49.7915432,3.57553957 50.0938354,3.57553957 L69.9421359,3.57553957 C70.2440319,3.57553957 70.4892086,3.35204898 70.4892086,3.07673336 L70.4892086,2.12079788 L70.4892086,1.95347043 L70.4892086,0 L49.5467626,0 Z" id="Fill-10" fill="#D72B28" mask="url(#mask-2)"></path>
                <path d="M49.5467626,11.7482014 L49.5467626,13.7016791 L49.5467626,13.8690912 L49.5467626,14.8250681 C49.5467626,15.1003957 49.7915432,15.323741 50.0938354,15.323741 L69.9421359,15.323741 C70.2440319,15.323741 70.4892086,15.1003957 70.4892086,14.8250681 L70.4892086,13.8690912 L70.4892086,13.7016791 L70.4892086,11.7482014 L49.5467626,11.7482014 Z" id="Fill-11" fill="#D72B28" mask="url(#mask-2)"></path>
                <path d="M48.5251799,18.3884892 L48.5251799,20.3419596 L48.5251799,20.5092096 L48.5251799,21.4651451 C48.5251799,21.7406931 48.7879908,21.9640288 49.1123968,21.9640288 L70.4130212,21.9640288 C70.7368716,21.9640288 71,21.7406931 71,21.4651451 L71,20.5092096 L71,20.3419596 L71,18.3884892 L48.5251799,18.3884892 Z" id="Fill-12" fill="#D72B28" mask="url(#mask-2)"></path>
                <polygon id="Fill-13" fill="#D72B28" mask="url(#mask-2)" points="57.2086331 11.7482014 53.6330935 11.7482014 53.6492658 5.69938541 55.8079012 3.57553957 57.2086331 3.57553957"></polygon>
                <polygon id="Fill-14" fill="#D72B28" mask="url(#mask-2)" points="62.3165468 3.57553957 65.8920863 3.57553957 65.8758335 9.62429815 63.7173775 11.7482014 62.3165468 11.7482014"></polygon>
            </g>
        </g>
    </g>
</svg>