<?xml version="1.0" encoding="UTF-8"?>
<svg width="71px" height="15px" viewBox="0 0 71 15" version="1.1" xmlns="http://www.w3.org/2000/svg" xmlns:xlink="http://www.w3.org/1999/xlink">
    <!-- Generator: Sketch 56.3 (81716) - https://sketch.com -->
    <title>wework</title>
    <desc>Created with Sketch.</desc>
    <g id="Page-1" stroke="none" stroke-width="1" fill="none" fill-rule="evenodd">
        <g id="ν† ν”½μ„ΈνΈ" transform="translate(-534.000000, -636.000000)" fill="#333333" fill-rule="nonzero">
            <g id="wework" transform="translate(534.000000, 636.000000)">
                <path d="M0.608149688,7.00405405 C0.999313929,7.1 1.22072765,7.18118503 1.54546778,7.75686071 C2.67467775,9.83076923 3.81126819,12.1113306 4.90357588,14.3623701 C5.04380457,14.4804574 5.19879418,14.5025988 5.44234927,14.5025988 C5.67114345,14.5025988 5.82613306,14.4804574 5.9737422,14.3623701 C6.49775468,13.3733888 7.88528067,10.7238046 8.47571726,9.69054054 C9.16948025,10.9673597 10.3651143,13.2848233 10.8448441,14.3623701 C10.9776923,14.4804574 11.1400624,14.5025988 11.3688565,14.5025988 C11.5976507,14.5025988 11.7674012,14.4804574 11.9002495,14.3623701 C12.8670894,12.2515593 13.9224948,10.0669439 14.9852807,8.02993763 C15.3543035,7.29927235 15.5166736,7.1 16.2694802,6.95977131 L16.5942204,6.90810811 C16.7787318,6.72359667 16.7270686,6.29553015 16.5277963,6.20696466 C16.0185447,6.2512474 15.4207277,6.26600832 14.7564865,6.26600832 C14.1808108,6.26600832 13.634657,6.2512474 12.8744699,6.20696466 C12.6456757,6.29553015 12.6456757,6.76049896 12.7859044,6.90810811 L13.1770686,6.98191268 C13.5756133,7.06309771 13.7527443,7.16642412 13.7527443,7.26237006 C13.7527443,7.40259875 13.6863202,7.67567568 13.538711,8.02993763 C13.1696881,8.9524948 12.8154262,9.92671518 12.2545114,11.0780665 C11.7452599,10.1186071 11.1105405,8.82702703 10.6898545,7.87494802 C10.5570062,7.54282744 10.505343,7.41735967 10.505343,7.26237006 C10.505343,7.15904366 10.8227027,7.06309771 11.3614761,6.96715177 L11.7009771,6.91548857 C11.8633472,6.83430353 11.8854886,6.23648649 11.634553,6.21434511 C10.165842,6.25862786 9.01449064,6.27338877 7.56054054,6.27338877 L2.91085239,6.27338877 C1.94401247,6.27338877 1.20596674,6.25862786 0.261268191,6.21434511 C0.0250935551,6.31029106 0.0250935551,6.7531185 0.187463617,6.91548857 L0.608149688,7.00405405 Z M5.82613306,7.00405405 C6.19661733,6.9956446 6.56711231,7.02034427 6.93320166,7.07785863 C7.39079002,7.15904366 7.78933472,7.80114345 7.78933472,8.11112266 C7.79462875,8.31249466 7.77227912,8.51364132 7.7229106,8.70893971 C7.60482328,9.10748441 6.82987526,10.5392931 6.50513514,11.0780665 C6.11397089,10.4433472 5.19141372,8.64989605 4.87405405,7.95613306 C4.73382536,7.66091476 4.66740125,7.41735967 4.66740125,7.29927235 C4.64968815,7.07785863 5.08808732,7.00405405 5.82613306,7.00405405 Z M19.8120998,14.5025988 C21.1922453,14.5025988 22.897131,13.9269231 23.8418295,12.2367983 C23.8418295,11.8972973 23.494948,11.7349272 23.2440125,11.7718295 C22.6240541,12.6943867 21.7457796,12.8050936 21.1036798,12.8050936 C18.9633472,12.8050936 17.8562786,11.3511435 17.8562786,9.86767152 C17.8562786,9.55031185 17.9079418,9.50602911 18.4319543,9.50602911 L22.8380873,9.50602911 C23.5539917,9.50602911 23.6646985,9.22557173 23.6646985,8.8491684 C23.6646985,7.32141372 22.380499,5.98555094 19.9818503,5.98555094 C17.1108524,5.98555094 15.0148025,7.93399168 15.0148025,10.4433472 C15.0369439,12.6132017 16.7123077,14.5025988 19.8120998,14.5025988 Z M19.8416216,6.90810811 C20.6239501,6.90810811 21.0593971,7.34355509 21.0593971,8.0004158 C21.0593971,8.19968815 21.0077339,8.40634096 20.9044075,8.45800416 C20.6460915,8.59823285 20.2844491,8.63513514 19.9597089,8.63513514 L19.1035759,8.63513514 C18.3655301,8.63513514 18.04079,8.62037422 18.04079,8.33991684 C18.0481705,7.69781705 18.8747817,6.90810811 19.8416216,6.90810811 Z M24.365842,7.00405405 C24.7643867,7.1 24.9858004,7.18118503 25.3105405,7.75686071 C26.4397505,9.83076923 27.5689605,12.1113306 28.6686486,14.3623701 C28.8088773,14.4804574 28.9638669,14.5025988 29.2000416,14.5025988 C29.4362162,14.5025988 29.5838254,14.4804574 29.7314345,14.3623701 C30.2628274,13.3733888 31.642973,10.7238046 32.24079,9.69054054 C32.9271726,10.9673597 34.1228067,13.2848233 34.6099168,14.3623701 C34.7501455,14.4804574 34.9051351,14.5025988 35.1339293,14.5025988 C35.3627235,14.5025988 35.532474,14.4804574 35.6653222,14.3623701 C36.6321622,12.2515593 37.6875676,10.0669439 38.7503534,8.02993763 C39.1193763,7.29927235 39.2743659,7.1 40.034553,6.95977131 L40.3592931,6.90810811 C40.5438046,6.72359667 40.4921414,6.29553015 40.2854886,6.20696466 C39.776237,6.2512474 39.17842,6.26600832 38.5141788,6.26600832 C37.9385031,6.26600832 37.3923493,6.2512474 36.6321622,6.20696466 C36.403368,6.29553015 36.403368,6.76049896 36.5435967,6.90810811 L36.9347609,6.98191268 C37.3259252,7.06309771 37.5104366,7.16642412 37.5104366,7.26237006 C37.5104366,7.40259875 37.4440125,7.67567568 37.3037838,8.02993763 C36.9347609,8.9524948 36.565738,9.92671518 36.0122037,11.0780665 C35.5029522,10.1186071 34.8682328,8.82702703 34.4475468,7.87494802 C34.3073181,7.54282744 34.2630353,7.41735967 34.2630353,7.26237006 C34.2630353,7.15904366 34.580395,7.06309771 35.1191684,6.96715177 L35.4586694,6.91548857 C35.6210395,6.83430353 35.6505613,6.23648649 35.3922453,6.21434511 C33.9235343,6.25862786 32.772183,6.27338877 31.3182328,6.27338877 L26.6685447,6.27338877 C25.7017048,6.27338877 24.963659,6.25862786 24.0189605,6.21434511 C23.7901663,6.31029106 23.7901663,6.7531185 23.9525364,6.91548857 L24.365842,7.00405405 Z M29.5912058,7.00405405 C29.9616901,6.9956446 30.3321851,7.02034427 30.6982744,7.07785863 C31.1558628,7.15904366 31.5544075,7.80114345 31.5544075,8.11112266 C31.5597015,8.31249466 31.5373519,8.51364132 31.4879834,8.70893971 C31.369896,9.10748441 30.594948,10.5392931 30.2702079,11.0780665 C29.8716632,10.4433472 28.9564865,8.64989605 28.6391268,7.95613306 C28.5062786,7.66091476 28.432474,7.41735967 28.432474,7.29927235 C28.4147609,7.07785863 28.8531601,7.00405405 29.5912058,7.00405405 L29.5912058,7.00405405 Z M44.0613306,14.5025988 C46.8880457,14.5025988 49.345738,13.1298337 49.345738,10.2219335 C49.345738,7.41735967 46.9028067,5.98555094 44.1941788,5.98555094 C41.4855509,5.98555094 38.8802495,7.55758836 38.9023909,10.3990644 C38.9348649,13.1445946 41.3187526,14.5025988 44.0613306,14.5025988 Z M44.0613306,6.90810811 C45.3676715,6.90810811 46.0097713,8.57609148 46.0392931,10.5023909 C46.0540541,12.295842 45.6186071,13.587422 44.3048857,13.587422 C42.9764033,13.587422 42.2162162,12.0522869 42.2162162,9.96361746 C42.2162162,7.80114345 43.0531601,6.90810811 44.0613306,6.90810811 Z M53.2721414,7.69781705 C53.4123701,7.69781705 53.6190229,7.71257796 54.1430353,8.09636175 C54.4382536,8.33991684 54.718711,8.45800416 55.0360707,8.45800416 C55.7741164,8.45800416 56.5121622,8.08160083 56.5121622,7.16642412 C56.5121622,6.41361746 55.8626819,5.99293139 55.2427235,5.99293139 C54.2758836,5.99293139 53.6116424,6.6497921 52.991684,6.98929314 C52.8071726,6.95239085 52.7628898,6.89334719 52.7628898,6.7531185 C52.7628898,6.57598753 52.814553,6.29553015 52.8514553,5.89698545 C52.7540478,5.77332767 52.6027457,5.70455397 52.4455301,5.71247401 C51.7296258,6.11839917 50.1428274,6.6497921 49.0800416,6.91548857 C48.925052,7.03357588 48.925052,7.38783784 49.0800416,7.51330561 L49.4121622,7.69043659 C49.8476091,7.92661123 49.8476091,8.16278586 49.8476091,8.96725572 L49.8476091,11.9711019 C49.8476091,13.3586279 49.7590437,13.5431393 48.9914761,13.602183 L48.5560291,13.6390852 C48.3715177,13.764553 48.3715177,14.2147609 48.5781705,14.3402287 C49.3383576,14.2959459 50.3494802,14.281185 51.2941788,14.281185 C52.3717256,14.281185 53.2942827,14.2959459 54.4013514,14.3402287 C54.6080042,14.2147609 54.6080042,13.764553 54.4161123,13.6390852 L53.6780665,13.587422 C52.9178794,13.5283784 52.8219335,13.3660083 52.8219335,11.9711019 L52.8219335,8.90821206 C52.8322661,8.14064449 52.9503534,7.69781705 53.2750936,7.69781705 L53.2721414,7.69781705 Z M62.2762994,13.5209979 L61.9810811,13.5800416 C61.7891892,13.7571726 61.8408524,14.1704782 62.0696466,14.2738046 C62.7191268,14.2369023 63.5383576,14.2147609 64.9037422,14.2147609 C66.239605,14.2147609 67.0883576,14.2295218 67.7968815,14.2738046 C68.0256757,14.2 68.0773389,13.7202703 67.885447,13.5800416 L67.5459459,13.5209979 C66.9481289,13.425052 66.5126819,13.3217256 66.1953222,13.0634096 C65.6196466,12.6058212 63.5900208,9.89719335 63.1840956,9.26247401 C63.0586279,9.10748441 63.0143451,8.98939709 63.0143451,8.93035343 C63.0143451,8.87130977 63.0364865,8.79012474 63.1471933,8.66465696 C63.6355035,8.24739072 64.1507928,7.86277282 64.6897089,7.51330561 C65.3022869,7.1 65.7967775,6.90072765 66.2322245,6.81954262 L66.9628898,6.67931393 C67.1252599,6.52432432 67.1031185,6.08149688 66.8743243,5.98555094 C65.5237006,6.17006237 63.6121622,6.26600832 62.5272349,6.26600832 L61.9810811,6.26600832 C61.7522869,6.3545738 61.7227651,6.78264033 61.9294179,6.95977131 L62.5050936,7.0483368 C62.7117464,7.06309771 62.9405405,7.14428274 62.9405405,7.24022869 C62.9405405,7.36569647 62.8298337,7.57234927 62.3943867,8.02993763 L61.4275468,9.01891892 C61.0781648,9.38051686 60.5944249,9.58096157 60.091684,9.57245322 C59.8407484,9.57245322 59.7669439,9.51340956 59.7669439,9.29199584 L59.7669439,3.0481289 C59.7669439,1.79345114 59.7964657,0.959459459 59.8407484,0.14022869 C59.752183,0.0369022869 59.5824324,0 59.4422037,0 C58.268711,0.435446985 56.8664241,0.915176715 55.9217256,1.10706861 C55.7593555,1.23253638 55.7593555,1.58679834 55.9217256,1.70488565 L56.3128898,1.904158 C56.7704782,2.14033264 56.7704782,2.36174636 56.7704782,3.15883576 L56.7704782,11.9046778 C56.7704782,13.2922037 56.6819127,13.4545738 55.8405405,13.5357588 L55.4050936,13.5726611 C55.2205821,13.6907484 55.2205821,14.1483368 55.4272349,14.2664241 C56.2317048,14.2295218 57.1764033,14.2073805 58.2318087,14.2073805 C59.2872141,14.2073805 60.2540541,14.2221414 60.9920998,14.2664241 C61.1913721,14.1483368 61.1913721,13.6907484 61.0068607,13.5726611 L60.6378378,13.5357588 C59.8259875,13.4471933 59.737422,13.2922037 59.737422,11.9046778 L59.737422,10.7533264 C59.737422,10.3769231 59.8555094,10.2809771 60.010499,10.2809771 C60.240235,10.2745267 60.4573504,10.3858679 60.5861746,10.5761954 L62.2320166,12.7239085 C62.4165281,12.9600832 62.6231809,13.2774428 62.6231809,13.3660083 C62.6482744,13.4471933 62.512474,13.4840956 62.2792516,13.5209979 L62.2762994,13.5209979 Z M69.7379418,14.4730769 C69.0776113,14.4730769 68.5423077,13.9377733 68.5423077,13.2774428 C68.5423077,12.6171124 69.0776113,12.0818087 69.7379418,12.0818087 C70.3982723,12.0818087 70.9335759,12.6171124 70.9335759,13.2774428 C70.9311596,13.9356196 70.3990627,14.4690335 69.740894,14.4730769 L69.7379418,14.4730769 Z M69.7379418,12.3179834 C69.2039708,12.3179834 68.7711019,12.7508523 68.7711019,13.2848233 C68.7711019,13.8187942 69.2039708,14.2516632 69.7379418,14.2516632 C70.2719127,14.2516632 70.7047817,13.8187942 70.7047817,13.2848233 C70.7027714,12.7528373 70.2728713,12.3216206 69.740894,12.3179834 L69.7379418,12.3179834 Z M69.9445946,13.8826403 L69.70842,13.4471933 L69.5165281,13.4471933 L69.5165281,13.8826403 L69.2508316,13.8826403 L69.2508316,12.6648649 L69.8191268,12.6648649 C70.0774428,12.6648649 70.225052,12.8272349 70.225052,13.0560291 C70.2365773,13.2252544 70.1242899,13.37809 69.9593555,13.4176715 L70.2324324,13.8826403 L69.9445946,13.8826403 Z M69.966736,13.0560291 C69.9662161,13.0091614 69.9458268,12.9647171 69.9106404,12.933753 C69.875454,12.902789 69.828778,12.8882158 69.7822245,12.893659 L69.5091476,12.893659 L69.5091476,13.2257796 L69.7822245,13.2257796 C69.82937,13.2283881 69.8755675,13.2118256 69.9103163,13.1798566 C69.9450652,13.1478877 69.9654135,13.1032281 69.966736,13.0560291 Z" id="Shape"></path>
            </g>
        </g>
    </g>
</svg>