<?xml version="1.0" encoding="UTF-8"?>
<svg width="71px" height="31px" viewBox="0 0 71 31" version="1.1" xmlns="http://www.w3.org/2000/svg" xmlns:xlink="http://www.w3.org/1999/xlink">
    <!-- Generator: Sketch 56.3 (81716) - https://sketch.com -->
    <title>xiaomi</title>
    <desc>Created with Sketch.</desc>
    <g id="Page-1" stroke="none" stroke-width="1" fill="none" fill-rule="evenodd">
        <g id="ν† ν”½μ„ΈνΈ" transform="translate(-527.000000, -556.000000)" fill-rule="nonzero">
            <g id="xiaomi" transform="translate(527.000000, 556.000000)">
                <path d="M0.629711752,0 L29.7381375,0 C30.0859177,0 30.3678492,0.281931554 30.3678492,0.629711752 L30.3678492,29.5964523 C30.3678492,29.9442325 30.0859177,30.2261641 29.7381375,30.2261641 L0.629711752,30.2261641 C0.281931554,30.2261641 0,29.9442325 0,29.5964523 L0,0.629711752 C0,0.281931554 0.281931554,0 0.629711752,0 Z" id="path2993" fill="#EF7E20"></path>
                <path d="M23.2993348,7.35818182 L27.0413969,7.35818182 L27.0413969,22.827051 L23.2993348,22.827051 L23.2993348,7.35818182 Z M9.96203991,13.3294235 L13.7891131,13.3294235 L13.7891131,22.7074058 L9.96203991,22.7074058 L9.96203991,13.3294235 Z M3.3595122,7.35818182 L7.10314856,7.39911308 L16.4197339,7.39911308 C18.781153,7.39911308 20.3900665,9.51179601 20.3916408,11.7220843 C20.3916408,15.2516186 20.4341463,22.7892683 20.4341463,22.7892683 L16.8022838,22.8050111 L16.7345898,12.887051 C16.7251441,11.5032594 15.7900222,10.6043459 14.4440133,10.5854545 C12.7028603,10.5602661 8.28385809,10.6137916 7.10314856,10.6279601 L7.10314856,22.827051 L3.3595122,22.827051 L3.3595122,7.35818182 Z" id="path2995" fill="#FFFFFF"></path>
                <path d="M40.3582262,6.05467849 L37.940133,6.03578714 L35.7125277,17.6854545 L37.4867406,17.8035255 C38.3604656,17.8617738 38.4407539,17.0163858 38.5399335,16.3866741 C38.846918,14.4676275 40.3582262,6.05467849 40.3582262,6.05467849 Z" id="path2997" fill="#9E9FA1"></path>
                <path d="M48.2941685,6.05467849 L50.7075388,6.03578714 L52.2094013,17.6854545 L50.4178714,17.8050998 C49.4890466,17.8664967 49.5126608,16.8872949 49.446541,16.2308204 C49.2308647,14.0598891 48.2925942,6.06727273 48.2925942,6.06727273 L48.2941685,6.05467849 Z" id="path2999" fill="#9E9FA1"></path>
                <path d="M45.4872284,3.335898 L43.1509978,3.34691796 L43.1887805,17.3690244 C43.1887805,17.3690244 43.1887805,18.3513747 42.3733038,18.3655432 C41.5578271,18.3797118 41.2099113,18.663082 41.2099113,19.2030599 C41.2099113,19.7430377 41.1957428,20.4813747 41.1957428,20.4813747 L43.7019956,20.4813747 C44.7473171,20.4813747 45.5092683,19.8422173 45.5092683,18.7496674 C45.5092683,16.6322616 45.4856541,3.335898 45.4856541,3.335898 L45.4872284,3.335898 Z" id="path3001" fill="#9E9FA1"></path>
                <path d="M61.4630155,3.35478936 L63.8653659,3.35478936 L63.8653659,10.4516408 L70.8504435,10.4516408 L70.8504435,12.4462528 L67.81051,12.4462528 C68.0167406,13.2176497 69.0998448,17.1801109 70.4143681,20.4089579 L68.6653437,20.4498891 C67.985255,20.4656319 67.6798448,19.7351663 67.5145455,19.1999113 C67.1319956,17.9593792 65.6553215,13.3420177 65.3688027,12.4462528 L63.8669401,12.4462528 L63.8669401,20.5034146 L61.4630155,20.5034146 L61.4630155,12.4462528 L60.1374723,12.4462528 C59.8509534,13.3420177 58.3742794,17.9562306 57.9917295,19.1999113 C57.8343016,19.7351663 57.5194457,20.4593348 56.8409313,20.4498891 L55.0997783,20.4105322 C56.4158758,17.1816851 57.4974058,13.2192239 57.7036364,12.4478271 L54.3661641,12.4478271 L54.3661641,10.4516408 L61.4630155,10.4516408 L61.4630155,3.35478936 L61.4630155,3.35478936 Z" id="path3003" fill="#9E9FA1"></path>
                <path d="M57.9870067,4.30250554 L55.7531042,4.30250554 L57.4737916,7.95325942 C57.8106874,8.66640798 58.1869401,9.18277162 59.0354767,9.20166297 L60.3468514,9.23 C59.4460186,7.64444765 58.6569613,5.99794795 57.9854324,4.30250554 L57.9870067,4.30250554 Z" id="path3005" fill="#9E9FA1"></path>
                <path d="M67.331929,4.30250554 L69.5642572,4.30250554 L67.8514412,7.95168514 C67.5145455,8.6648337 67.1382927,9.18119734 66.2897561,9.20008869 L64.9783814,9.22842572 C65.879246,7.64288999 66.6683044,5.99638803 67.3398004,4.30093126 L67.331929,4.30250554 Z" id="path3007" fill="#9E9FA1"></path>
                <path d="M43.1887805,23.4063858 C42.9213775,23.4011596 42.6550817,23.4421692 42.4016408,23.5276053 C42.196812,23.5944208 42.0147059,23.717097 41.8758315,23.8818182 C41.7447208,24.059784 41.6563752,24.2655644 41.6176497,24.4831929 L42.1985588,24.5619069 C42.2349729,24.3591231 42.3393572,24.1747849 42.4945233,24.0392461 C42.6805742,23.9290972 42.8960917,23.8790664 43.1116408,23.8959867 C43.3538249,23.8783531 43.5940803,23.9500377 43.7870067,24.0974945 C43.9135833,24.2361964 43.9748761,24.4223662 43.9554545,24.6091353 C43.9554545,24.6311752 43.9554545,24.6815521 43.9554545,24.7665632 C43.6111435,24.8705404 43.2572494,24.9396315 42.8991131,24.9727938 C42.7215985,24.9915271 42.5454505,25.0214985 42.3717295,25.0625277 C42.2192975,25.103792 42.0746497,25.1697344 41.9435255,25.2577384 C41.6762185,25.4390316 41.5177439,25.7423804 41.5216186,26.0653437 C41.5120829,26.3402044 41.6244361,26.6052428 41.8286031,26.7895122 C42.0781108,26.9913906 42.3947103,27.0914878 42.7149224,27.0697339 C42.9384954,27.0711092 43.1604389,27.0316289 43.3698226,26.9532373 C43.6038108,26.858161 43.8199401,26.7240118 44.00898,26.5565188 C44.0216076,26.7066337 44.0610649,26.8532655 44.1254767,26.9894457 L44.7551885,26.9894457 C44.6792818,26.860391 44.6260363,26.7192903 44.5977605,26.5722616 C44.5642394,26.223316 44.5521472,25.8726432 44.5615521,25.5222173 L44.5615521,24.7350776 C44.5671589,24.551517 44.55821,24.3678008 44.5347894,24.1856541 C44.5068643,24.0388807 44.4436495,23.901105 44.3505987,23.7842129 C44.2365142,23.6617418 44.0928524,23.5706656 43.9334146,23.5197339 C43.6985532,23.4419465 43.4518015,23.4062394 43.2045233,23.4142572 L43.1887805,23.4063858 Z M46.8962084,23.4063858 C46.4938903,23.3947118 46.1014399,23.5320695 45.7942129,23.7920843 C45.4337029,24.1069401 45.2510865,24.5792239 45.2510865,25.2341242 C45.2510865,25.8260532 45.4085144,26.2825942 45.7044789,26.5958758 C46.0176719,26.9148039 46.4511583,27.0863684 46.8977827,27.0681596 C47.1930601,27.0719623 47.4842967,26.9992887 47.7431707,26.8572062 C47.9962042,26.7204855 48.2024018,26.5109976 48.3350998,26.2558315 C48.4847691,25.9207224 48.5532689,25.5550304 48.5350333,25.1884701 C48.5350333,24.6322247 48.3818034,24.1956245 48.0753437,23.8786696 C47.7674497,23.5615373 47.3394835,23.3898931 46.8977827,23.4063858 L46.8962084,23.4063858 Z M50.8319069,23.4063858 C50.4000466,23.3928308 49.9935388,23.6098747 49.7645455,23.9762749 L49.7645455,23.4850998 L49.2371619,23.4850998 L49.2371619,26.9862971 L49.8290909,26.9862971 L49.8290909,25.1695787 C49.8186581,24.9214497 49.8506013,24.673358 49.9235477,24.4359645 C49.9816944,24.2753964 50.0927271,24.1393813 50.2384035,24.0502661 C50.3797962,23.9615895 50.5438046,23.9156671 50.7106874,23.9180266 C50.8914264,23.902878 51.0680445,23.9776463 51.1829712,24.1179601 C51.2911707,24.2977334 51.3396674,24.5071508 51.3215078,24.7161863 L51.3215078,26.9925942 L51.9181596,26.9925942 L51.9181596,24.9539024 C51.9181596,24.5933925 51.9984479,24.3241907 52.1605987,24.1667627 C52.3213558,24.0024424 52.5431853,23.9123419 52.7729933,23.9180266 C52.8991928,23.9146849 53.0237216,23.9474556 53.131929,24.0124834 C53.2275844,24.0709574 53.3003571,24.1603956 53.3381596,24.2659424 C53.3848386,24.4322717 53.4045051,24.6050178 53.396408,24.7775831 L53.396408,26.9815743 L53.988337,26.9815743 L53.988337,24.5839468 C53.988337,24.1840798 53.8954545,23.8833925 53.7081153,23.6913304 C53.4916373,23.4890287 53.2008093,23.3858133 52.9052328,23.4063858 C52.4615291,23.4054723 52.0500809,23.638108 51.8221286,24.0187805 C51.7586311,23.8319938 51.6337879,23.6721945 51.4679157,23.565388 C51.2778113,23.4527335 51.0589571,23.39802 50.838204,23.4079601 L50.8319069,23.4063858 Z M59.6667627,23.4063858 C59.3750914,23.4034863 59.0876393,23.4761629 58.8323947,23.6173392 C58.5742921,23.7600023 58.3714328,23.985032 58.2562084,24.2564967 C58.1261848,24.5711449 58.0634433,24.9095199 58.0720177,25.249867 C58.0720177,25.8354989 58.2184257,26.2825942 58.5096674,26.5958758 C58.8086801,26.9135751 59.2308417,27.0858859 59.6667627,27.0681596 C60.0198973,27.0798065 60.3646415,26.9590899 60.6333703,26.7296896 C60.9060164,26.4846549 61.080533,26.1490461 61.1245455,25.785122 L60.5389135,25.706408 C60.5202562,25.954083 60.4155558,26.1874312 60.242949,26.366031 C60.082971,26.5111155 59.8732119,26.5889294 59.6573171,26.5832816 C59.3871706,26.5925898 59.1279271,26.476337 58.9551885,26.2684257 C58.7741463,26.0543237 58.6796896,25.7142794 58.6796896,25.2435698 C58.6796896,24.7728603 58.7772949,24.4391131 58.9646341,24.2250111 C59.1475576,24.0153363 59.4154729,23.8996061 59.6935255,23.9101552 C59.8787644,23.905944 60.0591187,23.9697961 60.2004435,24.0896231 C60.3519061,24.229142 60.4536248,24.4143364 60.4901109,24.6170067 L61.0662971,24.5319956 C61.015329,24.2088578 60.847216,23.9157807 60.5940133,23.7086475 C60.3284981,23.503849 60.0003809,23.3970719 59.6651885,23.4063858 L59.6667627,23.4063858 Z M63.0561863,23.4063858 C62.653845,23.3945623 62.2613426,23.5319382 61.9541907,23.7920843 C61.5936807,24.1069401 61.40949,24.5792239 61.40949,25.2341242 C61.40949,25.8260532 61.566918,26.2825942 61.8628825,26.5958758 C62.1760754,26.9148039 62.6095618,27.0863684 63.0561863,27.0681596 C63.3514637,27.0719623 63.6427002,26.9992887 63.9015743,26.8572062 C64.1546078,26.7204855 64.3608054,26.5109976 64.4935033,26.2558315 C64.6436558,25.9208354 64.7126934,25.5551517 64.6950111,25.1884701 C64.6950111,24.6322247 64.5417812,24.1956245 64.2353215,23.8786696 C63.9274275,23.5615373 63.4994614,23.3898931 63.0577605,23.4063858 L63.0561863,23.4063858 Z M66.9918847,23.4063858 C66.5600244,23.3928308 66.1535166,23.6098747 65.9245233,23.9762749 L65.9245233,23.4850998 L65.3971397,23.4850998 L65.3971397,26.9862971 L65.9890687,26.9862971 L65.9890687,25.1695787 C65.978636,24.9214497 66.0105791,24.673358 66.0835255,24.4359645 C66.1416722,24.2753964 66.2527049,24.1393813 66.3983814,24.0502661 C66.539774,23.9615895 66.7037824,23.9156671 66.8706652,23.9180266 C67.0514042,23.902878 67.2280224,23.9776463 67.342949,24.1179601 C67.4514006,24.2954448 67.5015016,24.5024555 67.4862084,24.7098891 L67.4862084,26.9862971 L68.0828603,26.9862971 L68.0828603,24.9539024 C68.0828603,24.5933925 68.1631486,24.3241907 68.3252993,24.1667627 C68.4860565,24.0024424 68.707886,23.9123419 68.937694,23.9180266 C69.0638833,23.9147724 69.188388,23.9475368 69.2966297,24.0124834 C69.392285,24.0709574 69.4650578,24.1603956 69.5028603,24.2659424 C69.5495393,24.4322717 69.5692057,24.6050178 69.5611086,24.7775831 L69.5611086,26.9815743 L70.1530377,26.9815743 L70.1530377,24.5839468 C70.1530377,24.1840798 70.0601552,23.8833925 69.872816,23.6913304 C69.656338,23.4890287 69.3655099,23.3858133 69.0699335,23.4063858 C68.6262297,23.4054723 68.2147816,23.638108 67.9868293,24.0187805 C67.9233318,23.8319938 67.7984886,23.6721945 67.6326164,23.565388 C67.4425119,23.4527335 67.2236578,23.39802 67.0029047,23.4079601 L66.9918847,23.4063858 Z M36.5280044,23.4850998 L37.7102882,25.1648559 L36.4319734,26.9862971 L37.1529933,26.9862971 L38.0723725,25.6025055 L38.2675831,25.8984701 L38.9854545,26.9862971 L39.7143459,26.9862971 L38.4092683,25.1333703 L39.6183149,23.4850998 L38.9114634,23.4850998 L38.3195344,24.3084479 C38.2376718,24.4202217 38.1526608,24.5540355 38.0550554,24.6988692 C37.9936585,24.5933925 37.9086475,24.4595787 37.8063193,24.3021508 L37.2679157,23.4835255 L36.5280044,23.4850998 Z M40.2086696,23.4850998 L40.2086696,26.9862971 L40.8053215,26.9862971 L40.8053215,23.4850998 L40.2086696,23.4850998 Z M54.8778049,23.4850998 L54.8778049,26.9862971 L55.4697339,26.9862971 L55.4697339,23.4850998 L54.8778049,23.4850998 Z M46.899357,23.897561 C47.1812095,23.8932731 47.4502482,24.015091 47.6329712,24.2297339 C47.8297561,24.4532816 47.9289357,24.7838803 47.9289357,25.2168071 C47.9289357,25.6764967 47.8297561,26.016541 47.6329712,26.241663 C47.4524459,26.4599401 47.1825807,26.5844487 46.899357,26.580133 C46.6142768,26.5847632 46.3423587,26.4603751 46.1594457,26.241663 C45.964235,26.0181153 45.8634812,25.6812195 45.8634812,25.2325499 C45.8634812,24.7838803 45.9626608,24.4454102 46.1594457,24.2297339 C46.3428731,24.0142318 46.6132608,23.8923262 46.8962084,23.897561 L46.899357,23.897561 Z M63.0577605,23.897561 C63.3396131,23.8932731 63.6086518,24.015091 63.7913747,24.2297339 C63.9881596,24.4532816 64.0873392,24.7838803 64.0873392,25.2168071 C64.0873392,25.6764967 63.9881596,26.016541 63.7913747,26.241663 C63.6108494,26.4599401 63.3409842,26.5844487 63.0577605,26.580133 C62.7726803,26.5847632 62.5007622,26.4603751 62.3178492,26.241663 C62.1226386,26.0181153 62.0218847,25.6812195 62.0218847,25.2325499 C62.0218847,24.7838803 62.1210643,24.4454102 62.3178492,24.2297339 C62.5012766,24.0142318 62.7716643,23.8923262 63.054612,23.897561 L63.0577605,23.897561 Z M43.9460089,25.2278271 L43.9460089,25.4450776 C43.9567629,25.6483875 43.9245789,25.8516831 43.8515521,26.0417295 C43.7641554,26.2162337 43.623581,26.3584619 43.4501109,26.4478936 C43.2622703,26.5495033 43.0512279,26.6005007 42.8377162,26.5958758 C42.6500492,26.6095965 42.4639249,26.5535349 42.3150554,26.4384479 C42.1984076,26.3400845 42.1324493,26.1942818 42.1355876,26.0417295 C42.1332051,25.9425515 42.1606244,25.8449387 42.2143016,25.7615078 C42.2724534,25.6743262 42.3551911,25.6063827 42.4520177,25.5662971 C42.6195093,25.507328 42.7933453,25.4682281 42.9699557,25.4498004 C43.2998631,25.4119981 43.6242487,25.3359207 43.9365632,25.2231042 L43.9460089,25.2278271 Z M56.5402439,26.3109313 L56.5402439,26.9862971 L57.2156098,26.9862971 L57.2156098,26.3109313 L56.5402439,26.3109313 Z" id="text3045" fill="#9E9FA1"></path>
            </g>
        </g>
    </g>
</svg>