<?xml version="1.0" encoding="UTF-8"?>
<svg width="71px" height="21px" viewBox="0 0 71 21" version="1.1" xmlns="http://www.w3.org/2000/svg" xmlns:xlink="http://www.w3.org/1999/xlink">
    <!-- Generator: Sketch 56.3 (81716) - https://sketch.com -->
    <title>yanolja</title>
    <desc>Created with Sketch.</desc>
    <g id="Page-1" stroke="none" stroke-width="1" fill="none" fill-rule="evenodd">
        <g id="ν† ν”½μ„ΈνΈ" transform="translate(-533.000000, -690.000000)" fill="#FF3478" fill-rule="nonzero">
            <g id="yanolja" transform="translate(533.000000, 690.000000)">
                <path d="M45.2534307,4.79379562 C44.3992696,4.30181334 43.4302373,4.04435826 42.4445255,4.04748951 C41.0966704,4.04700857 39.7993246,4.56038684 38.8167883,5.48306569 C37.6331375,6.52097929 36.9691226,8.02924169 37.0029197,9.60313869 C36.9764794,11.0735369 37.5555044,12.4901807 38.6043066,13.5210949 C39.6162604,14.5744306 41.0202959,15.1600711 42.4808029,15.1380292 C43.4691106,15.1464214 44.4419553,14.8924804 45.300073,14.4021168 C46.1449334,13.9199411 46.843393,13.2178996 47.3212409,12.3705839 C47.8105983,11.5212405 48.0662977,10.5574504 48.0623954,9.57722628 C48.0715775,7.59448257 47.0066654,5.76211994 45.2793431,4.78861314 L45.2534307,4.79379562 Z M44.5693431,11.8056934 C44.0234732,12.3628195 43.2763269,12.6767735 42.4963504,12.6767735 C41.7163739,12.6767735 40.9692275,12.3628195 40.4233577,11.8056934 C39.8670055,11.1982966 39.5743791,10.3949718 39.609708,9.5720438 C39.5822142,8.7674146 39.8748013,7.98469759 40.4233577,7.39540146 C40.9713198,6.84217421 41.717683,6.53092792 42.4963504,6.53092792 C43.2750177,6.53092792 44.021381,6.84217421 44.5693431,7.39540146 C45.1228822,7.99204131 45.415716,8.78474412 45.3829927,9.5979562 C45.4165339,10.4128471 45.1236825,11.2074628 44.5693431,11.8056934 Z" id="Shape"></path>
                <rect id="Rectangle" x="49.8658394" y="0" width="2.63270073" height="15.039562"></rect>
                <path d="M57.6654783,4.1459854 L55.0327737,4.1459854 L55.0327737,13.6091971 C55.0327737,16.3921898 54.8772993,17.3405839 52.7472993,17.5219708 L52.7472993,20.2116788 C57.7017518,20.2116788 57.6654783,16.1693431 57.6654783,14.3554745 L57.6654783,4.1459854 Z" id="Path"></path>
                <path d="M21.870073,5.65927007 C20.2828382,4.07171898 17.8944543,3.59895406 15.8221168,4.46211679 C15.1527376,4.74118382 14.5451108,5.14979083 14.0341606,5.66445255 C13.5156109,6.17818191 13.1065943,6.79170674 12.8318248,7.4679562 C11.6579507,10.2972523 12.9956066,13.5428644 15.8221168,14.7234307 C16.4980779,15.0070556 17.2242533,15.1515857 17.9572993,15.1484459 C19.0663869,15.1340395 20.1290272,14.7008377 20.9320438,13.9356934 L20.9320438,15.0291971 L23.4973807,15.0291971 L23.4973807,9.59277372 C23.4986381,8.86428164 23.3578096,8.14253575 23.0827737,7.4679562 C22.8026652,6.79050856 22.3904092,6.17564814 21.870073,5.65927007 Z M20.6988321,10.7484672 C20.392327,11.4769446 19.8089869,12.0538253 19.077142,12.3522003 C18.345297,12.6505754 17.5248971,12.646003 16.7964234,12.3394891 C16.0819349,12.0324197 15.5124708,11.4629556 15.2054015,10.7484672 C14.8938637,10.005902 14.8938637,9.1692805 15.2054015,8.42671533 C15.3541217,8.06778809 15.5725437,7.74191648 15.8480292,7.4679562 C16.1197061,7.1945254 16.4417673,6.97629816 16.7964234,6.82532847 C17.5359748,6.51668217 18.3682588,6.51668217 19.1078102,6.82532847 C19.8282732,7.1288779 20.3999674,7.70429644 20.6988321,8.42671533 C20.8545317,8.79565955 20.9338649,9.19232537 20.9320745,9.59277372 C20.9337588,9.98986082 20.8544017,10.3831191 20.6988321,10.7484672 L20.6988321,10.7484672 Z" id="Shape"></path>
                <path d="M68.9632847,5.65927007 C67.3750929,4.06952474 64.9839221,3.5966134 62.910146,4.46211679 C61.555854,5.03031048 60.481017,6.1107359 59.919854,7.4679562 C58.7459799,10.2972523 60.0836358,13.5428644 62.910146,14.7234307 C63.5861487,15.0069196 64.3122962,15.1514441 65.0453285,15.1484414 C66.156213,15.1353438 67.2209334,14.7020489 68.0252555,13.9356934 L68.0252555,15.0291971 L70.5854211,15.0291971 L70.5854211,9.59277372 C70.5873342,8.86421793 70.4464807,8.14234409 70.1708029,7.4679562 C69.8937198,6.79015321 69.4830608,6.17504595 68.9632847,5.65927007 Z M67.7920438,10.7484672 C67.4890654,11.465719 66.9182737,12.0365106 66.2010219,12.3394891 C65.0852027,12.8115592 63.794412,12.5570949 62.9412409,11.6968613 C62.6665317,11.4242525 62.4481715,11.1002342 62.2986131,10.7432847 C61.9864908,10.0008373 61.9864908,9.16398023 62.2986131,8.42153285 C62.4469666,8.0624093 62.6654344,7.7364693 62.9412409,7.46277372 C63.2130849,7.18954464 63.5351044,6.97134568 63.889635,6.82014599 C64.6290705,6.51092093 65.4615865,6.51092093 66.2010219,6.82014599 C66.922449,7.12226523 67.4946155,7.69815912 67.7920438,8.42153285 C67.947469,8.79056141 68.0267908,9.18717058 68.0253031,9.58759124 C68.0275313,9.98640796 67.9481659,10.3814714 67.7920438,10.7484672 L67.7920438,10.7484672 Z" id="Shape"></path>
                <path d="M28.2134307,9.74824818 L28.2134307,15.0291971 L25.5859124,15.0291971 L25.5859124,4.1459854 L28.2393431,4.1459854 L28.2393431,5.09437956 C28.4121532,4.92727136 28.605445,4.78273786 28.8145985,4.66423358 C29.0466557,4.53050961 29.2893237,4.41610895 29.540146,4.32218978 C29.7894536,4.23140024 30.0460535,4.16204893 30.3071533,4.11489051 C30.558315,4.06727074 30.8133427,4.04298239 31.0689781,4.04223761 C31.5978216,4.03891808 32.1234501,4.12477073 32.6237226,4.29627737 C33.1062392,4.46550758 33.5489498,4.73183945 33.9245255,5.07883212 C34.3271474,5.46297854 34.641847,5.92972391 34.8470073,6.4470073 C35.0902914,7.08529279 35.2081866,7.76450979 35.1942336,8.44744526 L35.1942336,15.0291971 L32.5615328,15.0291971 L32.5615328,9.13153285 C32.5615328,8.83094891 32.5615328,8.5770073 32.530438,8.36970803 L32.530438,8.36970803 C32.530438,8.24014599 32.4734307,7.99656934 32.4734307,7.99656934 C32.294173,7.00747973 31.403804,6.3085401 30.400438,6.36927007 C29.5920335,6.42858861 28.8777073,6.91733812 28.529562,7.64934307 C28.2603844,8.31432528 28.1520672,9.03348075 28.2134307,9.74824818 Z" id="Path"></path>
                <polygon id="Path" points="7.55087591 14.8685401 12.2151095 4.13562044 9.20408759 4.13562044 6.09459854 11.4843796 3.01620438 4.13562044 0 4.13562044 4.6279562 14.8685401 2.30620438 20.1961314 5.23948905 20.1961314 7.55087591 14.8685401 7.55605839 14.8685401"></polygon>
            </g>
        </g>
    </g>
</svg>